M48
; DRILL file {KiCad 5.1.5-52549c5~84~ubuntu18.04.1} date Wed 18 Mar 2020 11:04:04 ACST
; FORMAT={-:-/ absolute / metric / decimal}
; #@! TF.CreationDate,2020-03-18T11:04:04+09:30
; #@! TF.GenerationSoftware,Kicad,Pcbnew,5.1.5-52549c5~84~ubuntu18.04.1
; #@! TF.FileFunction,Plated,1,2,PTH
FMAT,2
METRIC
T1C0.300
T2C0.400
T3C1.500
T4C3.000
%
G90
G05
T1
X186.69Y-52.235
X186.69Y-54.445
X161.645Y-52.235
X161.645Y-54.445
T2
X157.48Y-44.45
X157.48Y-63.5
X158.75Y-44.45
X158.75Y-63.5
X165.1Y-43.18
X165.1Y-46.99
X166.37Y-43.18
X166.37Y-46.99
X168.91Y-49.53
X170.18Y-50.8
X173.99Y-54.61
X184.38Y-37.87
X185.18Y-38.34
X185.42Y-46.99
X186.69Y-46.99
X195.58Y-36.83
X196.85Y-36.83
X198.12Y-36.83
X199.39Y-36.83
X199.39Y-44.45
X200.66Y-36.83
X200.66Y-44.45
T3
X139.7Y-53.34
X199.39Y-53.34
T4
X135.35Y-48.99
X135.35Y-57.69
X144.05Y-48.99
X144.05Y-57.69
X195.04Y-48.99
X195.04Y-57.69
X203.74Y-48.99
X203.74Y-57.69
T0
M30
