G04 #@! TF.GenerationSoftware,KiCad,Pcbnew,5.1.5-52549c5~84~ubuntu18.04.1*
G04 #@! TF.CreationDate,2020-03-18T11:06:09+09:30*
G04 #@! TF.ProjectId,Frontend V2,46726f6e-7465-46e6-9420-56322e6b6963,rev?*
G04 #@! TF.SameCoordinates,Original*
G04 #@! TF.FileFunction,Legend,Top*
G04 #@! TF.FilePolarity,Positive*
%FSLAX46Y46*%
G04 Gerber Fmt 4.6, Leading zero omitted, Abs format (unit mm)*
G04 Created by KiCad (PCBNEW 5.1.5-52549c5~84~ubuntu18.04.1) date 2020-03-18 11:06:09*
%MOMM*%
%LPD*%
G04 APERTURE LIST*
%ADD10C,0.120000*%
G04 APERTURE END LIST*
D10*
X171450000Y-48260000D02*
X171450000Y-43180000D01*
X171450000Y-43180000D02*
X172720000Y-43180000D01*
X171450000Y-48260000D02*
X172720000Y-48260000D01*
X181610000Y-48260000D02*
X180340000Y-48260000D01*
X180340000Y-48260000D02*
X181610000Y-48260000D01*
X181610000Y-48260000D02*
X181610000Y-43180000D01*
X181610000Y-43180000D02*
X180340000Y-43180000D01*
X195710000Y-51540000D02*
X195710000Y-55140000D01*
X197590000Y-49660000D02*
X201190000Y-49660000D01*
X203070000Y-51540000D02*
X203070000Y-55140000D01*
X197590000Y-57020000D02*
X201190000Y-57020000D01*
X203200000Y-46990000D02*
X205740000Y-46990000D01*
X205740000Y-46990000D02*
X205740000Y-49530000D01*
X193040000Y-49530000D02*
X193040000Y-46990000D01*
X193040000Y-46990000D02*
X195580000Y-46990000D01*
X195580000Y-46990000D02*
X203200000Y-46990000D01*
X205740000Y-49530000D02*
X205740000Y-59690000D01*
X205740000Y-59690000D02*
X193040000Y-59690000D01*
X193040000Y-59690000D02*
X193040000Y-49530000D01*
X133350000Y-59690000D02*
X133350000Y-49530000D01*
X146050000Y-59690000D02*
X133350000Y-59690000D01*
X146050000Y-49530000D02*
X146050000Y-59690000D01*
X135890000Y-46990000D02*
X143510000Y-46990000D01*
X133350000Y-46990000D02*
X135890000Y-46990000D01*
X133350000Y-49530000D02*
X133350000Y-46990000D01*
X146050000Y-46990000D02*
X146050000Y-49530000D01*
X143510000Y-46990000D02*
X146050000Y-46990000D01*
X137900000Y-57020000D02*
X141500000Y-57020000D01*
X143380000Y-51540000D02*
X143380000Y-55140000D01*
X137900000Y-49660000D02*
X141500000Y-49660000D01*
X136020000Y-51540000D02*
X136020000Y-55140000D01*
X149598748Y-56590000D02*
X150121252Y-56590000D01*
X149598748Y-55170000D02*
X150121252Y-55170000D01*
X150121252Y-51360000D02*
X149598748Y-51360000D01*
X150121252Y-52780000D02*
X149598748Y-52780000D01*
X155201252Y-55170000D02*
X154678748Y-55170000D01*
X155201252Y-56590000D02*
X154678748Y-56590000D01*
X154433748Y-52780000D02*
X154956252Y-52780000D01*
X154433748Y-51360000D02*
X154956252Y-51360000D01*
X167656252Y-55170000D02*
X167133748Y-55170000D01*
X167656252Y-56590000D02*
X167133748Y-56590000D01*
X167133748Y-52780000D02*
X167656252Y-52780000D01*
X167133748Y-51360000D02*
X167656252Y-51360000D01*
X168648748Y-43890000D02*
X169171252Y-43890000D01*
X168648748Y-42470000D02*
X169171252Y-42470000D01*
X169171252Y-46280000D02*
X168648748Y-46280000D01*
X169171252Y-47700000D02*
X168648748Y-47700000D01*
X171956252Y-51360000D02*
X171433748Y-51360000D01*
X171956252Y-52780000D02*
X171433748Y-52780000D01*
X180601252Y-55170000D02*
X180078748Y-55170000D01*
X180601252Y-56590000D02*
X180078748Y-56590000D01*
X180078748Y-52780000D02*
X180601252Y-52780000D01*
X180078748Y-51360000D02*
X180601252Y-51360000D01*
X189736252Y-46280000D02*
X189213748Y-46280000D01*
X189736252Y-47700000D02*
X189213748Y-47700000D01*
X157190000Y-49260000D02*
X153290000Y-49260000D01*
X157190000Y-47260000D02*
X153290000Y-47260000D01*
X157190000Y-49260000D02*
X157190000Y-47260000D01*
X152110000Y-49260000D02*
X148210000Y-49260000D01*
X152110000Y-47260000D02*
X148210000Y-47260000D01*
X152110000Y-49260000D02*
X152110000Y-47260000D01*
X146720000Y-43450000D02*
X150620000Y-43450000D01*
X146720000Y-45450000D02*
X150620000Y-45450000D01*
X146720000Y-43450000D02*
X146720000Y-45450000D01*
X152690000Y-43450000D02*
X156590000Y-43450000D01*
X152690000Y-45450000D02*
X156590000Y-45450000D01*
X152690000Y-43450000D02*
X152690000Y-45450000D01*
X153070000Y-58690000D02*
X156970000Y-58690000D01*
X153070000Y-60690000D02*
X156970000Y-60690000D01*
X153070000Y-58690000D02*
X153070000Y-60690000D01*
X147990000Y-58690000D02*
X151890000Y-58690000D01*
X147990000Y-60690000D02*
X151890000Y-60690000D01*
X147990000Y-58690000D02*
X147990000Y-60690000D01*
X151730000Y-64500000D02*
X147830000Y-64500000D01*
X151730000Y-62500000D02*
X147830000Y-62500000D01*
X151730000Y-64500000D02*
X151730000Y-62500000D01*
X157570000Y-64500000D02*
X153670000Y-64500000D01*
X157570000Y-62500000D02*
X153670000Y-62500000D01*
X157570000Y-64500000D02*
X157570000Y-62500000D01*
X160735000Y-52180000D02*
X159505000Y-52180000D01*
X160735000Y-52430000D02*
X160735000Y-52180000D01*
X160735000Y-54250000D02*
X161075000Y-54250000D01*
X160735000Y-52430000D02*
X161075000Y-52430000D01*
X162215000Y-54250000D02*
X162555000Y-54250000D01*
X162215000Y-52430000D02*
X162555000Y-52430000D01*
X185780000Y-52180000D02*
X184550000Y-52180000D01*
X185780000Y-52430000D02*
X185780000Y-52180000D01*
X185780000Y-54250000D02*
X186120000Y-54250000D01*
X185780000Y-52430000D02*
X186120000Y-52430000D01*
X187260000Y-54250000D02*
X187600000Y-54250000D01*
X187260000Y-52430000D02*
X187600000Y-52430000D01*
X172490000Y-53490000D02*
X174490000Y-53490000D01*
X174490000Y-55730000D02*
X173490000Y-55730000D01*
X185740000Y-36990000D02*
X191750000Y-36990000D01*
X187990000Y-43810000D02*
X191750000Y-43810000D01*
X191750000Y-36990000D02*
X191750000Y-38250000D01*
X191750000Y-43810000D02*
X191750000Y-42550000D01*
X200480000Y-42090000D02*
X200480000Y-39190000D01*
X203380000Y-42090000D02*
X200480000Y-42090000D01*
X203380000Y-39190000D02*
X203380000Y-42090000D01*
X200480000Y-39190000D02*
X203380000Y-39190000D01*
X200480000Y-35380000D02*
X203380000Y-35380000D01*
X203380000Y-35380000D02*
X203380000Y-38280000D01*
X203380000Y-38280000D02*
X200480000Y-38280000D01*
X200480000Y-38280000D02*
X200480000Y-35380000D01*
X196833748Y-43740000D02*
X197356252Y-43740000D01*
X196833748Y-45160000D02*
X197356252Y-45160000D01*
M02*
