G04 #@! TF.GenerationSoftware,KiCad,Pcbnew,5.1.5-52549c5~84~ubuntu18.04.1*
G04 #@! TF.CreationDate,2020-03-18T11:06:09+09:30*
G04 #@! TF.ProjectId,Frontend V2,46726f6e-7465-46e6-9420-56322e6b6963,rev?*
G04 #@! TF.SameCoordinates,Original*
G04 #@! TF.FileFunction,Copper,L1,Top*
G04 #@! TF.FilePolarity,Positive*
%FSLAX46Y46*%
G04 Gerber Fmt 4.6, Leading zero omitted, Abs format (unit mm)*
G04 Created by KiCad (PCBNEW 5.1.5-52549c5~84~ubuntu18.04.1) date 2020-03-18 11:06:09*
%MOMM*%
%LPD*%
G04 APERTURE LIST*
%ADD10R,1.650000X2.540000*%
%ADD11C,3.500000*%
%ADD12C,2.050000*%
%ADD13C,0.100000*%
%ADD14R,0.900000X1.200000*%
%ADD15C,0.610000*%
%ADD16R,0.500000X0.250000*%
%ADD17R,0.900000X1.600000*%
%ADD18R,2.000000X1.500000*%
%ADD19R,2.000000X3.800000*%
%ADD20R,2.500000X2.500000*%
%ADD21C,0.800000*%
%ADD22C,3.200000*%
%ADD23C,1.500000*%
%ADD24C,0.750000*%
%ADD25C,0.250000*%
G04 APERTURE END LIST*
D10*
X179070000Y-43180000D03*
X176530000Y-43180000D03*
X173990000Y-43180000D03*
X173990000Y-48260000D03*
X176530000Y-48260000D03*
X179070000Y-48260000D03*
D11*
X203740000Y-48990000D03*
X195040000Y-48990000D03*
X195040000Y-57690000D03*
D12*
X199390000Y-53340000D03*
D11*
X203740000Y-57690000D03*
X144050000Y-57690000D03*
D12*
X139700000Y-53340000D03*
D11*
X135350000Y-57690000D03*
X135350000Y-48990000D03*
X144050000Y-48990000D03*
G04 #@! TA.AperFunction,SMDPad,CuDef*
D13*
G36*
X151234505Y-55181204D02*
G01*
X151258773Y-55184804D01*
X151282572Y-55190765D01*
X151305671Y-55199030D01*
X151327850Y-55209520D01*
X151348893Y-55222132D01*
X151368599Y-55236747D01*
X151386777Y-55253223D01*
X151403253Y-55271401D01*
X151417868Y-55291107D01*
X151430480Y-55312150D01*
X151440970Y-55334329D01*
X151449235Y-55357428D01*
X151455196Y-55381227D01*
X151458796Y-55405495D01*
X151460000Y-55429999D01*
X151460000Y-56330001D01*
X151458796Y-56354505D01*
X151455196Y-56378773D01*
X151449235Y-56402572D01*
X151440970Y-56425671D01*
X151430480Y-56447850D01*
X151417868Y-56468893D01*
X151403253Y-56488599D01*
X151386777Y-56506777D01*
X151368599Y-56523253D01*
X151348893Y-56537868D01*
X151327850Y-56550480D01*
X151305671Y-56560970D01*
X151282572Y-56569235D01*
X151258773Y-56575196D01*
X151234505Y-56578796D01*
X151210001Y-56580000D01*
X150559999Y-56580000D01*
X150535495Y-56578796D01*
X150511227Y-56575196D01*
X150487428Y-56569235D01*
X150464329Y-56560970D01*
X150442150Y-56550480D01*
X150421107Y-56537868D01*
X150401401Y-56523253D01*
X150383223Y-56506777D01*
X150366747Y-56488599D01*
X150352132Y-56468893D01*
X150339520Y-56447850D01*
X150329030Y-56425671D01*
X150320765Y-56402572D01*
X150314804Y-56378773D01*
X150311204Y-56354505D01*
X150310000Y-56330001D01*
X150310000Y-55429999D01*
X150311204Y-55405495D01*
X150314804Y-55381227D01*
X150320765Y-55357428D01*
X150329030Y-55334329D01*
X150339520Y-55312150D01*
X150352132Y-55291107D01*
X150366747Y-55271401D01*
X150383223Y-55253223D01*
X150401401Y-55236747D01*
X150421107Y-55222132D01*
X150442150Y-55209520D01*
X150464329Y-55199030D01*
X150487428Y-55190765D01*
X150511227Y-55184804D01*
X150535495Y-55181204D01*
X150559999Y-55180000D01*
X151210001Y-55180000D01*
X151234505Y-55181204D01*
G37*
G04 #@! TD.AperFunction*
G04 #@! TA.AperFunction,SMDPad,CuDef*
G36*
X149184505Y-55181204D02*
G01*
X149208773Y-55184804D01*
X149232572Y-55190765D01*
X149255671Y-55199030D01*
X149277850Y-55209520D01*
X149298893Y-55222132D01*
X149318599Y-55236747D01*
X149336777Y-55253223D01*
X149353253Y-55271401D01*
X149367868Y-55291107D01*
X149380480Y-55312150D01*
X149390970Y-55334329D01*
X149399235Y-55357428D01*
X149405196Y-55381227D01*
X149408796Y-55405495D01*
X149410000Y-55429999D01*
X149410000Y-56330001D01*
X149408796Y-56354505D01*
X149405196Y-56378773D01*
X149399235Y-56402572D01*
X149390970Y-56425671D01*
X149380480Y-56447850D01*
X149367868Y-56468893D01*
X149353253Y-56488599D01*
X149336777Y-56506777D01*
X149318599Y-56523253D01*
X149298893Y-56537868D01*
X149277850Y-56550480D01*
X149255671Y-56560970D01*
X149232572Y-56569235D01*
X149208773Y-56575196D01*
X149184505Y-56578796D01*
X149160001Y-56580000D01*
X148509999Y-56580000D01*
X148485495Y-56578796D01*
X148461227Y-56575196D01*
X148437428Y-56569235D01*
X148414329Y-56560970D01*
X148392150Y-56550480D01*
X148371107Y-56537868D01*
X148351401Y-56523253D01*
X148333223Y-56506777D01*
X148316747Y-56488599D01*
X148302132Y-56468893D01*
X148289520Y-56447850D01*
X148279030Y-56425671D01*
X148270765Y-56402572D01*
X148264804Y-56378773D01*
X148261204Y-56354505D01*
X148260000Y-56330001D01*
X148260000Y-55429999D01*
X148261204Y-55405495D01*
X148264804Y-55381227D01*
X148270765Y-55357428D01*
X148279030Y-55334329D01*
X148289520Y-55312150D01*
X148302132Y-55291107D01*
X148316747Y-55271401D01*
X148333223Y-55253223D01*
X148351401Y-55236747D01*
X148371107Y-55222132D01*
X148392150Y-55209520D01*
X148414329Y-55199030D01*
X148437428Y-55190765D01*
X148461227Y-55184804D01*
X148485495Y-55181204D01*
X148509999Y-55180000D01*
X149160001Y-55180000D01*
X149184505Y-55181204D01*
G37*
G04 #@! TD.AperFunction*
G04 #@! TA.AperFunction,SMDPad,CuDef*
G36*
X149184505Y-51371204D02*
G01*
X149208773Y-51374804D01*
X149232572Y-51380765D01*
X149255671Y-51389030D01*
X149277850Y-51399520D01*
X149298893Y-51412132D01*
X149318599Y-51426747D01*
X149336777Y-51443223D01*
X149353253Y-51461401D01*
X149367868Y-51481107D01*
X149380480Y-51502150D01*
X149390970Y-51524329D01*
X149399235Y-51547428D01*
X149405196Y-51571227D01*
X149408796Y-51595495D01*
X149410000Y-51619999D01*
X149410000Y-52520001D01*
X149408796Y-52544505D01*
X149405196Y-52568773D01*
X149399235Y-52592572D01*
X149390970Y-52615671D01*
X149380480Y-52637850D01*
X149367868Y-52658893D01*
X149353253Y-52678599D01*
X149336777Y-52696777D01*
X149318599Y-52713253D01*
X149298893Y-52727868D01*
X149277850Y-52740480D01*
X149255671Y-52750970D01*
X149232572Y-52759235D01*
X149208773Y-52765196D01*
X149184505Y-52768796D01*
X149160001Y-52770000D01*
X148509999Y-52770000D01*
X148485495Y-52768796D01*
X148461227Y-52765196D01*
X148437428Y-52759235D01*
X148414329Y-52750970D01*
X148392150Y-52740480D01*
X148371107Y-52727868D01*
X148351401Y-52713253D01*
X148333223Y-52696777D01*
X148316747Y-52678599D01*
X148302132Y-52658893D01*
X148289520Y-52637850D01*
X148279030Y-52615671D01*
X148270765Y-52592572D01*
X148264804Y-52568773D01*
X148261204Y-52544505D01*
X148260000Y-52520001D01*
X148260000Y-51619999D01*
X148261204Y-51595495D01*
X148264804Y-51571227D01*
X148270765Y-51547428D01*
X148279030Y-51524329D01*
X148289520Y-51502150D01*
X148302132Y-51481107D01*
X148316747Y-51461401D01*
X148333223Y-51443223D01*
X148351401Y-51426747D01*
X148371107Y-51412132D01*
X148392150Y-51399520D01*
X148414329Y-51389030D01*
X148437428Y-51380765D01*
X148461227Y-51374804D01*
X148485495Y-51371204D01*
X148509999Y-51370000D01*
X149160001Y-51370000D01*
X149184505Y-51371204D01*
G37*
G04 #@! TD.AperFunction*
G04 #@! TA.AperFunction,SMDPad,CuDef*
G36*
X151234505Y-51371204D02*
G01*
X151258773Y-51374804D01*
X151282572Y-51380765D01*
X151305671Y-51389030D01*
X151327850Y-51399520D01*
X151348893Y-51412132D01*
X151368599Y-51426747D01*
X151386777Y-51443223D01*
X151403253Y-51461401D01*
X151417868Y-51481107D01*
X151430480Y-51502150D01*
X151440970Y-51524329D01*
X151449235Y-51547428D01*
X151455196Y-51571227D01*
X151458796Y-51595495D01*
X151460000Y-51619999D01*
X151460000Y-52520001D01*
X151458796Y-52544505D01*
X151455196Y-52568773D01*
X151449235Y-52592572D01*
X151440970Y-52615671D01*
X151430480Y-52637850D01*
X151417868Y-52658893D01*
X151403253Y-52678599D01*
X151386777Y-52696777D01*
X151368599Y-52713253D01*
X151348893Y-52727868D01*
X151327850Y-52740480D01*
X151305671Y-52750970D01*
X151282572Y-52759235D01*
X151258773Y-52765196D01*
X151234505Y-52768796D01*
X151210001Y-52770000D01*
X150559999Y-52770000D01*
X150535495Y-52768796D01*
X150511227Y-52765196D01*
X150487428Y-52759235D01*
X150464329Y-52750970D01*
X150442150Y-52740480D01*
X150421107Y-52727868D01*
X150401401Y-52713253D01*
X150383223Y-52696777D01*
X150366747Y-52678599D01*
X150352132Y-52658893D01*
X150339520Y-52637850D01*
X150329030Y-52615671D01*
X150320765Y-52592572D01*
X150314804Y-52568773D01*
X150311204Y-52544505D01*
X150310000Y-52520001D01*
X150310000Y-51619999D01*
X150311204Y-51595495D01*
X150314804Y-51571227D01*
X150320765Y-51547428D01*
X150329030Y-51524329D01*
X150339520Y-51502150D01*
X150352132Y-51481107D01*
X150366747Y-51461401D01*
X150383223Y-51443223D01*
X150401401Y-51426747D01*
X150421107Y-51412132D01*
X150442150Y-51399520D01*
X150464329Y-51389030D01*
X150487428Y-51380765D01*
X150511227Y-51374804D01*
X150535495Y-51371204D01*
X150559999Y-51370000D01*
X151210001Y-51370000D01*
X151234505Y-51371204D01*
G37*
G04 #@! TD.AperFunction*
G04 #@! TA.AperFunction,SMDPad,CuDef*
G36*
X154264505Y-55181204D02*
G01*
X154288773Y-55184804D01*
X154312572Y-55190765D01*
X154335671Y-55199030D01*
X154357850Y-55209520D01*
X154378893Y-55222132D01*
X154398599Y-55236747D01*
X154416777Y-55253223D01*
X154433253Y-55271401D01*
X154447868Y-55291107D01*
X154460480Y-55312150D01*
X154470970Y-55334329D01*
X154479235Y-55357428D01*
X154485196Y-55381227D01*
X154488796Y-55405495D01*
X154490000Y-55429999D01*
X154490000Y-56330001D01*
X154488796Y-56354505D01*
X154485196Y-56378773D01*
X154479235Y-56402572D01*
X154470970Y-56425671D01*
X154460480Y-56447850D01*
X154447868Y-56468893D01*
X154433253Y-56488599D01*
X154416777Y-56506777D01*
X154398599Y-56523253D01*
X154378893Y-56537868D01*
X154357850Y-56550480D01*
X154335671Y-56560970D01*
X154312572Y-56569235D01*
X154288773Y-56575196D01*
X154264505Y-56578796D01*
X154240001Y-56580000D01*
X153589999Y-56580000D01*
X153565495Y-56578796D01*
X153541227Y-56575196D01*
X153517428Y-56569235D01*
X153494329Y-56560970D01*
X153472150Y-56550480D01*
X153451107Y-56537868D01*
X153431401Y-56523253D01*
X153413223Y-56506777D01*
X153396747Y-56488599D01*
X153382132Y-56468893D01*
X153369520Y-56447850D01*
X153359030Y-56425671D01*
X153350765Y-56402572D01*
X153344804Y-56378773D01*
X153341204Y-56354505D01*
X153340000Y-56330001D01*
X153340000Y-55429999D01*
X153341204Y-55405495D01*
X153344804Y-55381227D01*
X153350765Y-55357428D01*
X153359030Y-55334329D01*
X153369520Y-55312150D01*
X153382132Y-55291107D01*
X153396747Y-55271401D01*
X153413223Y-55253223D01*
X153431401Y-55236747D01*
X153451107Y-55222132D01*
X153472150Y-55209520D01*
X153494329Y-55199030D01*
X153517428Y-55190765D01*
X153541227Y-55184804D01*
X153565495Y-55181204D01*
X153589999Y-55180000D01*
X154240001Y-55180000D01*
X154264505Y-55181204D01*
G37*
G04 #@! TD.AperFunction*
G04 #@! TA.AperFunction,SMDPad,CuDef*
G36*
X156314505Y-55181204D02*
G01*
X156338773Y-55184804D01*
X156362572Y-55190765D01*
X156385671Y-55199030D01*
X156407850Y-55209520D01*
X156428893Y-55222132D01*
X156448599Y-55236747D01*
X156466777Y-55253223D01*
X156483253Y-55271401D01*
X156497868Y-55291107D01*
X156510480Y-55312150D01*
X156520970Y-55334329D01*
X156529235Y-55357428D01*
X156535196Y-55381227D01*
X156538796Y-55405495D01*
X156540000Y-55429999D01*
X156540000Y-56330001D01*
X156538796Y-56354505D01*
X156535196Y-56378773D01*
X156529235Y-56402572D01*
X156520970Y-56425671D01*
X156510480Y-56447850D01*
X156497868Y-56468893D01*
X156483253Y-56488599D01*
X156466777Y-56506777D01*
X156448599Y-56523253D01*
X156428893Y-56537868D01*
X156407850Y-56550480D01*
X156385671Y-56560970D01*
X156362572Y-56569235D01*
X156338773Y-56575196D01*
X156314505Y-56578796D01*
X156290001Y-56580000D01*
X155639999Y-56580000D01*
X155615495Y-56578796D01*
X155591227Y-56575196D01*
X155567428Y-56569235D01*
X155544329Y-56560970D01*
X155522150Y-56550480D01*
X155501107Y-56537868D01*
X155481401Y-56523253D01*
X155463223Y-56506777D01*
X155446747Y-56488599D01*
X155432132Y-56468893D01*
X155419520Y-56447850D01*
X155409030Y-56425671D01*
X155400765Y-56402572D01*
X155394804Y-56378773D01*
X155391204Y-56354505D01*
X155390000Y-56330001D01*
X155390000Y-55429999D01*
X155391204Y-55405495D01*
X155394804Y-55381227D01*
X155400765Y-55357428D01*
X155409030Y-55334329D01*
X155419520Y-55312150D01*
X155432132Y-55291107D01*
X155446747Y-55271401D01*
X155463223Y-55253223D01*
X155481401Y-55236747D01*
X155501107Y-55222132D01*
X155522150Y-55209520D01*
X155544329Y-55199030D01*
X155567428Y-55190765D01*
X155591227Y-55184804D01*
X155615495Y-55181204D01*
X155639999Y-55180000D01*
X156290001Y-55180000D01*
X156314505Y-55181204D01*
G37*
G04 #@! TD.AperFunction*
G04 #@! TA.AperFunction,SMDPad,CuDef*
G36*
X156069505Y-51371204D02*
G01*
X156093773Y-51374804D01*
X156117572Y-51380765D01*
X156140671Y-51389030D01*
X156162850Y-51399520D01*
X156183893Y-51412132D01*
X156203599Y-51426747D01*
X156221777Y-51443223D01*
X156238253Y-51461401D01*
X156252868Y-51481107D01*
X156265480Y-51502150D01*
X156275970Y-51524329D01*
X156284235Y-51547428D01*
X156290196Y-51571227D01*
X156293796Y-51595495D01*
X156295000Y-51619999D01*
X156295000Y-52520001D01*
X156293796Y-52544505D01*
X156290196Y-52568773D01*
X156284235Y-52592572D01*
X156275970Y-52615671D01*
X156265480Y-52637850D01*
X156252868Y-52658893D01*
X156238253Y-52678599D01*
X156221777Y-52696777D01*
X156203599Y-52713253D01*
X156183893Y-52727868D01*
X156162850Y-52740480D01*
X156140671Y-52750970D01*
X156117572Y-52759235D01*
X156093773Y-52765196D01*
X156069505Y-52768796D01*
X156045001Y-52770000D01*
X155394999Y-52770000D01*
X155370495Y-52768796D01*
X155346227Y-52765196D01*
X155322428Y-52759235D01*
X155299329Y-52750970D01*
X155277150Y-52740480D01*
X155256107Y-52727868D01*
X155236401Y-52713253D01*
X155218223Y-52696777D01*
X155201747Y-52678599D01*
X155187132Y-52658893D01*
X155174520Y-52637850D01*
X155164030Y-52615671D01*
X155155765Y-52592572D01*
X155149804Y-52568773D01*
X155146204Y-52544505D01*
X155145000Y-52520001D01*
X155145000Y-51619999D01*
X155146204Y-51595495D01*
X155149804Y-51571227D01*
X155155765Y-51547428D01*
X155164030Y-51524329D01*
X155174520Y-51502150D01*
X155187132Y-51481107D01*
X155201747Y-51461401D01*
X155218223Y-51443223D01*
X155236401Y-51426747D01*
X155256107Y-51412132D01*
X155277150Y-51399520D01*
X155299329Y-51389030D01*
X155322428Y-51380765D01*
X155346227Y-51374804D01*
X155370495Y-51371204D01*
X155394999Y-51370000D01*
X156045001Y-51370000D01*
X156069505Y-51371204D01*
G37*
G04 #@! TD.AperFunction*
G04 #@! TA.AperFunction,SMDPad,CuDef*
G36*
X154019505Y-51371204D02*
G01*
X154043773Y-51374804D01*
X154067572Y-51380765D01*
X154090671Y-51389030D01*
X154112850Y-51399520D01*
X154133893Y-51412132D01*
X154153599Y-51426747D01*
X154171777Y-51443223D01*
X154188253Y-51461401D01*
X154202868Y-51481107D01*
X154215480Y-51502150D01*
X154225970Y-51524329D01*
X154234235Y-51547428D01*
X154240196Y-51571227D01*
X154243796Y-51595495D01*
X154245000Y-51619999D01*
X154245000Y-52520001D01*
X154243796Y-52544505D01*
X154240196Y-52568773D01*
X154234235Y-52592572D01*
X154225970Y-52615671D01*
X154215480Y-52637850D01*
X154202868Y-52658893D01*
X154188253Y-52678599D01*
X154171777Y-52696777D01*
X154153599Y-52713253D01*
X154133893Y-52727868D01*
X154112850Y-52740480D01*
X154090671Y-52750970D01*
X154067572Y-52759235D01*
X154043773Y-52765196D01*
X154019505Y-52768796D01*
X153995001Y-52770000D01*
X153344999Y-52770000D01*
X153320495Y-52768796D01*
X153296227Y-52765196D01*
X153272428Y-52759235D01*
X153249329Y-52750970D01*
X153227150Y-52740480D01*
X153206107Y-52727868D01*
X153186401Y-52713253D01*
X153168223Y-52696777D01*
X153151747Y-52678599D01*
X153137132Y-52658893D01*
X153124520Y-52637850D01*
X153114030Y-52615671D01*
X153105765Y-52592572D01*
X153099804Y-52568773D01*
X153096204Y-52544505D01*
X153095000Y-52520001D01*
X153095000Y-51619999D01*
X153096204Y-51595495D01*
X153099804Y-51571227D01*
X153105765Y-51547428D01*
X153114030Y-51524329D01*
X153124520Y-51502150D01*
X153137132Y-51481107D01*
X153151747Y-51461401D01*
X153168223Y-51443223D01*
X153186401Y-51426747D01*
X153206107Y-51412132D01*
X153227150Y-51399520D01*
X153249329Y-51389030D01*
X153272428Y-51380765D01*
X153296227Y-51374804D01*
X153320495Y-51371204D01*
X153344999Y-51370000D01*
X153995001Y-51370000D01*
X154019505Y-51371204D01*
G37*
G04 #@! TD.AperFunction*
G04 #@! TA.AperFunction,SMDPad,CuDef*
G36*
X166719505Y-55181204D02*
G01*
X166743773Y-55184804D01*
X166767572Y-55190765D01*
X166790671Y-55199030D01*
X166812850Y-55209520D01*
X166833893Y-55222132D01*
X166853599Y-55236747D01*
X166871777Y-55253223D01*
X166888253Y-55271401D01*
X166902868Y-55291107D01*
X166915480Y-55312150D01*
X166925970Y-55334329D01*
X166934235Y-55357428D01*
X166940196Y-55381227D01*
X166943796Y-55405495D01*
X166945000Y-55429999D01*
X166945000Y-56330001D01*
X166943796Y-56354505D01*
X166940196Y-56378773D01*
X166934235Y-56402572D01*
X166925970Y-56425671D01*
X166915480Y-56447850D01*
X166902868Y-56468893D01*
X166888253Y-56488599D01*
X166871777Y-56506777D01*
X166853599Y-56523253D01*
X166833893Y-56537868D01*
X166812850Y-56550480D01*
X166790671Y-56560970D01*
X166767572Y-56569235D01*
X166743773Y-56575196D01*
X166719505Y-56578796D01*
X166695001Y-56580000D01*
X166044999Y-56580000D01*
X166020495Y-56578796D01*
X165996227Y-56575196D01*
X165972428Y-56569235D01*
X165949329Y-56560970D01*
X165927150Y-56550480D01*
X165906107Y-56537868D01*
X165886401Y-56523253D01*
X165868223Y-56506777D01*
X165851747Y-56488599D01*
X165837132Y-56468893D01*
X165824520Y-56447850D01*
X165814030Y-56425671D01*
X165805765Y-56402572D01*
X165799804Y-56378773D01*
X165796204Y-56354505D01*
X165795000Y-56330001D01*
X165795000Y-55429999D01*
X165796204Y-55405495D01*
X165799804Y-55381227D01*
X165805765Y-55357428D01*
X165814030Y-55334329D01*
X165824520Y-55312150D01*
X165837132Y-55291107D01*
X165851747Y-55271401D01*
X165868223Y-55253223D01*
X165886401Y-55236747D01*
X165906107Y-55222132D01*
X165927150Y-55209520D01*
X165949329Y-55199030D01*
X165972428Y-55190765D01*
X165996227Y-55184804D01*
X166020495Y-55181204D01*
X166044999Y-55180000D01*
X166695001Y-55180000D01*
X166719505Y-55181204D01*
G37*
G04 #@! TD.AperFunction*
G04 #@! TA.AperFunction,SMDPad,CuDef*
G36*
X168769505Y-55181204D02*
G01*
X168793773Y-55184804D01*
X168817572Y-55190765D01*
X168840671Y-55199030D01*
X168862850Y-55209520D01*
X168883893Y-55222132D01*
X168903599Y-55236747D01*
X168921777Y-55253223D01*
X168938253Y-55271401D01*
X168952868Y-55291107D01*
X168965480Y-55312150D01*
X168975970Y-55334329D01*
X168984235Y-55357428D01*
X168990196Y-55381227D01*
X168993796Y-55405495D01*
X168995000Y-55429999D01*
X168995000Y-56330001D01*
X168993796Y-56354505D01*
X168990196Y-56378773D01*
X168984235Y-56402572D01*
X168975970Y-56425671D01*
X168965480Y-56447850D01*
X168952868Y-56468893D01*
X168938253Y-56488599D01*
X168921777Y-56506777D01*
X168903599Y-56523253D01*
X168883893Y-56537868D01*
X168862850Y-56550480D01*
X168840671Y-56560970D01*
X168817572Y-56569235D01*
X168793773Y-56575196D01*
X168769505Y-56578796D01*
X168745001Y-56580000D01*
X168094999Y-56580000D01*
X168070495Y-56578796D01*
X168046227Y-56575196D01*
X168022428Y-56569235D01*
X167999329Y-56560970D01*
X167977150Y-56550480D01*
X167956107Y-56537868D01*
X167936401Y-56523253D01*
X167918223Y-56506777D01*
X167901747Y-56488599D01*
X167887132Y-56468893D01*
X167874520Y-56447850D01*
X167864030Y-56425671D01*
X167855765Y-56402572D01*
X167849804Y-56378773D01*
X167846204Y-56354505D01*
X167845000Y-56330001D01*
X167845000Y-55429999D01*
X167846204Y-55405495D01*
X167849804Y-55381227D01*
X167855765Y-55357428D01*
X167864030Y-55334329D01*
X167874520Y-55312150D01*
X167887132Y-55291107D01*
X167901747Y-55271401D01*
X167918223Y-55253223D01*
X167936401Y-55236747D01*
X167956107Y-55222132D01*
X167977150Y-55209520D01*
X167999329Y-55199030D01*
X168022428Y-55190765D01*
X168046227Y-55184804D01*
X168070495Y-55181204D01*
X168094999Y-55180000D01*
X168745001Y-55180000D01*
X168769505Y-55181204D01*
G37*
G04 #@! TD.AperFunction*
G04 #@! TA.AperFunction,SMDPad,CuDef*
G36*
X168769505Y-51371204D02*
G01*
X168793773Y-51374804D01*
X168817572Y-51380765D01*
X168840671Y-51389030D01*
X168862850Y-51399520D01*
X168883893Y-51412132D01*
X168903599Y-51426747D01*
X168921777Y-51443223D01*
X168938253Y-51461401D01*
X168952868Y-51481107D01*
X168965480Y-51502150D01*
X168975970Y-51524329D01*
X168984235Y-51547428D01*
X168990196Y-51571227D01*
X168993796Y-51595495D01*
X168995000Y-51619999D01*
X168995000Y-52520001D01*
X168993796Y-52544505D01*
X168990196Y-52568773D01*
X168984235Y-52592572D01*
X168975970Y-52615671D01*
X168965480Y-52637850D01*
X168952868Y-52658893D01*
X168938253Y-52678599D01*
X168921777Y-52696777D01*
X168903599Y-52713253D01*
X168883893Y-52727868D01*
X168862850Y-52740480D01*
X168840671Y-52750970D01*
X168817572Y-52759235D01*
X168793773Y-52765196D01*
X168769505Y-52768796D01*
X168745001Y-52770000D01*
X168094999Y-52770000D01*
X168070495Y-52768796D01*
X168046227Y-52765196D01*
X168022428Y-52759235D01*
X167999329Y-52750970D01*
X167977150Y-52740480D01*
X167956107Y-52727868D01*
X167936401Y-52713253D01*
X167918223Y-52696777D01*
X167901747Y-52678599D01*
X167887132Y-52658893D01*
X167874520Y-52637850D01*
X167864030Y-52615671D01*
X167855765Y-52592572D01*
X167849804Y-52568773D01*
X167846204Y-52544505D01*
X167845000Y-52520001D01*
X167845000Y-51619999D01*
X167846204Y-51595495D01*
X167849804Y-51571227D01*
X167855765Y-51547428D01*
X167864030Y-51524329D01*
X167874520Y-51502150D01*
X167887132Y-51481107D01*
X167901747Y-51461401D01*
X167918223Y-51443223D01*
X167936401Y-51426747D01*
X167956107Y-51412132D01*
X167977150Y-51399520D01*
X167999329Y-51389030D01*
X168022428Y-51380765D01*
X168046227Y-51374804D01*
X168070495Y-51371204D01*
X168094999Y-51370000D01*
X168745001Y-51370000D01*
X168769505Y-51371204D01*
G37*
G04 #@! TD.AperFunction*
G04 #@! TA.AperFunction,SMDPad,CuDef*
G36*
X166719505Y-51371204D02*
G01*
X166743773Y-51374804D01*
X166767572Y-51380765D01*
X166790671Y-51389030D01*
X166812850Y-51399520D01*
X166833893Y-51412132D01*
X166853599Y-51426747D01*
X166871777Y-51443223D01*
X166888253Y-51461401D01*
X166902868Y-51481107D01*
X166915480Y-51502150D01*
X166925970Y-51524329D01*
X166934235Y-51547428D01*
X166940196Y-51571227D01*
X166943796Y-51595495D01*
X166945000Y-51619999D01*
X166945000Y-52520001D01*
X166943796Y-52544505D01*
X166940196Y-52568773D01*
X166934235Y-52592572D01*
X166925970Y-52615671D01*
X166915480Y-52637850D01*
X166902868Y-52658893D01*
X166888253Y-52678599D01*
X166871777Y-52696777D01*
X166853599Y-52713253D01*
X166833893Y-52727868D01*
X166812850Y-52740480D01*
X166790671Y-52750970D01*
X166767572Y-52759235D01*
X166743773Y-52765196D01*
X166719505Y-52768796D01*
X166695001Y-52770000D01*
X166044999Y-52770000D01*
X166020495Y-52768796D01*
X165996227Y-52765196D01*
X165972428Y-52759235D01*
X165949329Y-52750970D01*
X165927150Y-52740480D01*
X165906107Y-52727868D01*
X165886401Y-52713253D01*
X165868223Y-52696777D01*
X165851747Y-52678599D01*
X165837132Y-52658893D01*
X165824520Y-52637850D01*
X165814030Y-52615671D01*
X165805765Y-52592572D01*
X165799804Y-52568773D01*
X165796204Y-52544505D01*
X165795000Y-52520001D01*
X165795000Y-51619999D01*
X165796204Y-51595495D01*
X165799804Y-51571227D01*
X165805765Y-51547428D01*
X165814030Y-51524329D01*
X165824520Y-51502150D01*
X165837132Y-51481107D01*
X165851747Y-51461401D01*
X165868223Y-51443223D01*
X165886401Y-51426747D01*
X165906107Y-51412132D01*
X165927150Y-51399520D01*
X165949329Y-51389030D01*
X165972428Y-51380765D01*
X165996227Y-51374804D01*
X166020495Y-51371204D01*
X166044999Y-51370000D01*
X166695001Y-51370000D01*
X166719505Y-51371204D01*
G37*
G04 #@! TD.AperFunction*
G04 #@! TA.AperFunction,SMDPad,CuDef*
G36*
X170284505Y-42481204D02*
G01*
X170308773Y-42484804D01*
X170332572Y-42490765D01*
X170355671Y-42499030D01*
X170377850Y-42509520D01*
X170398893Y-42522132D01*
X170418599Y-42536747D01*
X170436777Y-42553223D01*
X170453253Y-42571401D01*
X170467868Y-42591107D01*
X170480480Y-42612150D01*
X170490970Y-42634329D01*
X170499235Y-42657428D01*
X170505196Y-42681227D01*
X170508796Y-42705495D01*
X170510000Y-42729999D01*
X170510000Y-43630001D01*
X170508796Y-43654505D01*
X170505196Y-43678773D01*
X170499235Y-43702572D01*
X170490970Y-43725671D01*
X170480480Y-43747850D01*
X170467868Y-43768893D01*
X170453253Y-43788599D01*
X170436777Y-43806777D01*
X170418599Y-43823253D01*
X170398893Y-43837868D01*
X170377850Y-43850480D01*
X170355671Y-43860970D01*
X170332572Y-43869235D01*
X170308773Y-43875196D01*
X170284505Y-43878796D01*
X170260001Y-43880000D01*
X169609999Y-43880000D01*
X169585495Y-43878796D01*
X169561227Y-43875196D01*
X169537428Y-43869235D01*
X169514329Y-43860970D01*
X169492150Y-43850480D01*
X169471107Y-43837868D01*
X169451401Y-43823253D01*
X169433223Y-43806777D01*
X169416747Y-43788599D01*
X169402132Y-43768893D01*
X169389520Y-43747850D01*
X169379030Y-43725671D01*
X169370765Y-43702572D01*
X169364804Y-43678773D01*
X169361204Y-43654505D01*
X169360000Y-43630001D01*
X169360000Y-42729999D01*
X169361204Y-42705495D01*
X169364804Y-42681227D01*
X169370765Y-42657428D01*
X169379030Y-42634329D01*
X169389520Y-42612150D01*
X169402132Y-42591107D01*
X169416747Y-42571401D01*
X169433223Y-42553223D01*
X169451401Y-42536747D01*
X169471107Y-42522132D01*
X169492150Y-42509520D01*
X169514329Y-42499030D01*
X169537428Y-42490765D01*
X169561227Y-42484804D01*
X169585495Y-42481204D01*
X169609999Y-42480000D01*
X170260001Y-42480000D01*
X170284505Y-42481204D01*
G37*
G04 #@! TD.AperFunction*
G04 #@! TA.AperFunction,SMDPad,CuDef*
G36*
X168234505Y-42481204D02*
G01*
X168258773Y-42484804D01*
X168282572Y-42490765D01*
X168305671Y-42499030D01*
X168327850Y-42509520D01*
X168348893Y-42522132D01*
X168368599Y-42536747D01*
X168386777Y-42553223D01*
X168403253Y-42571401D01*
X168417868Y-42591107D01*
X168430480Y-42612150D01*
X168440970Y-42634329D01*
X168449235Y-42657428D01*
X168455196Y-42681227D01*
X168458796Y-42705495D01*
X168460000Y-42729999D01*
X168460000Y-43630001D01*
X168458796Y-43654505D01*
X168455196Y-43678773D01*
X168449235Y-43702572D01*
X168440970Y-43725671D01*
X168430480Y-43747850D01*
X168417868Y-43768893D01*
X168403253Y-43788599D01*
X168386777Y-43806777D01*
X168368599Y-43823253D01*
X168348893Y-43837868D01*
X168327850Y-43850480D01*
X168305671Y-43860970D01*
X168282572Y-43869235D01*
X168258773Y-43875196D01*
X168234505Y-43878796D01*
X168210001Y-43880000D01*
X167559999Y-43880000D01*
X167535495Y-43878796D01*
X167511227Y-43875196D01*
X167487428Y-43869235D01*
X167464329Y-43860970D01*
X167442150Y-43850480D01*
X167421107Y-43837868D01*
X167401401Y-43823253D01*
X167383223Y-43806777D01*
X167366747Y-43788599D01*
X167352132Y-43768893D01*
X167339520Y-43747850D01*
X167329030Y-43725671D01*
X167320765Y-43702572D01*
X167314804Y-43678773D01*
X167311204Y-43654505D01*
X167310000Y-43630001D01*
X167310000Y-42729999D01*
X167311204Y-42705495D01*
X167314804Y-42681227D01*
X167320765Y-42657428D01*
X167329030Y-42634329D01*
X167339520Y-42612150D01*
X167352132Y-42591107D01*
X167366747Y-42571401D01*
X167383223Y-42553223D01*
X167401401Y-42536747D01*
X167421107Y-42522132D01*
X167442150Y-42509520D01*
X167464329Y-42499030D01*
X167487428Y-42490765D01*
X167511227Y-42484804D01*
X167535495Y-42481204D01*
X167559999Y-42480000D01*
X168210001Y-42480000D01*
X168234505Y-42481204D01*
G37*
G04 #@! TD.AperFunction*
G04 #@! TA.AperFunction,SMDPad,CuDef*
G36*
X168234505Y-46291204D02*
G01*
X168258773Y-46294804D01*
X168282572Y-46300765D01*
X168305671Y-46309030D01*
X168327850Y-46319520D01*
X168348893Y-46332132D01*
X168368599Y-46346747D01*
X168386777Y-46363223D01*
X168403253Y-46381401D01*
X168417868Y-46401107D01*
X168430480Y-46422150D01*
X168440970Y-46444329D01*
X168449235Y-46467428D01*
X168455196Y-46491227D01*
X168458796Y-46515495D01*
X168460000Y-46539999D01*
X168460000Y-47440001D01*
X168458796Y-47464505D01*
X168455196Y-47488773D01*
X168449235Y-47512572D01*
X168440970Y-47535671D01*
X168430480Y-47557850D01*
X168417868Y-47578893D01*
X168403253Y-47598599D01*
X168386777Y-47616777D01*
X168368599Y-47633253D01*
X168348893Y-47647868D01*
X168327850Y-47660480D01*
X168305671Y-47670970D01*
X168282572Y-47679235D01*
X168258773Y-47685196D01*
X168234505Y-47688796D01*
X168210001Y-47690000D01*
X167559999Y-47690000D01*
X167535495Y-47688796D01*
X167511227Y-47685196D01*
X167487428Y-47679235D01*
X167464329Y-47670970D01*
X167442150Y-47660480D01*
X167421107Y-47647868D01*
X167401401Y-47633253D01*
X167383223Y-47616777D01*
X167366747Y-47598599D01*
X167352132Y-47578893D01*
X167339520Y-47557850D01*
X167329030Y-47535671D01*
X167320765Y-47512572D01*
X167314804Y-47488773D01*
X167311204Y-47464505D01*
X167310000Y-47440001D01*
X167310000Y-46539999D01*
X167311204Y-46515495D01*
X167314804Y-46491227D01*
X167320765Y-46467428D01*
X167329030Y-46444329D01*
X167339520Y-46422150D01*
X167352132Y-46401107D01*
X167366747Y-46381401D01*
X167383223Y-46363223D01*
X167401401Y-46346747D01*
X167421107Y-46332132D01*
X167442150Y-46319520D01*
X167464329Y-46309030D01*
X167487428Y-46300765D01*
X167511227Y-46294804D01*
X167535495Y-46291204D01*
X167559999Y-46290000D01*
X168210001Y-46290000D01*
X168234505Y-46291204D01*
G37*
G04 #@! TD.AperFunction*
G04 #@! TA.AperFunction,SMDPad,CuDef*
G36*
X170284505Y-46291204D02*
G01*
X170308773Y-46294804D01*
X170332572Y-46300765D01*
X170355671Y-46309030D01*
X170377850Y-46319520D01*
X170398893Y-46332132D01*
X170418599Y-46346747D01*
X170436777Y-46363223D01*
X170453253Y-46381401D01*
X170467868Y-46401107D01*
X170480480Y-46422150D01*
X170490970Y-46444329D01*
X170499235Y-46467428D01*
X170505196Y-46491227D01*
X170508796Y-46515495D01*
X170510000Y-46539999D01*
X170510000Y-47440001D01*
X170508796Y-47464505D01*
X170505196Y-47488773D01*
X170499235Y-47512572D01*
X170490970Y-47535671D01*
X170480480Y-47557850D01*
X170467868Y-47578893D01*
X170453253Y-47598599D01*
X170436777Y-47616777D01*
X170418599Y-47633253D01*
X170398893Y-47647868D01*
X170377850Y-47660480D01*
X170355671Y-47670970D01*
X170332572Y-47679235D01*
X170308773Y-47685196D01*
X170284505Y-47688796D01*
X170260001Y-47690000D01*
X169609999Y-47690000D01*
X169585495Y-47688796D01*
X169561227Y-47685196D01*
X169537428Y-47679235D01*
X169514329Y-47670970D01*
X169492150Y-47660480D01*
X169471107Y-47647868D01*
X169451401Y-47633253D01*
X169433223Y-47616777D01*
X169416747Y-47598599D01*
X169402132Y-47578893D01*
X169389520Y-47557850D01*
X169379030Y-47535671D01*
X169370765Y-47512572D01*
X169364804Y-47488773D01*
X169361204Y-47464505D01*
X169360000Y-47440001D01*
X169360000Y-46539999D01*
X169361204Y-46515495D01*
X169364804Y-46491227D01*
X169370765Y-46467428D01*
X169379030Y-46444329D01*
X169389520Y-46422150D01*
X169402132Y-46401107D01*
X169416747Y-46381401D01*
X169433223Y-46363223D01*
X169451401Y-46346747D01*
X169471107Y-46332132D01*
X169492150Y-46319520D01*
X169514329Y-46309030D01*
X169537428Y-46300765D01*
X169561227Y-46294804D01*
X169585495Y-46291204D01*
X169609999Y-46290000D01*
X170260001Y-46290000D01*
X170284505Y-46291204D01*
G37*
G04 #@! TD.AperFunction*
G04 #@! TA.AperFunction,SMDPad,CuDef*
G36*
X171019505Y-51371204D02*
G01*
X171043773Y-51374804D01*
X171067572Y-51380765D01*
X171090671Y-51389030D01*
X171112850Y-51399520D01*
X171133893Y-51412132D01*
X171153599Y-51426747D01*
X171171777Y-51443223D01*
X171188253Y-51461401D01*
X171202868Y-51481107D01*
X171215480Y-51502150D01*
X171225970Y-51524329D01*
X171234235Y-51547428D01*
X171240196Y-51571227D01*
X171243796Y-51595495D01*
X171245000Y-51619999D01*
X171245000Y-52520001D01*
X171243796Y-52544505D01*
X171240196Y-52568773D01*
X171234235Y-52592572D01*
X171225970Y-52615671D01*
X171215480Y-52637850D01*
X171202868Y-52658893D01*
X171188253Y-52678599D01*
X171171777Y-52696777D01*
X171153599Y-52713253D01*
X171133893Y-52727868D01*
X171112850Y-52740480D01*
X171090671Y-52750970D01*
X171067572Y-52759235D01*
X171043773Y-52765196D01*
X171019505Y-52768796D01*
X170995001Y-52770000D01*
X170344999Y-52770000D01*
X170320495Y-52768796D01*
X170296227Y-52765196D01*
X170272428Y-52759235D01*
X170249329Y-52750970D01*
X170227150Y-52740480D01*
X170206107Y-52727868D01*
X170186401Y-52713253D01*
X170168223Y-52696777D01*
X170151747Y-52678599D01*
X170137132Y-52658893D01*
X170124520Y-52637850D01*
X170114030Y-52615671D01*
X170105765Y-52592572D01*
X170099804Y-52568773D01*
X170096204Y-52544505D01*
X170095000Y-52520001D01*
X170095000Y-51619999D01*
X170096204Y-51595495D01*
X170099804Y-51571227D01*
X170105765Y-51547428D01*
X170114030Y-51524329D01*
X170124520Y-51502150D01*
X170137132Y-51481107D01*
X170151747Y-51461401D01*
X170168223Y-51443223D01*
X170186401Y-51426747D01*
X170206107Y-51412132D01*
X170227150Y-51399520D01*
X170249329Y-51389030D01*
X170272428Y-51380765D01*
X170296227Y-51374804D01*
X170320495Y-51371204D01*
X170344999Y-51370000D01*
X170995001Y-51370000D01*
X171019505Y-51371204D01*
G37*
G04 #@! TD.AperFunction*
G04 #@! TA.AperFunction,SMDPad,CuDef*
G36*
X173069505Y-51371204D02*
G01*
X173093773Y-51374804D01*
X173117572Y-51380765D01*
X173140671Y-51389030D01*
X173162850Y-51399520D01*
X173183893Y-51412132D01*
X173203599Y-51426747D01*
X173221777Y-51443223D01*
X173238253Y-51461401D01*
X173252868Y-51481107D01*
X173265480Y-51502150D01*
X173275970Y-51524329D01*
X173284235Y-51547428D01*
X173290196Y-51571227D01*
X173293796Y-51595495D01*
X173295000Y-51619999D01*
X173295000Y-52520001D01*
X173293796Y-52544505D01*
X173290196Y-52568773D01*
X173284235Y-52592572D01*
X173275970Y-52615671D01*
X173265480Y-52637850D01*
X173252868Y-52658893D01*
X173238253Y-52678599D01*
X173221777Y-52696777D01*
X173203599Y-52713253D01*
X173183893Y-52727868D01*
X173162850Y-52740480D01*
X173140671Y-52750970D01*
X173117572Y-52759235D01*
X173093773Y-52765196D01*
X173069505Y-52768796D01*
X173045001Y-52770000D01*
X172394999Y-52770000D01*
X172370495Y-52768796D01*
X172346227Y-52765196D01*
X172322428Y-52759235D01*
X172299329Y-52750970D01*
X172277150Y-52740480D01*
X172256107Y-52727868D01*
X172236401Y-52713253D01*
X172218223Y-52696777D01*
X172201747Y-52678599D01*
X172187132Y-52658893D01*
X172174520Y-52637850D01*
X172164030Y-52615671D01*
X172155765Y-52592572D01*
X172149804Y-52568773D01*
X172146204Y-52544505D01*
X172145000Y-52520001D01*
X172145000Y-51619999D01*
X172146204Y-51595495D01*
X172149804Y-51571227D01*
X172155765Y-51547428D01*
X172164030Y-51524329D01*
X172174520Y-51502150D01*
X172187132Y-51481107D01*
X172201747Y-51461401D01*
X172218223Y-51443223D01*
X172236401Y-51426747D01*
X172256107Y-51412132D01*
X172277150Y-51399520D01*
X172299329Y-51389030D01*
X172322428Y-51380765D01*
X172346227Y-51374804D01*
X172370495Y-51371204D01*
X172394999Y-51370000D01*
X173045001Y-51370000D01*
X173069505Y-51371204D01*
G37*
G04 #@! TD.AperFunction*
G04 #@! TA.AperFunction,SMDPad,CuDef*
G36*
X179664505Y-55181204D02*
G01*
X179688773Y-55184804D01*
X179712572Y-55190765D01*
X179735671Y-55199030D01*
X179757850Y-55209520D01*
X179778893Y-55222132D01*
X179798599Y-55236747D01*
X179816777Y-55253223D01*
X179833253Y-55271401D01*
X179847868Y-55291107D01*
X179860480Y-55312150D01*
X179870970Y-55334329D01*
X179879235Y-55357428D01*
X179885196Y-55381227D01*
X179888796Y-55405495D01*
X179890000Y-55429999D01*
X179890000Y-56330001D01*
X179888796Y-56354505D01*
X179885196Y-56378773D01*
X179879235Y-56402572D01*
X179870970Y-56425671D01*
X179860480Y-56447850D01*
X179847868Y-56468893D01*
X179833253Y-56488599D01*
X179816777Y-56506777D01*
X179798599Y-56523253D01*
X179778893Y-56537868D01*
X179757850Y-56550480D01*
X179735671Y-56560970D01*
X179712572Y-56569235D01*
X179688773Y-56575196D01*
X179664505Y-56578796D01*
X179640001Y-56580000D01*
X178989999Y-56580000D01*
X178965495Y-56578796D01*
X178941227Y-56575196D01*
X178917428Y-56569235D01*
X178894329Y-56560970D01*
X178872150Y-56550480D01*
X178851107Y-56537868D01*
X178831401Y-56523253D01*
X178813223Y-56506777D01*
X178796747Y-56488599D01*
X178782132Y-56468893D01*
X178769520Y-56447850D01*
X178759030Y-56425671D01*
X178750765Y-56402572D01*
X178744804Y-56378773D01*
X178741204Y-56354505D01*
X178740000Y-56330001D01*
X178740000Y-55429999D01*
X178741204Y-55405495D01*
X178744804Y-55381227D01*
X178750765Y-55357428D01*
X178759030Y-55334329D01*
X178769520Y-55312150D01*
X178782132Y-55291107D01*
X178796747Y-55271401D01*
X178813223Y-55253223D01*
X178831401Y-55236747D01*
X178851107Y-55222132D01*
X178872150Y-55209520D01*
X178894329Y-55199030D01*
X178917428Y-55190765D01*
X178941227Y-55184804D01*
X178965495Y-55181204D01*
X178989999Y-55180000D01*
X179640001Y-55180000D01*
X179664505Y-55181204D01*
G37*
G04 #@! TD.AperFunction*
G04 #@! TA.AperFunction,SMDPad,CuDef*
G36*
X181714505Y-55181204D02*
G01*
X181738773Y-55184804D01*
X181762572Y-55190765D01*
X181785671Y-55199030D01*
X181807850Y-55209520D01*
X181828893Y-55222132D01*
X181848599Y-55236747D01*
X181866777Y-55253223D01*
X181883253Y-55271401D01*
X181897868Y-55291107D01*
X181910480Y-55312150D01*
X181920970Y-55334329D01*
X181929235Y-55357428D01*
X181935196Y-55381227D01*
X181938796Y-55405495D01*
X181940000Y-55429999D01*
X181940000Y-56330001D01*
X181938796Y-56354505D01*
X181935196Y-56378773D01*
X181929235Y-56402572D01*
X181920970Y-56425671D01*
X181910480Y-56447850D01*
X181897868Y-56468893D01*
X181883253Y-56488599D01*
X181866777Y-56506777D01*
X181848599Y-56523253D01*
X181828893Y-56537868D01*
X181807850Y-56550480D01*
X181785671Y-56560970D01*
X181762572Y-56569235D01*
X181738773Y-56575196D01*
X181714505Y-56578796D01*
X181690001Y-56580000D01*
X181039999Y-56580000D01*
X181015495Y-56578796D01*
X180991227Y-56575196D01*
X180967428Y-56569235D01*
X180944329Y-56560970D01*
X180922150Y-56550480D01*
X180901107Y-56537868D01*
X180881401Y-56523253D01*
X180863223Y-56506777D01*
X180846747Y-56488599D01*
X180832132Y-56468893D01*
X180819520Y-56447850D01*
X180809030Y-56425671D01*
X180800765Y-56402572D01*
X180794804Y-56378773D01*
X180791204Y-56354505D01*
X180790000Y-56330001D01*
X180790000Y-55429999D01*
X180791204Y-55405495D01*
X180794804Y-55381227D01*
X180800765Y-55357428D01*
X180809030Y-55334329D01*
X180819520Y-55312150D01*
X180832132Y-55291107D01*
X180846747Y-55271401D01*
X180863223Y-55253223D01*
X180881401Y-55236747D01*
X180901107Y-55222132D01*
X180922150Y-55209520D01*
X180944329Y-55199030D01*
X180967428Y-55190765D01*
X180991227Y-55184804D01*
X181015495Y-55181204D01*
X181039999Y-55180000D01*
X181690001Y-55180000D01*
X181714505Y-55181204D01*
G37*
G04 #@! TD.AperFunction*
G04 #@! TA.AperFunction,SMDPad,CuDef*
G36*
X181714505Y-51371204D02*
G01*
X181738773Y-51374804D01*
X181762572Y-51380765D01*
X181785671Y-51389030D01*
X181807850Y-51399520D01*
X181828893Y-51412132D01*
X181848599Y-51426747D01*
X181866777Y-51443223D01*
X181883253Y-51461401D01*
X181897868Y-51481107D01*
X181910480Y-51502150D01*
X181920970Y-51524329D01*
X181929235Y-51547428D01*
X181935196Y-51571227D01*
X181938796Y-51595495D01*
X181940000Y-51619999D01*
X181940000Y-52520001D01*
X181938796Y-52544505D01*
X181935196Y-52568773D01*
X181929235Y-52592572D01*
X181920970Y-52615671D01*
X181910480Y-52637850D01*
X181897868Y-52658893D01*
X181883253Y-52678599D01*
X181866777Y-52696777D01*
X181848599Y-52713253D01*
X181828893Y-52727868D01*
X181807850Y-52740480D01*
X181785671Y-52750970D01*
X181762572Y-52759235D01*
X181738773Y-52765196D01*
X181714505Y-52768796D01*
X181690001Y-52770000D01*
X181039999Y-52770000D01*
X181015495Y-52768796D01*
X180991227Y-52765196D01*
X180967428Y-52759235D01*
X180944329Y-52750970D01*
X180922150Y-52740480D01*
X180901107Y-52727868D01*
X180881401Y-52713253D01*
X180863223Y-52696777D01*
X180846747Y-52678599D01*
X180832132Y-52658893D01*
X180819520Y-52637850D01*
X180809030Y-52615671D01*
X180800765Y-52592572D01*
X180794804Y-52568773D01*
X180791204Y-52544505D01*
X180790000Y-52520001D01*
X180790000Y-51619999D01*
X180791204Y-51595495D01*
X180794804Y-51571227D01*
X180800765Y-51547428D01*
X180809030Y-51524329D01*
X180819520Y-51502150D01*
X180832132Y-51481107D01*
X180846747Y-51461401D01*
X180863223Y-51443223D01*
X180881401Y-51426747D01*
X180901107Y-51412132D01*
X180922150Y-51399520D01*
X180944329Y-51389030D01*
X180967428Y-51380765D01*
X180991227Y-51374804D01*
X181015495Y-51371204D01*
X181039999Y-51370000D01*
X181690001Y-51370000D01*
X181714505Y-51371204D01*
G37*
G04 #@! TD.AperFunction*
G04 #@! TA.AperFunction,SMDPad,CuDef*
G36*
X179664505Y-51371204D02*
G01*
X179688773Y-51374804D01*
X179712572Y-51380765D01*
X179735671Y-51389030D01*
X179757850Y-51399520D01*
X179778893Y-51412132D01*
X179798599Y-51426747D01*
X179816777Y-51443223D01*
X179833253Y-51461401D01*
X179847868Y-51481107D01*
X179860480Y-51502150D01*
X179870970Y-51524329D01*
X179879235Y-51547428D01*
X179885196Y-51571227D01*
X179888796Y-51595495D01*
X179890000Y-51619999D01*
X179890000Y-52520001D01*
X179888796Y-52544505D01*
X179885196Y-52568773D01*
X179879235Y-52592572D01*
X179870970Y-52615671D01*
X179860480Y-52637850D01*
X179847868Y-52658893D01*
X179833253Y-52678599D01*
X179816777Y-52696777D01*
X179798599Y-52713253D01*
X179778893Y-52727868D01*
X179757850Y-52740480D01*
X179735671Y-52750970D01*
X179712572Y-52759235D01*
X179688773Y-52765196D01*
X179664505Y-52768796D01*
X179640001Y-52770000D01*
X178989999Y-52770000D01*
X178965495Y-52768796D01*
X178941227Y-52765196D01*
X178917428Y-52759235D01*
X178894329Y-52750970D01*
X178872150Y-52740480D01*
X178851107Y-52727868D01*
X178831401Y-52713253D01*
X178813223Y-52696777D01*
X178796747Y-52678599D01*
X178782132Y-52658893D01*
X178769520Y-52637850D01*
X178759030Y-52615671D01*
X178750765Y-52592572D01*
X178744804Y-52568773D01*
X178741204Y-52544505D01*
X178740000Y-52520001D01*
X178740000Y-51619999D01*
X178741204Y-51595495D01*
X178744804Y-51571227D01*
X178750765Y-51547428D01*
X178759030Y-51524329D01*
X178769520Y-51502150D01*
X178782132Y-51481107D01*
X178796747Y-51461401D01*
X178813223Y-51443223D01*
X178831401Y-51426747D01*
X178851107Y-51412132D01*
X178872150Y-51399520D01*
X178894329Y-51389030D01*
X178917428Y-51380765D01*
X178941227Y-51374804D01*
X178965495Y-51371204D01*
X178989999Y-51370000D01*
X179640001Y-51370000D01*
X179664505Y-51371204D01*
G37*
G04 #@! TD.AperFunction*
G04 #@! TA.AperFunction,SMDPad,CuDef*
G36*
X188799505Y-46291204D02*
G01*
X188823773Y-46294804D01*
X188847572Y-46300765D01*
X188870671Y-46309030D01*
X188892850Y-46319520D01*
X188913893Y-46332132D01*
X188933599Y-46346747D01*
X188951777Y-46363223D01*
X188968253Y-46381401D01*
X188982868Y-46401107D01*
X188995480Y-46422150D01*
X189005970Y-46444329D01*
X189014235Y-46467428D01*
X189020196Y-46491227D01*
X189023796Y-46515495D01*
X189025000Y-46539999D01*
X189025000Y-47440001D01*
X189023796Y-47464505D01*
X189020196Y-47488773D01*
X189014235Y-47512572D01*
X189005970Y-47535671D01*
X188995480Y-47557850D01*
X188982868Y-47578893D01*
X188968253Y-47598599D01*
X188951777Y-47616777D01*
X188933599Y-47633253D01*
X188913893Y-47647868D01*
X188892850Y-47660480D01*
X188870671Y-47670970D01*
X188847572Y-47679235D01*
X188823773Y-47685196D01*
X188799505Y-47688796D01*
X188775001Y-47690000D01*
X188124999Y-47690000D01*
X188100495Y-47688796D01*
X188076227Y-47685196D01*
X188052428Y-47679235D01*
X188029329Y-47670970D01*
X188007150Y-47660480D01*
X187986107Y-47647868D01*
X187966401Y-47633253D01*
X187948223Y-47616777D01*
X187931747Y-47598599D01*
X187917132Y-47578893D01*
X187904520Y-47557850D01*
X187894030Y-47535671D01*
X187885765Y-47512572D01*
X187879804Y-47488773D01*
X187876204Y-47464505D01*
X187875000Y-47440001D01*
X187875000Y-46539999D01*
X187876204Y-46515495D01*
X187879804Y-46491227D01*
X187885765Y-46467428D01*
X187894030Y-46444329D01*
X187904520Y-46422150D01*
X187917132Y-46401107D01*
X187931747Y-46381401D01*
X187948223Y-46363223D01*
X187966401Y-46346747D01*
X187986107Y-46332132D01*
X188007150Y-46319520D01*
X188029329Y-46309030D01*
X188052428Y-46300765D01*
X188076227Y-46294804D01*
X188100495Y-46291204D01*
X188124999Y-46290000D01*
X188775001Y-46290000D01*
X188799505Y-46291204D01*
G37*
G04 #@! TD.AperFunction*
G04 #@! TA.AperFunction,SMDPad,CuDef*
G36*
X190849505Y-46291204D02*
G01*
X190873773Y-46294804D01*
X190897572Y-46300765D01*
X190920671Y-46309030D01*
X190942850Y-46319520D01*
X190963893Y-46332132D01*
X190983599Y-46346747D01*
X191001777Y-46363223D01*
X191018253Y-46381401D01*
X191032868Y-46401107D01*
X191045480Y-46422150D01*
X191055970Y-46444329D01*
X191064235Y-46467428D01*
X191070196Y-46491227D01*
X191073796Y-46515495D01*
X191075000Y-46539999D01*
X191075000Y-47440001D01*
X191073796Y-47464505D01*
X191070196Y-47488773D01*
X191064235Y-47512572D01*
X191055970Y-47535671D01*
X191045480Y-47557850D01*
X191032868Y-47578893D01*
X191018253Y-47598599D01*
X191001777Y-47616777D01*
X190983599Y-47633253D01*
X190963893Y-47647868D01*
X190942850Y-47660480D01*
X190920671Y-47670970D01*
X190897572Y-47679235D01*
X190873773Y-47685196D01*
X190849505Y-47688796D01*
X190825001Y-47690000D01*
X190174999Y-47690000D01*
X190150495Y-47688796D01*
X190126227Y-47685196D01*
X190102428Y-47679235D01*
X190079329Y-47670970D01*
X190057150Y-47660480D01*
X190036107Y-47647868D01*
X190016401Y-47633253D01*
X189998223Y-47616777D01*
X189981747Y-47598599D01*
X189967132Y-47578893D01*
X189954520Y-47557850D01*
X189944030Y-47535671D01*
X189935765Y-47512572D01*
X189929804Y-47488773D01*
X189926204Y-47464505D01*
X189925000Y-47440001D01*
X189925000Y-46539999D01*
X189926204Y-46515495D01*
X189929804Y-46491227D01*
X189935765Y-46467428D01*
X189944030Y-46444329D01*
X189954520Y-46422150D01*
X189967132Y-46401107D01*
X189981747Y-46381401D01*
X189998223Y-46363223D01*
X190016401Y-46346747D01*
X190036107Y-46332132D01*
X190057150Y-46319520D01*
X190079329Y-46309030D01*
X190102428Y-46300765D01*
X190126227Y-46294804D01*
X190150495Y-46291204D01*
X190174999Y-46290000D01*
X190825001Y-46290000D01*
X190849505Y-46291204D01*
G37*
G04 #@! TD.AperFunction*
D14*
X153290000Y-48260000D03*
X156590000Y-48260000D03*
X148210000Y-48260000D03*
X151510000Y-48260000D03*
X150620000Y-44450000D03*
X147320000Y-44450000D03*
X156590000Y-44450000D03*
X153290000Y-44450000D03*
X156970000Y-59690000D03*
X153670000Y-59690000D03*
X151890000Y-59690000D03*
X148590000Y-59690000D03*
X147830000Y-63500000D03*
X151130000Y-63500000D03*
X153670000Y-63500000D03*
X156970000Y-63500000D03*
D15*
X161645000Y-52235000D03*
X161645000Y-54445000D03*
G04 #@! TA.AperFunction,SMDPad,CuDef*
D13*
G36*
X161812448Y-51790734D02*
G01*
X161827251Y-51792930D01*
X161841768Y-51796567D01*
X161855859Y-51801608D01*
X161869388Y-51808007D01*
X161882224Y-51815701D01*
X161894245Y-51824616D01*
X161905334Y-51834666D01*
X161915384Y-51845755D01*
X161924299Y-51857776D01*
X161931993Y-51870612D01*
X161938392Y-51884141D01*
X161943433Y-51898232D01*
X161947070Y-51912749D01*
X161949266Y-51927552D01*
X161950000Y-51942500D01*
X161950000Y-52882500D01*
X161949266Y-52897448D01*
X161947070Y-52912251D01*
X161943433Y-52926768D01*
X161938392Y-52940859D01*
X161931993Y-52954388D01*
X161924299Y-52967224D01*
X161915384Y-52979245D01*
X161905334Y-52990334D01*
X161894245Y-53000384D01*
X161882224Y-53009299D01*
X161869388Y-53016993D01*
X161855859Y-53023392D01*
X161841768Y-53028433D01*
X161827251Y-53032070D01*
X161812448Y-53034266D01*
X161797500Y-53035000D01*
X161492500Y-53035000D01*
X161477552Y-53034266D01*
X161462749Y-53032070D01*
X161448232Y-53028433D01*
X161434141Y-53023392D01*
X161420612Y-53016993D01*
X161407776Y-53009299D01*
X161395755Y-53000384D01*
X161384666Y-52990334D01*
X161374616Y-52979245D01*
X161365701Y-52967224D01*
X161358007Y-52954388D01*
X161351608Y-52940859D01*
X161346567Y-52926768D01*
X161342930Y-52912251D01*
X161340734Y-52897448D01*
X161340000Y-52882500D01*
X161340000Y-51942500D01*
X161340734Y-51927552D01*
X161342930Y-51912749D01*
X161346567Y-51898232D01*
X161351608Y-51884141D01*
X161358007Y-51870612D01*
X161365701Y-51857776D01*
X161374616Y-51845755D01*
X161384666Y-51834666D01*
X161395755Y-51824616D01*
X161407776Y-51815701D01*
X161420612Y-51808007D01*
X161434141Y-51801608D01*
X161448232Y-51796567D01*
X161462749Y-51792930D01*
X161477552Y-51790734D01*
X161492500Y-51790000D01*
X161797500Y-51790000D01*
X161812448Y-51790734D01*
G37*
G04 #@! TD.AperFunction*
G04 #@! TA.AperFunction,SMDPad,CuDef*
G36*
X161812448Y-53645734D02*
G01*
X161827251Y-53647930D01*
X161841768Y-53651567D01*
X161855859Y-53656608D01*
X161869388Y-53663007D01*
X161882224Y-53670701D01*
X161894245Y-53679616D01*
X161905334Y-53689666D01*
X161915384Y-53700755D01*
X161924299Y-53712776D01*
X161931993Y-53725612D01*
X161938392Y-53739141D01*
X161943433Y-53753232D01*
X161947070Y-53767749D01*
X161949266Y-53782552D01*
X161950000Y-53797500D01*
X161950000Y-54737500D01*
X161949266Y-54752448D01*
X161947070Y-54767251D01*
X161943433Y-54781768D01*
X161938392Y-54795859D01*
X161931993Y-54809388D01*
X161924299Y-54822224D01*
X161915384Y-54834245D01*
X161905334Y-54845334D01*
X161894245Y-54855384D01*
X161882224Y-54864299D01*
X161869388Y-54871993D01*
X161855859Y-54878392D01*
X161841768Y-54883433D01*
X161827251Y-54887070D01*
X161812448Y-54889266D01*
X161797500Y-54890000D01*
X161492500Y-54890000D01*
X161477552Y-54889266D01*
X161462749Y-54887070D01*
X161448232Y-54883433D01*
X161434141Y-54878392D01*
X161420612Y-54871993D01*
X161407776Y-54864299D01*
X161395755Y-54855384D01*
X161384666Y-54845334D01*
X161374616Y-54834245D01*
X161365701Y-54822224D01*
X161358007Y-54809388D01*
X161351608Y-54795859D01*
X161346567Y-54781768D01*
X161342930Y-54767251D01*
X161340734Y-54752448D01*
X161340000Y-54737500D01*
X161340000Y-53797500D01*
X161340734Y-53782552D01*
X161342930Y-53767749D01*
X161346567Y-53753232D01*
X161351608Y-53739141D01*
X161358007Y-53725612D01*
X161365701Y-53712776D01*
X161374616Y-53700755D01*
X161384666Y-53689666D01*
X161395755Y-53679616D01*
X161407776Y-53670701D01*
X161420612Y-53663007D01*
X161434141Y-53656608D01*
X161448232Y-53651567D01*
X161462749Y-53647930D01*
X161477552Y-53645734D01*
X161492500Y-53645000D01*
X161797500Y-53645000D01*
X161812448Y-53645734D01*
G37*
G04 #@! TD.AperFunction*
G04 #@! TA.AperFunction,SMDPad,CuDef*
G36*
X163564865Y-52441202D02*
G01*
X163589095Y-52444796D01*
X163612855Y-52450748D01*
X163635918Y-52459000D01*
X163658061Y-52469472D01*
X163679070Y-52482065D01*
X163698745Y-52496657D01*
X163716894Y-52513106D01*
X163733343Y-52531255D01*
X163747935Y-52550930D01*
X163760528Y-52571939D01*
X163771000Y-52594082D01*
X163779252Y-52617145D01*
X163785204Y-52640905D01*
X163788798Y-52665135D01*
X163790000Y-52689600D01*
X163790000Y-53990400D01*
X163788798Y-54014865D01*
X163785204Y-54039095D01*
X163779252Y-54062855D01*
X163771000Y-54085918D01*
X163760528Y-54108061D01*
X163747935Y-54129070D01*
X163733343Y-54148745D01*
X163716894Y-54166894D01*
X163698745Y-54183343D01*
X163679070Y-54197935D01*
X163658061Y-54210528D01*
X163635918Y-54221000D01*
X163612855Y-54229252D01*
X163589095Y-54235204D01*
X163564865Y-54238798D01*
X163540400Y-54240000D01*
X162999600Y-54240000D01*
X162975135Y-54238798D01*
X162950905Y-54235204D01*
X162927145Y-54229252D01*
X162904082Y-54221000D01*
X162881939Y-54210528D01*
X162860930Y-54197935D01*
X162841255Y-54183343D01*
X162823106Y-54166894D01*
X162806657Y-54148745D01*
X162792065Y-54129070D01*
X162779472Y-54108061D01*
X162769000Y-54085918D01*
X162760748Y-54062855D01*
X162754796Y-54039095D01*
X162751202Y-54014865D01*
X162750000Y-53990400D01*
X162750000Y-52689600D01*
X162751202Y-52665135D01*
X162754796Y-52640905D01*
X162760748Y-52617145D01*
X162769000Y-52594082D01*
X162779472Y-52571939D01*
X162792065Y-52550930D01*
X162806657Y-52531255D01*
X162823106Y-52513106D01*
X162841255Y-52496657D01*
X162860930Y-52482065D01*
X162881939Y-52469472D01*
X162904082Y-52459000D01*
X162927145Y-52450748D01*
X162950905Y-52444796D01*
X162975135Y-52441202D01*
X162999600Y-52440000D01*
X163540400Y-52440000D01*
X163564865Y-52441202D01*
G37*
G04 #@! TD.AperFunction*
G04 #@! TA.AperFunction,SMDPad,CuDef*
G36*
X160314865Y-52441202D02*
G01*
X160339095Y-52444796D01*
X160362855Y-52450748D01*
X160385918Y-52459000D01*
X160408061Y-52469472D01*
X160429070Y-52482065D01*
X160448745Y-52496657D01*
X160466894Y-52513106D01*
X160483343Y-52531255D01*
X160497935Y-52550930D01*
X160510528Y-52571939D01*
X160521000Y-52594082D01*
X160529252Y-52617145D01*
X160535204Y-52640905D01*
X160538798Y-52665135D01*
X160540000Y-52689600D01*
X160540000Y-53990400D01*
X160538798Y-54014865D01*
X160535204Y-54039095D01*
X160529252Y-54062855D01*
X160521000Y-54085918D01*
X160510528Y-54108061D01*
X160497935Y-54129070D01*
X160483343Y-54148745D01*
X160466894Y-54166894D01*
X160448745Y-54183343D01*
X160429070Y-54197935D01*
X160408061Y-54210528D01*
X160385918Y-54221000D01*
X160362855Y-54229252D01*
X160339095Y-54235204D01*
X160314865Y-54238798D01*
X160290400Y-54240000D01*
X159749600Y-54240000D01*
X159725135Y-54238798D01*
X159700905Y-54235204D01*
X159677145Y-54229252D01*
X159654082Y-54221000D01*
X159631939Y-54210528D01*
X159610930Y-54197935D01*
X159591255Y-54183343D01*
X159573106Y-54166894D01*
X159556657Y-54148745D01*
X159542065Y-54129070D01*
X159529472Y-54108061D01*
X159519000Y-54085918D01*
X159510748Y-54062855D01*
X159504796Y-54039095D01*
X159501202Y-54014865D01*
X159500000Y-53990400D01*
X159500000Y-52689600D01*
X159501202Y-52665135D01*
X159504796Y-52640905D01*
X159510748Y-52617145D01*
X159519000Y-52594082D01*
X159529472Y-52571939D01*
X159542065Y-52550930D01*
X159556657Y-52531255D01*
X159573106Y-52513106D01*
X159591255Y-52496657D01*
X159610930Y-52482065D01*
X159631939Y-52469472D01*
X159654082Y-52459000D01*
X159677145Y-52450748D01*
X159700905Y-52444796D01*
X159725135Y-52441202D01*
X159749600Y-52440000D01*
X160290400Y-52440000D01*
X160314865Y-52441202D01*
G37*
G04 #@! TD.AperFunction*
D15*
X186690000Y-52235000D03*
X186690000Y-54445000D03*
G04 #@! TA.AperFunction,SMDPad,CuDef*
D13*
G36*
X186857448Y-51790734D02*
G01*
X186872251Y-51792930D01*
X186886768Y-51796567D01*
X186900859Y-51801608D01*
X186914388Y-51808007D01*
X186927224Y-51815701D01*
X186939245Y-51824616D01*
X186950334Y-51834666D01*
X186960384Y-51845755D01*
X186969299Y-51857776D01*
X186976993Y-51870612D01*
X186983392Y-51884141D01*
X186988433Y-51898232D01*
X186992070Y-51912749D01*
X186994266Y-51927552D01*
X186995000Y-51942500D01*
X186995000Y-52882500D01*
X186994266Y-52897448D01*
X186992070Y-52912251D01*
X186988433Y-52926768D01*
X186983392Y-52940859D01*
X186976993Y-52954388D01*
X186969299Y-52967224D01*
X186960384Y-52979245D01*
X186950334Y-52990334D01*
X186939245Y-53000384D01*
X186927224Y-53009299D01*
X186914388Y-53016993D01*
X186900859Y-53023392D01*
X186886768Y-53028433D01*
X186872251Y-53032070D01*
X186857448Y-53034266D01*
X186842500Y-53035000D01*
X186537500Y-53035000D01*
X186522552Y-53034266D01*
X186507749Y-53032070D01*
X186493232Y-53028433D01*
X186479141Y-53023392D01*
X186465612Y-53016993D01*
X186452776Y-53009299D01*
X186440755Y-53000384D01*
X186429666Y-52990334D01*
X186419616Y-52979245D01*
X186410701Y-52967224D01*
X186403007Y-52954388D01*
X186396608Y-52940859D01*
X186391567Y-52926768D01*
X186387930Y-52912251D01*
X186385734Y-52897448D01*
X186385000Y-52882500D01*
X186385000Y-51942500D01*
X186385734Y-51927552D01*
X186387930Y-51912749D01*
X186391567Y-51898232D01*
X186396608Y-51884141D01*
X186403007Y-51870612D01*
X186410701Y-51857776D01*
X186419616Y-51845755D01*
X186429666Y-51834666D01*
X186440755Y-51824616D01*
X186452776Y-51815701D01*
X186465612Y-51808007D01*
X186479141Y-51801608D01*
X186493232Y-51796567D01*
X186507749Y-51792930D01*
X186522552Y-51790734D01*
X186537500Y-51790000D01*
X186842500Y-51790000D01*
X186857448Y-51790734D01*
G37*
G04 #@! TD.AperFunction*
G04 #@! TA.AperFunction,SMDPad,CuDef*
G36*
X186857448Y-53645734D02*
G01*
X186872251Y-53647930D01*
X186886768Y-53651567D01*
X186900859Y-53656608D01*
X186914388Y-53663007D01*
X186927224Y-53670701D01*
X186939245Y-53679616D01*
X186950334Y-53689666D01*
X186960384Y-53700755D01*
X186969299Y-53712776D01*
X186976993Y-53725612D01*
X186983392Y-53739141D01*
X186988433Y-53753232D01*
X186992070Y-53767749D01*
X186994266Y-53782552D01*
X186995000Y-53797500D01*
X186995000Y-54737500D01*
X186994266Y-54752448D01*
X186992070Y-54767251D01*
X186988433Y-54781768D01*
X186983392Y-54795859D01*
X186976993Y-54809388D01*
X186969299Y-54822224D01*
X186960384Y-54834245D01*
X186950334Y-54845334D01*
X186939245Y-54855384D01*
X186927224Y-54864299D01*
X186914388Y-54871993D01*
X186900859Y-54878392D01*
X186886768Y-54883433D01*
X186872251Y-54887070D01*
X186857448Y-54889266D01*
X186842500Y-54890000D01*
X186537500Y-54890000D01*
X186522552Y-54889266D01*
X186507749Y-54887070D01*
X186493232Y-54883433D01*
X186479141Y-54878392D01*
X186465612Y-54871993D01*
X186452776Y-54864299D01*
X186440755Y-54855384D01*
X186429666Y-54845334D01*
X186419616Y-54834245D01*
X186410701Y-54822224D01*
X186403007Y-54809388D01*
X186396608Y-54795859D01*
X186391567Y-54781768D01*
X186387930Y-54767251D01*
X186385734Y-54752448D01*
X186385000Y-54737500D01*
X186385000Y-53797500D01*
X186385734Y-53782552D01*
X186387930Y-53767749D01*
X186391567Y-53753232D01*
X186396608Y-53739141D01*
X186403007Y-53725612D01*
X186410701Y-53712776D01*
X186419616Y-53700755D01*
X186429666Y-53689666D01*
X186440755Y-53679616D01*
X186452776Y-53670701D01*
X186465612Y-53663007D01*
X186479141Y-53656608D01*
X186493232Y-53651567D01*
X186507749Y-53647930D01*
X186522552Y-53645734D01*
X186537500Y-53645000D01*
X186842500Y-53645000D01*
X186857448Y-53645734D01*
G37*
G04 #@! TD.AperFunction*
G04 #@! TA.AperFunction,SMDPad,CuDef*
G36*
X188609865Y-52441202D02*
G01*
X188634095Y-52444796D01*
X188657855Y-52450748D01*
X188680918Y-52459000D01*
X188703061Y-52469472D01*
X188724070Y-52482065D01*
X188743745Y-52496657D01*
X188761894Y-52513106D01*
X188778343Y-52531255D01*
X188792935Y-52550930D01*
X188805528Y-52571939D01*
X188816000Y-52594082D01*
X188824252Y-52617145D01*
X188830204Y-52640905D01*
X188833798Y-52665135D01*
X188835000Y-52689600D01*
X188835000Y-53990400D01*
X188833798Y-54014865D01*
X188830204Y-54039095D01*
X188824252Y-54062855D01*
X188816000Y-54085918D01*
X188805528Y-54108061D01*
X188792935Y-54129070D01*
X188778343Y-54148745D01*
X188761894Y-54166894D01*
X188743745Y-54183343D01*
X188724070Y-54197935D01*
X188703061Y-54210528D01*
X188680918Y-54221000D01*
X188657855Y-54229252D01*
X188634095Y-54235204D01*
X188609865Y-54238798D01*
X188585400Y-54240000D01*
X188044600Y-54240000D01*
X188020135Y-54238798D01*
X187995905Y-54235204D01*
X187972145Y-54229252D01*
X187949082Y-54221000D01*
X187926939Y-54210528D01*
X187905930Y-54197935D01*
X187886255Y-54183343D01*
X187868106Y-54166894D01*
X187851657Y-54148745D01*
X187837065Y-54129070D01*
X187824472Y-54108061D01*
X187814000Y-54085918D01*
X187805748Y-54062855D01*
X187799796Y-54039095D01*
X187796202Y-54014865D01*
X187795000Y-53990400D01*
X187795000Y-52689600D01*
X187796202Y-52665135D01*
X187799796Y-52640905D01*
X187805748Y-52617145D01*
X187814000Y-52594082D01*
X187824472Y-52571939D01*
X187837065Y-52550930D01*
X187851657Y-52531255D01*
X187868106Y-52513106D01*
X187886255Y-52496657D01*
X187905930Y-52482065D01*
X187926939Y-52469472D01*
X187949082Y-52459000D01*
X187972145Y-52450748D01*
X187995905Y-52444796D01*
X188020135Y-52441202D01*
X188044600Y-52440000D01*
X188585400Y-52440000D01*
X188609865Y-52441202D01*
G37*
G04 #@! TD.AperFunction*
G04 #@! TA.AperFunction,SMDPad,CuDef*
G36*
X185359865Y-52441202D02*
G01*
X185384095Y-52444796D01*
X185407855Y-52450748D01*
X185430918Y-52459000D01*
X185453061Y-52469472D01*
X185474070Y-52482065D01*
X185493745Y-52496657D01*
X185511894Y-52513106D01*
X185528343Y-52531255D01*
X185542935Y-52550930D01*
X185555528Y-52571939D01*
X185566000Y-52594082D01*
X185574252Y-52617145D01*
X185580204Y-52640905D01*
X185583798Y-52665135D01*
X185585000Y-52689600D01*
X185585000Y-53990400D01*
X185583798Y-54014865D01*
X185580204Y-54039095D01*
X185574252Y-54062855D01*
X185566000Y-54085918D01*
X185555528Y-54108061D01*
X185542935Y-54129070D01*
X185528343Y-54148745D01*
X185511894Y-54166894D01*
X185493745Y-54183343D01*
X185474070Y-54197935D01*
X185453061Y-54210528D01*
X185430918Y-54221000D01*
X185407855Y-54229252D01*
X185384095Y-54235204D01*
X185359865Y-54238798D01*
X185335400Y-54240000D01*
X184794600Y-54240000D01*
X184770135Y-54238798D01*
X184745905Y-54235204D01*
X184722145Y-54229252D01*
X184699082Y-54221000D01*
X184676939Y-54210528D01*
X184655930Y-54197935D01*
X184636255Y-54183343D01*
X184618106Y-54166894D01*
X184601657Y-54148745D01*
X184587065Y-54129070D01*
X184574472Y-54108061D01*
X184564000Y-54085918D01*
X184555748Y-54062855D01*
X184549796Y-54039095D01*
X184546202Y-54014865D01*
X184545000Y-53990400D01*
X184545000Y-52689600D01*
X184546202Y-52665135D01*
X184549796Y-52640905D01*
X184555748Y-52617145D01*
X184564000Y-52594082D01*
X184574472Y-52571939D01*
X184587065Y-52550930D01*
X184601657Y-52531255D01*
X184618106Y-52513106D01*
X184636255Y-52496657D01*
X184655930Y-52482065D01*
X184676939Y-52469472D01*
X184699082Y-52459000D01*
X184722145Y-52450748D01*
X184745905Y-52444796D01*
X184770135Y-52441202D01*
X184794600Y-52440000D01*
X185335400Y-52440000D01*
X185359865Y-52441202D01*
G37*
G04 #@! TD.AperFunction*
D16*
X174940000Y-54860000D03*
X174940000Y-55360000D03*
X173040000Y-55360000D03*
X173040000Y-54360000D03*
X173040000Y-53860000D03*
D17*
X173990000Y-54610000D03*
D16*
X174940000Y-53860000D03*
X174940000Y-54360000D03*
X173040000Y-54860000D03*
D18*
X186690000Y-38100000D03*
X186690000Y-42700000D03*
X186690000Y-40400000D03*
D19*
X192990000Y-40400000D03*
D20*
X201930000Y-40640000D03*
X201930000Y-36830000D03*
G04 #@! TA.AperFunction,SMDPad,CuDef*
D13*
G36*
X196419505Y-43751204D02*
G01*
X196443773Y-43754804D01*
X196467572Y-43760765D01*
X196490671Y-43769030D01*
X196512850Y-43779520D01*
X196533893Y-43792132D01*
X196553599Y-43806747D01*
X196571777Y-43823223D01*
X196588253Y-43841401D01*
X196602868Y-43861107D01*
X196615480Y-43882150D01*
X196625970Y-43904329D01*
X196634235Y-43927428D01*
X196640196Y-43951227D01*
X196643796Y-43975495D01*
X196645000Y-43999999D01*
X196645000Y-44900001D01*
X196643796Y-44924505D01*
X196640196Y-44948773D01*
X196634235Y-44972572D01*
X196625970Y-44995671D01*
X196615480Y-45017850D01*
X196602868Y-45038893D01*
X196588253Y-45058599D01*
X196571777Y-45076777D01*
X196553599Y-45093253D01*
X196533893Y-45107868D01*
X196512850Y-45120480D01*
X196490671Y-45130970D01*
X196467572Y-45139235D01*
X196443773Y-45145196D01*
X196419505Y-45148796D01*
X196395001Y-45150000D01*
X195744999Y-45150000D01*
X195720495Y-45148796D01*
X195696227Y-45145196D01*
X195672428Y-45139235D01*
X195649329Y-45130970D01*
X195627150Y-45120480D01*
X195606107Y-45107868D01*
X195586401Y-45093253D01*
X195568223Y-45076777D01*
X195551747Y-45058599D01*
X195537132Y-45038893D01*
X195524520Y-45017850D01*
X195514030Y-44995671D01*
X195505765Y-44972572D01*
X195499804Y-44948773D01*
X195496204Y-44924505D01*
X195495000Y-44900001D01*
X195495000Y-43999999D01*
X195496204Y-43975495D01*
X195499804Y-43951227D01*
X195505765Y-43927428D01*
X195514030Y-43904329D01*
X195524520Y-43882150D01*
X195537132Y-43861107D01*
X195551747Y-43841401D01*
X195568223Y-43823223D01*
X195586401Y-43806747D01*
X195606107Y-43792132D01*
X195627150Y-43779520D01*
X195649329Y-43769030D01*
X195672428Y-43760765D01*
X195696227Y-43754804D01*
X195720495Y-43751204D01*
X195744999Y-43750000D01*
X196395001Y-43750000D01*
X196419505Y-43751204D01*
G37*
G04 #@! TD.AperFunction*
G04 #@! TA.AperFunction,SMDPad,CuDef*
G36*
X198469505Y-43751204D02*
G01*
X198493773Y-43754804D01*
X198517572Y-43760765D01*
X198540671Y-43769030D01*
X198562850Y-43779520D01*
X198583893Y-43792132D01*
X198603599Y-43806747D01*
X198621777Y-43823223D01*
X198638253Y-43841401D01*
X198652868Y-43861107D01*
X198665480Y-43882150D01*
X198675970Y-43904329D01*
X198684235Y-43927428D01*
X198690196Y-43951227D01*
X198693796Y-43975495D01*
X198695000Y-43999999D01*
X198695000Y-44900001D01*
X198693796Y-44924505D01*
X198690196Y-44948773D01*
X198684235Y-44972572D01*
X198675970Y-44995671D01*
X198665480Y-45017850D01*
X198652868Y-45038893D01*
X198638253Y-45058599D01*
X198621777Y-45076777D01*
X198603599Y-45093253D01*
X198583893Y-45107868D01*
X198562850Y-45120480D01*
X198540671Y-45130970D01*
X198517572Y-45139235D01*
X198493773Y-45145196D01*
X198469505Y-45148796D01*
X198445001Y-45150000D01*
X197794999Y-45150000D01*
X197770495Y-45148796D01*
X197746227Y-45145196D01*
X197722428Y-45139235D01*
X197699329Y-45130970D01*
X197677150Y-45120480D01*
X197656107Y-45107868D01*
X197636401Y-45093253D01*
X197618223Y-45076777D01*
X197601747Y-45058599D01*
X197587132Y-45038893D01*
X197574520Y-45017850D01*
X197564030Y-44995671D01*
X197555765Y-44972572D01*
X197549804Y-44948773D01*
X197546204Y-44924505D01*
X197545000Y-44900001D01*
X197545000Y-43999999D01*
X197546204Y-43975495D01*
X197549804Y-43951227D01*
X197555765Y-43927428D01*
X197564030Y-43904329D01*
X197574520Y-43882150D01*
X197587132Y-43861107D01*
X197601747Y-43841401D01*
X197618223Y-43823223D01*
X197636401Y-43806747D01*
X197656107Y-43792132D01*
X197677150Y-43779520D01*
X197699329Y-43769030D01*
X197722428Y-43760765D01*
X197746227Y-43754804D01*
X197770495Y-43751204D01*
X197794999Y-43750000D01*
X198445001Y-43750000D01*
X198469505Y-43751204D01*
G37*
G04 #@! TD.AperFunction*
D21*
X195580000Y-36830000D03*
X196850000Y-36830000D03*
X198120000Y-36830000D03*
X199390000Y-36830000D03*
X200660000Y-36830000D03*
X173990000Y-54610000D03*
X165100000Y-43180000D03*
X165100000Y-46990000D03*
X158750000Y-44450000D03*
X158750000Y-63500000D03*
X184380000Y-37870000D03*
X185420000Y-46990000D03*
X166370000Y-43180000D03*
X166370000Y-46990000D03*
X157480000Y-44450000D03*
X157480000Y-63500000D03*
X186690000Y-46990000D03*
X185180000Y-38340000D03*
X170180000Y-50800000D03*
X168910000Y-49530000D03*
X200660000Y-44450000D03*
X199390000Y-44450000D03*
D22*
X195580000Y-36830000D02*
X195580000Y-36830000D01*
X195580000Y-36830000D02*
X196850000Y-36830000D01*
X196850000Y-36830000D02*
X198120000Y-36830000D01*
X198120000Y-36830000D02*
X198120000Y-36830000D01*
X199390000Y-36830000D02*
X200660000Y-36830000D01*
X200660000Y-36830000D02*
X201930000Y-36830000D01*
X201930000Y-36830000D02*
X201930000Y-36830000D01*
X195580000Y-36830000D02*
X195580000Y-36830000D01*
X196850000Y-36830000D02*
X196850000Y-36830000D01*
X198120000Y-36830000D02*
X199390000Y-36830000D01*
X199390000Y-36830000D02*
X199390000Y-36830000D01*
X200660000Y-36830000D02*
X200660000Y-36830000D01*
D23*
X156590000Y-44450000D02*
X157480000Y-44450000D01*
X156970000Y-63500000D02*
X157480000Y-63500000D01*
D24*
X167885000Y-43180000D02*
X166370000Y-43180000D01*
X167885000Y-46990000D02*
X166370000Y-46990000D01*
X165100000Y-43180000D02*
X165100000Y-43180000D01*
X165100000Y-46990000D02*
X165100000Y-46990000D01*
D23*
X158750000Y-44450000D02*
X158750000Y-44450000D01*
X158750000Y-63500000D02*
X158920000Y-63500000D01*
X184850000Y-38340000D02*
X184380000Y-37870000D01*
X187350000Y-38340000D02*
X186450000Y-38340000D01*
X188450000Y-46990000D02*
X186690000Y-46990000D01*
X184380000Y-37870000D02*
X184150000Y-37640000D01*
X185420000Y-46990000D02*
X185420000Y-46990000D01*
D24*
X166370000Y-43180000D02*
X165100000Y-43180000D01*
X166370000Y-46990000D02*
X165100000Y-46990000D01*
D23*
X157480000Y-44450000D02*
X158750000Y-44450000D01*
X157480000Y-63500000D02*
X158750000Y-63500000D01*
X186690000Y-46990000D02*
X185420000Y-46990000D01*
X186450000Y-38340000D02*
X185180000Y-38340000D01*
X185180000Y-38340000D02*
X184850000Y-38340000D01*
D24*
X170670000Y-52070000D02*
X170670000Y-51290000D01*
X170670000Y-51290000D02*
X170180000Y-50800000D01*
X170180000Y-50800000D02*
X168910000Y-49530000D01*
X168910000Y-49530000D02*
X168910000Y-49530000D01*
X198120000Y-44450000D02*
X199390000Y-44450000D01*
X200660000Y-44450000D02*
X200660000Y-44450000D01*
X199390000Y-44450000D02*
X200660000Y-44450000D01*
D22*
X139700000Y-53340000D02*
X147320000Y-53340000D01*
D23*
X148265000Y-53340000D02*
X147320000Y-53340000D01*
X148835000Y-52770000D02*
X148265000Y-53340000D01*
X148835000Y-52070000D02*
X148835000Y-52770000D01*
X148835000Y-54855000D02*
X147320000Y-53340000D01*
X148835000Y-55880000D02*
X148835000Y-54855000D01*
X150885000Y-52070000D02*
X153670000Y-52070000D01*
X150885000Y-55880000D02*
X153670000Y-55880000D01*
X153670000Y-52070000D02*
X153670000Y-55880000D01*
X153670000Y-55880000D02*
X153915000Y-55880000D01*
X155720000Y-52070000D02*
X158750000Y-52070000D01*
X158750000Y-52070000D02*
X160020000Y-53340000D01*
X155965000Y-55880000D02*
X158750000Y-55880000D01*
X158750000Y-55880000D02*
X160020000Y-54610000D01*
X155720000Y-49130000D02*
X156590000Y-48260000D01*
X155720000Y-52070000D02*
X155720000Y-49130000D01*
X155965000Y-58685000D02*
X156970000Y-59690000D01*
X155965000Y-55880000D02*
X155965000Y-58685000D01*
X165100000Y-53340000D02*
X166370000Y-52070000D01*
X163270000Y-53340000D02*
X165100000Y-53340000D01*
X166370000Y-54610000D02*
X166370000Y-55880000D01*
X165100000Y-53340000D02*
X166370000Y-54610000D01*
X168420000Y-52070000D02*
X168420000Y-55880000D01*
D25*
X173040000Y-54360000D02*
X171700000Y-54360000D01*
X171700000Y-54360000D02*
X171450000Y-54610000D01*
D23*
X168420000Y-55180000D02*
X168990000Y-54610000D01*
X168420000Y-55880000D02*
X168420000Y-55180000D01*
X168990000Y-54610000D02*
X171450000Y-54610000D01*
D24*
X169935000Y-46990000D02*
X169935000Y-43180000D01*
X185600000Y-42940000D02*
X187350000Y-42940000D01*
D25*
X173040000Y-52390000D02*
X172720000Y-52070000D01*
X173040000Y-53860000D02*
X173040000Y-52390000D01*
D24*
X170510000Y-46990000D02*
X169935000Y-46990000D01*
X171115001Y-47595001D02*
X170510000Y-46990000D01*
X171115001Y-49201484D02*
X171115001Y-47595001D01*
X172720000Y-50806483D02*
X171115001Y-49201484D01*
X172720000Y-52070000D02*
X172720000Y-50806483D01*
X169935000Y-43180000D02*
X173990000Y-43180000D01*
X173990000Y-41160000D02*
X174510000Y-40640000D01*
X173990000Y-43180000D02*
X173990000Y-41160000D01*
X184940000Y-42700000D02*
X186690000Y-42700000D01*
X182880000Y-40640000D02*
X184940000Y-42700000D01*
X174510000Y-40640000D02*
X182880000Y-40640000D01*
D23*
X182635000Y-53340000D02*
X181365000Y-52070000D01*
X185065000Y-53340000D02*
X182635000Y-53340000D01*
X181365000Y-54610000D02*
X181365000Y-55880000D01*
X182635000Y-53340000D02*
X181365000Y-54610000D01*
D25*
X174940000Y-54360000D02*
X176280000Y-54360000D01*
X176280000Y-54360000D02*
X176530000Y-54610000D01*
D23*
X177800000Y-55880000D02*
X179315000Y-55880000D01*
X176530000Y-54610000D02*
X177800000Y-55880000D01*
X179315000Y-55880000D02*
X179315000Y-52070000D01*
X179070000Y-51825000D02*
X179315000Y-52070000D01*
X179070000Y-48260000D02*
X179070000Y-51825000D01*
X187350000Y-40640000D02*
X193040000Y-40640000D01*
X190500000Y-43790000D02*
X193650000Y-40640000D01*
X190500000Y-46990000D02*
X190500000Y-43790000D01*
D22*
X197850000Y-40640000D02*
X201930000Y-40640000D01*
D24*
X196070000Y-41130000D02*
X195580000Y-40640000D01*
X196070000Y-44450000D02*
X196070000Y-41130000D01*
D22*
X193650000Y-40640000D02*
X195580000Y-40640000D01*
X195580000Y-40640000D02*
X197850000Y-40640000D01*
D23*
X153290000Y-48260000D02*
X151510000Y-48260000D01*
X148210000Y-45340000D02*
X147320000Y-44450000D01*
X148210000Y-48260000D02*
X148210000Y-45340000D01*
X150620000Y-44450000D02*
X153290000Y-44450000D01*
X153670000Y-59690000D02*
X151890000Y-59690000D01*
X148590000Y-62740000D02*
X147830000Y-63500000D01*
X148590000Y-59690000D02*
X148590000Y-62740000D01*
X151130000Y-63500000D02*
X153670000Y-63500000D01*
D22*
X199390000Y-53340000D02*
X189230000Y-53340000D01*
M02*
