G04 #@! TF.GenerationSoftware,KiCad,Pcbnew,5.1.5-52549c5~84~ubuntu18.04.1*
G04 #@! TF.CreationDate,2019-12-29T09:20:39+09:30*
G04 #@! TF.ProjectId,SpectrumAnalyser,53706563-7472-4756-9d41-6e616c797365,rev?*
G04 #@! TF.SameCoordinates,Original*
G04 #@! TF.FileFunction,Copper,L1,Top*
G04 #@! TF.FilePolarity,Positive*
%FSLAX46Y46*%
G04 Gerber Fmt 4.6, Leading zero omitted, Abs format (unit mm)*
G04 Created by KiCad (PCBNEW 5.1.5-52549c5~84~ubuntu18.04.1) date 2019-12-29 09:20:39*
%MOMM*%
%LPD*%
G04 APERTURE LIST*
%ADD10R,0.300000X1.600000*%
%ADD11C,0.100000*%
%ADD12C,2.050000*%
%ADD13C,2.250000*%
%ADD14R,1.727200X1.727200*%
%ADD15O,1.727200X1.727200*%
%ADD16R,2.000000X3.800000*%
%ADD17R,2.000000X1.500000*%
%ADD18C,0.800000*%
%ADD19C,0.250000*%
G04 APERTURE END LIST*
D10*
X161585000Y-101170000D03*
X162235000Y-101170000D03*
X162885000Y-101170000D03*
X163535000Y-101170000D03*
X163535000Y-104570000D03*
X162885000Y-104570000D03*
X162235000Y-104570000D03*
X161585000Y-104570000D03*
G04 #@! TA.AperFunction,SMDPad,CuDef*
D11*
G36*
X190849505Y-99631204D02*
G01*
X190873773Y-99634804D01*
X190897572Y-99640765D01*
X190920671Y-99649030D01*
X190942850Y-99659520D01*
X190963893Y-99672132D01*
X190983599Y-99686747D01*
X191001777Y-99703223D01*
X191018253Y-99721401D01*
X191032868Y-99741107D01*
X191045480Y-99762150D01*
X191055970Y-99784329D01*
X191064235Y-99807428D01*
X191070196Y-99831227D01*
X191073796Y-99855495D01*
X191075000Y-99879999D01*
X191075000Y-100780001D01*
X191073796Y-100804505D01*
X191070196Y-100828773D01*
X191064235Y-100852572D01*
X191055970Y-100875671D01*
X191045480Y-100897850D01*
X191032868Y-100918893D01*
X191018253Y-100938599D01*
X191001777Y-100956777D01*
X190983599Y-100973253D01*
X190963893Y-100987868D01*
X190942850Y-101000480D01*
X190920671Y-101010970D01*
X190897572Y-101019235D01*
X190873773Y-101025196D01*
X190849505Y-101028796D01*
X190825001Y-101030000D01*
X190174999Y-101030000D01*
X190150495Y-101028796D01*
X190126227Y-101025196D01*
X190102428Y-101019235D01*
X190079329Y-101010970D01*
X190057150Y-101000480D01*
X190036107Y-100987868D01*
X190016401Y-100973253D01*
X189998223Y-100956777D01*
X189981747Y-100938599D01*
X189967132Y-100918893D01*
X189954520Y-100897850D01*
X189944030Y-100875671D01*
X189935765Y-100852572D01*
X189929804Y-100828773D01*
X189926204Y-100804505D01*
X189925000Y-100780001D01*
X189925000Y-99879999D01*
X189926204Y-99855495D01*
X189929804Y-99831227D01*
X189935765Y-99807428D01*
X189944030Y-99784329D01*
X189954520Y-99762150D01*
X189967132Y-99741107D01*
X189981747Y-99721401D01*
X189998223Y-99703223D01*
X190016401Y-99686747D01*
X190036107Y-99672132D01*
X190057150Y-99659520D01*
X190079329Y-99649030D01*
X190102428Y-99640765D01*
X190126227Y-99634804D01*
X190150495Y-99631204D01*
X190174999Y-99630000D01*
X190825001Y-99630000D01*
X190849505Y-99631204D01*
G37*
G04 #@! TD.AperFunction*
G04 #@! TA.AperFunction,SMDPad,CuDef*
G36*
X188799505Y-99631204D02*
G01*
X188823773Y-99634804D01*
X188847572Y-99640765D01*
X188870671Y-99649030D01*
X188892850Y-99659520D01*
X188913893Y-99672132D01*
X188933599Y-99686747D01*
X188951777Y-99703223D01*
X188968253Y-99721401D01*
X188982868Y-99741107D01*
X188995480Y-99762150D01*
X189005970Y-99784329D01*
X189014235Y-99807428D01*
X189020196Y-99831227D01*
X189023796Y-99855495D01*
X189025000Y-99879999D01*
X189025000Y-100780001D01*
X189023796Y-100804505D01*
X189020196Y-100828773D01*
X189014235Y-100852572D01*
X189005970Y-100875671D01*
X188995480Y-100897850D01*
X188982868Y-100918893D01*
X188968253Y-100938599D01*
X188951777Y-100956777D01*
X188933599Y-100973253D01*
X188913893Y-100987868D01*
X188892850Y-101000480D01*
X188870671Y-101010970D01*
X188847572Y-101019235D01*
X188823773Y-101025196D01*
X188799505Y-101028796D01*
X188775001Y-101030000D01*
X188124999Y-101030000D01*
X188100495Y-101028796D01*
X188076227Y-101025196D01*
X188052428Y-101019235D01*
X188029329Y-101010970D01*
X188007150Y-101000480D01*
X187986107Y-100987868D01*
X187966401Y-100973253D01*
X187948223Y-100956777D01*
X187931747Y-100938599D01*
X187917132Y-100918893D01*
X187904520Y-100897850D01*
X187894030Y-100875671D01*
X187885765Y-100852572D01*
X187879804Y-100828773D01*
X187876204Y-100804505D01*
X187875000Y-100780001D01*
X187875000Y-99879999D01*
X187876204Y-99855495D01*
X187879804Y-99831227D01*
X187885765Y-99807428D01*
X187894030Y-99784329D01*
X187904520Y-99762150D01*
X187917132Y-99741107D01*
X187931747Y-99721401D01*
X187948223Y-99703223D01*
X187966401Y-99686747D01*
X187986107Y-99672132D01*
X188007150Y-99659520D01*
X188029329Y-99649030D01*
X188052428Y-99640765D01*
X188076227Y-99634804D01*
X188100495Y-99631204D01*
X188124999Y-99630000D01*
X188775001Y-99630000D01*
X188799505Y-99631204D01*
G37*
G04 #@! TD.AperFunction*
G04 #@! TA.AperFunction,SMDPad,CuDef*
G36*
X157740779Y-95121144D02*
G01*
X157763834Y-95124563D01*
X157786443Y-95130227D01*
X157808387Y-95138079D01*
X157829457Y-95148044D01*
X157849448Y-95160026D01*
X157868168Y-95173910D01*
X157885438Y-95189562D01*
X157901090Y-95206832D01*
X157914974Y-95225552D01*
X157926956Y-95245543D01*
X157936921Y-95266613D01*
X157944773Y-95288557D01*
X157950437Y-95311166D01*
X157953856Y-95334221D01*
X157955000Y-95357500D01*
X157955000Y-95932500D01*
X157953856Y-95955779D01*
X157950437Y-95978834D01*
X157944773Y-96001443D01*
X157936921Y-96023387D01*
X157926956Y-96044457D01*
X157914974Y-96064448D01*
X157901090Y-96083168D01*
X157885438Y-96100438D01*
X157868168Y-96116090D01*
X157849448Y-96129974D01*
X157829457Y-96141956D01*
X157808387Y-96151921D01*
X157786443Y-96159773D01*
X157763834Y-96165437D01*
X157740779Y-96168856D01*
X157717500Y-96170000D01*
X157242500Y-96170000D01*
X157219221Y-96168856D01*
X157196166Y-96165437D01*
X157173557Y-96159773D01*
X157151613Y-96151921D01*
X157130543Y-96141956D01*
X157110552Y-96129974D01*
X157091832Y-96116090D01*
X157074562Y-96100438D01*
X157058910Y-96083168D01*
X157045026Y-96064448D01*
X157033044Y-96044457D01*
X157023079Y-96023387D01*
X157015227Y-96001443D01*
X157009563Y-95978834D01*
X157006144Y-95955779D01*
X157005000Y-95932500D01*
X157005000Y-95357500D01*
X157006144Y-95334221D01*
X157009563Y-95311166D01*
X157015227Y-95288557D01*
X157023079Y-95266613D01*
X157033044Y-95245543D01*
X157045026Y-95225552D01*
X157058910Y-95206832D01*
X157074562Y-95189562D01*
X157091832Y-95173910D01*
X157110552Y-95160026D01*
X157130543Y-95148044D01*
X157151613Y-95138079D01*
X157173557Y-95130227D01*
X157196166Y-95124563D01*
X157219221Y-95121144D01*
X157242500Y-95120000D01*
X157717500Y-95120000D01*
X157740779Y-95121144D01*
G37*
G04 #@! TD.AperFunction*
G04 #@! TA.AperFunction,SMDPad,CuDef*
G36*
X157740779Y-96871144D02*
G01*
X157763834Y-96874563D01*
X157786443Y-96880227D01*
X157808387Y-96888079D01*
X157829457Y-96898044D01*
X157849448Y-96910026D01*
X157868168Y-96923910D01*
X157885438Y-96939562D01*
X157901090Y-96956832D01*
X157914974Y-96975552D01*
X157926956Y-96995543D01*
X157936921Y-97016613D01*
X157944773Y-97038557D01*
X157950437Y-97061166D01*
X157953856Y-97084221D01*
X157955000Y-97107500D01*
X157955000Y-97682500D01*
X157953856Y-97705779D01*
X157950437Y-97728834D01*
X157944773Y-97751443D01*
X157936921Y-97773387D01*
X157926956Y-97794457D01*
X157914974Y-97814448D01*
X157901090Y-97833168D01*
X157885438Y-97850438D01*
X157868168Y-97866090D01*
X157849448Y-97879974D01*
X157829457Y-97891956D01*
X157808387Y-97901921D01*
X157786443Y-97909773D01*
X157763834Y-97915437D01*
X157740779Y-97918856D01*
X157717500Y-97920000D01*
X157242500Y-97920000D01*
X157219221Y-97918856D01*
X157196166Y-97915437D01*
X157173557Y-97909773D01*
X157151613Y-97901921D01*
X157130543Y-97891956D01*
X157110552Y-97879974D01*
X157091832Y-97866090D01*
X157074562Y-97850438D01*
X157058910Y-97833168D01*
X157045026Y-97814448D01*
X157033044Y-97794457D01*
X157023079Y-97773387D01*
X157015227Y-97751443D01*
X157009563Y-97728834D01*
X157006144Y-97705779D01*
X157005000Y-97682500D01*
X157005000Y-97107500D01*
X157006144Y-97084221D01*
X157009563Y-97061166D01*
X157015227Y-97038557D01*
X157023079Y-97016613D01*
X157033044Y-96995543D01*
X157045026Y-96975552D01*
X157058910Y-96956832D01*
X157074562Y-96939562D01*
X157091832Y-96923910D01*
X157110552Y-96910026D01*
X157130543Y-96898044D01*
X157151613Y-96888079D01*
X157173557Y-96880227D01*
X157196166Y-96874563D01*
X157219221Y-96871144D01*
X157242500Y-96870000D01*
X157717500Y-96870000D01*
X157740779Y-96871144D01*
G37*
G04 #@! TD.AperFunction*
G04 #@! TA.AperFunction,SMDPad,CuDef*
G36*
X157790779Y-99856144D02*
G01*
X157813834Y-99859563D01*
X157836443Y-99865227D01*
X157858387Y-99873079D01*
X157879457Y-99883044D01*
X157899448Y-99895026D01*
X157918168Y-99908910D01*
X157935438Y-99924562D01*
X157951090Y-99941832D01*
X157964974Y-99960552D01*
X157976956Y-99980543D01*
X157986921Y-100001613D01*
X157994773Y-100023557D01*
X158000437Y-100046166D01*
X158003856Y-100069221D01*
X158005000Y-100092500D01*
X158005000Y-100567500D01*
X158003856Y-100590779D01*
X158000437Y-100613834D01*
X157994773Y-100636443D01*
X157986921Y-100658387D01*
X157976956Y-100679457D01*
X157964974Y-100699448D01*
X157951090Y-100718168D01*
X157935438Y-100735438D01*
X157918168Y-100751090D01*
X157899448Y-100764974D01*
X157879457Y-100776956D01*
X157858387Y-100786921D01*
X157836443Y-100794773D01*
X157813834Y-100800437D01*
X157790779Y-100803856D01*
X157767500Y-100805000D01*
X157192500Y-100805000D01*
X157169221Y-100803856D01*
X157146166Y-100800437D01*
X157123557Y-100794773D01*
X157101613Y-100786921D01*
X157080543Y-100776956D01*
X157060552Y-100764974D01*
X157041832Y-100751090D01*
X157024562Y-100735438D01*
X157008910Y-100718168D01*
X156995026Y-100699448D01*
X156983044Y-100679457D01*
X156973079Y-100658387D01*
X156965227Y-100636443D01*
X156959563Y-100613834D01*
X156956144Y-100590779D01*
X156955000Y-100567500D01*
X156955000Y-100092500D01*
X156956144Y-100069221D01*
X156959563Y-100046166D01*
X156965227Y-100023557D01*
X156973079Y-100001613D01*
X156983044Y-99980543D01*
X156995026Y-99960552D01*
X157008910Y-99941832D01*
X157024562Y-99924562D01*
X157041832Y-99908910D01*
X157060552Y-99895026D01*
X157080543Y-99883044D01*
X157101613Y-99873079D01*
X157123557Y-99865227D01*
X157146166Y-99859563D01*
X157169221Y-99856144D01*
X157192500Y-99855000D01*
X157767500Y-99855000D01*
X157790779Y-99856144D01*
G37*
G04 #@! TD.AperFunction*
G04 #@! TA.AperFunction,SMDPad,CuDef*
G36*
X156040779Y-99856144D02*
G01*
X156063834Y-99859563D01*
X156086443Y-99865227D01*
X156108387Y-99873079D01*
X156129457Y-99883044D01*
X156149448Y-99895026D01*
X156168168Y-99908910D01*
X156185438Y-99924562D01*
X156201090Y-99941832D01*
X156214974Y-99960552D01*
X156226956Y-99980543D01*
X156236921Y-100001613D01*
X156244773Y-100023557D01*
X156250437Y-100046166D01*
X156253856Y-100069221D01*
X156255000Y-100092500D01*
X156255000Y-100567500D01*
X156253856Y-100590779D01*
X156250437Y-100613834D01*
X156244773Y-100636443D01*
X156236921Y-100658387D01*
X156226956Y-100679457D01*
X156214974Y-100699448D01*
X156201090Y-100718168D01*
X156185438Y-100735438D01*
X156168168Y-100751090D01*
X156149448Y-100764974D01*
X156129457Y-100776956D01*
X156108387Y-100786921D01*
X156086443Y-100794773D01*
X156063834Y-100800437D01*
X156040779Y-100803856D01*
X156017500Y-100805000D01*
X155442500Y-100805000D01*
X155419221Y-100803856D01*
X155396166Y-100800437D01*
X155373557Y-100794773D01*
X155351613Y-100786921D01*
X155330543Y-100776956D01*
X155310552Y-100764974D01*
X155291832Y-100751090D01*
X155274562Y-100735438D01*
X155258910Y-100718168D01*
X155245026Y-100699448D01*
X155233044Y-100679457D01*
X155223079Y-100658387D01*
X155215227Y-100636443D01*
X155209563Y-100613834D01*
X155206144Y-100590779D01*
X155205000Y-100567500D01*
X155205000Y-100092500D01*
X155206144Y-100069221D01*
X155209563Y-100046166D01*
X155215227Y-100023557D01*
X155223079Y-100001613D01*
X155233044Y-99980543D01*
X155245026Y-99960552D01*
X155258910Y-99941832D01*
X155274562Y-99924562D01*
X155291832Y-99908910D01*
X155310552Y-99895026D01*
X155330543Y-99883044D01*
X155351613Y-99873079D01*
X155373557Y-99865227D01*
X155396166Y-99859563D01*
X155419221Y-99856144D01*
X155442500Y-99855000D01*
X156017500Y-99855000D01*
X156040779Y-99856144D01*
G37*
G04 #@! TD.AperFunction*
G04 #@! TA.AperFunction,SMDPad,CuDef*
G36*
X155645779Y-104936144D02*
G01*
X155668834Y-104939563D01*
X155691443Y-104945227D01*
X155713387Y-104953079D01*
X155734457Y-104963044D01*
X155754448Y-104975026D01*
X155773168Y-104988910D01*
X155790438Y-105004562D01*
X155806090Y-105021832D01*
X155819974Y-105040552D01*
X155831956Y-105060543D01*
X155841921Y-105081613D01*
X155849773Y-105103557D01*
X155855437Y-105126166D01*
X155858856Y-105149221D01*
X155860000Y-105172500D01*
X155860000Y-105647500D01*
X155858856Y-105670779D01*
X155855437Y-105693834D01*
X155849773Y-105716443D01*
X155841921Y-105738387D01*
X155831956Y-105759457D01*
X155819974Y-105779448D01*
X155806090Y-105798168D01*
X155790438Y-105815438D01*
X155773168Y-105831090D01*
X155754448Y-105844974D01*
X155734457Y-105856956D01*
X155713387Y-105866921D01*
X155691443Y-105874773D01*
X155668834Y-105880437D01*
X155645779Y-105883856D01*
X155622500Y-105885000D01*
X155047500Y-105885000D01*
X155024221Y-105883856D01*
X155001166Y-105880437D01*
X154978557Y-105874773D01*
X154956613Y-105866921D01*
X154935543Y-105856956D01*
X154915552Y-105844974D01*
X154896832Y-105831090D01*
X154879562Y-105815438D01*
X154863910Y-105798168D01*
X154850026Y-105779448D01*
X154838044Y-105759457D01*
X154828079Y-105738387D01*
X154820227Y-105716443D01*
X154814563Y-105693834D01*
X154811144Y-105670779D01*
X154810000Y-105647500D01*
X154810000Y-105172500D01*
X154811144Y-105149221D01*
X154814563Y-105126166D01*
X154820227Y-105103557D01*
X154828079Y-105081613D01*
X154838044Y-105060543D01*
X154850026Y-105040552D01*
X154863910Y-105021832D01*
X154879562Y-105004562D01*
X154896832Y-104988910D01*
X154915552Y-104975026D01*
X154935543Y-104963044D01*
X154956613Y-104953079D01*
X154978557Y-104945227D01*
X155001166Y-104939563D01*
X155024221Y-104936144D01*
X155047500Y-104935000D01*
X155622500Y-104935000D01*
X155645779Y-104936144D01*
G37*
G04 #@! TD.AperFunction*
G04 #@! TA.AperFunction,SMDPad,CuDef*
G36*
X157395779Y-104936144D02*
G01*
X157418834Y-104939563D01*
X157441443Y-104945227D01*
X157463387Y-104953079D01*
X157484457Y-104963044D01*
X157504448Y-104975026D01*
X157523168Y-104988910D01*
X157540438Y-105004562D01*
X157556090Y-105021832D01*
X157569974Y-105040552D01*
X157581956Y-105060543D01*
X157591921Y-105081613D01*
X157599773Y-105103557D01*
X157605437Y-105126166D01*
X157608856Y-105149221D01*
X157610000Y-105172500D01*
X157610000Y-105647500D01*
X157608856Y-105670779D01*
X157605437Y-105693834D01*
X157599773Y-105716443D01*
X157591921Y-105738387D01*
X157581956Y-105759457D01*
X157569974Y-105779448D01*
X157556090Y-105798168D01*
X157540438Y-105815438D01*
X157523168Y-105831090D01*
X157504448Y-105844974D01*
X157484457Y-105856956D01*
X157463387Y-105866921D01*
X157441443Y-105874773D01*
X157418834Y-105880437D01*
X157395779Y-105883856D01*
X157372500Y-105885000D01*
X156797500Y-105885000D01*
X156774221Y-105883856D01*
X156751166Y-105880437D01*
X156728557Y-105874773D01*
X156706613Y-105866921D01*
X156685543Y-105856956D01*
X156665552Y-105844974D01*
X156646832Y-105831090D01*
X156629562Y-105815438D01*
X156613910Y-105798168D01*
X156600026Y-105779448D01*
X156588044Y-105759457D01*
X156578079Y-105738387D01*
X156570227Y-105716443D01*
X156564563Y-105693834D01*
X156561144Y-105670779D01*
X156560000Y-105647500D01*
X156560000Y-105172500D01*
X156561144Y-105149221D01*
X156564563Y-105126166D01*
X156570227Y-105103557D01*
X156578079Y-105081613D01*
X156588044Y-105060543D01*
X156600026Y-105040552D01*
X156613910Y-105021832D01*
X156629562Y-105004562D01*
X156646832Y-104988910D01*
X156665552Y-104975026D01*
X156685543Y-104963044D01*
X156706613Y-104953079D01*
X156728557Y-104945227D01*
X156751166Y-104939563D01*
X156774221Y-104936144D01*
X156797500Y-104935000D01*
X157372500Y-104935000D01*
X157395779Y-104936144D01*
G37*
G04 #@! TD.AperFunction*
G04 #@! TA.AperFunction,SMDPad,CuDef*
G36*
X162820779Y-107821144D02*
G01*
X162843834Y-107824563D01*
X162866443Y-107830227D01*
X162888387Y-107838079D01*
X162909457Y-107848044D01*
X162929448Y-107860026D01*
X162948168Y-107873910D01*
X162965438Y-107889562D01*
X162981090Y-107906832D01*
X162994974Y-107925552D01*
X163006956Y-107945543D01*
X163016921Y-107966613D01*
X163024773Y-107988557D01*
X163030437Y-108011166D01*
X163033856Y-108034221D01*
X163035000Y-108057500D01*
X163035000Y-108632500D01*
X163033856Y-108655779D01*
X163030437Y-108678834D01*
X163024773Y-108701443D01*
X163016921Y-108723387D01*
X163006956Y-108744457D01*
X162994974Y-108764448D01*
X162981090Y-108783168D01*
X162965438Y-108800438D01*
X162948168Y-108816090D01*
X162929448Y-108829974D01*
X162909457Y-108841956D01*
X162888387Y-108851921D01*
X162866443Y-108859773D01*
X162843834Y-108865437D01*
X162820779Y-108868856D01*
X162797500Y-108870000D01*
X162322500Y-108870000D01*
X162299221Y-108868856D01*
X162276166Y-108865437D01*
X162253557Y-108859773D01*
X162231613Y-108851921D01*
X162210543Y-108841956D01*
X162190552Y-108829974D01*
X162171832Y-108816090D01*
X162154562Y-108800438D01*
X162138910Y-108783168D01*
X162125026Y-108764448D01*
X162113044Y-108744457D01*
X162103079Y-108723387D01*
X162095227Y-108701443D01*
X162089563Y-108678834D01*
X162086144Y-108655779D01*
X162085000Y-108632500D01*
X162085000Y-108057500D01*
X162086144Y-108034221D01*
X162089563Y-108011166D01*
X162095227Y-107988557D01*
X162103079Y-107966613D01*
X162113044Y-107945543D01*
X162125026Y-107925552D01*
X162138910Y-107906832D01*
X162154562Y-107889562D01*
X162171832Y-107873910D01*
X162190552Y-107860026D01*
X162210543Y-107848044D01*
X162231613Y-107838079D01*
X162253557Y-107830227D01*
X162276166Y-107824563D01*
X162299221Y-107821144D01*
X162322500Y-107820000D01*
X162797500Y-107820000D01*
X162820779Y-107821144D01*
G37*
G04 #@! TD.AperFunction*
G04 #@! TA.AperFunction,SMDPad,CuDef*
G36*
X162820779Y-109571144D02*
G01*
X162843834Y-109574563D01*
X162866443Y-109580227D01*
X162888387Y-109588079D01*
X162909457Y-109598044D01*
X162929448Y-109610026D01*
X162948168Y-109623910D01*
X162965438Y-109639562D01*
X162981090Y-109656832D01*
X162994974Y-109675552D01*
X163006956Y-109695543D01*
X163016921Y-109716613D01*
X163024773Y-109738557D01*
X163030437Y-109761166D01*
X163033856Y-109784221D01*
X163035000Y-109807500D01*
X163035000Y-110382500D01*
X163033856Y-110405779D01*
X163030437Y-110428834D01*
X163024773Y-110451443D01*
X163016921Y-110473387D01*
X163006956Y-110494457D01*
X162994974Y-110514448D01*
X162981090Y-110533168D01*
X162965438Y-110550438D01*
X162948168Y-110566090D01*
X162929448Y-110579974D01*
X162909457Y-110591956D01*
X162888387Y-110601921D01*
X162866443Y-110609773D01*
X162843834Y-110615437D01*
X162820779Y-110618856D01*
X162797500Y-110620000D01*
X162322500Y-110620000D01*
X162299221Y-110618856D01*
X162276166Y-110615437D01*
X162253557Y-110609773D01*
X162231613Y-110601921D01*
X162210543Y-110591956D01*
X162190552Y-110579974D01*
X162171832Y-110566090D01*
X162154562Y-110550438D01*
X162138910Y-110533168D01*
X162125026Y-110514448D01*
X162113044Y-110494457D01*
X162103079Y-110473387D01*
X162095227Y-110451443D01*
X162089563Y-110428834D01*
X162086144Y-110405779D01*
X162085000Y-110382500D01*
X162085000Y-109807500D01*
X162086144Y-109784221D01*
X162089563Y-109761166D01*
X162095227Y-109738557D01*
X162103079Y-109716613D01*
X162113044Y-109695543D01*
X162125026Y-109675552D01*
X162138910Y-109656832D01*
X162154562Y-109639562D01*
X162171832Y-109623910D01*
X162190552Y-109610026D01*
X162210543Y-109598044D01*
X162231613Y-109588079D01*
X162253557Y-109580227D01*
X162276166Y-109574563D01*
X162299221Y-109571144D01*
X162322500Y-109570000D01*
X162797500Y-109570000D01*
X162820779Y-109571144D01*
G37*
G04 #@! TD.AperFunction*
G04 #@! TA.AperFunction,SMDPad,CuDef*
G36*
X167160779Y-96046144D02*
G01*
X167183834Y-96049563D01*
X167206443Y-96055227D01*
X167228387Y-96063079D01*
X167249457Y-96073044D01*
X167269448Y-96085026D01*
X167288168Y-96098910D01*
X167305438Y-96114562D01*
X167321090Y-96131832D01*
X167334974Y-96150552D01*
X167346956Y-96170543D01*
X167356921Y-96191613D01*
X167364773Y-96213557D01*
X167370437Y-96236166D01*
X167373856Y-96259221D01*
X167375000Y-96282500D01*
X167375000Y-96757500D01*
X167373856Y-96780779D01*
X167370437Y-96803834D01*
X167364773Y-96826443D01*
X167356921Y-96848387D01*
X167346956Y-96869457D01*
X167334974Y-96889448D01*
X167321090Y-96908168D01*
X167305438Y-96925438D01*
X167288168Y-96941090D01*
X167269448Y-96954974D01*
X167249457Y-96966956D01*
X167228387Y-96976921D01*
X167206443Y-96984773D01*
X167183834Y-96990437D01*
X167160779Y-96993856D01*
X167137500Y-96995000D01*
X166562500Y-96995000D01*
X166539221Y-96993856D01*
X166516166Y-96990437D01*
X166493557Y-96984773D01*
X166471613Y-96976921D01*
X166450543Y-96966956D01*
X166430552Y-96954974D01*
X166411832Y-96941090D01*
X166394562Y-96925438D01*
X166378910Y-96908168D01*
X166365026Y-96889448D01*
X166353044Y-96869457D01*
X166343079Y-96848387D01*
X166335227Y-96826443D01*
X166329563Y-96803834D01*
X166326144Y-96780779D01*
X166325000Y-96757500D01*
X166325000Y-96282500D01*
X166326144Y-96259221D01*
X166329563Y-96236166D01*
X166335227Y-96213557D01*
X166343079Y-96191613D01*
X166353044Y-96170543D01*
X166365026Y-96150552D01*
X166378910Y-96131832D01*
X166394562Y-96114562D01*
X166411832Y-96098910D01*
X166430552Y-96085026D01*
X166450543Y-96073044D01*
X166471613Y-96063079D01*
X166493557Y-96055227D01*
X166516166Y-96049563D01*
X166539221Y-96046144D01*
X166562500Y-96045000D01*
X167137500Y-96045000D01*
X167160779Y-96046144D01*
G37*
G04 #@! TD.AperFunction*
G04 #@! TA.AperFunction,SMDPad,CuDef*
G36*
X165410779Y-96046144D02*
G01*
X165433834Y-96049563D01*
X165456443Y-96055227D01*
X165478387Y-96063079D01*
X165499457Y-96073044D01*
X165519448Y-96085026D01*
X165538168Y-96098910D01*
X165555438Y-96114562D01*
X165571090Y-96131832D01*
X165584974Y-96150552D01*
X165596956Y-96170543D01*
X165606921Y-96191613D01*
X165614773Y-96213557D01*
X165620437Y-96236166D01*
X165623856Y-96259221D01*
X165625000Y-96282500D01*
X165625000Y-96757500D01*
X165623856Y-96780779D01*
X165620437Y-96803834D01*
X165614773Y-96826443D01*
X165606921Y-96848387D01*
X165596956Y-96869457D01*
X165584974Y-96889448D01*
X165571090Y-96908168D01*
X165555438Y-96925438D01*
X165538168Y-96941090D01*
X165519448Y-96954974D01*
X165499457Y-96966956D01*
X165478387Y-96976921D01*
X165456443Y-96984773D01*
X165433834Y-96990437D01*
X165410779Y-96993856D01*
X165387500Y-96995000D01*
X164812500Y-96995000D01*
X164789221Y-96993856D01*
X164766166Y-96990437D01*
X164743557Y-96984773D01*
X164721613Y-96976921D01*
X164700543Y-96966956D01*
X164680552Y-96954974D01*
X164661832Y-96941090D01*
X164644562Y-96925438D01*
X164628910Y-96908168D01*
X164615026Y-96889448D01*
X164603044Y-96869457D01*
X164593079Y-96848387D01*
X164585227Y-96826443D01*
X164579563Y-96803834D01*
X164576144Y-96780779D01*
X164575000Y-96757500D01*
X164575000Y-96282500D01*
X164576144Y-96259221D01*
X164579563Y-96236166D01*
X164585227Y-96213557D01*
X164593079Y-96191613D01*
X164603044Y-96170543D01*
X164615026Y-96150552D01*
X164628910Y-96131832D01*
X164644562Y-96114562D01*
X164661832Y-96098910D01*
X164680552Y-96085026D01*
X164700543Y-96073044D01*
X164721613Y-96063079D01*
X164743557Y-96055227D01*
X164766166Y-96049563D01*
X164789221Y-96046144D01*
X164812500Y-96045000D01*
X165387500Y-96045000D01*
X165410779Y-96046144D01*
G37*
G04 #@! TD.AperFunction*
G04 #@! TA.AperFunction,SMDPad,CuDef*
G36*
X165410779Y-93506144D02*
G01*
X165433834Y-93509563D01*
X165456443Y-93515227D01*
X165478387Y-93523079D01*
X165499457Y-93533044D01*
X165519448Y-93545026D01*
X165538168Y-93558910D01*
X165555438Y-93574562D01*
X165571090Y-93591832D01*
X165584974Y-93610552D01*
X165596956Y-93630543D01*
X165606921Y-93651613D01*
X165614773Y-93673557D01*
X165620437Y-93696166D01*
X165623856Y-93719221D01*
X165625000Y-93742500D01*
X165625000Y-94217500D01*
X165623856Y-94240779D01*
X165620437Y-94263834D01*
X165614773Y-94286443D01*
X165606921Y-94308387D01*
X165596956Y-94329457D01*
X165584974Y-94349448D01*
X165571090Y-94368168D01*
X165555438Y-94385438D01*
X165538168Y-94401090D01*
X165519448Y-94414974D01*
X165499457Y-94426956D01*
X165478387Y-94436921D01*
X165456443Y-94444773D01*
X165433834Y-94450437D01*
X165410779Y-94453856D01*
X165387500Y-94455000D01*
X164812500Y-94455000D01*
X164789221Y-94453856D01*
X164766166Y-94450437D01*
X164743557Y-94444773D01*
X164721613Y-94436921D01*
X164700543Y-94426956D01*
X164680552Y-94414974D01*
X164661832Y-94401090D01*
X164644562Y-94385438D01*
X164628910Y-94368168D01*
X164615026Y-94349448D01*
X164603044Y-94329457D01*
X164593079Y-94308387D01*
X164585227Y-94286443D01*
X164579563Y-94263834D01*
X164576144Y-94240779D01*
X164575000Y-94217500D01*
X164575000Y-93742500D01*
X164576144Y-93719221D01*
X164579563Y-93696166D01*
X164585227Y-93673557D01*
X164593079Y-93651613D01*
X164603044Y-93630543D01*
X164615026Y-93610552D01*
X164628910Y-93591832D01*
X164644562Y-93574562D01*
X164661832Y-93558910D01*
X164680552Y-93545026D01*
X164700543Y-93533044D01*
X164721613Y-93523079D01*
X164743557Y-93515227D01*
X164766166Y-93509563D01*
X164789221Y-93506144D01*
X164812500Y-93505000D01*
X165387500Y-93505000D01*
X165410779Y-93506144D01*
G37*
G04 #@! TD.AperFunction*
G04 #@! TA.AperFunction,SMDPad,CuDef*
G36*
X167160779Y-93506144D02*
G01*
X167183834Y-93509563D01*
X167206443Y-93515227D01*
X167228387Y-93523079D01*
X167249457Y-93533044D01*
X167269448Y-93545026D01*
X167288168Y-93558910D01*
X167305438Y-93574562D01*
X167321090Y-93591832D01*
X167334974Y-93610552D01*
X167346956Y-93630543D01*
X167356921Y-93651613D01*
X167364773Y-93673557D01*
X167370437Y-93696166D01*
X167373856Y-93719221D01*
X167375000Y-93742500D01*
X167375000Y-94217500D01*
X167373856Y-94240779D01*
X167370437Y-94263834D01*
X167364773Y-94286443D01*
X167356921Y-94308387D01*
X167346956Y-94329457D01*
X167334974Y-94349448D01*
X167321090Y-94368168D01*
X167305438Y-94385438D01*
X167288168Y-94401090D01*
X167269448Y-94414974D01*
X167249457Y-94426956D01*
X167228387Y-94436921D01*
X167206443Y-94444773D01*
X167183834Y-94450437D01*
X167160779Y-94453856D01*
X167137500Y-94455000D01*
X166562500Y-94455000D01*
X166539221Y-94453856D01*
X166516166Y-94450437D01*
X166493557Y-94444773D01*
X166471613Y-94436921D01*
X166450543Y-94426956D01*
X166430552Y-94414974D01*
X166411832Y-94401090D01*
X166394562Y-94385438D01*
X166378910Y-94368168D01*
X166365026Y-94349448D01*
X166353044Y-94329457D01*
X166343079Y-94308387D01*
X166335227Y-94286443D01*
X166329563Y-94263834D01*
X166326144Y-94240779D01*
X166325000Y-94217500D01*
X166325000Y-93742500D01*
X166326144Y-93719221D01*
X166329563Y-93696166D01*
X166335227Y-93673557D01*
X166343079Y-93651613D01*
X166353044Y-93630543D01*
X166365026Y-93610552D01*
X166378910Y-93591832D01*
X166394562Y-93574562D01*
X166411832Y-93558910D01*
X166430552Y-93545026D01*
X166450543Y-93533044D01*
X166471613Y-93523079D01*
X166493557Y-93515227D01*
X166516166Y-93509563D01*
X166539221Y-93506144D01*
X166562500Y-93505000D01*
X167137500Y-93505000D01*
X167160779Y-93506144D01*
G37*
G04 #@! TD.AperFunction*
G04 #@! TA.AperFunction,SMDPad,CuDef*
G36*
X172635779Y-108746144D02*
G01*
X172658834Y-108749563D01*
X172681443Y-108755227D01*
X172703387Y-108763079D01*
X172724457Y-108773044D01*
X172744448Y-108785026D01*
X172763168Y-108798910D01*
X172780438Y-108814562D01*
X172796090Y-108831832D01*
X172809974Y-108850552D01*
X172821956Y-108870543D01*
X172831921Y-108891613D01*
X172839773Y-108913557D01*
X172845437Y-108936166D01*
X172848856Y-108959221D01*
X172850000Y-108982500D01*
X172850000Y-109457500D01*
X172848856Y-109480779D01*
X172845437Y-109503834D01*
X172839773Y-109526443D01*
X172831921Y-109548387D01*
X172821956Y-109569457D01*
X172809974Y-109589448D01*
X172796090Y-109608168D01*
X172780438Y-109625438D01*
X172763168Y-109641090D01*
X172744448Y-109654974D01*
X172724457Y-109666956D01*
X172703387Y-109676921D01*
X172681443Y-109684773D01*
X172658834Y-109690437D01*
X172635779Y-109693856D01*
X172612500Y-109695000D01*
X172037500Y-109695000D01*
X172014221Y-109693856D01*
X171991166Y-109690437D01*
X171968557Y-109684773D01*
X171946613Y-109676921D01*
X171925543Y-109666956D01*
X171905552Y-109654974D01*
X171886832Y-109641090D01*
X171869562Y-109625438D01*
X171853910Y-109608168D01*
X171840026Y-109589448D01*
X171828044Y-109569457D01*
X171818079Y-109548387D01*
X171810227Y-109526443D01*
X171804563Y-109503834D01*
X171801144Y-109480779D01*
X171800000Y-109457500D01*
X171800000Y-108982500D01*
X171801144Y-108959221D01*
X171804563Y-108936166D01*
X171810227Y-108913557D01*
X171818079Y-108891613D01*
X171828044Y-108870543D01*
X171840026Y-108850552D01*
X171853910Y-108831832D01*
X171869562Y-108814562D01*
X171886832Y-108798910D01*
X171905552Y-108785026D01*
X171925543Y-108773044D01*
X171946613Y-108763079D01*
X171968557Y-108755227D01*
X171991166Y-108749563D01*
X172014221Y-108746144D01*
X172037500Y-108745000D01*
X172612500Y-108745000D01*
X172635779Y-108746144D01*
G37*
G04 #@! TD.AperFunction*
G04 #@! TA.AperFunction,SMDPad,CuDef*
G36*
X170885779Y-108746144D02*
G01*
X170908834Y-108749563D01*
X170931443Y-108755227D01*
X170953387Y-108763079D01*
X170974457Y-108773044D01*
X170994448Y-108785026D01*
X171013168Y-108798910D01*
X171030438Y-108814562D01*
X171046090Y-108831832D01*
X171059974Y-108850552D01*
X171071956Y-108870543D01*
X171081921Y-108891613D01*
X171089773Y-108913557D01*
X171095437Y-108936166D01*
X171098856Y-108959221D01*
X171100000Y-108982500D01*
X171100000Y-109457500D01*
X171098856Y-109480779D01*
X171095437Y-109503834D01*
X171089773Y-109526443D01*
X171081921Y-109548387D01*
X171071956Y-109569457D01*
X171059974Y-109589448D01*
X171046090Y-109608168D01*
X171030438Y-109625438D01*
X171013168Y-109641090D01*
X170994448Y-109654974D01*
X170974457Y-109666956D01*
X170953387Y-109676921D01*
X170931443Y-109684773D01*
X170908834Y-109690437D01*
X170885779Y-109693856D01*
X170862500Y-109695000D01*
X170287500Y-109695000D01*
X170264221Y-109693856D01*
X170241166Y-109690437D01*
X170218557Y-109684773D01*
X170196613Y-109676921D01*
X170175543Y-109666956D01*
X170155552Y-109654974D01*
X170136832Y-109641090D01*
X170119562Y-109625438D01*
X170103910Y-109608168D01*
X170090026Y-109589448D01*
X170078044Y-109569457D01*
X170068079Y-109548387D01*
X170060227Y-109526443D01*
X170054563Y-109503834D01*
X170051144Y-109480779D01*
X170050000Y-109457500D01*
X170050000Y-108982500D01*
X170051144Y-108959221D01*
X170054563Y-108936166D01*
X170060227Y-108913557D01*
X170068079Y-108891613D01*
X170078044Y-108870543D01*
X170090026Y-108850552D01*
X170103910Y-108831832D01*
X170119562Y-108814562D01*
X170136832Y-108798910D01*
X170155552Y-108785026D01*
X170175543Y-108773044D01*
X170196613Y-108763079D01*
X170218557Y-108755227D01*
X170241166Y-108749563D01*
X170264221Y-108746144D01*
X170287500Y-108745000D01*
X170862500Y-108745000D01*
X170885779Y-108746144D01*
G37*
G04 #@! TD.AperFunction*
G04 #@! TA.AperFunction,SMDPad,CuDef*
G36*
X175014504Y-91671204D02*
G01*
X175038773Y-91674804D01*
X175062571Y-91680765D01*
X175085671Y-91689030D01*
X175107849Y-91699520D01*
X175128893Y-91712133D01*
X175148598Y-91726747D01*
X175166777Y-91743223D01*
X175183253Y-91761402D01*
X175197867Y-91781107D01*
X175210480Y-91802151D01*
X175220970Y-91824329D01*
X175229235Y-91847429D01*
X175235196Y-91871227D01*
X175238796Y-91895496D01*
X175240000Y-91920000D01*
X175240000Y-94920000D01*
X175238796Y-94944504D01*
X175235196Y-94968773D01*
X175229235Y-94992571D01*
X175220970Y-95015671D01*
X175210480Y-95037849D01*
X175197867Y-95058893D01*
X175183253Y-95078598D01*
X175166777Y-95096777D01*
X175148598Y-95113253D01*
X175128893Y-95127867D01*
X175107849Y-95140480D01*
X175085671Y-95150970D01*
X175062571Y-95159235D01*
X175038773Y-95165196D01*
X175014504Y-95168796D01*
X174990000Y-95170000D01*
X172990000Y-95170000D01*
X172965496Y-95168796D01*
X172941227Y-95165196D01*
X172917429Y-95159235D01*
X172894329Y-95150970D01*
X172872151Y-95140480D01*
X172851107Y-95127867D01*
X172831402Y-95113253D01*
X172813223Y-95096777D01*
X172796747Y-95078598D01*
X172782133Y-95058893D01*
X172769520Y-95037849D01*
X172759030Y-95015671D01*
X172750765Y-94992571D01*
X172744804Y-94968773D01*
X172741204Y-94944504D01*
X172740000Y-94920000D01*
X172740000Y-91920000D01*
X172741204Y-91895496D01*
X172744804Y-91871227D01*
X172750765Y-91847429D01*
X172759030Y-91824329D01*
X172769520Y-91802151D01*
X172782133Y-91781107D01*
X172796747Y-91761402D01*
X172813223Y-91743223D01*
X172831402Y-91726747D01*
X172851107Y-91712133D01*
X172872151Y-91699520D01*
X172894329Y-91689030D01*
X172917429Y-91680765D01*
X172941227Y-91674804D01*
X172965496Y-91671204D01*
X172990000Y-91670000D01*
X174990000Y-91670000D01*
X175014504Y-91671204D01*
G37*
G04 #@! TD.AperFunction*
G04 #@! TA.AperFunction,SMDPad,CuDef*
G36*
X175014504Y-85171204D02*
G01*
X175038773Y-85174804D01*
X175062571Y-85180765D01*
X175085671Y-85189030D01*
X175107849Y-85199520D01*
X175128893Y-85212133D01*
X175148598Y-85226747D01*
X175166777Y-85243223D01*
X175183253Y-85261402D01*
X175197867Y-85281107D01*
X175210480Y-85302151D01*
X175220970Y-85324329D01*
X175229235Y-85347429D01*
X175235196Y-85371227D01*
X175238796Y-85395496D01*
X175240000Y-85420000D01*
X175240000Y-88420000D01*
X175238796Y-88444504D01*
X175235196Y-88468773D01*
X175229235Y-88492571D01*
X175220970Y-88515671D01*
X175210480Y-88537849D01*
X175197867Y-88558893D01*
X175183253Y-88578598D01*
X175166777Y-88596777D01*
X175148598Y-88613253D01*
X175128893Y-88627867D01*
X175107849Y-88640480D01*
X175085671Y-88650970D01*
X175062571Y-88659235D01*
X175038773Y-88665196D01*
X175014504Y-88668796D01*
X174990000Y-88670000D01*
X172990000Y-88670000D01*
X172965496Y-88668796D01*
X172941227Y-88665196D01*
X172917429Y-88659235D01*
X172894329Y-88650970D01*
X172872151Y-88640480D01*
X172851107Y-88627867D01*
X172831402Y-88613253D01*
X172813223Y-88596777D01*
X172796747Y-88578598D01*
X172782133Y-88558893D01*
X172769520Y-88537849D01*
X172759030Y-88515671D01*
X172750765Y-88492571D01*
X172744804Y-88468773D01*
X172741204Y-88444504D01*
X172740000Y-88420000D01*
X172740000Y-85420000D01*
X172741204Y-85395496D01*
X172744804Y-85371227D01*
X172750765Y-85347429D01*
X172759030Y-85324329D01*
X172769520Y-85302151D01*
X172782133Y-85281107D01*
X172796747Y-85261402D01*
X172813223Y-85243223D01*
X172831402Y-85226747D01*
X172851107Y-85212133D01*
X172872151Y-85199520D01*
X172894329Y-85189030D01*
X172917429Y-85180765D01*
X172941227Y-85174804D01*
X172965496Y-85171204D01*
X172990000Y-85170000D01*
X174990000Y-85170000D01*
X175014504Y-85171204D01*
G37*
G04 #@! TD.AperFunction*
G04 #@! TA.AperFunction,SMDPad,CuDef*
G36*
X190974505Y-102296204D02*
G01*
X190998773Y-102299804D01*
X191022572Y-102305765D01*
X191045671Y-102314030D01*
X191067850Y-102324520D01*
X191088893Y-102337132D01*
X191108599Y-102351747D01*
X191126777Y-102368223D01*
X191143253Y-102386401D01*
X191157868Y-102406107D01*
X191170480Y-102427150D01*
X191180970Y-102449329D01*
X191189235Y-102472428D01*
X191195196Y-102496227D01*
X191198796Y-102520495D01*
X191200000Y-102544999D01*
X191200000Y-103195001D01*
X191198796Y-103219505D01*
X191195196Y-103243773D01*
X191189235Y-103267572D01*
X191180970Y-103290671D01*
X191170480Y-103312850D01*
X191157868Y-103333893D01*
X191143253Y-103353599D01*
X191126777Y-103371777D01*
X191108599Y-103388253D01*
X191088893Y-103402868D01*
X191067850Y-103415480D01*
X191045671Y-103425970D01*
X191022572Y-103434235D01*
X190998773Y-103440196D01*
X190974505Y-103443796D01*
X190950001Y-103445000D01*
X190049999Y-103445000D01*
X190025495Y-103443796D01*
X190001227Y-103440196D01*
X189977428Y-103434235D01*
X189954329Y-103425970D01*
X189932150Y-103415480D01*
X189911107Y-103402868D01*
X189891401Y-103388253D01*
X189873223Y-103371777D01*
X189856747Y-103353599D01*
X189842132Y-103333893D01*
X189829520Y-103312850D01*
X189819030Y-103290671D01*
X189810765Y-103267572D01*
X189804804Y-103243773D01*
X189801204Y-103219505D01*
X189800000Y-103195001D01*
X189800000Y-102544999D01*
X189801204Y-102520495D01*
X189804804Y-102496227D01*
X189810765Y-102472428D01*
X189819030Y-102449329D01*
X189829520Y-102427150D01*
X189842132Y-102406107D01*
X189856747Y-102386401D01*
X189873223Y-102368223D01*
X189891401Y-102351747D01*
X189911107Y-102337132D01*
X189932150Y-102324520D01*
X189954329Y-102314030D01*
X189977428Y-102305765D01*
X190001227Y-102299804D01*
X190025495Y-102296204D01*
X190049999Y-102295000D01*
X190950001Y-102295000D01*
X190974505Y-102296204D01*
G37*
G04 #@! TD.AperFunction*
G04 #@! TA.AperFunction,SMDPad,CuDef*
G36*
X190974505Y-104346204D02*
G01*
X190998773Y-104349804D01*
X191022572Y-104355765D01*
X191045671Y-104364030D01*
X191067850Y-104374520D01*
X191088893Y-104387132D01*
X191108599Y-104401747D01*
X191126777Y-104418223D01*
X191143253Y-104436401D01*
X191157868Y-104456107D01*
X191170480Y-104477150D01*
X191180970Y-104499329D01*
X191189235Y-104522428D01*
X191195196Y-104546227D01*
X191198796Y-104570495D01*
X191200000Y-104594999D01*
X191200000Y-105245001D01*
X191198796Y-105269505D01*
X191195196Y-105293773D01*
X191189235Y-105317572D01*
X191180970Y-105340671D01*
X191170480Y-105362850D01*
X191157868Y-105383893D01*
X191143253Y-105403599D01*
X191126777Y-105421777D01*
X191108599Y-105438253D01*
X191088893Y-105452868D01*
X191067850Y-105465480D01*
X191045671Y-105475970D01*
X191022572Y-105484235D01*
X190998773Y-105490196D01*
X190974505Y-105493796D01*
X190950001Y-105495000D01*
X190049999Y-105495000D01*
X190025495Y-105493796D01*
X190001227Y-105490196D01*
X189977428Y-105484235D01*
X189954329Y-105475970D01*
X189932150Y-105465480D01*
X189911107Y-105452868D01*
X189891401Y-105438253D01*
X189873223Y-105421777D01*
X189856747Y-105403599D01*
X189842132Y-105383893D01*
X189829520Y-105362850D01*
X189819030Y-105340671D01*
X189810765Y-105317572D01*
X189804804Y-105293773D01*
X189801204Y-105269505D01*
X189800000Y-105245001D01*
X189800000Y-104594999D01*
X189801204Y-104570495D01*
X189804804Y-104546227D01*
X189810765Y-104522428D01*
X189819030Y-104499329D01*
X189829520Y-104477150D01*
X189842132Y-104456107D01*
X189856747Y-104436401D01*
X189873223Y-104418223D01*
X189891401Y-104401747D01*
X189911107Y-104387132D01*
X189932150Y-104374520D01*
X189954329Y-104364030D01*
X189977428Y-104355765D01*
X190001227Y-104349804D01*
X190025495Y-104346204D01*
X190049999Y-104345000D01*
X190950001Y-104345000D01*
X190974505Y-104346204D01*
G37*
G04 #@! TD.AperFunction*
G04 #@! TA.AperFunction,SMDPad,CuDef*
G36*
X182984505Y-94551204D02*
G01*
X183008773Y-94554804D01*
X183032572Y-94560765D01*
X183055671Y-94569030D01*
X183077850Y-94579520D01*
X183098893Y-94592132D01*
X183118599Y-94606747D01*
X183136777Y-94623223D01*
X183153253Y-94641401D01*
X183167868Y-94661107D01*
X183180480Y-94682150D01*
X183190970Y-94704329D01*
X183199235Y-94727428D01*
X183205196Y-94751227D01*
X183208796Y-94775495D01*
X183210000Y-94799999D01*
X183210000Y-95700001D01*
X183208796Y-95724505D01*
X183205196Y-95748773D01*
X183199235Y-95772572D01*
X183190970Y-95795671D01*
X183180480Y-95817850D01*
X183167868Y-95838893D01*
X183153253Y-95858599D01*
X183136777Y-95876777D01*
X183118599Y-95893253D01*
X183098893Y-95907868D01*
X183077850Y-95920480D01*
X183055671Y-95930970D01*
X183032572Y-95939235D01*
X183008773Y-95945196D01*
X182984505Y-95948796D01*
X182960001Y-95950000D01*
X182309999Y-95950000D01*
X182285495Y-95948796D01*
X182261227Y-95945196D01*
X182237428Y-95939235D01*
X182214329Y-95930970D01*
X182192150Y-95920480D01*
X182171107Y-95907868D01*
X182151401Y-95893253D01*
X182133223Y-95876777D01*
X182116747Y-95858599D01*
X182102132Y-95838893D01*
X182089520Y-95817850D01*
X182079030Y-95795671D01*
X182070765Y-95772572D01*
X182064804Y-95748773D01*
X182061204Y-95724505D01*
X182060000Y-95700001D01*
X182060000Y-94799999D01*
X182061204Y-94775495D01*
X182064804Y-94751227D01*
X182070765Y-94727428D01*
X182079030Y-94704329D01*
X182089520Y-94682150D01*
X182102132Y-94661107D01*
X182116747Y-94641401D01*
X182133223Y-94623223D01*
X182151401Y-94606747D01*
X182171107Y-94592132D01*
X182192150Y-94579520D01*
X182214329Y-94569030D01*
X182237428Y-94560765D01*
X182261227Y-94554804D01*
X182285495Y-94551204D01*
X182309999Y-94550000D01*
X182960001Y-94550000D01*
X182984505Y-94551204D01*
G37*
G04 #@! TD.AperFunction*
G04 #@! TA.AperFunction,SMDPad,CuDef*
G36*
X180934505Y-94551204D02*
G01*
X180958773Y-94554804D01*
X180982572Y-94560765D01*
X181005671Y-94569030D01*
X181027850Y-94579520D01*
X181048893Y-94592132D01*
X181068599Y-94606747D01*
X181086777Y-94623223D01*
X181103253Y-94641401D01*
X181117868Y-94661107D01*
X181130480Y-94682150D01*
X181140970Y-94704329D01*
X181149235Y-94727428D01*
X181155196Y-94751227D01*
X181158796Y-94775495D01*
X181160000Y-94799999D01*
X181160000Y-95700001D01*
X181158796Y-95724505D01*
X181155196Y-95748773D01*
X181149235Y-95772572D01*
X181140970Y-95795671D01*
X181130480Y-95817850D01*
X181117868Y-95838893D01*
X181103253Y-95858599D01*
X181086777Y-95876777D01*
X181068599Y-95893253D01*
X181048893Y-95907868D01*
X181027850Y-95920480D01*
X181005671Y-95930970D01*
X180982572Y-95939235D01*
X180958773Y-95945196D01*
X180934505Y-95948796D01*
X180910001Y-95950000D01*
X180259999Y-95950000D01*
X180235495Y-95948796D01*
X180211227Y-95945196D01*
X180187428Y-95939235D01*
X180164329Y-95930970D01*
X180142150Y-95920480D01*
X180121107Y-95907868D01*
X180101401Y-95893253D01*
X180083223Y-95876777D01*
X180066747Y-95858599D01*
X180052132Y-95838893D01*
X180039520Y-95817850D01*
X180029030Y-95795671D01*
X180020765Y-95772572D01*
X180014804Y-95748773D01*
X180011204Y-95724505D01*
X180010000Y-95700001D01*
X180010000Y-94799999D01*
X180011204Y-94775495D01*
X180014804Y-94751227D01*
X180020765Y-94727428D01*
X180029030Y-94704329D01*
X180039520Y-94682150D01*
X180052132Y-94661107D01*
X180066747Y-94641401D01*
X180083223Y-94623223D01*
X180101401Y-94606747D01*
X180121107Y-94592132D01*
X180142150Y-94579520D01*
X180164329Y-94569030D01*
X180187428Y-94560765D01*
X180211227Y-94554804D01*
X180235495Y-94551204D01*
X180259999Y-94550000D01*
X180910001Y-94550000D01*
X180934505Y-94551204D01*
G37*
G04 #@! TD.AperFunction*
G04 #@! TA.AperFunction,SMDPad,CuDef*
G36*
X182084505Y-90621204D02*
G01*
X182108773Y-90624804D01*
X182132572Y-90630765D01*
X182155671Y-90639030D01*
X182177850Y-90649520D01*
X182198893Y-90662132D01*
X182218599Y-90676747D01*
X182236777Y-90693223D01*
X182253253Y-90711401D01*
X182267868Y-90731107D01*
X182280480Y-90752150D01*
X182290970Y-90774329D01*
X182299235Y-90797428D01*
X182305196Y-90821227D01*
X182308796Y-90845495D01*
X182310000Y-90869999D01*
X182310000Y-91520001D01*
X182308796Y-91544505D01*
X182305196Y-91568773D01*
X182299235Y-91592572D01*
X182290970Y-91615671D01*
X182280480Y-91637850D01*
X182267868Y-91658893D01*
X182253253Y-91678599D01*
X182236777Y-91696777D01*
X182218599Y-91713253D01*
X182198893Y-91727868D01*
X182177850Y-91740480D01*
X182155671Y-91750970D01*
X182132572Y-91759235D01*
X182108773Y-91765196D01*
X182084505Y-91768796D01*
X182060001Y-91770000D01*
X181159999Y-91770000D01*
X181135495Y-91768796D01*
X181111227Y-91765196D01*
X181087428Y-91759235D01*
X181064329Y-91750970D01*
X181042150Y-91740480D01*
X181021107Y-91727868D01*
X181001401Y-91713253D01*
X180983223Y-91696777D01*
X180966747Y-91678599D01*
X180952132Y-91658893D01*
X180939520Y-91637850D01*
X180929030Y-91615671D01*
X180920765Y-91592572D01*
X180914804Y-91568773D01*
X180911204Y-91544505D01*
X180910000Y-91520001D01*
X180910000Y-90869999D01*
X180911204Y-90845495D01*
X180914804Y-90821227D01*
X180920765Y-90797428D01*
X180929030Y-90774329D01*
X180939520Y-90752150D01*
X180952132Y-90731107D01*
X180966747Y-90711401D01*
X180983223Y-90693223D01*
X181001401Y-90676747D01*
X181021107Y-90662132D01*
X181042150Y-90649520D01*
X181064329Y-90639030D01*
X181087428Y-90630765D01*
X181111227Y-90624804D01*
X181135495Y-90621204D01*
X181159999Y-90620000D01*
X182060001Y-90620000D01*
X182084505Y-90621204D01*
G37*
G04 #@! TD.AperFunction*
G04 #@! TA.AperFunction,SMDPad,CuDef*
G36*
X182084505Y-88571204D02*
G01*
X182108773Y-88574804D01*
X182132572Y-88580765D01*
X182155671Y-88589030D01*
X182177850Y-88599520D01*
X182198893Y-88612132D01*
X182218599Y-88626747D01*
X182236777Y-88643223D01*
X182253253Y-88661401D01*
X182267868Y-88681107D01*
X182280480Y-88702150D01*
X182290970Y-88724329D01*
X182299235Y-88747428D01*
X182305196Y-88771227D01*
X182308796Y-88795495D01*
X182310000Y-88819999D01*
X182310000Y-89470001D01*
X182308796Y-89494505D01*
X182305196Y-89518773D01*
X182299235Y-89542572D01*
X182290970Y-89565671D01*
X182280480Y-89587850D01*
X182267868Y-89608893D01*
X182253253Y-89628599D01*
X182236777Y-89646777D01*
X182218599Y-89663253D01*
X182198893Y-89677868D01*
X182177850Y-89690480D01*
X182155671Y-89700970D01*
X182132572Y-89709235D01*
X182108773Y-89715196D01*
X182084505Y-89718796D01*
X182060001Y-89720000D01*
X181159999Y-89720000D01*
X181135495Y-89718796D01*
X181111227Y-89715196D01*
X181087428Y-89709235D01*
X181064329Y-89700970D01*
X181042150Y-89690480D01*
X181021107Y-89677868D01*
X181001401Y-89663253D01*
X180983223Y-89646777D01*
X180966747Y-89628599D01*
X180952132Y-89608893D01*
X180939520Y-89587850D01*
X180929030Y-89565671D01*
X180920765Y-89542572D01*
X180914804Y-89518773D01*
X180911204Y-89494505D01*
X180910000Y-89470001D01*
X180910000Y-88819999D01*
X180911204Y-88795495D01*
X180914804Y-88771227D01*
X180920765Y-88747428D01*
X180929030Y-88724329D01*
X180939520Y-88702150D01*
X180952132Y-88681107D01*
X180966747Y-88661401D01*
X180983223Y-88643223D01*
X181001401Y-88626747D01*
X181021107Y-88612132D01*
X181042150Y-88599520D01*
X181064329Y-88589030D01*
X181087428Y-88580765D01*
X181111227Y-88574804D01*
X181135495Y-88571204D01*
X181159999Y-88570000D01*
X182060001Y-88570000D01*
X182084505Y-88571204D01*
G37*
G04 #@! TD.AperFunction*
D12*
X157480000Y-90170000D03*
D13*
X160020000Y-92710000D03*
X160020000Y-87630000D03*
X154940000Y-87630000D03*
X154940000Y-92710000D03*
D14*
X203200000Y-93980000D03*
D15*
X205740000Y-93980000D03*
X203200000Y-96520000D03*
X205740000Y-96520000D03*
X203200000Y-99060000D03*
X205740000Y-99060000D03*
X203200000Y-101600000D03*
X205740000Y-101600000D03*
X203200000Y-104140000D03*
X205740000Y-104140000D03*
G04 #@! TA.AperFunction,SMDPad,CuDef*
D11*
G36*
X157829505Y-102171204D02*
G01*
X157853773Y-102174804D01*
X157877572Y-102180765D01*
X157900671Y-102189030D01*
X157922850Y-102199520D01*
X157943893Y-102212132D01*
X157963599Y-102226747D01*
X157981777Y-102243223D01*
X157998253Y-102261401D01*
X158012868Y-102281107D01*
X158025480Y-102302150D01*
X158035970Y-102324329D01*
X158044235Y-102347428D01*
X158050196Y-102371227D01*
X158053796Y-102395495D01*
X158055000Y-102419999D01*
X158055000Y-103320001D01*
X158053796Y-103344505D01*
X158050196Y-103368773D01*
X158044235Y-103392572D01*
X158035970Y-103415671D01*
X158025480Y-103437850D01*
X158012868Y-103458893D01*
X157998253Y-103478599D01*
X157981777Y-103496777D01*
X157963599Y-103513253D01*
X157943893Y-103527868D01*
X157922850Y-103540480D01*
X157900671Y-103550970D01*
X157877572Y-103559235D01*
X157853773Y-103565196D01*
X157829505Y-103568796D01*
X157805001Y-103570000D01*
X157154999Y-103570000D01*
X157130495Y-103568796D01*
X157106227Y-103565196D01*
X157082428Y-103559235D01*
X157059329Y-103550970D01*
X157037150Y-103540480D01*
X157016107Y-103527868D01*
X156996401Y-103513253D01*
X156978223Y-103496777D01*
X156961747Y-103478599D01*
X156947132Y-103458893D01*
X156934520Y-103437850D01*
X156924030Y-103415671D01*
X156915765Y-103392572D01*
X156909804Y-103368773D01*
X156906204Y-103344505D01*
X156905000Y-103320001D01*
X156905000Y-102419999D01*
X156906204Y-102395495D01*
X156909804Y-102371227D01*
X156915765Y-102347428D01*
X156924030Y-102324329D01*
X156934520Y-102302150D01*
X156947132Y-102281107D01*
X156961747Y-102261401D01*
X156978223Y-102243223D01*
X156996401Y-102226747D01*
X157016107Y-102212132D01*
X157037150Y-102199520D01*
X157059329Y-102189030D01*
X157082428Y-102180765D01*
X157106227Y-102174804D01*
X157130495Y-102171204D01*
X157154999Y-102170000D01*
X157805001Y-102170000D01*
X157829505Y-102171204D01*
G37*
G04 #@! TD.AperFunction*
G04 #@! TA.AperFunction,SMDPad,CuDef*
G36*
X155779505Y-102171204D02*
G01*
X155803773Y-102174804D01*
X155827572Y-102180765D01*
X155850671Y-102189030D01*
X155872850Y-102199520D01*
X155893893Y-102212132D01*
X155913599Y-102226747D01*
X155931777Y-102243223D01*
X155948253Y-102261401D01*
X155962868Y-102281107D01*
X155975480Y-102302150D01*
X155985970Y-102324329D01*
X155994235Y-102347428D01*
X156000196Y-102371227D01*
X156003796Y-102395495D01*
X156005000Y-102419999D01*
X156005000Y-103320001D01*
X156003796Y-103344505D01*
X156000196Y-103368773D01*
X155994235Y-103392572D01*
X155985970Y-103415671D01*
X155975480Y-103437850D01*
X155962868Y-103458893D01*
X155948253Y-103478599D01*
X155931777Y-103496777D01*
X155913599Y-103513253D01*
X155893893Y-103527868D01*
X155872850Y-103540480D01*
X155850671Y-103550970D01*
X155827572Y-103559235D01*
X155803773Y-103565196D01*
X155779505Y-103568796D01*
X155755001Y-103570000D01*
X155104999Y-103570000D01*
X155080495Y-103568796D01*
X155056227Y-103565196D01*
X155032428Y-103559235D01*
X155009329Y-103550970D01*
X154987150Y-103540480D01*
X154966107Y-103527868D01*
X154946401Y-103513253D01*
X154928223Y-103496777D01*
X154911747Y-103478599D01*
X154897132Y-103458893D01*
X154884520Y-103437850D01*
X154874030Y-103415671D01*
X154865765Y-103392572D01*
X154859804Y-103368773D01*
X154856204Y-103344505D01*
X154855000Y-103320001D01*
X154855000Y-102419999D01*
X154856204Y-102395495D01*
X154859804Y-102371227D01*
X154865765Y-102347428D01*
X154874030Y-102324329D01*
X154884520Y-102302150D01*
X154897132Y-102281107D01*
X154911747Y-102261401D01*
X154928223Y-102243223D01*
X154946401Y-102226747D01*
X154966107Y-102212132D01*
X154987150Y-102199520D01*
X155009329Y-102189030D01*
X155032428Y-102180765D01*
X155056227Y-102174804D01*
X155080495Y-102171204D01*
X155104999Y-102170000D01*
X155755001Y-102170000D01*
X155779505Y-102171204D01*
G37*
G04 #@! TD.AperFunction*
G04 #@! TA.AperFunction,SMDPad,CuDef*
G36*
X168114505Y-104346204D02*
G01*
X168138773Y-104349804D01*
X168162572Y-104355765D01*
X168185671Y-104364030D01*
X168207850Y-104374520D01*
X168228893Y-104387132D01*
X168248599Y-104401747D01*
X168266777Y-104418223D01*
X168283253Y-104436401D01*
X168297868Y-104456107D01*
X168310480Y-104477150D01*
X168320970Y-104499329D01*
X168329235Y-104522428D01*
X168335196Y-104546227D01*
X168338796Y-104570495D01*
X168340000Y-104594999D01*
X168340000Y-105245001D01*
X168338796Y-105269505D01*
X168335196Y-105293773D01*
X168329235Y-105317572D01*
X168320970Y-105340671D01*
X168310480Y-105362850D01*
X168297868Y-105383893D01*
X168283253Y-105403599D01*
X168266777Y-105421777D01*
X168248599Y-105438253D01*
X168228893Y-105452868D01*
X168207850Y-105465480D01*
X168185671Y-105475970D01*
X168162572Y-105484235D01*
X168138773Y-105490196D01*
X168114505Y-105493796D01*
X168090001Y-105495000D01*
X167189999Y-105495000D01*
X167165495Y-105493796D01*
X167141227Y-105490196D01*
X167117428Y-105484235D01*
X167094329Y-105475970D01*
X167072150Y-105465480D01*
X167051107Y-105452868D01*
X167031401Y-105438253D01*
X167013223Y-105421777D01*
X166996747Y-105403599D01*
X166982132Y-105383893D01*
X166969520Y-105362850D01*
X166959030Y-105340671D01*
X166950765Y-105317572D01*
X166944804Y-105293773D01*
X166941204Y-105269505D01*
X166940000Y-105245001D01*
X166940000Y-104594999D01*
X166941204Y-104570495D01*
X166944804Y-104546227D01*
X166950765Y-104522428D01*
X166959030Y-104499329D01*
X166969520Y-104477150D01*
X166982132Y-104456107D01*
X166996747Y-104436401D01*
X167013223Y-104418223D01*
X167031401Y-104401747D01*
X167051107Y-104387132D01*
X167072150Y-104374520D01*
X167094329Y-104364030D01*
X167117428Y-104355765D01*
X167141227Y-104349804D01*
X167165495Y-104346204D01*
X167189999Y-104345000D01*
X168090001Y-104345000D01*
X168114505Y-104346204D01*
G37*
G04 #@! TD.AperFunction*
G04 #@! TA.AperFunction,SMDPad,CuDef*
G36*
X168114505Y-102296204D02*
G01*
X168138773Y-102299804D01*
X168162572Y-102305765D01*
X168185671Y-102314030D01*
X168207850Y-102324520D01*
X168228893Y-102337132D01*
X168248599Y-102351747D01*
X168266777Y-102368223D01*
X168283253Y-102386401D01*
X168297868Y-102406107D01*
X168310480Y-102427150D01*
X168320970Y-102449329D01*
X168329235Y-102472428D01*
X168335196Y-102496227D01*
X168338796Y-102520495D01*
X168340000Y-102544999D01*
X168340000Y-103195001D01*
X168338796Y-103219505D01*
X168335196Y-103243773D01*
X168329235Y-103267572D01*
X168320970Y-103290671D01*
X168310480Y-103312850D01*
X168297868Y-103333893D01*
X168283253Y-103353599D01*
X168266777Y-103371777D01*
X168248599Y-103388253D01*
X168228893Y-103402868D01*
X168207850Y-103415480D01*
X168185671Y-103425970D01*
X168162572Y-103434235D01*
X168138773Y-103440196D01*
X168114505Y-103443796D01*
X168090001Y-103445000D01*
X167189999Y-103445000D01*
X167165495Y-103443796D01*
X167141227Y-103440196D01*
X167117428Y-103434235D01*
X167094329Y-103425970D01*
X167072150Y-103415480D01*
X167051107Y-103402868D01*
X167031401Y-103388253D01*
X167013223Y-103371777D01*
X166996747Y-103353599D01*
X166982132Y-103333893D01*
X166969520Y-103312850D01*
X166959030Y-103290671D01*
X166950765Y-103267572D01*
X166944804Y-103243773D01*
X166941204Y-103219505D01*
X166940000Y-103195001D01*
X166940000Y-102544999D01*
X166941204Y-102520495D01*
X166944804Y-102496227D01*
X166950765Y-102472428D01*
X166959030Y-102449329D01*
X166969520Y-102427150D01*
X166982132Y-102406107D01*
X166996747Y-102386401D01*
X167013223Y-102368223D01*
X167031401Y-102351747D01*
X167051107Y-102337132D01*
X167072150Y-102324520D01*
X167094329Y-102314030D01*
X167117428Y-102305765D01*
X167141227Y-102299804D01*
X167165495Y-102296204D01*
X167189999Y-102295000D01*
X168090001Y-102295000D01*
X168114505Y-102296204D01*
G37*
G04 #@! TD.AperFunction*
G04 #@! TA.AperFunction,SMDPad,CuDef*
G36*
X172824505Y-104711204D02*
G01*
X172848773Y-104714804D01*
X172872572Y-104720765D01*
X172895671Y-104729030D01*
X172917850Y-104739520D01*
X172938893Y-104752132D01*
X172958599Y-104766747D01*
X172976777Y-104783223D01*
X172993253Y-104801401D01*
X173007868Y-104821107D01*
X173020480Y-104842150D01*
X173030970Y-104864329D01*
X173039235Y-104887428D01*
X173045196Y-104911227D01*
X173048796Y-104935495D01*
X173050000Y-104959999D01*
X173050000Y-105860001D01*
X173048796Y-105884505D01*
X173045196Y-105908773D01*
X173039235Y-105932572D01*
X173030970Y-105955671D01*
X173020480Y-105977850D01*
X173007868Y-105998893D01*
X172993253Y-106018599D01*
X172976777Y-106036777D01*
X172958599Y-106053253D01*
X172938893Y-106067868D01*
X172917850Y-106080480D01*
X172895671Y-106090970D01*
X172872572Y-106099235D01*
X172848773Y-106105196D01*
X172824505Y-106108796D01*
X172800001Y-106110000D01*
X172149999Y-106110000D01*
X172125495Y-106108796D01*
X172101227Y-106105196D01*
X172077428Y-106099235D01*
X172054329Y-106090970D01*
X172032150Y-106080480D01*
X172011107Y-106067868D01*
X171991401Y-106053253D01*
X171973223Y-106036777D01*
X171956747Y-106018599D01*
X171942132Y-105998893D01*
X171929520Y-105977850D01*
X171919030Y-105955671D01*
X171910765Y-105932572D01*
X171904804Y-105908773D01*
X171901204Y-105884505D01*
X171900000Y-105860001D01*
X171900000Y-104959999D01*
X171901204Y-104935495D01*
X171904804Y-104911227D01*
X171910765Y-104887428D01*
X171919030Y-104864329D01*
X171929520Y-104842150D01*
X171942132Y-104821107D01*
X171956747Y-104801401D01*
X171973223Y-104783223D01*
X171991401Y-104766747D01*
X172011107Y-104752132D01*
X172032150Y-104739520D01*
X172054329Y-104729030D01*
X172077428Y-104720765D01*
X172101227Y-104714804D01*
X172125495Y-104711204D01*
X172149999Y-104710000D01*
X172800001Y-104710000D01*
X172824505Y-104711204D01*
G37*
G04 #@! TD.AperFunction*
G04 #@! TA.AperFunction,SMDPad,CuDef*
G36*
X170774505Y-104711204D02*
G01*
X170798773Y-104714804D01*
X170822572Y-104720765D01*
X170845671Y-104729030D01*
X170867850Y-104739520D01*
X170888893Y-104752132D01*
X170908599Y-104766747D01*
X170926777Y-104783223D01*
X170943253Y-104801401D01*
X170957868Y-104821107D01*
X170970480Y-104842150D01*
X170980970Y-104864329D01*
X170989235Y-104887428D01*
X170995196Y-104911227D01*
X170998796Y-104935495D01*
X171000000Y-104959999D01*
X171000000Y-105860001D01*
X170998796Y-105884505D01*
X170995196Y-105908773D01*
X170989235Y-105932572D01*
X170980970Y-105955671D01*
X170970480Y-105977850D01*
X170957868Y-105998893D01*
X170943253Y-106018599D01*
X170926777Y-106036777D01*
X170908599Y-106053253D01*
X170888893Y-106067868D01*
X170867850Y-106080480D01*
X170845671Y-106090970D01*
X170822572Y-106099235D01*
X170798773Y-106105196D01*
X170774505Y-106108796D01*
X170750001Y-106110000D01*
X170099999Y-106110000D01*
X170075495Y-106108796D01*
X170051227Y-106105196D01*
X170027428Y-106099235D01*
X170004329Y-106090970D01*
X169982150Y-106080480D01*
X169961107Y-106067868D01*
X169941401Y-106053253D01*
X169923223Y-106036777D01*
X169906747Y-106018599D01*
X169892132Y-105998893D01*
X169879520Y-105977850D01*
X169869030Y-105955671D01*
X169860765Y-105932572D01*
X169854804Y-105908773D01*
X169851204Y-105884505D01*
X169850000Y-105860001D01*
X169850000Y-104959999D01*
X169851204Y-104935495D01*
X169854804Y-104911227D01*
X169860765Y-104887428D01*
X169869030Y-104864329D01*
X169879520Y-104842150D01*
X169892132Y-104821107D01*
X169906747Y-104801401D01*
X169923223Y-104783223D01*
X169941401Y-104766747D01*
X169961107Y-104752132D01*
X169982150Y-104739520D01*
X170004329Y-104729030D01*
X170027428Y-104720765D01*
X170051227Y-104714804D01*
X170075495Y-104711204D01*
X170099999Y-104710000D01*
X170750001Y-104710000D01*
X170774505Y-104711204D01*
G37*
G04 #@! TD.AperFunction*
G04 #@! TA.AperFunction,SMDPad,CuDef*
G36*
X171019505Y-98361204D02*
G01*
X171043773Y-98364804D01*
X171067572Y-98370765D01*
X171090671Y-98379030D01*
X171112850Y-98389520D01*
X171133893Y-98402132D01*
X171153599Y-98416747D01*
X171171777Y-98433223D01*
X171188253Y-98451401D01*
X171202868Y-98471107D01*
X171215480Y-98492150D01*
X171225970Y-98514329D01*
X171234235Y-98537428D01*
X171240196Y-98561227D01*
X171243796Y-98585495D01*
X171245000Y-98609999D01*
X171245000Y-99510001D01*
X171243796Y-99534505D01*
X171240196Y-99558773D01*
X171234235Y-99582572D01*
X171225970Y-99605671D01*
X171215480Y-99627850D01*
X171202868Y-99648893D01*
X171188253Y-99668599D01*
X171171777Y-99686777D01*
X171153599Y-99703253D01*
X171133893Y-99717868D01*
X171112850Y-99730480D01*
X171090671Y-99740970D01*
X171067572Y-99749235D01*
X171043773Y-99755196D01*
X171019505Y-99758796D01*
X170995001Y-99760000D01*
X170344999Y-99760000D01*
X170320495Y-99758796D01*
X170296227Y-99755196D01*
X170272428Y-99749235D01*
X170249329Y-99740970D01*
X170227150Y-99730480D01*
X170206107Y-99717868D01*
X170186401Y-99703253D01*
X170168223Y-99686777D01*
X170151747Y-99668599D01*
X170137132Y-99648893D01*
X170124520Y-99627850D01*
X170114030Y-99605671D01*
X170105765Y-99582572D01*
X170099804Y-99558773D01*
X170096204Y-99534505D01*
X170095000Y-99510001D01*
X170095000Y-98609999D01*
X170096204Y-98585495D01*
X170099804Y-98561227D01*
X170105765Y-98537428D01*
X170114030Y-98514329D01*
X170124520Y-98492150D01*
X170137132Y-98471107D01*
X170151747Y-98451401D01*
X170168223Y-98433223D01*
X170186401Y-98416747D01*
X170206107Y-98402132D01*
X170227150Y-98389520D01*
X170249329Y-98379030D01*
X170272428Y-98370765D01*
X170296227Y-98364804D01*
X170320495Y-98361204D01*
X170344999Y-98360000D01*
X170995001Y-98360000D01*
X171019505Y-98361204D01*
G37*
G04 #@! TD.AperFunction*
G04 #@! TA.AperFunction,SMDPad,CuDef*
G36*
X173069505Y-98361204D02*
G01*
X173093773Y-98364804D01*
X173117572Y-98370765D01*
X173140671Y-98379030D01*
X173162850Y-98389520D01*
X173183893Y-98402132D01*
X173203599Y-98416747D01*
X173221777Y-98433223D01*
X173238253Y-98451401D01*
X173252868Y-98471107D01*
X173265480Y-98492150D01*
X173275970Y-98514329D01*
X173284235Y-98537428D01*
X173290196Y-98561227D01*
X173293796Y-98585495D01*
X173295000Y-98609999D01*
X173295000Y-99510001D01*
X173293796Y-99534505D01*
X173290196Y-99558773D01*
X173284235Y-99582572D01*
X173275970Y-99605671D01*
X173265480Y-99627850D01*
X173252868Y-99648893D01*
X173238253Y-99668599D01*
X173221777Y-99686777D01*
X173203599Y-99703253D01*
X173183893Y-99717868D01*
X173162850Y-99730480D01*
X173140671Y-99740970D01*
X173117572Y-99749235D01*
X173093773Y-99755196D01*
X173069505Y-99758796D01*
X173045001Y-99760000D01*
X172394999Y-99760000D01*
X172370495Y-99758796D01*
X172346227Y-99755196D01*
X172322428Y-99749235D01*
X172299329Y-99740970D01*
X172277150Y-99730480D01*
X172256107Y-99717868D01*
X172236401Y-99703253D01*
X172218223Y-99686777D01*
X172201747Y-99668599D01*
X172187132Y-99648893D01*
X172174520Y-99627850D01*
X172164030Y-99605671D01*
X172155765Y-99582572D01*
X172149804Y-99558773D01*
X172146204Y-99534505D01*
X172145000Y-99510001D01*
X172145000Y-98609999D01*
X172146204Y-98585495D01*
X172149804Y-98561227D01*
X172155765Y-98537428D01*
X172164030Y-98514329D01*
X172174520Y-98492150D01*
X172187132Y-98471107D01*
X172201747Y-98451401D01*
X172218223Y-98433223D01*
X172236401Y-98416747D01*
X172256107Y-98402132D01*
X172277150Y-98389520D01*
X172299329Y-98379030D01*
X172322428Y-98370765D01*
X172346227Y-98364804D01*
X172370495Y-98361204D01*
X172394999Y-98360000D01*
X173045001Y-98360000D01*
X173069505Y-98361204D01*
G37*
G04 #@! TD.AperFunction*
G04 #@! TA.AperFunction,SMDPad,CuDef*
G36*
X188434505Y-102296204D02*
G01*
X188458773Y-102299804D01*
X188482572Y-102305765D01*
X188505671Y-102314030D01*
X188527850Y-102324520D01*
X188548893Y-102337132D01*
X188568599Y-102351747D01*
X188586777Y-102368223D01*
X188603253Y-102386401D01*
X188617868Y-102406107D01*
X188630480Y-102427150D01*
X188640970Y-102449329D01*
X188649235Y-102472428D01*
X188655196Y-102496227D01*
X188658796Y-102520495D01*
X188660000Y-102544999D01*
X188660000Y-103195001D01*
X188658796Y-103219505D01*
X188655196Y-103243773D01*
X188649235Y-103267572D01*
X188640970Y-103290671D01*
X188630480Y-103312850D01*
X188617868Y-103333893D01*
X188603253Y-103353599D01*
X188586777Y-103371777D01*
X188568599Y-103388253D01*
X188548893Y-103402868D01*
X188527850Y-103415480D01*
X188505671Y-103425970D01*
X188482572Y-103434235D01*
X188458773Y-103440196D01*
X188434505Y-103443796D01*
X188410001Y-103445000D01*
X187509999Y-103445000D01*
X187485495Y-103443796D01*
X187461227Y-103440196D01*
X187437428Y-103434235D01*
X187414329Y-103425970D01*
X187392150Y-103415480D01*
X187371107Y-103402868D01*
X187351401Y-103388253D01*
X187333223Y-103371777D01*
X187316747Y-103353599D01*
X187302132Y-103333893D01*
X187289520Y-103312850D01*
X187279030Y-103290671D01*
X187270765Y-103267572D01*
X187264804Y-103243773D01*
X187261204Y-103219505D01*
X187260000Y-103195001D01*
X187260000Y-102544999D01*
X187261204Y-102520495D01*
X187264804Y-102496227D01*
X187270765Y-102472428D01*
X187279030Y-102449329D01*
X187289520Y-102427150D01*
X187302132Y-102406107D01*
X187316747Y-102386401D01*
X187333223Y-102368223D01*
X187351401Y-102351747D01*
X187371107Y-102337132D01*
X187392150Y-102324520D01*
X187414329Y-102314030D01*
X187437428Y-102305765D01*
X187461227Y-102299804D01*
X187485495Y-102296204D01*
X187509999Y-102295000D01*
X188410001Y-102295000D01*
X188434505Y-102296204D01*
G37*
G04 #@! TD.AperFunction*
G04 #@! TA.AperFunction,SMDPad,CuDef*
G36*
X188434505Y-104346204D02*
G01*
X188458773Y-104349804D01*
X188482572Y-104355765D01*
X188505671Y-104364030D01*
X188527850Y-104374520D01*
X188548893Y-104387132D01*
X188568599Y-104401747D01*
X188586777Y-104418223D01*
X188603253Y-104436401D01*
X188617868Y-104456107D01*
X188630480Y-104477150D01*
X188640970Y-104499329D01*
X188649235Y-104522428D01*
X188655196Y-104546227D01*
X188658796Y-104570495D01*
X188660000Y-104594999D01*
X188660000Y-105245001D01*
X188658796Y-105269505D01*
X188655196Y-105293773D01*
X188649235Y-105317572D01*
X188640970Y-105340671D01*
X188630480Y-105362850D01*
X188617868Y-105383893D01*
X188603253Y-105403599D01*
X188586777Y-105421777D01*
X188568599Y-105438253D01*
X188548893Y-105452868D01*
X188527850Y-105465480D01*
X188505671Y-105475970D01*
X188482572Y-105484235D01*
X188458773Y-105490196D01*
X188434505Y-105493796D01*
X188410001Y-105495000D01*
X187509999Y-105495000D01*
X187485495Y-105493796D01*
X187461227Y-105490196D01*
X187437428Y-105484235D01*
X187414329Y-105475970D01*
X187392150Y-105465480D01*
X187371107Y-105452868D01*
X187351401Y-105438253D01*
X187333223Y-105421777D01*
X187316747Y-105403599D01*
X187302132Y-105383893D01*
X187289520Y-105362850D01*
X187279030Y-105340671D01*
X187270765Y-105317572D01*
X187264804Y-105293773D01*
X187261204Y-105269505D01*
X187260000Y-105245001D01*
X187260000Y-104594999D01*
X187261204Y-104570495D01*
X187264804Y-104546227D01*
X187270765Y-104522428D01*
X187279030Y-104499329D01*
X187289520Y-104477150D01*
X187302132Y-104456107D01*
X187316747Y-104436401D01*
X187333223Y-104418223D01*
X187351401Y-104401747D01*
X187371107Y-104387132D01*
X187392150Y-104374520D01*
X187414329Y-104364030D01*
X187437428Y-104355765D01*
X187461227Y-104349804D01*
X187485495Y-104346204D01*
X187509999Y-104345000D01*
X188410001Y-104345000D01*
X188434505Y-104346204D01*
G37*
G04 #@! TD.AperFunction*
G04 #@! TA.AperFunction,SMDPad,CuDef*
G36*
X193514505Y-104346204D02*
G01*
X193538773Y-104349804D01*
X193562572Y-104355765D01*
X193585671Y-104364030D01*
X193607850Y-104374520D01*
X193628893Y-104387132D01*
X193648599Y-104401747D01*
X193666777Y-104418223D01*
X193683253Y-104436401D01*
X193697868Y-104456107D01*
X193710480Y-104477150D01*
X193720970Y-104499329D01*
X193729235Y-104522428D01*
X193735196Y-104546227D01*
X193738796Y-104570495D01*
X193740000Y-104594999D01*
X193740000Y-105245001D01*
X193738796Y-105269505D01*
X193735196Y-105293773D01*
X193729235Y-105317572D01*
X193720970Y-105340671D01*
X193710480Y-105362850D01*
X193697868Y-105383893D01*
X193683253Y-105403599D01*
X193666777Y-105421777D01*
X193648599Y-105438253D01*
X193628893Y-105452868D01*
X193607850Y-105465480D01*
X193585671Y-105475970D01*
X193562572Y-105484235D01*
X193538773Y-105490196D01*
X193514505Y-105493796D01*
X193490001Y-105495000D01*
X192589999Y-105495000D01*
X192565495Y-105493796D01*
X192541227Y-105490196D01*
X192517428Y-105484235D01*
X192494329Y-105475970D01*
X192472150Y-105465480D01*
X192451107Y-105452868D01*
X192431401Y-105438253D01*
X192413223Y-105421777D01*
X192396747Y-105403599D01*
X192382132Y-105383893D01*
X192369520Y-105362850D01*
X192359030Y-105340671D01*
X192350765Y-105317572D01*
X192344804Y-105293773D01*
X192341204Y-105269505D01*
X192340000Y-105245001D01*
X192340000Y-104594999D01*
X192341204Y-104570495D01*
X192344804Y-104546227D01*
X192350765Y-104522428D01*
X192359030Y-104499329D01*
X192369520Y-104477150D01*
X192382132Y-104456107D01*
X192396747Y-104436401D01*
X192413223Y-104418223D01*
X192431401Y-104401747D01*
X192451107Y-104387132D01*
X192472150Y-104374520D01*
X192494329Y-104364030D01*
X192517428Y-104355765D01*
X192541227Y-104349804D01*
X192565495Y-104346204D01*
X192589999Y-104345000D01*
X193490001Y-104345000D01*
X193514505Y-104346204D01*
G37*
G04 #@! TD.AperFunction*
G04 #@! TA.AperFunction,SMDPad,CuDef*
G36*
X193514505Y-102296204D02*
G01*
X193538773Y-102299804D01*
X193562572Y-102305765D01*
X193585671Y-102314030D01*
X193607850Y-102324520D01*
X193628893Y-102337132D01*
X193648599Y-102351747D01*
X193666777Y-102368223D01*
X193683253Y-102386401D01*
X193697868Y-102406107D01*
X193710480Y-102427150D01*
X193720970Y-102449329D01*
X193729235Y-102472428D01*
X193735196Y-102496227D01*
X193738796Y-102520495D01*
X193740000Y-102544999D01*
X193740000Y-103195001D01*
X193738796Y-103219505D01*
X193735196Y-103243773D01*
X193729235Y-103267572D01*
X193720970Y-103290671D01*
X193710480Y-103312850D01*
X193697868Y-103333893D01*
X193683253Y-103353599D01*
X193666777Y-103371777D01*
X193648599Y-103388253D01*
X193628893Y-103402868D01*
X193607850Y-103415480D01*
X193585671Y-103425970D01*
X193562572Y-103434235D01*
X193538773Y-103440196D01*
X193514505Y-103443796D01*
X193490001Y-103445000D01*
X192589999Y-103445000D01*
X192565495Y-103443796D01*
X192541227Y-103440196D01*
X192517428Y-103434235D01*
X192494329Y-103425970D01*
X192472150Y-103415480D01*
X192451107Y-103402868D01*
X192431401Y-103388253D01*
X192413223Y-103371777D01*
X192396747Y-103353599D01*
X192382132Y-103333893D01*
X192369520Y-103312850D01*
X192359030Y-103290671D01*
X192350765Y-103267572D01*
X192344804Y-103243773D01*
X192341204Y-103219505D01*
X192340000Y-103195001D01*
X192340000Y-102544999D01*
X192341204Y-102520495D01*
X192344804Y-102496227D01*
X192350765Y-102472428D01*
X192359030Y-102449329D01*
X192369520Y-102427150D01*
X192382132Y-102406107D01*
X192396747Y-102386401D01*
X192413223Y-102368223D01*
X192431401Y-102351747D01*
X192451107Y-102337132D01*
X192472150Y-102324520D01*
X192494329Y-102314030D01*
X192517428Y-102305765D01*
X192541227Y-102299804D01*
X192565495Y-102296204D01*
X192589999Y-102295000D01*
X193490001Y-102295000D01*
X193514505Y-102296204D01*
G37*
G04 #@! TD.AperFunction*
G04 #@! TA.AperFunction,SMDPad,CuDef*
G36*
X179909703Y-100030722D02*
G01*
X179924264Y-100032882D01*
X179938543Y-100036459D01*
X179952403Y-100041418D01*
X179965710Y-100047712D01*
X179978336Y-100055280D01*
X179990159Y-100064048D01*
X180001066Y-100073934D01*
X180010952Y-100084841D01*
X180019720Y-100096664D01*
X180027288Y-100109290D01*
X180033582Y-100122597D01*
X180038541Y-100136457D01*
X180042118Y-100150736D01*
X180044278Y-100165297D01*
X180045000Y-100180000D01*
X180045000Y-100480000D01*
X180044278Y-100494703D01*
X180042118Y-100509264D01*
X180038541Y-100523543D01*
X180033582Y-100537403D01*
X180027288Y-100550710D01*
X180019720Y-100563336D01*
X180010952Y-100575159D01*
X180001066Y-100586066D01*
X179990159Y-100595952D01*
X179978336Y-100604720D01*
X179965710Y-100612288D01*
X179952403Y-100618582D01*
X179938543Y-100623541D01*
X179924264Y-100627118D01*
X179909703Y-100629278D01*
X179895000Y-100630000D01*
X178245000Y-100630000D01*
X178230297Y-100629278D01*
X178215736Y-100627118D01*
X178201457Y-100623541D01*
X178187597Y-100618582D01*
X178174290Y-100612288D01*
X178161664Y-100604720D01*
X178149841Y-100595952D01*
X178138934Y-100586066D01*
X178129048Y-100575159D01*
X178120280Y-100563336D01*
X178112712Y-100550710D01*
X178106418Y-100537403D01*
X178101459Y-100523543D01*
X178097882Y-100509264D01*
X178095722Y-100494703D01*
X178095000Y-100480000D01*
X178095000Y-100180000D01*
X178095722Y-100165297D01*
X178097882Y-100150736D01*
X178101459Y-100136457D01*
X178106418Y-100122597D01*
X178112712Y-100109290D01*
X178120280Y-100096664D01*
X178129048Y-100084841D01*
X178138934Y-100073934D01*
X178149841Y-100064048D01*
X178161664Y-100055280D01*
X178174290Y-100047712D01*
X178187597Y-100041418D01*
X178201457Y-100036459D01*
X178215736Y-100032882D01*
X178230297Y-100030722D01*
X178245000Y-100030000D01*
X179895000Y-100030000D01*
X179909703Y-100030722D01*
G37*
G04 #@! TD.AperFunction*
G04 #@! TA.AperFunction,SMDPad,CuDef*
G36*
X179909703Y-101300722D02*
G01*
X179924264Y-101302882D01*
X179938543Y-101306459D01*
X179952403Y-101311418D01*
X179965710Y-101317712D01*
X179978336Y-101325280D01*
X179990159Y-101334048D01*
X180001066Y-101343934D01*
X180010952Y-101354841D01*
X180019720Y-101366664D01*
X180027288Y-101379290D01*
X180033582Y-101392597D01*
X180038541Y-101406457D01*
X180042118Y-101420736D01*
X180044278Y-101435297D01*
X180045000Y-101450000D01*
X180045000Y-101750000D01*
X180044278Y-101764703D01*
X180042118Y-101779264D01*
X180038541Y-101793543D01*
X180033582Y-101807403D01*
X180027288Y-101820710D01*
X180019720Y-101833336D01*
X180010952Y-101845159D01*
X180001066Y-101856066D01*
X179990159Y-101865952D01*
X179978336Y-101874720D01*
X179965710Y-101882288D01*
X179952403Y-101888582D01*
X179938543Y-101893541D01*
X179924264Y-101897118D01*
X179909703Y-101899278D01*
X179895000Y-101900000D01*
X178245000Y-101900000D01*
X178230297Y-101899278D01*
X178215736Y-101897118D01*
X178201457Y-101893541D01*
X178187597Y-101888582D01*
X178174290Y-101882288D01*
X178161664Y-101874720D01*
X178149841Y-101865952D01*
X178138934Y-101856066D01*
X178129048Y-101845159D01*
X178120280Y-101833336D01*
X178112712Y-101820710D01*
X178106418Y-101807403D01*
X178101459Y-101793543D01*
X178097882Y-101779264D01*
X178095722Y-101764703D01*
X178095000Y-101750000D01*
X178095000Y-101450000D01*
X178095722Y-101435297D01*
X178097882Y-101420736D01*
X178101459Y-101406457D01*
X178106418Y-101392597D01*
X178112712Y-101379290D01*
X178120280Y-101366664D01*
X178129048Y-101354841D01*
X178138934Y-101343934D01*
X178149841Y-101334048D01*
X178161664Y-101325280D01*
X178174290Y-101317712D01*
X178187597Y-101311418D01*
X178201457Y-101306459D01*
X178215736Y-101302882D01*
X178230297Y-101300722D01*
X178245000Y-101300000D01*
X179895000Y-101300000D01*
X179909703Y-101300722D01*
G37*
G04 #@! TD.AperFunction*
G04 #@! TA.AperFunction,SMDPad,CuDef*
G36*
X179909703Y-102570722D02*
G01*
X179924264Y-102572882D01*
X179938543Y-102576459D01*
X179952403Y-102581418D01*
X179965710Y-102587712D01*
X179978336Y-102595280D01*
X179990159Y-102604048D01*
X180001066Y-102613934D01*
X180010952Y-102624841D01*
X180019720Y-102636664D01*
X180027288Y-102649290D01*
X180033582Y-102662597D01*
X180038541Y-102676457D01*
X180042118Y-102690736D01*
X180044278Y-102705297D01*
X180045000Y-102720000D01*
X180045000Y-103020000D01*
X180044278Y-103034703D01*
X180042118Y-103049264D01*
X180038541Y-103063543D01*
X180033582Y-103077403D01*
X180027288Y-103090710D01*
X180019720Y-103103336D01*
X180010952Y-103115159D01*
X180001066Y-103126066D01*
X179990159Y-103135952D01*
X179978336Y-103144720D01*
X179965710Y-103152288D01*
X179952403Y-103158582D01*
X179938543Y-103163541D01*
X179924264Y-103167118D01*
X179909703Y-103169278D01*
X179895000Y-103170000D01*
X178245000Y-103170000D01*
X178230297Y-103169278D01*
X178215736Y-103167118D01*
X178201457Y-103163541D01*
X178187597Y-103158582D01*
X178174290Y-103152288D01*
X178161664Y-103144720D01*
X178149841Y-103135952D01*
X178138934Y-103126066D01*
X178129048Y-103115159D01*
X178120280Y-103103336D01*
X178112712Y-103090710D01*
X178106418Y-103077403D01*
X178101459Y-103063543D01*
X178097882Y-103049264D01*
X178095722Y-103034703D01*
X178095000Y-103020000D01*
X178095000Y-102720000D01*
X178095722Y-102705297D01*
X178097882Y-102690736D01*
X178101459Y-102676457D01*
X178106418Y-102662597D01*
X178112712Y-102649290D01*
X178120280Y-102636664D01*
X178129048Y-102624841D01*
X178138934Y-102613934D01*
X178149841Y-102604048D01*
X178161664Y-102595280D01*
X178174290Y-102587712D01*
X178187597Y-102581418D01*
X178201457Y-102576459D01*
X178215736Y-102572882D01*
X178230297Y-102570722D01*
X178245000Y-102570000D01*
X179895000Y-102570000D01*
X179909703Y-102570722D01*
G37*
G04 #@! TD.AperFunction*
G04 #@! TA.AperFunction,SMDPad,CuDef*
G36*
X179909703Y-103840722D02*
G01*
X179924264Y-103842882D01*
X179938543Y-103846459D01*
X179952403Y-103851418D01*
X179965710Y-103857712D01*
X179978336Y-103865280D01*
X179990159Y-103874048D01*
X180001066Y-103883934D01*
X180010952Y-103894841D01*
X180019720Y-103906664D01*
X180027288Y-103919290D01*
X180033582Y-103932597D01*
X180038541Y-103946457D01*
X180042118Y-103960736D01*
X180044278Y-103975297D01*
X180045000Y-103990000D01*
X180045000Y-104290000D01*
X180044278Y-104304703D01*
X180042118Y-104319264D01*
X180038541Y-104333543D01*
X180033582Y-104347403D01*
X180027288Y-104360710D01*
X180019720Y-104373336D01*
X180010952Y-104385159D01*
X180001066Y-104396066D01*
X179990159Y-104405952D01*
X179978336Y-104414720D01*
X179965710Y-104422288D01*
X179952403Y-104428582D01*
X179938543Y-104433541D01*
X179924264Y-104437118D01*
X179909703Y-104439278D01*
X179895000Y-104440000D01*
X178245000Y-104440000D01*
X178230297Y-104439278D01*
X178215736Y-104437118D01*
X178201457Y-104433541D01*
X178187597Y-104428582D01*
X178174290Y-104422288D01*
X178161664Y-104414720D01*
X178149841Y-104405952D01*
X178138934Y-104396066D01*
X178129048Y-104385159D01*
X178120280Y-104373336D01*
X178112712Y-104360710D01*
X178106418Y-104347403D01*
X178101459Y-104333543D01*
X178097882Y-104319264D01*
X178095722Y-104304703D01*
X178095000Y-104290000D01*
X178095000Y-103990000D01*
X178095722Y-103975297D01*
X178097882Y-103960736D01*
X178101459Y-103946457D01*
X178106418Y-103932597D01*
X178112712Y-103919290D01*
X178120280Y-103906664D01*
X178129048Y-103894841D01*
X178138934Y-103883934D01*
X178149841Y-103874048D01*
X178161664Y-103865280D01*
X178174290Y-103857712D01*
X178187597Y-103851418D01*
X178201457Y-103846459D01*
X178215736Y-103842882D01*
X178230297Y-103840722D01*
X178245000Y-103840000D01*
X179895000Y-103840000D01*
X179909703Y-103840722D01*
G37*
G04 #@! TD.AperFunction*
G04 #@! TA.AperFunction,SMDPad,CuDef*
G36*
X179909703Y-105110722D02*
G01*
X179924264Y-105112882D01*
X179938543Y-105116459D01*
X179952403Y-105121418D01*
X179965710Y-105127712D01*
X179978336Y-105135280D01*
X179990159Y-105144048D01*
X180001066Y-105153934D01*
X180010952Y-105164841D01*
X180019720Y-105176664D01*
X180027288Y-105189290D01*
X180033582Y-105202597D01*
X180038541Y-105216457D01*
X180042118Y-105230736D01*
X180044278Y-105245297D01*
X180045000Y-105260000D01*
X180045000Y-105560000D01*
X180044278Y-105574703D01*
X180042118Y-105589264D01*
X180038541Y-105603543D01*
X180033582Y-105617403D01*
X180027288Y-105630710D01*
X180019720Y-105643336D01*
X180010952Y-105655159D01*
X180001066Y-105666066D01*
X179990159Y-105675952D01*
X179978336Y-105684720D01*
X179965710Y-105692288D01*
X179952403Y-105698582D01*
X179938543Y-105703541D01*
X179924264Y-105707118D01*
X179909703Y-105709278D01*
X179895000Y-105710000D01*
X178245000Y-105710000D01*
X178230297Y-105709278D01*
X178215736Y-105707118D01*
X178201457Y-105703541D01*
X178187597Y-105698582D01*
X178174290Y-105692288D01*
X178161664Y-105684720D01*
X178149841Y-105675952D01*
X178138934Y-105666066D01*
X178129048Y-105655159D01*
X178120280Y-105643336D01*
X178112712Y-105630710D01*
X178106418Y-105617403D01*
X178101459Y-105603543D01*
X178097882Y-105589264D01*
X178095722Y-105574703D01*
X178095000Y-105560000D01*
X178095000Y-105260000D01*
X178095722Y-105245297D01*
X178097882Y-105230736D01*
X178101459Y-105216457D01*
X178106418Y-105202597D01*
X178112712Y-105189290D01*
X178120280Y-105176664D01*
X178129048Y-105164841D01*
X178138934Y-105153934D01*
X178149841Y-105144048D01*
X178161664Y-105135280D01*
X178174290Y-105127712D01*
X178187597Y-105121418D01*
X178201457Y-105116459D01*
X178215736Y-105112882D01*
X178230297Y-105110722D01*
X178245000Y-105110000D01*
X179895000Y-105110000D01*
X179909703Y-105110722D01*
G37*
G04 #@! TD.AperFunction*
G04 #@! TA.AperFunction,SMDPad,CuDef*
G36*
X179909703Y-106380722D02*
G01*
X179924264Y-106382882D01*
X179938543Y-106386459D01*
X179952403Y-106391418D01*
X179965710Y-106397712D01*
X179978336Y-106405280D01*
X179990159Y-106414048D01*
X180001066Y-106423934D01*
X180010952Y-106434841D01*
X180019720Y-106446664D01*
X180027288Y-106459290D01*
X180033582Y-106472597D01*
X180038541Y-106486457D01*
X180042118Y-106500736D01*
X180044278Y-106515297D01*
X180045000Y-106530000D01*
X180045000Y-106830000D01*
X180044278Y-106844703D01*
X180042118Y-106859264D01*
X180038541Y-106873543D01*
X180033582Y-106887403D01*
X180027288Y-106900710D01*
X180019720Y-106913336D01*
X180010952Y-106925159D01*
X180001066Y-106936066D01*
X179990159Y-106945952D01*
X179978336Y-106954720D01*
X179965710Y-106962288D01*
X179952403Y-106968582D01*
X179938543Y-106973541D01*
X179924264Y-106977118D01*
X179909703Y-106979278D01*
X179895000Y-106980000D01*
X178245000Y-106980000D01*
X178230297Y-106979278D01*
X178215736Y-106977118D01*
X178201457Y-106973541D01*
X178187597Y-106968582D01*
X178174290Y-106962288D01*
X178161664Y-106954720D01*
X178149841Y-106945952D01*
X178138934Y-106936066D01*
X178129048Y-106925159D01*
X178120280Y-106913336D01*
X178112712Y-106900710D01*
X178106418Y-106887403D01*
X178101459Y-106873543D01*
X178097882Y-106859264D01*
X178095722Y-106844703D01*
X178095000Y-106830000D01*
X178095000Y-106530000D01*
X178095722Y-106515297D01*
X178097882Y-106500736D01*
X178101459Y-106486457D01*
X178106418Y-106472597D01*
X178112712Y-106459290D01*
X178120280Y-106446664D01*
X178129048Y-106434841D01*
X178138934Y-106423934D01*
X178149841Y-106414048D01*
X178161664Y-106405280D01*
X178174290Y-106397712D01*
X178187597Y-106391418D01*
X178201457Y-106386459D01*
X178215736Y-106382882D01*
X178230297Y-106380722D01*
X178245000Y-106380000D01*
X179895000Y-106380000D01*
X179909703Y-106380722D01*
G37*
G04 #@! TD.AperFunction*
G04 #@! TA.AperFunction,SMDPad,CuDef*
G36*
X179909703Y-107650722D02*
G01*
X179924264Y-107652882D01*
X179938543Y-107656459D01*
X179952403Y-107661418D01*
X179965710Y-107667712D01*
X179978336Y-107675280D01*
X179990159Y-107684048D01*
X180001066Y-107693934D01*
X180010952Y-107704841D01*
X180019720Y-107716664D01*
X180027288Y-107729290D01*
X180033582Y-107742597D01*
X180038541Y-107756457D01*
X180042118Y-107770736D01*
X180044278Y-107785297D01*
X180045000Y-107800000D01*
X180045000Y-108100000D01*
X180044278Y-108114703D01*
X180042118Y-108129264D01*
X180038541Y-108143543D01*
X180033582Y-108157403D01*
X180027288Y-108170710D01*
X180019720Y-108183336D01*
X180010952Y-108195159D01*
X180001066Y-108206066D01*
X179990159Y-108215952D01*
X179978336Y-108224720D01*
X179965710Y-108232288D01*
X179952403Y-108238582D01*
X179938543Y-108243541D01*
X179924264Y-108247118D01*
X179909703Y-108249278D01*
X179895000Y-108250000D01*
X178245000Y-108250000D01*
X178230297Y-108249278D01*
X178215736Y-108247118D01*
X178201457Y-108243541D01*
X178187597Y-108238582D01*
X178174290Y-108232288D01*
X178161664Y-108224720D01*
X178149841Y-108215952D01*
X178138934Y-108206066D01*
X178129048Y-108195159D01*
X178120280Y-108183336D01*
X178112712Y-108170710D01*
X178106418Y-108157403D01*
X178101459Y-108143543D01*
X178097882Y-108129264D01*
X178095722Y-108114703D01*
X178095000Y-108100000D01*
X178095000Y-107800000D01*
X178095722Y-107785297D01*
X178097882Y-107770736D01*
X178101459Y-107756457D01*
X178106418Y-107742597D01*
X178112712Y-107729290D01*
X178120280Y-107716664D01*
X178129048Y-107704841D01*
X178138934Y-107693934D01*
X178149841Y-107684048D01*
X178161664Y-107675280D01*
X178174290Y-107667712D01*
X178187597Y-107661418D01*
X178201457Y-107656459D01*
X178215736Y-107652882D01*
X178230297Y-107650722D01*
X178245000Y-107650000D01*
X179895000Y-107650000D01*
X179909703Y-107650722D01*
G37*
G04 #@! TD.AperFunction*
G04 #@! TA.AperFunction,SMDPad,CuDef*
G36*
X179909703Y-108920722D02*
G01*
X179924264Y-108922882D01*
X179938543Y-108926459D01*
X179952403Y-108931418D01*
X179965710Y-108937712D01*
X179978336Y-108945280D01*
X179990159Y-108954048D01*
X180001066Y-108963934D01*
X180010952Y-108974841D01*
X180019720Y-108986664D01*
X180027288Y-108999290D01*
X180033582Y-109012597D01*
X180038541Y-109026457D01*
X180042118Y-109040736D01*
X180044278Y-109055297D01*
X180045000Y-109070000D01*
X180045000Y-109370000D01*
X180044278Y-109384703D01*
X180042118Y-109399264D01*
X180038541Y-109413543D01*
X180033582Y-109427403D01*
X180027288Y-109440710D01*
X180019720Y-109453336D01*
X180010952Y-109465159D01*
X180001066Y-109476066D01*
X179990159Y-109485952D01*
X179978336Y-109494720D01*
X179965710Y-109502288D01*
X179952403Y-109508582D01*
X179938543Y-109513541D01*
X179924264Y-109517118D01*
X179909703Y-109519278D01*
X179895000Y-109520000D01*
X178245000Y-109520000D01*
X178230297Y-109519278D01*
X178215736Y-109517118D01*
X178201457Y-109513541D01*
X178187597Y-109508582D01*
X178174290Y-109502288D01*
X178161664Y-109494720D01*
X178149841Y-109485952D01*
X178138934Y-109476066D01*
X178129048Y-109465159D01*
X178120280Y-109453336D01*
X178112712Y-109440710D01*
X178106418Y-109427403D01*
X178101459Y-109413543D01*
X178097882Y-109399264D01*
X178095722Y-109384703D01*
X178095000Y-109370000D01*
X178095000Y-109070000D01*
X178095722Y-109055297D01*
X178097882Y-109040736D01*
X178101459Y-109026457D01*
X178106418Y-109012597D01*
X178112712Y-108999290D01*
X178120280Y-108986664D01*
X178129048Y-108974841D01*
X178138934Y-108963934D01*
X178149841Y-108954048D01*
X178161664Y-108945280D01*
X178174290Y-108937712D01*
X178187597Y-108931418D01*
X178201457Y-108926459D01*
X178215736Y-108922882D01*
X178230297Y-108920722D01*
X178245000Y-108920000D01*
X179895000Y-108920000D01*
X179909703Y-108920722D01*
G37*
G04 #@! TD.AperFunction*
G04 #@! TA.AperFunction,SMDPad,CuDef*
G36*
X184859703Y-108920722D02*
G01*
X184874264Y-108922882D01*
X184888543Y-108926459D01*
X184902403Y-108931418D01*
X184915710Y-108937712D01*
X184928336Y-108945280D01*
X184940159Y-108954048D01*
X184951066Y-108963934D01*
X184960952Y-108974841D01*
X184969720Y-108986664D01*
X184977288Y-108999290D01*
X184983582Y-109012597D01*
X184988541Y-109026457D01*
X184992118Y-109040736D01*
X184994278Y-109055297D01*
X184995000Y-109070000D01*
X184995000Y-109370000D01*
X184994278Y-109384703D01*
X184992118Y-109399264D01*
X184988541Y-109413543D01*
X184983582Y-109427403D01*
X184977288Y-109440710D01*
X184969720Y-109453336D01*
X184960952Y-109465159D01*
X184951066Y-109476066D01*
X184940159Y-109485952D01*
X184928336Y-109494720D01*
X184915710Y-109502288D01*
X184902403Y-109508582D01*
X184888543Y-109513541D01*
X184874264Y-109517118D01*
X184859703Y-109519278D01*
X184845000Y-109520000D01*
X183195000Y-109520000D01*
X183180297Y-109519278D01*
X183165736Y-109517118D01*
X183151457Y-109513541D01*
X183137597Y-109508582D01*
X183124290Y-109502288D01*
X183111664Y-109494720D01*
X183099841Y-109485952D01*
X183088934Y-109476066D01*
X183079048Y-109465159D01*
X183070280Y-109453336D01*
X183062712Y-109440710D01*
X183056418Y-109427403D01*
X183051459Y-109413543D01*
X183047882Y-109399264D01*
X183045722Y-109384703D01*
X183045000Y-109370000D01*
X183045000Y-109070000D01*
X183045722Y-109055297D01*
X183047882Y-109040736D01*
X183051459Y-109026457D01*
X183056418Y-109012597D01*
X183062712Y-108999290D01*
X183070280Y-108986664D01*
X183079048Y-108974841D01*
X183088934Y-108963934D01*
X183099841Y-108954048D01*
X183111664Y-108945280D01*
X183124290Y-108937712D01*
X183137597Y-108931418D01*
X183151457Y-108926459D01*
X183165736Y-108922882D01*
X183180297Y-108920722D01*
X183195000Y-108920000D01*
X184845000Y-108920000D01*
X184859703Y-108920722D01*
G37*
G04 #@! TD.AperFunction*
G04 #@! TA.AperFunction,SMDPad,CuDef*
G36*
X184859703Y-107650722D02*
G01*
X184874264Y-107652882D01*
X184888543Y-107656459D01*
X184902403Y-107661418D01*
X184915710Y-107667712D01*
X184928336Y-107675280D01*
X184940159Y-107684048D01*
X184951066Y-107693934D01*
X184960952Y-107704841D01*
X184969720Y-107716664D01*
X184977288Y-107729290D01*
X184983582Y-107742597D01*
X184988541Y-107756457D01*
X184992118Y-107770736D01*
X184994278Y-107785297D01*
X184995000Y-107800000D01*
X184995000Y-108100000D01*
X184994278Y-108114703D01*
X184992118Y-108129264D01*
X184988541Y-108143543D01*
X184983582Y-108157403D01*
X184977288Y-108170710D01*
X184969720Y-108183336D01*
X184960952Y-108195159D01*
X184951066Y-108206066D01*
X184940159Y-108215952D01*
X184928336Y-108224720D01*
X184915710Y-108232288D01*
X184902403Y-108238582D01*
X184888543Y-108243541D01*
X184874264Y-108247118D01*
X184859703Y-108249278D01*
X184845000Y-108250000D01*
X183195000Y-108250000D01*
X183180297Y-108249278D01*
X183165736Y-108247118D01*
X183151457Y-108243541D01*
X183137597Y-108238582D01*
X183124290Y-108232288D01*
X183111664Y-108224720D01*
X183099841Y-108215952D01*
X183088934Y-108206066D01*
X183079048Y-108195159D01*
X183070280Y-108183336D01*
X183062712Y-108170710D01*
X183056418Y-108157403D01*
X183051459Y-108143543D01*
X183047882Y-108129264D01*
X183045722Y-108114703D01*
X183045000Y-108100000D01*
X183045000Y-107800000D01*
X183045722Y-107785297D01*
X183047882Y-107770736D01*
X183051459Y-107756457D01*
X183056418Y-107742597D01*
X183062712Y-107729290D01*
X183070280Y-107716664D01*
X183079048Y-107704841D01*
X183088934Y-107693934D01*
X183099841Y-107684048D01*
X183111664Y-107675280D01*
X183124290Y-107667712D01*
X183137597Y-107661418D01*
X183151457Y-107656459D01*
X183165736Y-107652882D01*
X183180297Y-107650722D01*
X183195000Y-107650000D01*
X184845000Y-107650000D01*
X184859703Y-107650722D01*
G37*
G04 #@! TD.AperFunction*
G04 #@! TA.AperFunction,SMDPad,CuDef*
G36*
X184859703Y-106380722D02*
G01*
X184874264Y-106382882D01*
X184888543Y-106386459D01*
X184902403Y-106391418D01*
X184915710Y-106397712D01*
X184928336Y-106405280D01*
X184940159Y-106414048D01*
X184951066Y-106423934D01*
X184960952Y-106434841D01*
X184969720Y-106446664D01*
X184977288Y-106459290D01*
X184983582Y-106472597D01*
X184988541Y-106486457D01*
X184992118Y-106500736D01*
X184994278Y-106515297D01*
X184995000Y-106530000D01*
X184995000Y-106830000D01*
X184994278Y-106844703D01*
X184992118Y-106859264D01*
X184988541Y-106873543D01*
X184983582Y-106887403D01*
X184977288Y-106900710D01*
X184969720Y-106913336D01*
X184960952Y-106925159D01*
X184951066Y-106936066D01*
X184940159Y-106945952D01*
X184928336Y-106954720D01*
X184915710Y-106962288D01*
X184902403Y-106968582D01*
X184888543Y-106973541D01*
X184874264Y-106977118D01*
X184859703Y-106979278D01*
X184845000Y-106980000D01*
X183195000Y-106980000D01*
X183180297Y-106979278D01*
X183165736Y-106977118D01*
X183151457Y-106973541D01*
X183137597Y-106968582D01*
X183124290Y-106962288D01*
X183111664Y-106954720D01*
X183099841Y-106945952D01*
X183088934Y-106936066D01*
X183079048Y-106925159D01*
X183070280Y-106913336D01*
X183062712Y-106900710D01*
X183056418Y-106887403D01*
X183051459Y-106873543D01*
X183047882Y-106859264D01*
X183045722Y-106844703D01*
X183045000Y-106830000D01*
X183045000Y-106530000D01*
X183045722Y-106515297D01*
X183047882Y-106500736D01*
X183051459Y-106486457D01*
X183056418Y-106472597D01*
X183062712Y-106459290D01*
X183070280Y-106446664D01*
X183079048Y-106434841D01*
X183088934Y-106423934D01*
X183099841Y-106414048D01*
X183111664Y-106405280D01*
X183124290Y-106397712D01*
X183137597Y-106391418D01*
X183151457Y-106386459D01*
X183165736Y-106382882D01*
X183180297Y-106380722D01*
X183195000Y-106380000D01*
X184845000Y-106380000D01*
X184859703Y-106380722D01*
G37*
G04 #@! TD.AperFunction*
G04 #@! TA.AperFunction,SMDPad,CuDef*
G36*
X184859703Y-105110722D02*
G01*
X184874264Y-105112882D01*
X184888543Y-105116459D01*
X184902403Y-105121418D01*
X184915710Y-105127712D01*
X184928336Y-105135280D01*
X184940159Y-105144048D01*
X184951066Y-105153934D01*
X184960952Y-105164841D01*
X184969720Y-105176664D01*
X184977288Y-105189290D01*
X184983582Y-105202597D01*
X184988541Y-105216457D01*
X184992118Y-105230736D01*
X184994278Y-105245297D01*
X184995000Y-105260000D01*
X184995000Y-105560000D01*
X184994278Y-105574703D01*
X184992118Y-105589264D01*
X184988541Y-105603543D01*
X184983582Y-105617403D01*
X184977288Y-105630710D01*
X184969720Y-105643336D01*
X184960952Y-105655159D01*
X184951066Y-105666066D01*
X184940159Y-105675952D01*
X184928336Y-105684720D01*
X184915710Y-105692288D01*
X184902403Y-105698582D01*
X184888543Y-105703541D01*
X184874264Y-105707118D01*
X184859703Y-105709278D01*
X184845000Y-105710000D01*
X183195000Y-105710000D01*
X183180297Y-105709278D01*
X183165736Y-105707118D01*
X183151457Y-105703541D01*
X183137597Y-105698582D01*
X183124290Y-105692288D01*
X183111664Y-105684720D01*
X183099841Y-105675952D01*
X183088934Y-105666066D01*
X183079048Y-105655159D01*
X183070280Y-105643336D01*
X183062712Y-105630710D01*
X183056418Y-105617403D01*
X183051459Y-105603543D01*
X183047882Y-105589264D01*
X183045722Y-105574703D01*
X183045000Y-105560000D01*
X183045000Y-105260000D01*
X183045722Y-105245297D01*
X183047882Y-105230736D01*
X183051459Y-105216457D01*
X183056418Y-105202597D01*
X183062712Y-105189290D01*
X183070280Y-105176664D01*
X183079048Y-105164841D01*
X183088934Y-105153934D01*
X183099841Y-105144048D01*
X183111664Y-105135280D01*
X183124290Y-105127712D01*
X183137597Y-105121418D01*
X183151457Y-105116459D01*
X183165736Y-105112882D01*
X183180297Y-105110722D01*
X183195000Y-105110000D01*
X184845000Y-105110000D01*
X184859703Y-105110722D01*
G37*
G04 #@! TD.AperFunction*
G04 #@! TA.AperFunction,SMDPad,CuDef*
G36*
X184859703Y-103840722D02*
G01*
X184874264Y-103842882D01*
X184888543Y-103846459D01*
X184902403Y-103851418D01*
X184915710Y-103857712D01*
X184928336Y-103865280D01*
X184940159Y-103874048D01*
X184951066Y-103883934D01*
X184960952Y-103894841D01*
X184969720Y-103906664D01*
X184977288Y-103919290D01*
X184983582Y-103932597D01*
X184988541Y-103946457D01*
X184992118Y-103960736D01*
X184994278Y-103975297D01*
X184995000Y-103990000D01*
X184995000Y-104290000D01*
X184994278Y-104304703D01*
X184992118Y-104319264D01*
X184988541Y-104333543D01*
X184983582Y-104347403D01*
X184977288Y-104360710D01*
X184969720Y-104373336D01*
X184960952Y-104385159D01*
X184951066Y-104396066D01*
X184940159Y-104405952D01*
X184928336Y-104414720D01*
X184915710Y-104422288D01*
X184902403Y-104428582D01*
X184888543Y-104433541D01*
X184874264Y-104437118D01*
X184859703Y-104439278D01*
X184845000Y-104440000D01*
X183195000Y-104440000D01*
X183180297Y-104439278D01*
X183165736Y-104437118D01*
X183151457Y-104433541D01*
X183137597Y-104428582D01*
X183124290Y-104422288D01*
X183111664Y-104414720D01*
X183099841Y-104405952D01*
X183088934Y-104396066D01*
X183079048Y-104385159D01*
X183070280Y-104373336D01*
X183062712Y-104360710D01*
X183056418Y-104347403D01*
X183051459Y-104333543D01*
X183047882Y-104319264D01*
X183045722Y-104304703D01*
X183045000Y-104290000D01*
X183045000Y-103990000D01*
X183045722Y-103975297D01*
X183047882Y-103960736D01*
X183051459Y-103946457D01*
X183056418Y-103932597D01*
X183062712Y-103919290D01*
X183070280Y-103906664D01*
X183079048Y-103894841D01*
X183088934Y-103883934D01*
X183099841Y-103874048D01*
X183111664Y-103865280D01*
X183124290Y-103857712D01*
X183137597Y-103851418D01*
X183151457Y-103846459D01*
X183165736Y-103842882D01*
X183180297Y-103840722D01*
X183195000Y-103840000D01*
X184845000Y-103840000D01*
X184859703Y-103840722D01*
G37*
G04 #@! TD.AperFunction*
G04 #@! TA.AperFunction,SMDPad,CuDef*
G36*
X184859703Y-102570722D02*
G01*
X184874264Y-102572882D01*
X184888543Y-102576459D01*
X184902403Y-102581418D01*
X184915710Y-102587712D01*
X184928336Y-102595280D01*
X184940159Y-102604048D01*
X184951066Y-102613934D01*
X184960952Y-102624841D01*
X184969720Y-102636664D01*
X184977288Y-102649290D01*
X184983582Y-102662597D01*
X184988541Y-102676457D01*
X184992118Y-102690736D01*
X184994278Y-102705297D01*
X184995000Y-102720000D01*
X184995000Y-103020000D01*
X184994278Y-103034703D01*
X184992118Y-103049264D01*
X184988541Y-103063543D01*
X184983582Y-103077403D01*
X184977288Y-103090710D01*
X184969720Y-103103336D01*
X184960952Y-103115159D01*
X184951066Y-103126066D01*
X184940159Y-103135952D01*
X184928336Y-103144720D01*
X184915710Y-103152288D01*
X184902403Y-103158582D01*
X184888543Y-103163541D01*
X184874264Y-103167118D01*
X184859703Y-103169278D01*
X184845000Y-103170000D01*
X183195000Y-103170000D01*
X183180297Y-103169278D01*
X183165736Y-103167118D01*
X183151457Y-103163541D01*
X183137597Y-103158582D01*
X183124290Y-103152288D01*
X183111664Y-103144720D01*
X183099841Y-103135952D01*
X183088934Y-103126066D01*
X183079048Y-103115159D01*
X183070280Y-103103336D01*
X183062712Y-103090710D01*
X183056418Y-103077403D01*
X183051459Y-103063543D01*
X183047882Y-103049264D01*
X183045722Y-103034703D01*
X183045000Y-103020000D01*
X183045000Y-102720000D01*
X183045722Y-102705297D01*
X183047882Y-102690736D01*
X183051459Y-102676457D01*
X183056418Y-102662597D01*
X183062712Y-102649290D01*
X183070280Y-102636664D01*
X183079048Y-102624841D01*
X183088934Y-102613934D01*
X183099841Y-102604048D01*
X183111664Y-102595280D01*
X183124290Y-102587712D01*
X183137597Y-102581418D01*
X183151457Y-102576459D01*
X183165736Y-102572882D01*
X183180297Y-102570722D01*
X183195000Y-102570000D01*
X184845000Y-102570000D01*
X184859703Y-102570722D01*
G37*
G04 #@! TD.AperFunction*
G04 #@! TA.AperFunction,SMDPad,CuDef*
G36*
X184859703Y-101300722D02*
G01*
X184874264Y-101302882D01*
X184888543Y-101306459D01*
X184902403Y-101311418D01*
X184915710Y-101317712D01*
X184928336Y-101325280D01*
X184940159Y-101334048D01*
X184951066Y-101343934D01*
X184960952Y-101354841D01*
X184969720Y-101366664D01*
X184977288Y-101379290D01*
X184983582Y-101392597D01*
X184988541Y-101406457D01*
X184992118Y-101420736D01*
X184994278Y-101435297D01*
X184995000Y-101450000D01*
X184995000Y-101750000D01*
X184994278Y-101764703D01*
X184992118Y-101779264D01*
X184988541Y-101793543D01*
X184983582Y-101807403D01*
X184977288Y-101820710D01*
X184969720Y-101833336D01*
X184960952Y-101845159D01*
X184951066Y-101856066D01*
X184940159Y-101865952D01*
X184928336Y-101874720D01*
X184915710Y-101882288D01*
X184902403Y-101888582D01*
X184888543Y-101893541D01*
X184874264Y-101897118D01*
X184859703Y-101899278D01*
X184845000Y-101900000D01*
X183195000Y-101900000D01*
X183180297Y-101899278D01*
X183165736Y-101897118D01*
X183151457Y-101893541D01*
X183137597Y-101888582D01*
X183124290Y-101882288D01*
X183111664Y-101874720D01*
X183099841Y-101865952D01*
X183088934Y-101856066D01*
X183079048Y-101845159D01*
X183070280Y-101833336D01*
X183062712Y-101820710D01*
X183056418Y-101807403D01*
X183051459Y-101793543D01*
X183047882Y-101779264D01*
X183045722Y-101764703D01*
X183045000Y-101750000D01*
X183045000Y-101450000D01*
X183045722Y-101435297D01*
X183047882Y-101420736D01*
X183051459Y-101406457D01*
X183056418Y-101392597D01*
X183062712Y-101379290D01*
X183070280Y-101366664D01*
X183079048Y-101354841D01*
X183088934Y-101343934D01*
X183099841Y-101334048D01*
X183111664Y-101325280D01*
X183124290Y-101317712D01*
X183137597Y-101311418D01*
X183151457Y-101306459D01*
X183165736Y-101302882D01*
X183180297Y-101300722D01*
X183195000Y-101300000D01*
X184845000Y-101300000D01*
X184859703Y-101300722D01*
G37*
G04 #@! TD.AperFunction*
G04 #@! TA.AperFunction,SMDPad,CuDef*
G36*
X184859703Y-100030722D02*
G01*
X184874264Y-100032882D01*
X184888543Y-100036459D01*
X184902403Y-100041418D01*
X184915710Y-100047712D01*
X184928336Y-100055280D01*
X184940159Y-100064048D01*
X184951066Y-100073934D01*
X184960952Y-100084841D01*
X184969720Y-100096664D01*
X184977288Y-100109290D01*
X184983582Y-100122597D01*
X184988541Y-100136457D01*
X184992118Y-100150736D01*
X184994278Y-100165297D01*
X184995000Y-100180000D01*
X184995000Y-100480000D01*
X184994278Y-100494703D01*
X184992118Y-100509264D01*
X184988541Y-100523543D01*
X184983582Y-100537403D01*
X184977288Y-100550710D01*
X184969720Y-100563336D01*
X184960952Y-100575159D01*
X184951066Y-100586066D01*
X184940159Y-100595952D01*
X184928336Y-100604720D01*
X184915710Y-100612288D01*
X184902403Y-100618582D01*
X184888543Y-100623541D01*
X184874264Y-100627118D01*
X184859703Y-100629278D01*
X184845000Y-100630000D01*
X183195000Y-100630000D01*
X183180297Y-100629278D01*
X183165736Y-100627118D01*
X183151457Y-100623541D01*
X183137597Y-100618582D01*
X183124290Y-100612288D01*
X183111664Y-100604720D01*
X183099841Y-100595952D01*
X183088934Y-100586066D01*
X183079048Y-100575159D01*
X183070280Y-100563336D01*
X183062712Y-100550710D01*
X183056418Y-100537403D01*
X183051459Y-100523543D01*
X183047882Y-100509264D01*
X183045722Y-100494703D01*
X183045000Y-100480000D01*
X183045000Y-100180000D01*
X183045722Y-100165297D01*
X183047882Y-100150736D01*
X183051459Y-100136457D01*
X183056418Y-100122597D01*
X183062712Y-100109290D01*
X183070280Y-100096664D01*
X183079048Y-100084841D01*
X183088934Y-100073934D01*
X183099841Y-100064048D01*
X183111664Y-100055280D01*
X183124290Y-100047712D01*
X183137597Y-100041418D01*
X183151457Y-100036459D01*
X183165736Y-100032882D01*
X183180297Y-100030722D01*
X183195000Y-100030000D01*
X184845000Y-100030000D01*
X184859703Y-100030722D01*
G37*
G04 #@! TD.AperFunction*
D16*
X193040000Y-91440000D03*
D17*
X186740000Y-91440000D03*
X186740000Y-93740000D03*
X186740000Y-89140000D03*
D18*
X173990000Y-86360000D03*
X181610000Y-104140000D03*
X181610000Y-107950000D03*
X193040000Y-100330000D03*
X179070000Y-95250000D03*
X168910000Y-96520000D03*
X163830000Y-110490000D03*
X154940000Y-106680000D03*
X160020000Y-102870000D03*
X168910000Y-93980000D03*
X186690000Y-87630000D03*
X181610000Y-87630000D03*
X168910000Y-109220000D03*
D19*
X157480000Y-95645000D02*
X157480000Y-90170000D01*
X155730000Y-99540000D02*
X155730000Y-100330000D01*
X157480000Y-97395000D02*
X157480000Y-97790000D01*
X157480000Y-97790000D02*
X155730000Y-99540000D01*
X155730000Y-102570000D02*
X155430000Y-102870000D01*
X155730000Y-100330000D02*
X155730000Y-102570000D01*
X157480000Y-100330000D02*
X160590000Y-100330000D01*
X160590000Y-100330000D02*
X161290000Y-100330000D01*
X161290000Y-100875000D02*
X161585000Y-101170000D01*
X161290000Y-100330000D02*
X161290000Y-100875000D01*
X160020000Y-102870000D02*
X157480000Y-102870000D01*
X193040000Y-102870000D02*
X193040000Y-100330000D01*
X193040000Y-100330000D02*
X190500000Y-100330000D01*
X190500000Y-102870000D02*
X193040000Y-102870000D01*
X179070000Y-101600000D02*
X179070000Y-102870000D01*
X179070000Y-102870000D02*
X179070000Y-104140000D01*
X179070000Y-104140000D02*
X181610000Y-104140000D01*
X181610000Y-104140000D02*
X182880000Y-105410000D01*
X182880000Y-105410000D02*
X184020000Y-105410000D01*
X168910000Y-109220000D02*
X170575000Y-109220000D01*
X166850000Y-96520000D02*
X168910000Y-96520000D01*
X166850000Y-93980000D02*
X168910000Y-93980000D01*
X179070000Y-95250000D02*
X180585000Y-95250000D01*
X181610000Y-89145000D02*
X181610000Y-87630000D01*
X186740000Y-87680000D02*
X186690000Y-87630000D01*
X186740000Y-89140000D02*
X186740000Y-87680000D01*
X179070000Y-107950000D02*
X180045000Y-107950000D01*
X179070000Y-107950000D02*
X181610000Y-107950000D01*
X155335000Y-106285000D02*
X154940000Y-106680000D01*
X155335000Y-105410000D02*
X155335000Y-106285000D01*
X163435000Y-110095000D02*
X163830000Y-110490000D01*
X162560000Y-110095000D02*
X163435000Y-110095000D01*
X162235000Y-103520000D02*
X162235000Y-104570000D01*
X161585000Y-102870000D02*
X162235000Y-103520000D01*
X160020000Y-102870000D02*
X161585000Y-102870000D01*
X160590000Y-105410000D02*
X160655000Y-105345000D01*
X157085000Y-105410000D02*
X160590000Y-105410000D01*
X160590000Y-105410000D02*
X161290000Y-105410000D01*
X161585000Y-105115000D02*
X161290000Y-105410000D01*
X161585000Y-104570000D02*
X161585000Y-105115000D01*
X163035000Y-108345000D02*
X162560000Y-108345000D01*
X162885000Y-108020000D02*
X162560000Y-108345000D01*
X162885000Y-104570000D02*
X162885000Y-108020000D01*
X165100000Y-97790000D02*
X165100000Y-96520000D01*
X165100000Y-96520000D02*
X165100000Y-93980000D01*
X166370000Y-99060000D02*
X170670000Y-99060000D01*
X165100000Y-97790000D02*
X166370000Y-99060000D01*
X163935000Y-101170000D02*
X163535000Y-101170000D01*
X164465000Y-100640000D02*
X163935000Y-101170000D01*
X164465000Y-98425000D02*
X164465000Y-100640000D01*
X165100000Y-97790000D02*
X164465000Y-98425000D01*
X164465000Y-98425000D02*
X163195000Y-98425000D01*
X162235000Y-99385000D02*
X162235000Y-101170000D01*
X163195000Y-98425000D02*
X162235000Y-99385000D01*
X176530000Y-100330000D02*
X179070000Y-100330000D01*
X172325000Y-105560000D02*
X172475000Y-105410000D01*
X172325000Y-109220000D02*
X172325000Y-105560000D01*
X172475000Y-105410000D02*
X172475000Y-104385000D01*
X172475000Y-104385000D02*
X176530000Y-100330000D01*
X172720000Y-93440000D02*
X172740000Y-93420000D01*
X172740000Y-93420000D02*
X173990000Y-93420000D01*
X172720000Y-99060000D02*
X172720000Y-93440000D01*
X186420000Y-93420000D02*
X186740000Y-93740000D01*
X182635000Y-94550000D02*
X182880000Y-94305000D01*
X173990000Y-93420000D02*
X178510000Y-93420000D01*
X185490000Y-93740000D02*
X186740000Y-93740000D01*
X182635000Y-94550000D02*
X183445000Y-93740000D01*
X183445000Y-93740000D02*
X185490000Y-93740000D01*
X178510000Y-93420000D02*
X181050000Y-93420000D01*
X182635000Y-94550000D02*
X182635000Y-95250000D01*
X181505000Y-93420000D02*
X182635000Y-94550000D01*
X181050000Y-93420000D02*
X181505000Y-93420000D01*
X187875000Y-100330000D02*
X188450000Y-100330000D01*
X186740000Y-99195000D02*
X187875000Y-100330000D01*
X186740000Y-93740000D02*
X186740000Y-99195000D01*
X188450000Y-102380000D02*
X187960000Y-102870000D01*
X188450000Y-100330000D02*
X188450000Y-102380000D01*
X184020000Y-102870000D02*
X187960000Y-102870000D01*
X187960000Y-104345000D02*
X187960000Y-104920000D01*
X187755000Y-104140000D02*
X187960000Y-104345000D01*
X184020000Y-104140000D02*
X187755000Y-104140000D01*
X187960000Y-104920000D02*
X193040000Y-104920000D01*
X203200000Y-93980000D02*
X198120000Y-93980000D01*
X195580000Y-91440000D02*
X193040000Y-91440000D01*
X198120000Y-93980000D02*
X195580000Y-91440000D01*
X181855000Y-91440000D02*
X181610000Y-91195000D01*
X186740000Y-91440000D02*
X181855000Y-91440000D01*
X186740000Y-91440000D02*
X193040000Y-91440000D01*
X184020000Y-106680000D02*
X194310000Y-106680000D01*
X194310000Y-106680000D02*
X196850000Y-104140000D01*
X196850000Y-104140000D02*
X196850000Y-100330000D01*
X196850000Y-100330000D02*
X200660000Y-96520000D01*
X200660000Y-96520000D02*
X203200000Y-96520000D01*
X184020000Y-107950000D02*
X195580000Y-107950000D01*
X195580000Y-107950000D02*
X198120000Y-105410000D01*
X198120000Y-105410000D02*
X198120000Y-100330000D01*
X198120000Y-100330000D02*
X200660000Y-97790000D01*
X200660000Y-97790000D02*
X204470000Y-97790000D01*
X204470000Y-97790000D02*
X205740000Y-96520000D01*
X200660000Y-99060000D02*
X203200000Y-99060000D01*
X199390000Y-106680000D02*
X199390000Y-100330000D01*
X184020000Y-109220000D02*
X196850000Y-109220000D01*
X199390000Y-100330000D02*
X200660000Y-99060000D01*
X196850000Y-109220000D02*
X199390000Y-106680000D01*
X208280000Y-105410000D02*
X208280000Y-101600000D01*
X203200000Y-110490000D02*
X208280000Y-105410000D01*
X208280000Y-101600000D02*
X205740000Y-99060000D01*
X179070000Y-109220000D02*
X180340000Y-110490000D01*
X180340000Y-110490000D02*
X203200000Y-110490000D01*
X168130000Y-105410000D02*
X167640000Y-104920000D01*
X170425000Y-105410000D02*
X168130000Y-105410000D01*
X167215000Y-105345000D02*
X167640000Y-104920000D01*
X163535000Y-104570000D02*
X163535000Y-105115000D01*
X163830000Y-105410000D02*
X165100000Y-105410000D01*
X163535000Y-105115000D02*
X163830000Y-105410000D01*
X164465000Y-105345000D02*
X165100000Y-105410000D01*
X165100000Y-105410000D02*
X167215000Y-105345000D01*
X162885000Y-102220000D02*
X162885000Y-101170000D01*
X163535000Y-102870000D02*
X162885000Y-102220000D01*
X167640000Y-102870000D02*
X163535000Y-102870000D01*
M02*
