G04 #@! TF.GenerationSoftware,KiCad,Pcbnew,5.1.5-52549c5~84~ubuntu18.04.1*
G04 #@! TF.CreationDate,2020-02-07T09:47:04+09:30*
G04 #@! TF.ProjectId,frontend,66726f6e-7465-46e6-942e-6b696361645f,rev?*
G04 #@! TF.SameCoordinates,Original*
G04 #@! TF.FileFunction,Legend,Top*
G04 #@! TF.FilePolarity,Positive*
%FSLAX46Y46*%
G04 Gerber Fmt 4.6, Leading zero omitted, Abs format (unit mm)*
G04 Created by KiCad (PCBNEW 5.1.5-52549c5~84~ubuntu18.04.1) date 2020-02-07 09:47:04*
%MOMM*%
%LPD*%
G04 APERTURE LIST*
%ADD10C,0.120000*%
%ADD11C,0.150000*%
G04 APERTURE END LIST*
D10*
X226190000Y-126470000D02*
X226190000Y-130070000D01*
X228070000Y-124590000D02*
X231670000Y-124590000D01*
X233550000Y-126470000D02*
X233550000Y-130070000D01*
X228070000Y-131950000D02*
X231670000Y-131950000D01*
X233680000Y-121920000D02*
X236220000Y-121920000D01*
X236220000Y-121920000D02*
X236220000Y-124460000D01*
X223520000Y-124460000D02*
X223520000Y-121920000D01*
X223520000Y-121920000D02*
X226060000Y-121920000D01*
X226060000Y-121920000D02*
X233680000Y-121920000D01*
X236220000Y-124460000D02*
X236220000Y-134620000D01*
X236220000Y-134620000D02*
X223520000Y-134620000D01*
X223520000Y-134620000D02*
X223520000Y-124460000D01*
X182210000Y-139430000D02*
X178310000Y-139430000D01*
X182210000Y-137430000D02*
X178310000Y-137430000D01*
X182210000Y-139430000D02*
X182210000Y-137430000D01*
X180601252Y-126290000D02*
X180078748Y-126290000D01*
X180601252Y-127710000D02*
X180078748Y-127710000D01*
X203200000Y-123190000D02*
X204470000Y-123190000D01*
X203200000Y-118110000D02*
X203200000Y-123190000D01*
X204470000Y-118110000D02*
X203200000Y-118110000D01*
X203200000Y-118110000D02*
X204470000Y-118110000D01*
X213360000Y-118110000D02*
X212090000Y-118110000D01*
X213360000Y-123190000D02*
X212090000Y-123190000D01*
X213360000Y-118110000D02*
X213360000Y-123190000D01*
X229690000Y-113210000D02*
X229690000Y-110310000D01*
X232590000Y-113210000D02*
X229690000Y-113210000D01*
X232590000Y-110310000D02*
X232590000Y-113210000D01*
X229690000Y-110310000D02*
X232590000Y-110310000D01*
X210558748Y-127710000D02*
X211081252Y-127710000D01*
X210558748Y-126290000D02*
X211081252Y-126290000D01*
X191215000Y-127110000D02*
X189985000Y-127110000D01*
X191215000Y-127360000D02*
X191215000Y-127110000D01*
X191215000Y-129180000D02*
X191555000Y-129180000D01*
X191215000Y-127360000D02*
X191555000Y-127360000D01*
X192695000Y-129180000D02*
X193035000Y-129180000D01*
X192695000Y-127360000D02*
X193035000Y-127360000D01*
X202436252Y-125020000D02*
X201913748Y-125020000D01*
X202436252Y-126440000D02*
X201913748Y-126440000D01*
X220216252Y-121210000D02*
X219693748Y-121210000D01*
X220216252Y-122630000D02*
X219693748Y-122630000D01*
X216880000Y-112160000D02*
X222890000Y-112160000D01*
X219130000Y-118980000D02*
X222890000Y-118980000D01*
X222890000Y-112160000D02*
X222890000Y-113420000D01*
X222890000Y-118980000D02*
X222890000Y-117720000D01*
X199651252Y-121210000D02*
X199128748Y-121210000D01*
X199651252Y-122630000D02*
X199128748Y-122630000D01*
X182590000Y-124190000D02*
X178690000Y-124190000D01*
X182590000Y-122190000D02*
X178690000Y-122190000D01*
X182590000Y-124190000D02*
X182590000Y-122190000D01*
X163830000Y-134620000D02*
X163830000Y-124460000D01*
X176530000Y-134620000D02*
X163830000Y-134620000D01*
X176530000Y-124460000D02*
X176530000Y-134620000D01*
X166370000Y-121920000D02*
X173990000Y-121920000D01*
X163830000Y-121920000D02*
X166370000Y-121920000D01*
X163830000Y-124460000D02*
X163830000Y-121920000D01*
X176530000Y-121920000D02*
X176530000Y-124460000D01*
X173990000Y-121920000D02*
X176530000Y-121920000D01*
X168380000Y-131950000D02*
X171980000Y-131950000D01*
X173860000Y-126470000D02*
X173860000Y-130070000D01*
X168380000Y-124590000D02*
X171980000Y-124590000D01*
X166500000Y-126470000D02*
X166500000Y-130070000D01*
X216260000Y-127110000D02*
X215030000Y-127110000D01*
X216260000Y-127360000D02*
X216260000Y-127110000D01*
X216260000Y-129180000D02*
X216600000Y-129180000D01*
X216260000Y-127360000D02*
X216600000Y-127360000D01*
X217740000Y-129180000D02*
X218080000Y-129180000D01*
X217740000Y-127360000D02*
X218080000Y-127360000D01*
X185681252Y-130100000D02*
X185158748Y-130100000D01*
X185681252Y-131520000D02*
X185158748Y-131520000D01*
X180078748Y-131520000D02*
X180601252Y-131520000D01*
X180078748Y-130100000D02*
X180601252Y-130100000D01*
X177200000Y-118380000D02*
X181100000Y-118380000D01*
X177200000Y-120380000D02*
X181100000Y-120380000D01*
X177200000Y-118380000D02*
X177200000Y-120380000D01*
X199128748Y-118820000D02*
X199651252Y-118820000D01*
X199128748Y-117400000D02*
X199651252Y-117400000D01*
X184913748Y-127710000D02*
X185436252Y-127710000D01*
X184913748Y-126290000D02*
X185436252Y-126290000D01*
X211081252Y-130100000D02*
X210558748Y-130100000D01*
X211081252Y-131520000D02*
X210558748Y-131520000D01*
X183550000Y-133620000D02*
X187450000Y-133620000D01*
X183550000Y-135620000D02*
X187450000Y-135620000D01*
X183550000Y-133620000D02*
X183550000Y-135620000D01*
X229690000Y-117020000D02*
X229690000Y-114120000D01*
X232590000Y-117020000D02*
X229690000Y-117020000D01*
X232590000Y-114120000D02*
X232590000Y-117020000D01*
X229690000Y-114120000D02*
X232590000Y-114120000D01*
X178470000Y-133620000D02*
X182370000Y-133620000D01*
X178470000Y-135620000D02*
X182370000Y-135620000D01*
X178470000Y-133620000D02*
X178470000Y-135620000D01*
X197613748Y-127710000D02*
X198136252Y-127710000D01*
X197613748Y-126290000D02*
X198136252Y-126290000D01*
X198136252Y-130100000D02*
X197613748Y-130100000D01*
X198136252Y-131520000D02*
X197613748Y-131520000D01*
X187670000Y-124190000D02*
X183770000Y-124190000D01*
X187670000Y-122190000D02*
X183770000Y-122190000D01*
X187670000Y-124190000D02*
X187670000Y-122190000D01*
X188050000Y-139430000D02*
X184150000Y-139430000D01*
X188050000Y-137430000D02*
X184150000Y-137430000D01*
X188050000Y-139430000D02*
X188050000Y-137430000D01*
X202970000Y-128420000D02*
X204970000Y-128420000D01*
X204970000Y-130660000D02*
X203970000Y-130660000D01*
X183170000Y-118380000D02*
X187070000Y-118380000D01*
X183170000Y-120380000D02*
X187070000Y-120380000D01*
X183170000Y-118380000D02*
X183170000Y-120380000D01*
D11*
X229536666Y-128222380D02*
X229536666Y-128936666D01*
X229489047Y-129079523D01*
X229393809Y-129174761D01*
X229250952Y-129222380D01*
X229155714Y-129222380D01*
X230441428Y-128555714D02*
X230441428Y-129222380D01*
X230203333Y-128174761D02*
X229965238Y-128889047D01*
X230584285Y-128889047D01*
X179221904Y-140882380D02*
X179221904Y-139882380D01*
X179460000Y-139882380D01*
X179602857Y-139930000D01*
X179698095Y-140025238D01*
X179745714Y-140120476D01*
X179793333Y-140310952D01*
X179793333Y-140453809D01*
X179745714Y-140644285D01*
X179698095Y-140739523D01*
X179602857Y-140834761D01*
X179460000Y-140882380D01*
X179221904Y-140882380D01*
X180126666Y-139882380D02*
X180793333Y-139882380D01*
X180364761Y-140882380D01*
X175887142Y-127357142D02*
X175839523Y-127404761D01*
X175696666Y-127452380D01*
X175601428Y-127452380D01*
X175458571Y-127404761D01*
X175363333Y-127309523D01*
X175315714Y-127214285D01*
X175268095Y-127023809D01*
X175268095Y-126880952D01*
X175315714Y-126690476D01*
X175363333Y-126595238D01*
X175458571Y-126500000D01*
X175601428Y-126452380D01*
X175696666Y-126452380D01*
X175839523Y-126500000D01*
X175887142Y-126547619D01*
X176839523Y-127452380D02*
X176268095Y-127452380D01*
X176553809Y-127452380D02*
X176553809Y-126452380D01*
X176458571Y-126595238D01*
X176363333Y-126690476D01*
X176268095Y-126738095D01*
X177696666Y-126785714D02*
X177696666Y-127452380D01*
X177458571Y-126404761D02*
X177220476Y-127119047D01*
X177839523Y-127119047D01*
X208113333Y-121602380D02*
X207637142Y-121602380D01*
X207637142Y-120602380D01*
X208970476Y-121602380D02*
X208399047Y-121602380D01*
X208684761Y-121602380D02*
X208684761Y-120602380D01*
X208589523Y-120745238D01*
X208494285Y-120840476D01*
X208399047Y-120888095D01*
X234188095Y-111260000D02*
X234092857Y-111212380D01*
X233950000Y-111212380D01*
X233807142Y-111260000D01*
X233711904Y-111355238D01*
X233664285Y-111450476D01*
X233616666Y-111640952D01*
X233616666Y-111783809D01*
X233664285Y-111974285D01*
X233711904Y-112069523D01*
X233807142Y-112164761D01*
X233950000Y-112212380D01*
X234045238Y-112212380D01*
X234188095Y-112164761D01*
X234235714Y-112117142D01*
X234235714Y-111783809D01*
X234045238Y-111783809D01*
X234664285Y-112212380D02*
X234664285Y-111212380D01*
X235235714Y-112212380D01*
X235235714Y-111212380D01*
X235711904Y-112212380D02*
X235711904Y-111212380D01*
X235950000Y-111212380D01*
X236092857Y-111260000D01*
X236188095Y-111355238D01*
X236235714Y-111450476D01*
X236283333Y-111640952D01*
X236283333Y-111783809D01*
X236235714Y-111974285D01*
X236188095Y-112069523D01*
X236092857Y-112164761D01*
X235950000Y-112212380D01*
X235711904Y-112212380D01*
X210177142Y-125707142D02*
X210129523Y-125754761D01*
X209986666Y-125802380D01*
X209891428Y-125802380D01*
X209748571Y-125754761D01*
X209653333Y-125659523D01*
X209605714Y-125564285D01*
X209558095Y-125373809D01*
X209558095Y-125230952D01*
X209605714Y-125040476D01*
X209653333Y-124945238D01*
X209748571Y-124850000D01*
X209891428Y-124802380D01*
X209986666Y-124802380D01*
X210129523Y-124850000D01*
X210177142Y-124897619D01*
X210558095Y-124897619D02*
X210605714Y-124850000D01*
X210700952Y-124802380D01*
X210939047Y-124802380D01*
X211034285Y-124850000D01*
X211081904Y-124897619D01*
X211129523Y-124992857D01*
X211129523Y-125088095D01*
X211081904Y-125230952D01*
X210510476Y-125802380D01*
X211129523Y-125802380D01*
X211462857Y-124802380D02*
X212081904Y-124802380D01*
X211748571Y-125183333D01*
X211891428Y-125183333D01*
X211986666Y-125230952D01*
X212034285Y-125278571D01*
X212081904Y-125373809D01*
X212081904Y-125611904D01*
X212034285Y-125707142D01*
X211986666Y-125754761D01*
X211891428Y-125802380D01*
X211605714Y-125802380D01*
X211510476Y-125754761D01*
X211462857Y-125707142D01*
X191386904Y-125698571D02*
X191053571Y-125698571D01*
X191053571Y-126222380D02*
X191053571Y-125222380D01*
X191529761Y-125222380D01*
X192386904Y-126222380D02*
X191910714Y-126222380D01*
X191910714Y-125222380D01*
X193244047Y-126222380D02*
X192672619Y-126222380D01*
X192958333Y-126222380D02*
X192958333Y-125222380D01*
X192863095Y-125365238D01*
X192767857Y-125460476D01*
X192672619Y-125508095D01*
X205097142Y-126087142D02*
X205049523Y-126134761D01*
X204906666Y-126182380D01*
X204811428Y-126182380D01*
X204668571Y-126134761D01*
X204573333Y-126039523D01*
X204525714Y-125944285D01*
X204478095Y-125753809D01*
X204478095Y-125610952D01*
X204525714Y-125420476D01*
X204573333Y-125325238D01*
X204668571Y-125230000D01*
X204811428Y-125182380D01*
X204906666Y-125182380D01*
X205049523Y-125230000D01*
X205097142Y-125277619D01*
X205478095Y-125277619D02*
X205525714Y-125230000D01*
X205620952Y-125182380D01*
X205859047Y-125182380D01*
X205954285Y-125230000D01*
X206001904Y-125277619D01*
X206049523Y-125372857D01*
X206049523Y-125468095D01*
X206001904Y-125610952D01*
X205430476Y-126182380D01*
X206049523Y-126182380D01*
X207001904Y-126182380D02*
X206430476Y-126182380D01*
X206716190Y-126182380D02*
X206716190Y-125182380D01*
X206620952Y-125325238D01*
X206525714Y-125420476D01*
X206430476Y-125468095D01*
X219312142Y-123927142D02*
X219264523Y-123974761D01*
X219121666Y-124022380D01*
X219026428Y-124022380D01*
X218883571Y-123974761D01*
X218788333Y-123879523D01*
X218740714Y-123784285D01*
X218693095Y-123593809D01*
X218693095Y-123450952D01*
X218740714Y-123260476D01*
X218788333Y-123165238D01*
X218883571Y-123070000D01*
X219026428Y-123022380D01*
X219121666Y-123022380D01*
X219264523Y-123070000D01*
X219312142Y-123117619D01*
X219693095Y-123117619D02*
X219740714Y-123070000D01*
X219835952Y-123022380D01*
X220074047Y-123022380D01*
X220169285Y-123070000D01*
X220216904Y-123117619D01*
X220264523Y-123212857D01*
X220264523Y-123308095D01*
X220216904Y-123450952D01*
X219645476Y-124022380D01*
X220264523Y-124022380D01*
X221121666Y-123355714D02*
X221121666Y-124022380D01*
X220883571Y-122974761D02*
X220645476Y-123689047D01*
X221264523Y-123689047D01*
X220218095Y-110522380D02*
X220218095Y-111331904D01*
X220265714Y-111427142D01*
X220313333Y-111474761D01*
X220408571Y-111522380D01*
X220599047Y-111522380D01*
X220694285Y-111474761D01*
X220741904Y-111427142D01*
X220789523Y-111331904D01*
X220789523Y-110522380D01*
X221741904Y-110522380D02*
X221265714Y-110522380D01*
X221218095Y-110998571D01*
X221265714Y-110950952D01*
X221360952Y-110903333D01*
X221599047Y-110903333D01*
X221694285Y-110950952D01*
X221741904Y-110998571D01*
X221789523Y-111093809D01*
X221789523Y-111331904D01*
X221741904Y-111427142D01*
X221694285Y-111474761D01*
X221599047Y-111522380D01*
X221360952Y-111522380D01*
X221265714Y-111474761D01*
X221218095Y-111427142D01*
X194937142Y-122277142D02*
X194889523Y-122324761D01*
X194746666Y-122372380D01*
X194651428Y-122372380D01*
X194508571Y-122324761D01*
X194413333Y-122229523D01*
X194365714Y-122134285D01*
X194318095Y-121943809D01*
X194318095Y-121800952D01*
X194365714Y-121610476D01*
X194413333Y-121515238D01*
X194508571Y-121420000D01*
X194651428Y-121372380D01*
X194746666Y-121372380D01*
X194889523Y-121420000D01*
X194937142Y-121467619D01*
X195318095Y-121467619D02*
X195365714Y-121420000D01*
X195460952Y-121372380D01*
X195699047Y-121372380D01*
X195794285Y-121420000D01*
X195841904Y-121467619D01*
X195889523Y-121562857D01*
X195889523Y-121658095D01*
X195841904Y-121800952D01*
X195270476Y-122372380D01*
X195889523Y-122372380D01*
X196508571Y-121372380D02*
X196603809Y-121372380D01*
X196699047Y-121420000D01*
X196746666Y-121467619D01*
X196794285Y-121562857D01*
X196841904Y-121753333D01*
X196841904Y-121991428D01*
X196794285Y-122181904D01*
X196746666Y-122277142D01*
X196699047Y-122324761D01*
X196603809Y-122372380D01*
X196508571Y-122372380D01*
X196413333Y-122324761D01*
X196365714Y-122277142D01*
X196318095Y-122181904D01*
X196270476Y-121991428D01*
X196270476Y-121753333D01*
X196318095Y-121562857D01*
X196365714Y-121467619D01*
X196413333Y-121420000D01*
X196508571Y-121372380D01*
X179601904Y-125642380D02*
X179601904Y-124642380D01*
X179840000Y-124642380D01*
X179982857Y-124690000D01*
X180078095Y-124785238D01*
X180125714Y-124880476D01*
X180173333Y-125070952D01*
X180173333Y-125213809D01*
X180125714Y-125404285D01*
X180078095Y-125499523D01*
X179982857Y-125594761D01*
X179840000Y-125642380D01*
X179601904Y-125642380D01*
X180554285Y-124737619D02*
X180601904Y-124690000D01*
X180697142Y-124642380D01*
X180935238Y-124642380D01*
X181030476Y-124690000D01*
X181078095Y-124737619D01*
X181125714Y-124832857D01*
X181125714Y-124928095D01*
X181078095Y-125070952D01*
X180506666Y-125642380D01*
X181125714Y-125642380D01*
X169846666Y-128222380D02*
X169846666Y-128936666D01*
X169799047Y-129079523D01*
X169703809Y-129174761D01*
X169560952Y-129222380D01*
X169465714Y-129222380D01*
X170227619Y-128222380D02*
X170846666Y-128222380D01*
X170513333Y-128603333D01*
X170656190Y-128603333D01*
X170751428Y-128650952D01*
X170799047Y-128698571D01*
X170846666Y-128793809D01*
X170846666Y-129031904D01*
X170799047Y-129127142D01*
X170751428Y-129174761D01*
X170656190Y-129222380D01*
X170370476Y-129222380D01*
X170275238Y-129174761D01*
X170227619Y-129127142D01*
X216431904Y-125698571D02*
X216098571Y-125698571D01*
X216098571Y-126222380D02*
X216098571Y-125222380D01*
X216574761Y-125222380D01*
X217431904Y-126222380D02*
X216955714Y-126222380D01*
X216955714Y-125222380D01*
X217717619Y-125317619D02*
X217765238Y-125270000D01*
X217860476Y-125222380D01*
X218098571Y-125222380D01*
X218193809Y-125270000D01*
X218241428Y-125317619D01*
X218289047Y-125412857D01*
X218289047Y-125508095D01*
X218241428Y-125650952D01*
X217670000Y-126222380D01*
X218289047Y-126222380D01*
X184777142Y-132817142D02*
X184729523Y-132864761D01*
X184586666Y-132912380D01*
X184491428Y-132912380D01*
X184348571Y-132864761D01*
X184253333Y-132769523D01*
X184205714Y-132674285D01*
X184158095Y-132483809D01*
X184158095Y-132340952D01*
X184205714Y-132150476D01*
X184253333Y-132055238D01*
X184348571Y-131960000D01*
X184491428Y-131912380D01*
X184586666Y-131912380D01*
X184729523Y-131960000D01*
X184777142Y-132007619D01*
X185729523Y-132912380D02*
X185158095Y-132912380D01*
X185443809Y-132912380D02*
X185443809Y-131912380D01*
X185348571Y-132055238D01*
X185253333Y-132150476D01*
X185158095Y-132198095D01*
X186634285Y-131912380D02*
X186158095Y-131912380D01*
X186110476Y-132388571D01*
X186158095Y-132340952D01*
X186253333Y-132293333D01*
X186491428Y-132293333D01*
X186586666Y-132340952D01*
X186634285Y-132388571D01*
X186681904Y-132483809D01*
X186681904Y-132721904D01*
X186634285Y-132817142D01*
X186586666Y-132864761D01*
X186491428Y-132912380D01*
X186253333Y-132912380D01*
X186158095Y-132864761D01*
X186110476Y-132817142D01*
X175887142Y-129897142D02*
X175839523Y-129944761D01*
X175696666Y-129992380D01*
X175601428Y-129992380D01*
X175458571Y-129944761D01*
X175363333Y-129849523D01*
X175315714Y-129754285D01*
X175268095Y-129563809D01*
X175268095Y-129420952D01*
X175315714Y-129230476D01*
X175363333Y-129135238D01*
X175458571Y-129040000D01*
X175601428Y-128992380D01*
X175696666Y-128992380D01*
X175839523Y-129040000D01*
X175887142Y-129087619D01*
X176839523Y-129992380D02*
X176268095Y-129992380D01*
X176553809Y-129992380D02*
X176553809Y-128992380D01*
X176458571Y-129135238D01*
X176363333Y-129230476D01*
X176268095Y-129278095D01*
X177172857Y-128992380D02*
X177791904Y-128992380D01*
X177458571Y-129373333D01*
X177601428Y-129373333D01*
X177696666Y-129420952D01*
X177744285Y-129468571D01*
X177791904Y-129563809D01*
X177791904Y-129801904D01*
X177744285Y-129897142D01*
X177696666Y-129944761D01*
X177601428Y-129992380D01*
X177315714Y-129992380D01*
X177220476Y-129944761D01*
X177172857Y-129897142D01*
X178711904Y-117832380D02*
X178711904Y-116832380D01*
X178950000Y-116832380D01*
X179092857Y-116880000D01*
X179188095Y-116975238D01*
X179235714Y-117070476D01*
X179283333Y-117260952D01*
X179283333Y-117403809D01*
X179235714Y-117594285D01*
X179188095Y-117689523D01*
X179092857Y-117784761D01*
X178950000Y-117832380D01*
X178711904Y-117832380D01*
X179616666Y-116832380D02*
X180235714Y-116832380D01*
X179902380Y-117213333D01*
X180045238Y-117213333D01*
X180140476Y-117260952D01*
X180188095Y-117308571D01*
X180235714Y-117403809D01*
X180235714Y-117641904D01*
X180188095Y-117737142D01*
X180140476Y-117784761D01*
X180045238Y-117832380D01*
X179759523Y-117832380D01*
X179664285Y-117784761D01*
X179616666Y-117737142D01*
X198747142Y-116817142D02*
X198699523Y-116864761D01*
X198556666Y-116912380D01*
X198461428Y-116912380D01*
X198318571Y-116864761D01*
X198223333Y-116769523D01*
X198175714Y-116674285D01*
X198128095Y-116483809D01*
X198128095Y-116340952D01*
X198175714Y-116150476D01*
X198223333Y-116055238D01*
X198318571Y-115960000D01*
X198461428Y-115912380D01*
X198556666Y-115912380D01*
X198699523Y-115960000D01*
X198747142Y-116007619D01*
X199699523Y-116912380D02*
X199128095Y-116912380D01*
X199413809Y-116912380D02*
X199413809Y-115912380D01*
X199318571Y-116055238D01*
X199223333Y-116150476D01*
X199128095Y-116198095D01*
X200175714Y-116912380D02*
X200366190Y-116912380D01*
X200461428Y-116864761D01*
X200509047Y-116817142D01*
X200604285Y-116674285D01*
X200651904Y-116483809D01*
X200651904Y-116102857D01*
X200604285Y-116007619D01*
X200556666Y-115960000D01*
X200461428Y-115912380D01*
X200270952Y-115912380D01*
X200175714Y-115960000D01*
X200128095Y-116007619D01*
X200080476Y-116102857D01*
X200080476Y-116340952D01*
X200128095Y-116436190D01*
X200175714Y-116483809D01*
X200270952Y-116531428D01*
X200461428Y-116531428D01*
X200556666Y-116483809D01*
X200604285Y-116436190D01*
X200651904Y-116340952D01*
X188587142Y-131167142D02*
X188539523Y-131214761D01*
X188396666Y-131262380D01*
X188301428Y-131262380D01*
X188158571Y-131214761D01*
X188063333Y-131119523D01*
X188015714Y-131024285D01*
X187968095Y-130833809D01*
X187968095Y-130690952D01*
X188015714Y-130500476D01*
X188063333Y-130405238D01*
X188158571Y-130310000D01*
X188301428Y-130262380D01*
X188396666Y-130262380D01*
X188539523Y-130310000D01*
X188587142Y-130357619D01*
X189539523Y-131262380D02*
X188968095Y-131262380D01*
X189253809Y-131262380D02*
X189253809Y-130262380D01*
X189158571Y-130405238D01*
X189063333Y-130500476D01*
X188968095Y-130548095D01*
X190396666Y-130262380D02*
X190206190Y-130262380D01*
X190110952Y-130310000D01*
X190063333Y-130357619D01*
X189968095Y-130500476D01*
X189920476Y-130690952D01*
X189920476Y-131071904D01*
X189968095Y-131167142D01*
X190015714Y-131214761D01*
X190110952Y-131262380D01*
X190301428Y-131262380D01*
X190396666Y-131214761D01*
X190444285Y-131167142D01*
X190491904Y-131071904D01*
X190491904Y-130833809D01*
X190444285Y-130738571D01*
X190396666Y-130690952D01*
X190301428Y-130643333D01*
X190110952Y-130643333D01*
X190015714Y-130690952D01*
X189968095Y-130738571D01*
X189920476Y-130833809D01*
X210177142Y-132817142D02*
X210129523Y-132864761D01*
X209986666Y-132912380D01*
X209891428Y-132912380D01*
X209748571Y-132864761D01*
X209653333Y-132769523D01*
X209605714Y-132674285D01*
X209558095Y-132483809D01*
X209558095Y-132340952D01*
X209605714Y-132150476D01*
X209653333Y-132055238D01*
X209748571Y-131960000D01*
X209891428Y-131912380D01*
X209986666Y-131912380D01*
X210129523Y-131960000D01*
X210177142Y-132007619D01*
X210558095Y-132007619D02*
X210605714Y-131960000D01*
X210700952Y-131912380D01*
X210939047Y-131912380D01*
X211034285Y-131960000D01*
X211081904Y-132007619D01*
X211129523Y-132102857D01*
X211129523Y-132198095D01*
X211081904Y-132340952D01*
X210510476Y-132912380D01*
X211129523Y-132912380D01*
X211510476Y-132007619D02*
X211558095Y-131960000D01*
X211653333Y-131912380D01*
X211891428Y-131912380D01*
X211986666Y-131960000D01*
X212034285Y-132007619D01*
X212081904Y-132102857D01*
X212081904Y-132198095D01*
X212034285Y-132340952D01*
X211462857Y-132912380D01*
X212081904Y-132912380D01*
X188491904Y-135072380D02*
X188491904Y-134072380D01*
X188730000Y-134072380D01*
X188872857Y-134120000D01*
X188968095Y-134215238D01*
X189015714Y-134310476D01*
X189063333Y-134500952D01*
X189063333Y-134643809D01*
X189015714Y-134834285D01*
X188968095Y-134929523D01*
X188872857Y-135024761D01*
X188730000Y-135072380D01*
X188491904Y-135072380D01*
X189968095Y-134072380D02*
X189491904Y-134072380D01*
X189444285Y-134548571D01*
X189491904Y-134500952D01*
X189587142Y-134453333D01*
X189825238Y-134453333D01*
X189920476Y-134500952D01*
X189968095Y-134548571D01*
X190015714Y-134643809D01*
X190015714Y-134881904D01*
X189968095Y-134977142D01*
X189920476Y-135024761D01*
X189825238Y-135072380D01*
X189587142Y-135072380D01*
X189491904Y-135024761D01*
X189444285Y-134977142D01*
X233664285Y-115641428D02*
X234426190Y-115641428D01*
X234045238Y-116022380D02*
X234045238Y-115260476D01*
X235378571Y-115022380D02*
X234902380Y-115022380D01*
X234854761Y-115498571D01*
X234902380Y-115450952D01*
X234997619Y-115403333D01*
X235235714Y-115403333D01*
X235330952Y-115450952D01*
X235378571Y-115498571D01*
X235426190Y-115593809D01*
X235426190Y-115831904D01*
X235378571Y-115927142D01*
X235330952Y-115974761D01*
X235235714Y-116022380D01*
X234997619Y-116022380D01*
X234902380Y-115974761D01*
X234854761Y-115927142D01*
X235711904Y-115022380D02*
X236045238Y-116022380D01*
X236378571Y-115022380D01*
X179981904Y-133072380D02*
X179981904Y-132072380D01*
X180220000Y-132072380D01*
X180362857Y-132120000D01*
X180458095Y-132215238D01*
X180505714Y-132310476D01*
X180553333Y-132500952D01*
X180553333Y-132643809D01*
X180505714Y-132834285D01*
X180458095Y-132929523D01*
X180362857Y-133024761D01*
X180220000Y-133072380D01*
X179981904Y-133072380D01*
X181410476Y-132072380D02*
X181220000Y-132072380D01*
X181124761Y-132120000D01*
X181077142Y-132167619D01*
X180981904Y-132310476D01*
X180934285Y-132500952D01*
X180934285Y-132881904D01*
X180981904Y-132977142D01*
X181029523Y-133024761D01*
X181124761Y-133072380D01*
X181315238Y-133072380D01*
X181410476Y-133024761D01*
X181458095Y-132977142D01*
X181505714Y-132881904D01*
X181505714Y-132643809D01*
X181458095Y-132548571D01*
X181410476Y-132500952D01*
X181315238Y-132453333D01*
X181124761Y-132453333D01*
X181029523Y-132500952D01*
X180981904Y-132548571D01*
X180934285Y-132643809D01*
X197232142Y-125707142D02*
X197184523Y-125754761D01*
X197041666Y-125802380D01*
X196946428Y-125802380D01*
X196803571Y-125754761D01*
X196708333Y-125659523D01*
X196660714Y-125564285D01*
X196613095Y-125373809D01*
X196613095Y-125230952D01*
X196660714Y-125040476D01*
X196708333Y-124945238D01*
X196803571Y-124850000D01*
X196946428Y-124802380D01*
X197041666Y-124802380D01*
X197184523Y-124850000D01*
X197232142Y-124897619D01*
X198184523Y-125802380D02*
X197613095Y-125802380D01*
X197898809Y-125802380D02*
X197898809Y-124802380D01*
X197803571Y-124945238D01*
X197708333Y-125040476D01*
X197613095Y-125088095D01*
X198755952Y-125230952D02*
X198660714Y-125183333D01*
X198613095Y-125135714D01*
X198565476Y-125040476D01*
X198565476Y-124992857D01*
X198613095Y-124897619D01*
X198660714Y-124850000D01*
X198755952Y-124802380D01*
X198946428Y-124802380D01*
X199041666Y-124850000D01*
X199089285Y-124897619D01*
X199136904Y-124992857D01*
X199136904Y-125040476D01*
X199089285Y-125135714D01*
X199041666Y-125183333D01*
X198946428Y-125230952D01*
X198755952Y-125230952D01*
X198660714Y-125278571D01*
X198613095Y-125326190D01*
X198565476Y-125421428D01*
X198565476Y-125611904D01*
X198613095Y-125707142D01*
X198660714Y-125754761D01*
X198755952Y-125802380D01*
X198946428Y-125802380D01*
X199041666Y-125754761D01*
X199089285Y-125707142D01*
X199136904Y-125611904D01*
X199136904Y-125421428D01*
X199089285Y-125326190D01*
X199041666Y-125278571D01*
X198946428Y-125230952D01*
X197232142Y-132817142D02*
X197184523Y-132864761D01*
X197041666Y-132912380D01*
X196946428Y-132912380D01*
X196803571Y-132864761D01*
X196708333Y-132769523D01*
X196660714Y-132674285D01*
X196613095Y-132483809D01*
X196613095Y-132340952D01*
X196660714Y-132150476D01*
X196708333Y-132055238D01*
X196803571Y-131960000D01*
X196946428Y-131912380D01*
X197041666Y-131912380D01*
X197184523Y-131960000D01*
X197232142Y-132007619D01*
X198184523Y-132912380D02*
X197613095Y-132912380D01*
X197898809Y-132912380D02*
X197898809Y-131912380D01*
X197803571Y-132055238D01*
X197708333Y-132150476D01*
X197613095Y-132198095D01*
X198517857Y-131912380D02*
X199184523Y-131912380D01*
X198755952Y-132912380D01*
X188491904Y-123642380D02*
X188491904Y-122642380D01*
X188730000Y-122642380D01*
X188872857Y-122690000D01*
X188968095Y-122785238D01*
X189015714Y-122880476D01*
X189063333Y-123070952D01*
X189063333Y-123213809D01*
X189015714Y-123404285D01*
X188968095Y-123499523D01*
X188872857Y-123594761D01*
X188730000Y-123642380D01*
X188491904Y-123642380D01*
X190015714Y-123642380D02*
X189444285Y-123642380D01*
X189730000Y-123642380D02*
X189730000Y-122642380D01*
X189634761Y-122785238D01*
X189539523Y-122880476D01*
X189444285Y-122928095D01*
X185061904Y-140882380D02*
X185061904Y-139882380D01*
X185300000Y-139882380D01*
X185442857Y-139930000D01*
X185538095Y-140025238D01*
X185585714Y-140120476D01*
X185633333Y-140310952D01*
X185633333Y-140453809D01*
X185585714Y-140644285D01*
X185538095Y-140739523D01*
X185442857Y-140834761D01*
X185300000Y-140882380D01*
X185061904Y-140882380D01*
X186204761Y-140310952D02*
X186109523Y-140263333D01*
X186061904Y-140215714D01*
X186014285Y-140120476D01*
X186014285Y-140072857D01*
X186061904Y-139977619D01*
X186109523Y-139930000D01*
X186204761Y-139882380D01*
X186395238Y-139882380D01*
X186490476Y-139930000D01*
X186538095Y-139977619D01*
X186585714Y-140072857D01*
X186585714Y-140120476D01*
X186538095Y-140215714D01*
X186490476Y-140263333D01*
X186395238Y-140310952D01*
X186204761Y-140310952D01*
X186109523Y-140358571D01*
X186061904Y-140406190D01*
X186014285Y-140501428D01*
X186014285Y-140691904D01*
X186061904Y-140787142D01*
X186109523Y-140834761D01*
X186204761Y-140882380D01*
X186395238Y-140882380D01*
X186490476Y-140834761D01*
X186538095Y-140787142D01*
X186585714Y-140691904D01*
X186585714Y-140501428D01*
X186538095Y-140406190D01*
X186490476Y-140358571D01*
X186395238Y-140310952D01*
X203708095Y-131532380D02*
X203708095Y-132341904D01*
X203755714Y-132437142D01*
X203803333Y-132484761D01*
X203898571Y-132532380D01*
X204089047Y-132532380D01*
X204184285Y-132484761D01*
X204231904Y-132437142D01*
X204279523Y-132341904D01*
X204279523Y-131532380D01*
X205184285Y-131865714D02*
X205184285Y-132532380D01*
X204946190Y-131484761D02*
X204708095Y-132199047D01*
X205327142Y-132199047D01*
X184681904Y-117832380D02*
X184681904Y-116832380D01*
X184920000Y-116832380D01*
X185062857Y-116880000D01*
X185158095Y-116975238D01*
X185205714Y-117070476D01*
X185253333Y-117260952D01*
X185253333Y-117403809D01*
X185205714Y-117594285D01*
X185158095Y-117689523D01*
X185062857Y-117784761D01*
X184920000Y-117832380D01*
X184681904Y-117832380D01*
X186110476Y-117165714D02*
X186110476Y-117832380D01*
X185872380Y-116784761D02*
X185634285Y-117499047D01*
X186253333Y-117499047D01*
M02*
