G04 #@! TF.GenerationSoftware,KiCad,Pcbnew,5.1.5-52549c5~84~ubuntu18.04.1*
G04 #@! TF.CreationDate,2020-02-07T09:47:04+09:30*
G04 #@! TF.ProjectId,frontend,66726f6e-7465-46e6-942e-6b696361645f,rev?*
G04 #@! TF.SameCoordinates,Original*
G04 #@! TF.FileFunction,Paste,Top*
G04 #@! TF.FilePolarity,Positive*
%FSLAX46Y46*%
G04 Gerber Fmt 4.6, Leading zero omitted, Abs format (unit mm)*
G04 Created by KiCad (PCBNEW 5.1.5-52549c5~84~ubuntu18.04.1) date 2020-02-07 09:47:04*
%MOMM*%
%LPD*%
G04 APERTURE LIST*
%ADD10R,0.900000X1.200000*%
%ADD11C,0.100000*%
%ADD12R,1.650000X2.540000*%
%ADD13R,2.000000X1.500000*%
%ADD14R,2.000000X3.800000*%
%ADD15R,0.750000X0.650000*%
%ADD16R,0.500000X0.250000*%
G04 APERTURE END LIST*
D10*
X178310000Y-138430000D03*
X181610000Y-138430000D03*
D11*
G36*
X179664505Y-126301204D02*
G01*
X179688773Y-126304804D01*
X179712572Y-126310765D01*
X179735671Y-126319030D01*
X179757850Y-126329520D01*
X179778893Y-126342132D01*
X179798599Y-126356747D01*
X179816777Y-126373223D01*
X179833253Y-126391401D01*
X179847868Y-126411107D01*
X179860480Y-126432150D01*
X179870970Y-126454329D01*
X179879235Y-126477428D01*
X179885196Y-126501227D01*
X179888796Y-126525495D01*
X179890000Y-126549999D01*
X179890000Y-127450001D01*
X179888796Y-127474505D01*
X179885196Y-127498773D01*
X179879235Y-127522572D01*
X179870970Y-127545671D01*
X179860480Y-127567850D01*
X179847868Y-127588893D01*
X179833253Y-127608599D01*
X179816777Y-127626777D01*
X179798599Y-127643253D01*
X179778893Y-127657868D01*
X179757850Y-127670480D01*
X179735671Y-127680970D01*
X179712572Y-127689235D01*
X179688773Y-127695196D01*
X179664505Y-127698796D01*
X179640001Y-127700000D01*
X178989999Y-127700000D01*
X178965495Y-127698796D01*
X178941227Y-127695196D01*
X178917428Y-127689235D01*
X178894329Y-127680970D01*
X178872150Y-127670480D01*
X178851107Y-127657868D01*
X178831401Y-127643253D01*
X178813223Y-127626777D01*
X178796747Y-127608599D01*
X178782132Y-127588893D01*
X178769520Y-127567850D01*
X178759030Y-127545671D01*
X178750765Y-127522572D01*
X178744804Y-127498773D01*
X178741204Y-127474505D01*
X178740000Y-127450001D01*
X178740000Y-126549999D01*
X178741204Y-126525495D01*
X178744804Y-126501227D01*
X178750765Y-126477428D01*
X178759030Y-126454329D01*
X178769520Y-126432150D01*
X178782132Y-126411107D01*
X178796747Y-126391401D01*
X178813223Y-126373223D01*
X178831401Y-126356747D01*
X178851107Y-126342132D01*
X178872150Y-126329520D01*
X178894329Y-126319030D01*
X178917428Y-126310765D01*
X178941227Y-126304804D01*
X178965495Y-126301204D01*
X178989999Y-126300000D01*
X179640001Y-126300000D01*
X179664505Y-126301204D01*
G37*
G36*
X181714505Y-126301204D02*
G01*
X181738773Y-126304804D01*
X181762572Y-126310765D01*
X181785671Y-126319030D01*
X181807850Y-126329520D01*
X181828893Y-126342132D01*
X181848599Y-126356747D01*
X181866777Y-126373223D01*
X181883253Y-126391401D01*
X181897868Y-126411107D01*
X181910480Y-126432150D01*
X181920970Y-126454329D01*
X181929235Y-126477428D01*
X181935196Y-126501227D01*
X181938796Y-126525495D01*
X181940000Y-126549999D01*
X181940000Y-127450001D01*
X181938796Y-127474505D01*
X181935196Y-127498773D01*
X181929235Y-127522572D01*
X181920970Y-127545671D01*
X181910480Y-127567850D01*
X181897868Y-127588893D01*
X181883253Y-127608599D01*
X181866777Y-127626777D01*
X181848599Y-127643253D01*
X181828893Y-127657868D01*
X181807850Y-127670480D01*
X181785671Y-127680970D01*
X181762572Y-127689235D01*
X181738773Y-127695196D01*
X181714505Y-127698796D01*
X181690001Y-127700000D01*
X181039999Y-127700000D01*
X181015495Y-127698796D01*
X180991227Y-127695196D01*
X180967428Y-127689235D01*
X180944329Y-127680970D01*
X180922150Y-127670480D01*
X180901107Y-127657868D01*
X180881401Y-127643253D01*
X180863223Y-127626777D01*
X180846747Y-127608599D01*
X180832132Y-127588893D01*
X180819520Y-127567850D01*
X180809030Y-127545671D01*
X180800765Y-127522572D01*
X180794804Y-127498773D01*
X180791204Y-127474505D01*
X180790000Y-127450001D01*
X180790000Y-126549999D01*
X180791204Y-126525495D01*
X180794804Y-126501227D01*
X180800765Y-126477428D01*
X180809030Y-126454329D01*
X180819520Y-126432150D01*
X180832132Y-126411107D01*
X180846747Y-126391401D01*
X180863223Y-126373223D01*
X180881401Y-126356747D01*
X180901107Y-126342132D01*
X180922150Y-126329520D01*
X180944329Y-126319030D01*
X180967428Y-126310765D01*
X180991227Y-126304804D01*
X181015495Y-126301204D01*
X181039999Y-126300000D01*
X181690001Y-126300000D01*
X181714505Y-126301204D01*
G37*
D12*
X205740000Y-118110000D03*
X208280000Y-118110000D03*
X210820000Y-118110000D03*
X210820000Y-123190000D03*
X208280000Y-123190000D03*
X205740000Y-123190000D03*
D11*
G36*
X212194505Y-126301204D02*
G01*
X212218773Y-126304804D01*
X212242572Y-126310765D01*
X212265671Y-126319030D01*
X212287850Y-126329520D01*
X212308893Y-126342132D01*
X212328599Y-126356747D01*
X212346777Y-126373223D01*
X212363253Y-126391401D01*
X212377868Y-126411107D01*
X212390480Y-126432150D01*
X212400970Y-126454329D01*
X212409235Y-126477428D01*
X212415196Y-126501227D01*
X212418796Y-126525495D01*
X212420000Y-126549999D01*
X212420000Y-127450001D01*
X212418796Y-127474505D01*
X212415196Y-127498773D01*
X212409235Y-127522572D01*
X212400970Y-127545671D01*
X212390480Y-127567850D01*
X212377868Y-127588893D01*
X212363253Y-127608599D01*
X212346777Y-127626777D01*
X212328599Y-127643253D01*
X212308893Y-127657868D01*
X212287850Y-127670480D01*
X212265671Y-127680970D01*
X212242572Y-127689235D01*
X212218773Y-127695196D01*
X212194505Y-127698796D01*
X212170001Y-127700000D01*
X211519999Y-127700000D01*
X211495495Y-127698796D01*
X211471227Y-127695196D01*
X211447428Y-127689235D01*
X211424329Y-127680970D01*
X211402150Y-127670480D01*
X211381107Y-127657868D01*
X211361401Y-127643253D01*
X211343223Y-127626777D01*
X211326747Y-127608599D01*
X211312132Y-127588893D01*
X211299520Y-127567850D01*
X211289030Y-127545671D01*
X211280765Y-127522572D01*
X211274804Y-127498773D01*
X211271204Y-127474505D01*
X211270000Y-127450001D01*
X211270000Y-126549999D01*
X211271204Y-126525495D01*
X211274804Y-126501227D01*
X211280765Y-126477428D01*
X211289030Y-126454329D01*
X211299520Y-126432150D01*
X211312132Y-126411107D01*
X211326747Y-126391401D01*
X211343223Y-126373223D01*
X211361401Y-126356747D01*
X211381107Y-126342132D01*
X211402150Y-126329520D01*
X211424329Y-126319030D01*
X211447428Y-126310765D01*
X211471227Y-126304804D01*
X211495495Y-126301204D01*
X211519999Y-126300000D01*
X212170001Y-126300000D01*
X212194505Y-126301204D01*
G37*
G36*
X210144505Y-126301204D02*
G01*
X210168773Y-126304804D01*
X210192572Y-126310765D01*
X210215671Y-126319030D01*
X210237850Y-126329520D01*
X210258893Y-126342132D01*
X210278599Y-126356747D01*
X210296777Y-126373223D01*
X210313253Y-126391401D01*
X210327868Y-126411107D01*
X210340480Y-126432150D01*
X210350970Y-126454329D01*
X210359235Y-126477428D01*
X210365196Y-126501227D01*
X210368796Y-126525495D01*
X210370000Y-126549999D01*
X210370000Y-127450001D01*
X210368796Y-127474505D01*
X210365196Y-127498773D01*
X210359235Y-127522572D01*
X210350970Y-127545671D01*
X210340480Y-127567850D01*
X210327868Y-127588893D01*
X210313253Y-127608599D01*
X210296777Y-127626777D01*
X210278599Y-127643253D01*
X210258893Y-127657868D01*
X210237850Y-127670480D01*
X210215671Y-127680970D01*
X210192572Y-127689235D01*
X210168773Y-127695196D01*
X210144505Y-127698796D01*
X210120001Y-127700000D01*
X209469999Y-127700000D01*
X209445495Y-127698796D01*
X209421227Y-127695196D01*
X209397428Y-127689235D01*
X209374329Y-127680970D01*
X209352150Y-127670480D01*
X209331107Y-127657868D01*
X209311401Y-127643253D01*
X209293223Y-127626777D01*
X209276747Y-127608599D01*
X209262132Y-127588893D01*
X209249520Y-127567850D01*
X209239030Y-127545671D01*
X209230765Y-127522572D01*
X209224804Y-127498773D01*
X209221204Y-127474505D01*
X209220000Y-127450001D01*
X209220000Y-126549999D01*
X209221204Y-126525495D01*
X209224804Y-126501227D01*
X209230765Y-126477428D01*
X209239030Y-126454329D01*
X209249520Y-126432150D01*
X209262132Y-126411107D01*
X209276747Y-126391401D01*
X209293223Y-126373223D01*
X209311401Y-126356747D01*
X209331107Y-126342132D01*
X209352150Y-126329520D01*
X209374329Y-126319030D01*
X209397428Y-126310765D01*
X209421227Y-126304804D01*
X209445495Y-126301204D01*
X209469999Y-126300000D01*
X210120001Y-126300000D01*
X210144505Y-126301204D01*
G37*
G36*
X192292448Y-126720734D02*
G01*
X192307251Y-126722930D01*
X192321768Y-126726567D01*
X192335859Y-126731608D01*
X192349388Y-126738007D01*
X192362224Y-126745701D01*
X192374245Y-126754616D01*
X192385334Y-126764666D01*
X192395384Y-126775755D01*
X192404299Y-126787776D01*
X192411993Y-126800612D01*
X192418392Y-126814141D01*
X192423433Y-126828232D01*
X192427070Y-126842749D01*
X192429266Y-126857552D01*
X192430000Y-126872500D01*
X192430000Y-127812500D01*
X192429266Y-127827448D01*
X192427070Y-127842251D01*
X192423433Y-127856768D01*
X192418392Y-127870859D01*
X192411993Y-127884388D01*
X192404299Y-127897224D01*
X192395384Y-127909245D01*
X192385334Y-127920334D01*
X192374245Y-127930384D01*
X192362224Y-127939299D01*
X192349388Y-127946993D01*
X192335859Y-127953392D01*
X192321768Y-127958433D01*
X192307251Y-127962070D01*
X192292448Y-127964266D01*
X192277500Y-127965000D01*
X191972500Y-127965000D01*
X191957552Y-127964266D01*
X191942749Y-127962070D01*
X191928232Y-127958433D01*
X191914141Y-127953392D01*
X191900612Y-127946993D01*
X191887776Y-127939299D01*
X191875755Y-127930384D01*
X191864666Y-127920334D01*
X191854616Y-127909245D01*
X191845701Y-127897224D01*
X191838007Y-127884388D01*
X191831608Y-127870859D01*
X191826567Y-127856768D01*
X191822930Y-127842251D01*
X191820734Y-127827448D01*
X191820000Y-127812500D01*
X191820000Y-126872500D01*
X191820734Y-126857552D01*
X191822930Y-126842749D01*
X191826567Y-126828232D01*
X191831608Y-126814141D01*
X191838007Y-126800612D01*
X191845701Y-126787776D01*
X191854616Y-126775755D01*
X191864666Y-126764666D01*
X191875755Y-126754616D01*
X191887776Y-126745701D01*
X191900612Y-126738007D01*
X191914141Y-126731608D01*
X191928232Y-126726567D01*
X191942749Y-126722930D01*
X191957552Y-126720734D01*
X191972500Y-126720000D01*
X192277500Y-126720000D01*
X192292448Y-126720734D01*
G37*
G36*
X192292448Y-128575734D02*
G01*
X192307251Y-128577930D01*
X192321768Y-128581567D01*
X192335859Y-128586608D01*
X192349388Y-128593007D01*
X192362224Y-128600701D01*
X192374245Y-128609616D01*
X192385334Y-128619666D01*
X192395384Y-128630755D01*
X192404299Y-128642776D01*
X192411993Y-128655612D01*
X192418392Y-128669141D01*
X192423433Y-128683232D01*
X192427070Y-128697749D01*
X192429266Y-128712552D01*
X192430000Y-128727500D01*
X192430000Y-129667500D01*
X192429266Y-129682448D01*
X192427070Y-129697251D01*
X192423433Y-129711768D01*
X192418392Y-129725859D01*
X192411993Y-129739388D01*
X192404299Y-129752224D01*
X192395384Y-129764245D01*
X192385334Y-129775334D01*
X192374245Y-129785384D01*
X192362224Y-129794299D01*
X192349388Y-129801993D01*
X192335859Y-129808392D01*
X192321768Y-129813433D01*
X192307251Y-129817070D01*
X192292448Y-129819266D01*
X192277500Y-129820000D01*
X191972500Y-129820000D01*
X191957552Y-129819266D01*
X191942749Y-129817070D01*
X191928232Y-129813433D01*
X191914141Y-129808392D01*
X191900612Y-129801993D01*
X191887776Y-129794299D01*
X191875755Y-129785384D01*
X191864666Y-129775334D01*
X191854616Y-129764245D01*
X191845701Y-129752224D01*
X191838007Y-129739388D01*
X191831608Y-129725859D01*
X191826567Y-129711768D01*
X191822930Y-129697251D01*
X191820734Y-129682448D01*
X191820000Y-129667500D01*
X191820000Y-128727500D01*
X191820734Y-128712552D01*
X191822930Y-128697749D01*
X191826567Y-128683232D01*
X191831608Y-128669141D01*
X191838007Y-128655612D01*
X191845701Y-128642776D01*
X191854616Y-128630755D01*
X191864666Y-128619666D01*
X191875755Y-128609616D01*
X191887776Y-128600701D01*
X191900612Y-128593007D01*
X191914141Y-128586608D01*
X191928232Y-128581567D01*
X191942749Y-128577930D01*
X191957552Y-128575734D01*
X191972500Y-128575000D01*
X192277500Y-128575000D01*
X192292448Y-128575734D01*
G37*
G36*
X194044865Y-127371202D02*
G01*
X194069095Y-127374796D01*
X194092855Y-127380748D01*
X194115918Y-127389000D01*
X194138061Y-127399472D01*
X194159070Y-127412065D01*
X194178745Y-127426657D01*
X194196894Y-127443106D01*
X194213343Y-127461255D01*
X194227935Y-127480930D01*
X194240528Y-127501939D01*
X194251000Y-127524082D01*
X194259252Y-127547145D01*
X194265204Y-127570905D01*
X194268798Y-127595135D01*
X194270000Y-127619600D01*
X194270000Y-128920400D01*
X194268798Y-128944865D01*
X194265204Y-128969095D01*
X194259252Y-128992855D01*
X194251000Y-129015918D01*
X194240528Y-129038061D01*
X194227935Y-129059070D01*
X194213343Y-129078745D01*
X194196894Y-129096894D01*
X194178745Y-129113343D01*
X194159070Y-129127935D01*
X194138061Y-129140528D01*
X194115918Y-129151000D01*
X194092855Y-129159252D01*
X194069095Y-129165204D01*
X194044865Y-129168798D01*
X194020400Y-129170000D01*
X193479600Y-129170000D01*
X193455135Y-129168798D01*
X193430905Y-129165204D01*
X193407145Y-129159252D01*
X193384082Y-129151000D01*
X193361939Y-129140528D01*
X193340930Y-129127935D01*
X193321255Y-129113343D01*
X193303106Y-129096894D01*
X193286657Y-129078745D01*
X193272065Y-129059070D01*
X193259472Y-129038061D01*
X193249000Y-129015918D01*
X193240748Y-128992855D01*
X193234796Y-128969095D01*
X193231202Y-128944865D01*
X193230000Y-128920400D01*
X193230000Y-127619600D01*
X193231202Y-127595135D01*
X193234796Y-127570905D01*
X193240748Y-127547145D01*
X193249000Y-127524082D01*
X193259472Y-127501939D01*
X193272065Y-127480930D01*
X193286657Y-127461255D01*
X193303106Y-127443106D01*
X193321255Y-127426657D01*
X193340930Y-127412065D01*
X193361939Y-127399472D01*
X193384082Y-127389000D01*
X193407145Y-127380748D01*
X193430905Y-127374796D01*
X193455135Y-127371202D01*
X193479600Y-127370000D01*
X194020400Y-127370000D01*
X194044865Y-127371202D01*
G37*
G36*
X190794865Y-127371202D02*
G01*
X190819095Y-127374796D01*
X190842855Y-127380748D01*
X190865918Y-127389000D01*
X190888061Y-127399472D01*
X190909070Y-127412065D01*
X190928745Y-127426657D01*
X190946894Y-127443106D01*
X190963343Y-127461255D01*
X190977935Y-127480930D01*
X190990528Y-127501939D01*
X191001000Y-127524082D01*
X191009252Y-127547145D01*
X191015204Y-127570905D01*
X191018798Y-127595135D01*
X191020000Y-127619600D01*
X191020000Y-128920400D01*
X191018798Y-128944865D01*
X191015204Y-128969095D01*
X191009252Y-128992855D01*
X191001000Y-129015918D01*
X190990528Y-129038061D01*
X190977935Y-129059070D01*
X190963343Y-129078745D01*
X190946894Y-129096894D01*
X190928745Y-129113343D01*
X190909070Y-129127935D01*
X190888061Y-129140528D01*
X190865918Y-129151000D01*
X190842855Y-129159252D01*
X190819095Y-129165204D01*
X190794865Y-129168798D01*
X190770400Y-129170000D01*
X190229600Y-129170000D01*
X190205135Y-129168798D01*
X190180905Y-129165204D01*
X190157145Y-129159252D01*
X190134082Y-129151000D01*
X190111939Y-129140528D01*
X190090930Y-129127935D01*
X190071255Y-129113343D01*
X190053106Y-129096894D01*
X190036657Y-129078745D01*
X190022065Y-129059070D01*
X190009472Y-129038061D01*
X189999000Y-129015918D01*
X189990748Y-128992855D01*
X189984796Y-128969095D01*
X189981202Y-128944865D01*
X189980000Y-128920400D01*
X189980000Y-127619600D01*
X189981202Y-127595135D01*
X189984796Y-127570905D01*
X189990748Y-127547145D01*
X189999000Y-127524082D01*
X190009472Y-127501939D01*
X190022065Y-127480930D01*
X190036657Y-127461255D01*
X190053106Y-127443106D01*
X190071255Y-127426657D01*
X190090930Y-127412065D01*
X190111939Y-127399472D01*
X190134082Y-127389000D01*
X190157145Y-127380748D01*
X190180905Y-127374796D01*
X190205135Y-127371202D01*
X190229600Y-127370000D01*
X190770400Y-127370000D01*
X190794865Y-127371202D01*
G37*
G36*
X201499505Y-125031204D02*
G01*
X201523773Y-125034804D01*
X201547572Y-125040765D01*
X201570671Y-125049030D01*
X201592850Y-125059520D01*
X201613893Y-125072132D01*
X201633599Y-125086747D01*
X201651777Y-125103223D01*
X201668253Y-125121401D01*
X201682868Y-125141107D01*
X201695480Y-125162150D01*
X201705970Y-125184329D01*
X201714235Y-125207428D01*
X201720196Y-125231227D01*
X201723796Y-125255495D01*
X201725000Y-125279999D01*
X201725000Y-126180001D01*
X201723796Y-126204505D01*
X201720196Y-126228773D01*
X201714235Y-126252572D01*
X201705970Y-126275671D01*
X201695480Y-126297850D01*
X201682868Y-126318893D01*
X201668253Y-126338599D01*
X201651777Y-126356777D01*
X201633599Y-126373253D01*
X201613893Y-126387868D01*
X201592850Y-126400480D01*
X201570671Y-126410970D01*
X201547572Y-126419235D01*
X201523773Y-126425196D01*
X201499505Y-126428796D01*
X201475001Y-126430000D01*
X200824999Y-126430000D01*
X200800495Y-126428796D01*
X200776227Y-126425196D01*
X200752428Y-126419235D01*
X200729329Y-126410970D01*
X200707150Y-126400480D01*
X200686107Y-126387868D01*
X200666401Y-126373253D01*
X200648223Y-126356777D01*
X200631747Y-126338599D01*
X200617132Y-126318893D01*
X200604520Y-126297850D01*
X200594030Y-126275671D01*
X200585765Y-126252572D01*
X200579804Y-126228773D01*
X200576204Y-126204505D01*
X200575000Y-126180001D01*
X200575000Y-125279999D01*
X200576204Y-125255495D01*
X200579804Y-125231227D01*
X200585765Y-125207428D01*
X200594030Y-125184329D01*
X200604520Y-125162150D01*
X200617132Y-125141107D01*
X200631747Y-125121401D01*
X200648223Y-125103223D01*
X200666401Y-125086747D01*
X200686107Y-125072132D01*
X200707150Y-125059520D01*
X200729329Y-125049030D01*
X200752428Y-125040765D01*
X200776227Y-125034804D01*
X200800495Y-125031204D01*
X200824999Y-125030000D01*
X201475001Y-125030000D01*
X201499505Y-125031204D01*
G37*
G36*
X203549505Y-125031204D02*
G01*
X203573773Y-125034804D01*
X203597572Y-125040765D01*
X203620671Y-125049030D01*
X203642850Y-125059520D01*
X203663893Y-125072132D01*
X203683599Y-125086747D01*
X203701777Y-125103223D01*
X203718253Y-125121401D01*
X203732868Y-125141107D01*
X203745480Y-125162150D01*
X203755970Y-125184329D01*
X203764235Y-125207428D01*
X203770196Y-125231227D01*
X203773796Y-125255495D01*
X203775000Y-125279999D01*
X203775000Y-126180001D01*
X203773796Y-126204505D01*
X203770196Y-126228773D01*
X203764235Y-126252572D01*
X203755970Y-126275671D01*
X203745480Y-126297850D01*
X203732868Y-126318893D01*
X203718253Y-126338599D01*
X203701777Y-126356777D01*
X203683599Y-126373253D01*
X203663893Y-126387868D01*
X203642850Y-126400480D01*
X203620671Y-126410970D01*
X203597572Y-126419235D01*
X203573773Y-126425196D01*
X203549505Y-126428796D01*
X203525001Y-126430000D01*
X202874999Y-126430000D01*
X202850495Y-126428796D01*
X202826227Y-126425196D01*
X202802428Y-126419235D01*
X202779329Y-126410970D01*
X202757150Y-126400480D01*
X202736107Y-126387868D01*
X202716401Y-126373253D01*
X202698223Y-126356777D01*
X202681747Y-126338599D01*
X202667132Y-126318893D01*
X202654520Y-126297850D01*
X202644030Y-126275671D01*
X202635765Y-126252572D01*
X202629804Y-126228773D01*
X202626204Y-126204505D01*
X202625000Y-126180001D01*
X202625000Y-125279999D01*
X202626204Y-125255495D01*
X202629804Y-125231227D01*
X202635765Y-125207428D01*
X202644030Y-125184329D01*
X202654520Y-125162150D01*
X202667132Y-125141107D01*
X202681747Y-125121401D01*
X202698223Y-125103223D01*
X202716401Y-125086747D01*
X202736107Y-125072132D01*
X202757150Y-125059520D01*
X202779329Y-125049030D01*
X202802428Y-125040765D01*
X202826227Y-125034804D01*
X202850495Y-125031204D01*
X202874999Y-125030000D01*
X203525001Y-125030000D01*
X203549505Y-125031204D01*
G37*
G36*
X219279505Y-121221204D02*
G01*
X219303773Y-121224804D01*
X219327572Y-121230765D01*
X219350671Y-121239030D01*
X219372850Y-121249520D01*
X219393893Y-121262132D01*
X219413599Y-121276747D01*
X219431777Y-121293223D01*
X219448253Y-121311401D01*
X219462868Y-121331107D01*
X219475480Y-121352150D01*
X219485970Y-121374329D01*
X219494235Y-121397428D01*
X219500196Y-121421227D01*
X219503796Y-121445495D01*
X219505000Y-121469999D01*
X219505000Y-122370001D01*
X219503796Y-122394505D01*
X219500196Y-122418773D01*
X219494235Y-122442572D01*
X219485970Y-122465671D01*
X219475480Y-122487850D01*
X219462868Y-122508893D01*
X219448253Y-122528599D01*
X219431777Y-122546777D01*
X219413599Y-122563253D01*
X219393893Y-122577868D01*
X219372850Y-122590480D01*
X219350671Y-122600970D01*
X219327572Y-122609235D01*
X219303773Y-122615196D01*
X219279505Y-122618796D01*
X219255001Y-122620000D01*
X218604999Y-122620000D01*
X218580495Y-122618796D01*
X218556227Y-122615196D01*
X218532428Y-122609235D01*
X218509329Y-122600970D01*
X218487150Y-122590480D01*
X218466107Y-122577868D01*
X218446401Y-122563253D01*
X218428223Y-122546777D01*
X218411747Y-122528599D01*
X218397132Y-122508893D01*
X218384520Y-122487850D01*
X218374030Y-122465671D01*
X218365765Y-122442572D01*
X218359804Y-122418773D01*
X218356204Y-122394505D01*
X218355000Y-122370001D01*
X218355000Y-121469999D01*
X218356204Y-121445495D01*
X218359804Y-121421227D01*
X218365765Y-121397428D01*
X218374030Y-121374329D01*
X218384520Y-121352150D01*
X218397132Y-121331107D01*
X218411747Y-121311401D01*
X218428223Y-121293223D01*
X218446401Y-121276747D01*
X218466107Y-121262132D01*
X218487150Y-121249520D01*
X218509329Y-121239030D01*
X218532428Y-121230765D01*
X218556227Y-121224804D01*
X218580495Y-121221204D01*
X218604999Y-121220000D01*
X219255001Y-121220000D01*
X219279505Y-121221204D01*
G37*
G36*
X221329505Y-121221204D02*
G01*
X221353773Y-121224804D01*
X221377572Y-121230765D01*
X221400671Y-121239030D01*
X221422850Y-121249520D01*
X221443893Y-121262132D01*
X221463599Y-121276747D01*
X221481777Y-121293223D01*
X221498253Y-121311401D01*
X221512868Y-121331107D01*
X221525480Y-121352150D01*
X221535970Y-121374329D01*
X221544235Y-121397428D01*
X221550196Y-121421227D01*
X221553796Y-121445495D01*
X221555000Y-121469999D01*
X221555000Y-122370001D01*
X221553796Y-122394505D01*
X221550196Y-122418773D01*
X221544235Y-122442572D01*
X221535970Y-122465671D01*
X221525480Y-122487850D01*
X221512868Y-122508893D01*
X221498253Y-122528599D01*
X221481777Y-122546777D01*
X221463599Y-122563253D01*
X221443893Y-122577868D01*
X221422850Y-122590480D01*
X221400671Y-122600970D01*
X221377572Y-122609235D01*
X221353773Y-122615196D01*
X221329505Y-122618796D01*
X221305001Y-122620000D01*
X220654999Y-122620000D01*
X220630495Y-122618796D01*
X220606227Y-122615196D01*
X220582428Y-122609235D01*
X220559329Y-122600970D01*
X220537150Y-122590480D01*
X220516107Y-122577868D01*
X220496401Y-122563253D01*
X220478223Y-122546777D01*
X220461747Y-122528599D01*
X220447132Y-122508893D01*
X220434520Y-122487850D01*
X220424030Y-122465671D01*
X220415765Y-122442572D01*
X220409804Y-122418773D01*
X220406204Y-122394505D01*
X220405000Y-122370001D01*
X220405000Y-121469999D01*
X220406204Y-121445495D01*
X220409804Y-121421227D01*
X220415765Y-121397428D01*
X220424030Y-121374329D01*
X220434520Y-121352150D01*
X220447132Y-121331107D01*
X220461747Y-121311401D01*
X220478223Y-121293223D01*
X220496401Y-121276747D01*
X220516107Y-121262132D01*
X220537150Y-121249520D01*
X220559329Y-121239030D01*
X220582428Y-121230765D01*
X220606227Y-121224804D01*
X220630495Y-121221204D01*
X220654999Y-121220000D01*
X221305001Y-121220000D01*
X221329505Y-121221204D01*
G37*
D13*
X217830000Y-113270000D03*
X217830000Y-117870000D03*
X217830000Y-115570000D03*
D14*
X224130000Y-115570000D03*
D11*
G36*
X198714505Y-121221204D02*
G01*
X198738773Y-121224804D01*
X198762572Y-121230765D01*
X198785671Y-121239030D01*
X198807850Y-121249520D01*
X198828893Y-121262132D01*
X198848599Y-121276747D01*
X198866777Y-121293223D01*
X198883253Y-121311401D01*
X198897868Y-121331107D01*
X198910480Y-121352150D01*
X198920970Y-121374329D01*
X198929235Y-121397428D01*
X198935196Y-121421227D01*
X198938796Y-121445495D01*
X198940000Y-121469999D01*
X198940000Y-122370001D01*
X198938796Y-122394505D01*
X198935196Y-122418773D01*
X198929235Y-122442572D01*
X198920970Y-122465671D01*
X198910480Y-122487850D01*
X198897868Y-122508893D01*
X198883253Y-122528599D01*
X198866777Y-122546777D01*
X198848599Y-122563253D01*
X198828893Y-122577868D01*
X198807850Y-122590480D01*
X198785671Y-122600970D01*
X198762572Y-122609235D01*
X198738773Y-122615196D01*
X198714505Y-122618796D01*
X198690001Y-122620000D01*
X198039999Y-122620000D01*
X198015495Y-122618796D01*
X197991227Y-122615196D01*
X197967428Y-122609235D01*
X197944329Y-122600970D01*
X197922150Y-122590480D01*
X197901107Y-122577868D01*
X197881401Y-122563253D01*
X197863223Y-122546777D01*
X197846747Y-122528599D01*
X197832132Y-122508893D01*
X197819520Y-122487850D01*
X197809030Y-122465671D01*
X197800765Y-122442572D01*
X197794804Y-122418773D01*
X197791204Y-122394505D01*
X197790000Y-122370001D01*
X197790000Y-121469999D01*
X197791204Y-121445495D01*
X197794804Y-121421227D01*
X197800765Y-121397428D01*
X197809030Y-121374329D01*
X197819520Y-121352150D01*
X197832132Y-121331107D01*
X197846747Y-121311401D01*
X197863223Y-121293223D01*
X197881401Y-121276747D01*
X197901107Y-121262132D01*
X197922150Y-121249520D01*
X197944329Y-121239030D01*
X197967428Y-121230765D01*
X197991227Y-121224804D01*
X198015495Y-121221204D01*
X198039999Y-121220000D01*
X198690001Y-121220000D01*
X198714505Y-121221204D01*
G37*
G36*
X200764505Y-121221204D02*
G01*
X200788773Y-121224804D01*
X200812572Y-121230765D01*
X200835671Y-121239030D01*
X200857850Y-121249520D01*
X200878893Y-121262132D01*
X200898599Y-121276747D01*
X200916777Y-121293223D01*
X200933253Y-121311401D01*
X200947868Y-121331107D01*
X200960480Y-121352150D01*
X200970970Y-121374329D01*
X200979235Y-121397428D01*
X200985196Y-121421227D01*
X200988796Y-121445495D01*
X200990000Y-121469999D01*
X200990000Y-122370001D01*
X200988796Y-122394505D01*
X200985196Y-122418773D01*
X200979235Y-122442572D01*
X200970970Y-122465671D01*
X200960480Y-122487850D01*
X200947868Y-122508893D01*
X200933253Y-122528599D01*
X200916777Y-122546777D01*
X200898599Y-122563253D01*
X200878893Y-122577868D01*
X200857850Y-122590480D01*
X200835671Y-122600970D01*
X200812572Y-122609235D01*
X200788773Y-122615196D01*
X200764505Y-122618796D01*
X200740001Y-122620000D01*
X200089999Y-122620000D01*
X200065495Y-122618796D01*
X200041227Y-122615196D01*
X200017428Y-122609235D01*
X199994329Y-122600970D01*
X199972150Y-122590480D01*
X199951107Y-122577868D01*
X199931401Y-122563253D01*
X199913223Y-122546777D01*
X199896747Y-122528599D01*
X199882132Y-122508893D01*
X199869520Y-122487850D01*
X199859030Y-122465671D01*
X199850765Y-122442572D01*
X199844804Y-122418773D01*
X199841204Y-122394505D01*
X199840000Y-122370001D01*
X199840000Y-121469999D01*
X199841204Y-121445495D01*
X199844804Y-121421227D01*
X199850765Y-121397428D01*
X199859030Y-121374329D01*
X199869520Y-121352150D01*
X199882132Y-121331107D01*
X199896747Y-121311401D01*
X199913223Y-121293223D01*
X199931401Y-121276747D01*
X199951107Y-121262132D01*
X199972150Y-121249520D01*
X199994329Y-121239030D01*
X200017428Y-121230765D01*
X200041227Y-121224804D01*
X200065495Y-121221204D01*
X200089999Y-121220000D01*
X200740001Y-121220000D01*
X200764505Y-121221204D01*
G37*
D10*
X178690000Y-123190000D03*
X181990000Y-123190000D03*
D11*
G36*
X217337448Y-126720734D02*
G01*
X217352251Y-126722930D01*
X217366768Y-126726567D01*
X217380859Y-126731608D01*
X217394388Y-126738007D01*
X217407224Y-126745701D01*
X217419245Y-126754616D01*
X217430334Y-126764666D01*
X217440384Y-126775755D01*
X217449299Y-126787776D01*
X217456993Y-126800612D01*
X217463392Y-126814141D01*
X217468433Y-126828232D01*
X217472070Y-126842749D01*
X217474266Y-126857552D01*
X217475000Y-126872500D01*
X217475000Y-127812500D01*
X217474266Y-127827448D01*
X217472070Y-127842251D01*
X217468433Y-127856768D01*
X217463392Y-127870859D01*
X217456993Y-127884388D01*
X217449299Y-127897224D01*
X217440384Y-127909245D01*
X217430334Y-127920334D01*
X217419245Y-127930384D01*
X217407224Y-127939299D01*
X217394388Y-127946993D01*
X217380859Y-127953392D01*
X217366768Y-127958433D01*
X217352251Y-127962070D01*
X217337448Y-127964266D01*
X217322500Y-127965000D01*
X217017500Y-127965000D01*
X217002552Y-127964266D01*
X216987749Y-127962070D01*
X216973232Y-127958433D01*
X216959141Y-127953392D01*
X216945612Y-127946993D01*
X216932776Y-127939299D01*
X216920755Y-127930384D01*
X216909666Y-127920334D01*
X216899616Y-127909245D01*
X216890701Y-127897224D01*
X216883007Y-127884388D01*
X216876608Y-127870859D01*
X216871567Y-127856768D01*
X216867930Y-127842251D01*
X216865734Y-127827448D01*
X216865000Y-127812500D01*
X216865000Y-126872500D01*
X216865734Y-126857552D01*
X216867930Y-126842749D01*
X216871567Y-126828232D01*
X216876608Y-126814141D01*
X216883007Y-126800612D01*
X216890701Y-126787776D01*
X216899616Y-126775755D01*
X216909666Y-126764666D01*
X216920755Y-126754616D01*
X216932776Y-126745701D01*
X216945612Y-126738007D01*
X216959141Y-126731608D01*
X216973232Y-126726567D01*
X216987749Y-126722930D01*
X217002552Y-126720734D01*
X217017500Y-126720000D01*
X217322500Y-126720000D01*
X217337448Y-126720734D01*
G37*
G36*
X217337448Y-128575734D02*
G01*
X217352251Y-128577930D01*
X217366768Y-128581567D01*
X217380859Y-128586608D01*
X217394388Y-128593007D01*
X217407224Y-128600701D01*
X217419245Y-128609616D01*
X217430334Y-128619666D01*
X217440384Y-128630755D01*
X217449299Y-128642776D01*
X217456993Y-128655612D01*
X217463392Y-128669141D01*
X217468433Y-128683232D01*
X217472070Y-128697749D01*
X217474266Y-128712552D01*
X217475000Y-128727500D01*
X217475000Y-129667500D01*
X217474266Y-129682448D01*
X217472070Y-129697251D01*
X217468433Y-129711768D01*
X217463392Y-129725859D01*
X217456993Y-129739388D01*
X217449299Y-129752224D01*
X217440384Y-129764245D01*
X217430334Y-129775334D01*
X217419245Y-129785384D01*
X217407224Y-129794299D01*
X217394388Y-129801993D01*
X217380859Y-129808392D01*
X217366768Y-129813433D01*
X217352251Y-129817070D01*
X217337448Y-129819266D01*
X217322500Y-129820000D01*
X217017500Y-129820000D01*
X217002552Y-129819266D01*
X216987749Y-129817070D01*
X216973232Y-129813433D01*
X216959141Y-129808392D01*
X216945612Y-129801993D01*
X216932776Y-129794299D01*
X216920755Y-129785384D01*
X216909666Y-129775334D01*
X216899616Y-129764245D01*
X216890701Y-129752224D01*
X216883007Y-129739388D01*
X216876608Y-129725859D01*
X216871567Y-129711768D01*
X216867930Y-129697251D01*
X216865734Y-129682448D01*
X216865000Y-129667500D01*
X216865000Y-128727500D01*
X216865734Y-128712552D01*
X216867930Y-128697749D01*
X216871567Y-128683232D01*
X216876608Y-128669141D01*
X216883007Y-128655612D01*
X216890701Y-128642776D01*
X216899616Y-128630755D01*
X216909666Y-128619666D01*
X216920755Y-128609616D01*
X216932776Y-128600701D01*
X216945612Y-128593007D01*
X216959141Y-128586608D01*
X216973232Y-128581567D01*
X216987749Y-128577930D01*
X217002552Y-128575734D01*
X217017500Y-128575000D01*
X217322500Y-128575000D01*
X217337448Y-128575734D01*
G37*
G36*
X219089865Y-127371202D02*
G01*
X219114095Y-127374796D01*
X219137855Y-127380748D01*
X219160918Y-127389000D01*
X219183061Y-127399472D01*
X219204070Y-127412065D01*
X219223745Y-127426657D01*
X219241894Y-127443106D01*
X219258343Y-127461255D01*
X219272935Y-127480930D01*
X219285528Y-127501939D01*
X219296000Y-127524082D01*
X219304252Y-127547145D01*
X219310204Y-127570905D01*
X219313798Y-127595135D01*
X219315000Y-127619600D01*
X219315000Y-128920400D01*
X219313798Y-128944865D01*
X219310204Y-128969095D01*
X219304252Y-128992855D01*
X219296000Y-129015918D01*
X219285528Y-129038061D01*
X219272935Y-129059070D01*
X219258343Y-129078745D01*
X219241894Y-129096894D01*
X219223745Y-129113343D01*
X219204070Y-129127935D01*
X219183061Y-129140528D01*
X219160918Y-129151000D01*
X219137855Y-129159252D01*
X219114095Y-129165204D01*
X219089865Y-129168798D01*
X219065400Y-129170000D01*
X218524600Y-129170000D01*
X218500135Y-129168798D01*
X218475905Y-129165204D01*
X218452145Y-129159252D01*
X218429082Y-129151000D01*
X218406939Y-129140528D01*
X218385930Y-129127935D01*
X218366255Y-129113343D01*
X218348106Y-129096894D01*
X218331657Y-129078745D01*
X218317065Y-129059070D01*
X218304472Y-129038061D01*
X218294000Y-129015918D01*
X218285748Y-128992855D01*
X218279796Y-128969095D01*
X218276202Y-128944865D01*
X218275000Y-128920400D01*
X218275000Y-127619600D01*
X218276202Y-127595135D01*
X218279796Y-127570905D01*
X218285748Y-127547145D01*
X218294000Y-127524082D01*
X218304472Y-127501939D01*
X218317065Y-127480930D01*
X218331657Y-127461255D01*
X218348106Y-127443106D01*
X218366255Y-127426657D01*
X218385930Y-127412065D01*
X218406939Y-127399472D01*
X218429082Y-127389000D01*
X218452145Y-127380748D01*
X218475905Y-127374796D01*
X218500135Y-127371202D01*
X218524600Y-127370000D01*
X219065400Y-127370000D01*
X219089865Y-127371202D01*
G37*
G36*
X215839865Y-127371202D02*
G01*
X215864095Y-127374796D01*
X215887855Y-127380748D01*
X215910918Y-127389000D01*
X215933061Y-127399472D01*
X215954070Y-127412065D01*
X215973745Y-127426657D01*
X215991894Y-127443106D01*
X216008343Y-127461255D01*
X216022935Y-127480930D01*
X216035528Y-127501939D01*
X216046000Y-127524082D01*
X216054252Y-127547145D01*
X216060204Y-127570905D01*
X216063798Y-127595135D01*
X216065000Y-127619600D01*
X216065000Y-128920400D01*
X216063798Y-128944865D01*
X216060204Y-128969095D01*
X216054252Y-128992855D01*
X216046000Y-129015918D01*
X216035528Y-129038061D01*
X216022935Y-129059070D01*
X216008343Y-129078745D01*
X215991894Y-129096894D01*
X215973745Y-129113343D01*
X215954070Y-129127935D01*
X215933061Y-129140528D01*
X215910918Y-129151000D01*
X215887855Y-129159252D01*
X215864095Y-129165204D01*
X215839865Y-129168798D01*
X215815400Y-129170000D01*
X215274600Y-129170000D01*
X215250135Y-129168798D01*
X215225905Y-129165204D01*
X215202145Y-129159252D01*
X215179082Y-129151000D01*
X215156939Y-129140528D01*
X215135930Y-129127935D01*
X215116255Y-129113343D01*
X215098106Y-129096894D01*
X215081657Y-129078745D01*
X215067065Y-129059070D01*
X215054472Y-129038061D01*
X215044000Y-129015918D01*
X215035748Y-128992855D01*
X215029796Y-128969095D01*
X215026202Y-128944865D01*
X215025000Y-128920400D01*
X215025000Y-127619600D01*
X215026202Y-127595135D01*
X215029796Y-127570905D01*
X215035748Y-127547145D01*
X215044000Y-127524082D01*
X215054472Y-127501939D01*
X215067065Y-127480930D01*
X215081657Y-127461255D01*
X215098106Y-127443106D01*
X215116255Y-127426657D01*
X215135930Y-127412065D01*
X215156939Y-127399472D01*
X215179082Y-127389000D01*
X215202145Y-127380748D01*
X215225905Y-127374796D01*
X215250135Y-127371202D01*
X215274600Y-127370000D01*
X215815400Y-127370000D01*
X215839865Y-127371202D01*
G37*
G36*
X184744505Y-130111204D02*
G01*
X184768773Y-130114804D01*
X184792572Y-130120765D01*
X184815671Y-130129030D01*
X184837850Y-130139520D01*
X184858893Y-130152132D01*
X184878599Y-130166747D01*
X184896777Y-130183223D01*
X184913253Y-130201401D01*
X184927868Y-130221107D01*
X184940480Y-130242150D01*
X184950970Y-130264329D01*
X184959235Y-130287428D01*
X184965196Y-130311227D01*
X184968796Y-130335495D01*
X184970000Y-130359999D01*
X184970000Y-131260001D01*
X184968796Y-131284505D01*
X184965196Y-131308773D01*
X184959235Y-131332572D01*
X184950970Y-131355671D01*
X184940480Y-131377850D01*
X184927868Y-131398893D01*
X184913253Y-131418599D01*
X184896777Y-131436777D01*
X184878599Y-131453253D01*
X184858893Y-131467868D01*
X184837850Y-131480480D01*
X184815671Y-131490970D01*
X184792572Y-131499235D01*
X184768773Y-131505196D01*
X184744505Y-131508796D01*
X184720001Y-131510000D01*
X184069999Y-131510000D01*
X184045495Y-131508796D01*
X184021227Y-131505196D01*
X183997428Y-131499235D01*
X183974329Y-131490970D01*
X183952150Y-131480480D01*
X183931107Y-131467868D01*
X183911401Y-131453253D01*
X183893223Y-131436777D01*
X183876747Y-131418599D01*
X183862132Y-131398893D01*
X183849520Y-131377850D01*
X183839030Y-131355671D01*
X183830765Y-131332572D01*
X183824804Y-131308773D01*
X183821204Y-131284505D01*
X183820000Y-131260001D01*
X183820000Y-130359999D01*
X183821204Y-130335495D01*
X183824804Y-130311227D01*
X183830765Y-130287428D01*
X183839030Y-130264329D01*
X183849520Y-130242150D01*
X183862132Y-130221107D01*
X183876747Y-130201401D01*
X183893223Y-130183223D01*
X183911401Y-130166747D01*
X183931107Y-130152132D01*
X183952150Y-130139520D01*
X183974329Y-130129030D01*
X183997428Y-130120765D01*
X184021227Y-130114804D01*
X184045495Y-130111204D01*
X184069999Y-130110000D01*
X184720001Y-130110000D01*
X184744505Y-130111204D01*
G37*
G36*
X186794505Y-130111204D02*
G01*
X186818773Y-130114804D01*
X186842572Y-130120765D01*
X186865671Y-130129030D01*
X186887850Y-130139520D01*
X186908893Y-130152132D01*
X186928599Y-130166747D01*
X186946777Y-130183223D01*
X186963253Y-130201401D01*
X186977868Y-130221107D01*
X186990480Y-130242150D01*
X187000970Y-130264329D01*
X187009235Y-130287428D01*
X187015196Y-130311227D01*
X187018796Y-130335495D01*
X187020000Y-130359999D01*
X187020000Y-131260001D01*
X187018796Y-131284505D01*
X187015196Y-131308773D01*
X187009235Y-131332572D01*
X187000970Y-131355671D01*
X186990480Y-131377850D01*
X186977868Y-131398893D01*
X186963253Y-131418599D01*
X186946777Y-131436777D01*
X186928599Y-131453253D01*
X186908893Y-131467868D01*
X186887850Y-131480480D01*
X186865671Y-131490970D01*
X186842572Y-131499235D01*
X186818773Y-131505196D01*
X186794505Y-131508796D01*
X186770001Y-131510000D01*
X186119999Y-131510000D01*
X186095495Y-131508796D01*
X186071227Y-131505196D01*
X186047428Y-131499235D01*
X186024329Y-131490970D01*
X186002150Y-131480480D01*
X185981107Y-131467868D01*
X185961401Y-131453253D01*
X185943223Y-131436777D01*
X185926747Y-131418599D01*
X185912132Y-131398893D01*
X185899520Y-131377850D01*
X185889030Y-131355671D01*
X185880765Y-131332572D01*
X185874804Y-131308773D01*
X185871204Y-131284505D01*
X185870000Y-131260001D01*
X185870000Y-130359999D01*
X185871204Y-130335495D01*
X185874804Y-130311227D01*
X185880765Y-130287428D01*
X185889030Y-130264329D01*
X185899520Y-130242150D01*
X185912132Y-130221107D01*
X185926747Y-130201401D01*
X185943223Y-130183223D01*
X185961401Y-130166747D01*
X185981107Y-130152132D01*
X186002150Y-130139520D01*
X186024329Y-130129030D01*
X186047428Y-130120765D01*
X186071227Y-130114804D01*
X186095495Y-130111204D01*
X186119999Y-130110000D01*
X186770001Y-130110000D01*
X186794505Y-130111204D01*
G37*
G36*
X181714505Y-130111204D02*
G01*
X181738773Y-130114804D01*
X181762572Y-130120765D01*
X181785671Y-130129030D01*
X181807850Y-130139520D01*
X181828893Y-130152132D01*
X181848599Y-130166747D01*
X181866777Y-130183223D01*
X181883253Y-130201401D01*
X181897868Y-130221107D01*
X181910480Y-130242150D01*
X181920970Y-130264329D01*
X181929235Y-130287428D01*
X181935196Y-130311227D01*
X181938796Y-130335495D01*
X181940000Y-130359999D01*
X181940000Y-131260001D01*
X181938796Y-131284505D01*
X181935196Y-131308773D01*
X181929235Y-131332572D01*
X181920970Y-131355671D01*
X181910480Y-131377850D01*
X181897868Y-131398893D01*
X181883253Y-131418599D01*
X181866777Y-131436777D01*
X181848599Y-131453253D01*
X181828893Y-131467868D01*
X181807850Y-131480480D01*
X181785671Y-131490970D01*
X181762572Y-131499235D01*
X181738773Y-131505196D01*
X181714505Y-131508796D01*
X181690001Y-131510000D01*
X181039999Y-131510000D01*
X181015495Y-131508796D01*
X180991227Y-131505196D01*
X180967428Y-131499235D01*
X180944329Y-131490970D01*
X180922150Y-131480480D01*
X180901107Y-131467868D01*
X180881401Y-131453253D01*
X180863223Y-131436777D01*
X180846747Y-131418599D01*
X180832132Y-131398893D01*
X180819520Y-131377850D01*
X180809030Y-131355671D01*
X180800765Y-131332572D01*
X180794804Y-131308773D01*
X180791204Y-131284505D01*
X180790000Y-131260001D01*
X180790000Y-130359999D01*
X180791204Y-130335495D01*
X180794804Y-130311227D01*
X180800765Y-130287428D01*
X180809030Y-130264329D01*
X180819520Y-130242150D01*
X180832132Y-130221107D01*
X180846747Y-130201401D01*
X180863223Y-130183223D01*
X180881401Y-130166747D01*
X180901107Y-130152132D01*
X180922150Y-130139520D01*
X180944329Y-130129030D01*
X180967428Y-130120765D01*
X180991227Y-130114804D01*
X181015495Y-130111204D01*
X181039999Y-130110000D01*
X181690001Y-130110000D01*
X181714505Y-130111204D01*
G37*
G36*
X179664505Y-130111204D02*
G01*
X179688773Y-130114804D01*
X179712572Y-130120765D01*
X179735671Y-130129030D01*
X179757850Y-130139520D01*
X179778893Y-130152132D01*
X179798599Y-130166747D01*
X179816777Y-130183223D01*
X179833253Y-130201401D01*
X179847868Y-130221107D01*
X179860480Y-130242150D01*
X179870970Y-130264329D01*
X179879235Y-130287428D01*
X179885196Y-130311227D01*
X179888796Y-130335495D01*
X179890000Y-130359999D01*
X179890000Y-131260001D01*
X179888796Y-131284505D01*
X179885196Y-131308773D01*
X179879235Y-131332572D01*
X179870970Y-131355671D01*
X179860480Y-131377850D01*
X179847868Y-131398893D01*
X179833253Y-131418599D01*
X179816777Y-131436777D01*
X179798599Y-131453253D01*
X179778893Y-131467868D01*
X179757850Y-131480480D01*
X179735671Y-131490970D01*
X179712572Y-131499235D01*
X179688773Y-131505196D01*
X179664505Y-131508796D01*
X179640001Y-131510000D01*
X178989999Y-131510000D01*
X178965495Y-131508796D01*
X178941227Y-131505196D01*
X178917428Y-131499235D01*
X178894329Y-131490970D01*
X178872150Y-131480480D01*
X178851107Y-131467868D01*
X178831401Y-131453253D01*
X178813223Y-131436777D01*
X178796747Y-131418599D01*
X178782132Y-131398893D01*
X178769520Y-131377850D01*
X178759030Y-131355671D01*
X178750765Y-131332572D01*
X178744804Y-131308773D01*
X178741204Y-131284505D01*
X178740000Y-131260001D01*
X178740000Y-130359999D01*
X178741204Y-130335495D01*
X178744804Y-130311227D01*
X178750765Y-130287428D01*
X178759030Y-130264329D01*
X178769520Y-130242150D01*
X178782132Y-130221107D01*
X178796747Y-130201401D01*
X178813223Y-130183223D01*
X178831401Y-130166747D01*
X178851107Y-130152132D01*
X178872150Y-130139520D01*
X178894329Y-130129030D01*
X178917428Y-130120765D01*
X178941227Y-130114804D01*
X178965495Y-130111204D01*
X178989999Y-130110000D01*
X179640001Y-130110000D01*
X179664505Y-130111204D01*
G37*
D10*
X181100000Y-119380000D03*
X177800000Y-119380000D03*
D11*
G36*
X200764505Y-117411204D02*
G01*
X200788773Y-117414804D01*
X200812572Y-117420765D01*
X200835671Y-117429030D01*
X200857850Y-117439520D01*
X200878893Y-117452132D01*
X200898599Y-117466747D01*
X200916777Y-117483223D01*
X200933253Y-117501401D01*
X200947868Y-117521107D01*
X200960480Y-117542150D01*
X200970970Y-117564329D01*
X200979235Y-117587428D01*
X200985196Y-117611227D01*
X200988796Y-117635495D01*
X200990000Y-117659999D01*
X200990000Y-118560001D01*
X200988796Y-118584505D01*
X200985196Y-118608773D01*
X200979235Y-118632572D01*
X200970970Y-118655671D01*
X200960480Y-118677850D01*
X200947868Y-118698893D01*
X200933253Y-118718599D01*
X200916777Y-118736777D01*
X200898599Y-118753253D01*
X200878893Y-118767868D01*
X200857850Y-118780480D01*
X200835671Y-118790970D01*
X200812572Y-118799235D01*
X200788773Y-118805196D01*
X200764505Y-118808796D01*
X200740001Y-118810000D01*
X200089999Y-118810000D01*
X200065495Y-118808796D01*
X200041227Y-118805196D01*
X200017428Y-118799235D01*
X199994329Y-118790970D01*
X199972150Y-118780480D01*
X199951107Y-118767868D01*
X199931401Y-118753253D01*
X199913223Y-118736777D01*
X199896747Y-118718599D01*
X199882132Y-118698893D01*
X199869520Y-118677850D01*
X199859030Y-118655671D01*
X199850765Y-118632572D01*
X199844804Y-118608773D01*
X199841204Y-118584505D01*
X199840000Y-118560001D01*
X199840000Y-117659999D01*
X199841204Y-117635495D01*
X199844804Y-117611227D01*
X199850765Y-117587428D01*
X199859030Y-117564329D01*
X199869520Y-117542150D01*
X199882132Y-117521107D01*
X199896747Y-117501401D01*
X199913223Y-117483223D01*
X199931401Y-117466747D01*
X199951107Y-117452132D01*
X199972150Y-117439520D01*
X199994329Y-117429030D01*
X200017428Y-117420765D01*
X200041227Y-117414804D01*
X200065495Y-117411204D01*
X200089999Y-117410000D01*
X200740001Y-117410000D01*
X200764505Y-117411204D01*
G37*
G36*
X198714505Y-117411204D02*
G01*
X198738773Y-117414804D01*
X198762572Y-117420765D01*
X198785671Y-117429030D01*
X198807850Y-117439520D01*
X198828893Y-117452132D01*
X198848599Y-117466747D01*
X198866777Y-117483223D01*
X198883253Y-117501401D01*
X198897868Y-117521107D01*
X198910480Y-117542150D01*
X198920970Y-117564329D01*
X198929235Y-117587428D01*
X198935196Y-117611227D01*
X198938796Y-117635495D01*
X198940000Y-117659999D01*
X198940000Y-118560001D01*
X198938796Y-118584505D01*
X198935196Y-118608773D01*
X198929235Y-118632572D01*
X198920970Y-118655671D01*
X198910480Y-118677850D01*
X198897868Y-118698893D01*
X198883253Y-118718599D01*
X198866777Y-118736777D01*
X198848599Y-118753253D01*
X198828893Y-118767868D01*
X198807850Y-118780480D01*
X198785671Y-118790970D01*
X198762572Y-118799235D01*
X198738773Y-118805196D01*
X198714505Y-118808796D01*
X198690001Y-118810000D01*
X198039999Y-118810000D01*
X198015495Y-118808796D01*
X197991227Y-118805196D01*
X197967428Y-118799235D01*
X197944329Y-118790970D01*
X197922150Y-118780480D01*
X197901107Y-118767868D01*
X197881401Y-118753253D01*
X197863223Y-118736777D01*
X197846747Y-118718599D01*
X197832132Y-118698893D01*
X197819520Y-118677850D01*
X197809030Y-118655671D01*
X197800765Y-118632572D01*
X197794804Y-118608773D01*
X197791204Y-118584505D01*
X197790000Y-118560001D01*
X197790000Y-117659999D01*
X197791204Y-117635495D01*
X197794804Y-117611227D01*
X197800765Y-117587428D01*
X197809030Y-117564329D01*
X197819520Y-117542150D01*
X197832132Y-117521107D01*
X197846747Y-117501401D01*
X197863223Y-117483223D01*
X197881401Y-117466747D01*
X197901107Y-117452132D01*
X197922150Y-117439520D01*
X197944329Y-117429030D01*
X197967428Y-117420765D01*
X197991227Y-117414804D01*
X198015495Y-117411204D01*
X198039999Y-117410000D01*
X198690001Y-117410000D01*
X198714505Y-117411204D01*
G37*
G36*
X186549505Y-126301204D02*
G01*
X186573773Y-126304804D01*
X186597572Y-126310765D01*
X186620671Y-126319030D01*
X186642850Y-126329520D01*
X186663893Y-126342132D01*
X186683599Y-126356747D01*
X186701777Y-126373223D01*
X186718253Y-126391401D01*
X186732868Y-126411107D01*
X186745480Y-126432150D01*
X186755970Y-126454329D01*
X186764235Y-126477428D01*
X186770196Y-126501227D01*
X186773796Y-126525495D01*
X186775000Y-126549999D01*
X186775000Y-127450001D01*
X186773796Y-127474505D01*
X186770196Y-127498773D01*
X186764235Y-127522572D01*
X186755970Y-127545671D01*
X186745480Y-127567850D01*
X186732868Y-127588893D01*
X186718253Y-127608599D01*
X186701777Y-127626777D01*
X186683599Y-127643253D01*
X186663893Y-127657868D01*
X186642850Y-127670480D01*
X186620671Y-127680970D01*
X186597572Y-127689235D01*
X186573773Y-127695196D01*
X186549505Y-127698796D01*
X186525001Y-127700000D01*
X185874999Y-127700000D01*
X185850495Y-127698796D01*
X185826227Y-127695196D01*
X185802428Y-127689235D01*
X185779329Y-127680970D01*
X185757150Y-127670480D01*
X185736107Y-127657868D01*
X185716401Y-127643253D01*
X185698223Y-127626777D01*
X185681747Y-127608599D01*
X185667132Y-127588893D01*
X185654520Y-127567850D01*
X185644030Y-127545671D01*
X185635765Y-127522572D01*
X185629804Y-127498773D01*
X185626204Y-127474505D01*
X185625000Y-127450001D01*
X185625000Y-126549999D01*
X185626204Y-126525495D01*
X185629804Y-126501227D01*
X185635765Y-126477428D01*
X185644030Y-126454329D01*
X185654520Y-126432150D01*
X185667132Y-126411107D01*
X185681747Y-126391401D01*
X185698223Y-126373223D01*
X185716401Y-126356747D01*
X185736107Y-126342132D01*
X185757150Y-126329520D01*
X185779329Y-126319030D01*
X185802428Y-126310765D01*
X185826227Y-126304804D01*
X185850495Y-126301204D01*
X185874999Y-126300000D01*
X186525001Y-126300000D01*
X186549505Y-126301204D01*
G37*
G36*
X184499505Y-126301204D02*
G01*
X184523773Y-126304804D01*
X184547572Y-126310765D01*
X184570671Y-126319030D01*
X184592850Y-126329520D01*
X184613893Y-126342132D01*
X184633599Y-126356747D01*
X184651777Y-126373223D01*
X184668253Y-126391401D01*
X184682868Y-126411107D01*
X184695480Y-126432150D01*
X184705970Y-126454329D01*
X184714235Y-126477428D01*
X184720196Y-126501227D01*
X184723796Y-126525495D01*
X184725000Y-126549999D01*
X184725000Y-127450001D01*
X184723796Y-127474505D01*
X184720196Y-127498773D01*
X184714235Y-127522572D01*
X184705970Y-127545671D01*
X184695480Y-127567850D01*
X184682868Y-127588893D01*
X184668253Y-127608599D01*
X184651777Y-127626777D01*
X184633599Y-127643253D01*
X184613893Y-127657868D01*
X184592850Y-127670480D01*
X184570671Y-127680970D01*
X184547572Y-127689235D01*
X184523773Y-127695196D01*
X184499505Y-127698796D01*
X184475001Y-127700000D01*
X183824999Y-127700000D01*
X183800495Y-127698796D01*
X183776227Y-127695196D01*
X183752428Y-127689235D01*
X183729329Y-127680970D01*
X183707150Y-127670480D01*
X183686107Y-127657868D01*
X183666401Y-127643253D01*
X183648223Y-127626777D01*
X183631747Y-127608599D01*
X183617132Y-127588893D01*
X183604520Y-127567850D01*
X183594030Y-127545671D01*
X183585765Y-127522572D01*
X183579804Y-127498773D01*
X183576204Y-127474505D01*
X183575000Y-127450001D01*
X183575000Y-126549999D01*
X183576204Y-126525495D01*
X183579804Y-126501227D01*
X183585765Y-126477428D01*
X183594030Y-126454329D01*
X183604520Y-126432150D01*
X183617132Y-126411107D01*
X183631747Y-126391401D01*
X183648223Y-126373223D01*
X183666401Y-126356747D01*
X183686107Y-126342132D01*
X183707150Y-126329520D01*
X183729329Y-126319030D01*
X183752428Y-126310765D01*
X183776227Y-126304804D01*
X183800495Y-126301204D01*
X183824999Y-126300000D01*
X184475001Y-126300000D01*
X184499505Y-126301204D01*
G37*
G36*
X210144505Y-130111204D02*
G01*
X210168773Y-130114804D01*
X210192572Y-130120765D01*
X210215671Y-130129030D01*
X210237850Y-130139520D01*
X210258893Y-130152132D01*
X210278599Y-130166747D01*
X210296777Y-130183223D01*
X210313253Y-130201401D01*
X210327868Y-130221107D01*
X210340480Y-130242150D01*
X210350970Y-130264329D01*
X210359235Y-130287428D01*
X210365196Y-130311227D01*
X210368796Y-130335495D01*
X210370000Y-130359999D01*
X210370000Y-131260001D01*
X210368796Y-131284505D01*
X210365196Y-131308773D01*
X210359235Y-131332572D01*
X210350970Y-131355671D01*
X210340480Y-131377850D01*
X210327868Y-131398893D01*
X210313253Y-131418599D01*
X210296777Y-131436777D01*
X210278599Y-131453253D01*
X210258893Y-131467868D01*
X210237850Y-131480480D01*
X210215671Y-131490970D01*
X210192572Y-131499235D01*
X210168773Y-131505196D01*
X210144505Y-131508796D01*
X210120001Y-131510000D01*
X209469999Y-131510000D01*
X209445495Y-131508796D01*
X209421227Y-131505196D01*
X209397428Y-131499235D01*
X209374329Y-131490970D01*
X209352150Y-131480480D01*
X209331107Y-131467868D01*
X209311401Y-131453253D01*
X209293223Y-131436777D01*
X209276747Y-131418599D01*
X209262132Y-131398893D01*
X209249520Y-131377850D01*
X209239030Y-131355671D01*
X209230765Y-131332572D01*
X209224804Y-131308773D01*
X209221204Y-131284505D01*
X209220000Y-131260001D01*
X209220000Y-130359999D01*
X209221204Y-130335495D01*
X209224804Y-130311227D01*
X209230765Y-130287428D01*
X209239030Y-130264329D01*
X209249520Y-130242150D01*
X209262132Y-130221107D01*
X209276747Y-130201401D01*
X209293223Y-130183223D01*
X209311401Y-130166747D01*
X209331107Y-130152132D01*
X209352150Y-130139520D01*
X209374329Y-130129030D01*
X209397428Y-130120765D01*
X209421227Y-130114804D01*
X209445495Y-130111204D01*
X209469999Y-130110000D01*
X210120001Y-130110000D01*
X210144505Y-130111204D01*
G37*
G36*
X212194505Y-130111204D02*
G01*
X212218773Y-130114804D01*
X212242572Y-130120765D01*
X212265671Y-130129030D01*
X212287850Y-130139520D01*
X212308893Y-130152132D01*
X212328599Y-130166747D01*
X212346777Y-130183223D01*
X212363253Y-130201401D01*
X212377868Y-130221107D01*
X212390480Y-130242150D01*
X212400970Y-130264329D01*
X212409235Y-130287428D01*
X212415196Y-130311227D01*
X212418796Y-130335495D01*
X212420000Y-130359999D01*
X212420000Y-131260001D01*
X212418796Y-131284505D01*
X212415196Y-131308773D01*
X212409235Y-131332572D01*
X212400970Y-131355671D01*
X212390480Y-131377850D01*
X212377868Y-131398893D01*
X212363253Y-131418599D01*
X212346777Y-131436777D01*
X212328599Y-131453253D01*
X212308893Y-131467868D01*
X212287850Y-131480480D01*
X212265671Y-131490970D01*
X212242572Y-131499235D01*
X212218773Y-131505196D01*
X212194505Y-131508796D01*
X212170001Y-131510000D01*
X211519999Y-131510000D01*
X211495495Y-131508796D01*
X211471227Y-131505196D01*
X211447428Y-131499235D01*
X211424329Y-131490970D01*
X211402150Y-131480480D01*
X211381107Y-131467868D01*
X211361401Y-131453253D01*
X211343223Y-131436777D01*
X211326747Y-131418599D01*
X211312132Y-131398893D01*
X211299520Y-131377850D01*
X211289030Y-131355671D01*
X211280765Y-131332572D01*
X211274804Y-131308773D01*
X211271204Y-131284505D01*
X211270000Y-131260001D01*
X211270000Y-130359999D01*
X211271204Y-130335495D01*
X211274804Y-130311227D01*
X211280765Y-130287428D01*
X211289030Y-130264329D01*
X211299520Y-130242150D01*
X211312132Y-130221107D01*
X211326747Y-130201401D01*
X211343223Y-130183223D01*
X211361401Y-130166747D01*
X211381107Y-130152132D01*
X211402150Y-130139520D01*
X211424329Y-130129030D01*
X211447428Y-130120765D01*
X211471227Y-130114804D01*
X211495495Y-130111204D01*
X211519999Y-130110000D01*
X212170001Y-130110000D01*
X212194505Y-130111204D01*
G37*
D10*
X187450000Y-134620000D03*
X184150000Y-134620000D03*
X182370000Y-134620000D03*
X179070000Y-134620000D03*
D11*
G36*
X199249505Y-126301204D02*
G01*
X199273773Y-126304804D01*
X199297572Y-126310765D01*
X199320671Y-126319030D01*
X199342850Y-126329520D01*
X199363893Y-126342132D01*
X199383599Y-126356747D01*
X199401777Y-126373223D01*
X199418253Y-126391401D01*
X199432868Y-126411107D01*
X199445480Y-126432150D01*
X199455970Y-126454329D01*
X199464235Y-126477428D01*
X199470196Y-126501227D01*
X199473796Y-126525495D01*
X199475000Y-126549999D01*
X199475000Y-127450001D01*
X199473796Y-127474505D01*
X199470196Y-127498773D01*
X199464235Y-127522572D01*
X199455970Y-127545671D01*
X199445480Y-127567850D01*
X199432868Y-127588893D01*
X199418253Y-127608599D01*
X199401777Y-127626777D01*
X199383599Y-127643253D01*
X199363893Y-127657868D01*
X199342850Y-127670480D01*
X199320671Y-127680970D01*
X199297572Y-127689235D01*
X199273773Y-127695196D01*
X199249505Y-127698796D01*
X199225001Y-127700000D01*
X198574999Y-127700000D01*
X198550495Y-127698796D01*
X198526227Y-127695196D01*
X198502428Y-127689235D01*
X198479329Y-127680970D01*
X198457150Y-127670480D01*
X198436107Y-127657868D01*
X198416401Y-127643253D01*
X198398223Y-127626777D01*
X198381747Y-127608599D01*
X198367132Y-127588893D01*
X198354520Y-127567850D01*
X198344030Y-127545671D01*
X198335765Y-127522572D01*
X198329804Y-127498773D01*
X198326204Y-127474505D01*
X198325000Y-127450001D01*
X198325000Y-126549999D01*
X198326204Y-126525495D01*
X198329804Y-126501227D01*
X198335765Y-126477428D01*
X198344030Y-126454329D01*
X198354520Y-126432150D01*
X198367132Y-126411107D01*
X198381747Y-126391401D01*
X198398223Y-126373223D01*
X198416401Y-126356747D01*
X198436107Y-126342132D01*
X198457150Y-126329520D01*
X198479329Y-126319030D01*
X198502428Y-126310765D01*
X198526227Y-126304804D01*
X198550495Y-126301204D01*
X198574999Y-126300000D01*
X199225001Y-126300000D01*
X199249505Y-126301204D01*
G37*
G36*
X197199505Y-126301204D02*
G01*
X197223773Y-126304804D01*
X197247572Y-126310765D01*
X197270671Y-126319030D01*
X197292850Y-126329520D01*
X197313893Y-126342132D01*
X197333599Y-126356747D01*
X197351777Y-126373223D01*
X197368253Y-126391401D01*
X197382868Y-126411107D01*
X197395480Y-126432150D01*
X197405970Y-126454329D01*
X197414235Y-126477428D01*
X197420196Y-126501227D01*
X197423796Y-126525495D01*
X197425000Y-126549999D01*
X197425000Y-127450001D01*
X197423796Y-127474505D01*
X197420196Y-127498773D01*
X197414235Y-127522572D01*
X197405970Y-127545671D01*
X197395480Y-127567850D01*
X197382868Y-127588893D01*
X197368253Y-127608599D01*
X197351777Y-127626777D01*
X197333599Y-127643253D01*
X197313893Y-127657868D01*
X197292850Y-127670480D01*
X197270671Y-127680970D01*
X197247572Y-127689235D01*
X197223773Y-127695196D01*
X197199505Y-127698796D01*
X197175001Y-127700000D01*
X196524999Y-127700000D01*
X196500495Y-127698796D01*
X196476227Y-127695196D01*
X196452428Y-127689235D01*
X196429329Y-127680970D01*
X196407150Y-127670480D01*
X196386107Y-127657868D01*
X196366401Y-127643253D01*
X196348223Y-127626777D01*
X196331747Y-127608599D01*
X196317132Y-127588893D01*
X196304520Y-127567850D01*
X196294030Y-127545671D01*
X196285765Y-127522572D01*
X196279804Y-127498773D01*
X196276204Y-127474505D01*
X196275000Y-127450001D01*
X196275000Y-126549999D01*
X196276204Y-126525495D01*
X196279804Y-126501227D01*
X196285765Y-126477428D01*
X196294030Y-126454329D01*
X196304520Y-126432150D01*
X196317132Y-126411107D01*
X196331747Y-126391401D01*
X196348223Y-126373223D01*
X196366401Y-126356747D01*
X196386107Y-126342132D01*
X196407150Y-126329520D01*
X196429329Y-126319030D01*
X196452428Y-126310765D01*
X196476227Y-126304804D01*
X196500495Y-126301204D01*
X196524999Y-126300000D01*
X197175001Y-126300000D01*
X197199505Y-126301204D01*
G37*
G36*
X197199505Y-130111204D02*
G01*
X197223773Y-130114804D01*
X197247572Y-130120765D01*
X197270671Y-130129030D01*
X197292850Y-130139520D01*
X197313893Y-130152132D01*
X197333599Y-130166747D01*
X197351777Y-130183223D01*
X197368253Y-130201401D01*
X197382868Y-130221107D01*
X197395480Y-130242150D01*
X197405970Y-130264329D01*
X197414235Y-130287428D01*
X197420196Y-130311227D01*
X197423796Y-130335495D01*
X197425000Y-130359999D01*
X197425000Y-131260001D01*
X197423796Y-131284505D01*
X197420196Y-131308773D01*
X197414235Y-131332572D01*
X197405970Y-131355671D01*
X197395480Y-131377850D01*
X197382868Y-131398893D01*
X197368253Y-131418599D01*
X197351777Y-131436777D01*
X197333599Y-131453253D01*
X197313893Y-131467868D01*
X197292850Y-131480480D01*
X197270671Y-131490970D01*
X197247572Y-131499235D01*
X197223773Y-131505196D01*
X197199505Y-131508796D01*
X197175001Y-131510000D01*
X196524999Y-131510000D01*
X196500495Y-131508796D01*
X196476227Y-131505196D01*
X196452428Y-131499235D01*
X196429329Y-131490970D01*
X196407150Y-131480480D01*
X196386107Y-131467868D01*
X196366401Y-131453253D01*
X196348223Y-131436777D01*
X196331747Y-131418599D01*
X196317132Y-131398893D01*
X196304520Y-131377850D01*
X196294030Y-131355671D01*
X196285765Y-131332572D01*
X196279804Y-131308773D01*
X196276204Y-131284505D01*
X196275000Y-131260001D01*
X196275000Y-130359999D01*
X196276204Y-130335495D01*
X196279804Y-130311227D01*
X196285765Y-130287428D01*
X196294030Y-130264329D01*
X196304520Y-130242150D01*
X196317132Y-130221107D01*
X196331747Y-130201401D01*
X196348223Y-130183223D01*
X196366401Y-130166747D01*
X196386107Y-130152132D01*
X196407150Y-130139520D01*
X196429329Y-130129030D01*
X196452428Y-130120765D01*
X196476227Y-130114804D01*
X196500495Y-130111204D01*
X196524999Y-130110000D01*
X197175001Y-130110000D01*
X197199505Y-130111204D01*
G37*
G36*
X199249505Y-130111204D02*
G01*
X199273773Y-130114804D01*
X199297572Y-130120765D01*
X199320671Y-130129030D01*
X199342850Y-130139520D01*
X199363893Y-130152132D01*
X199383599Y-130166747D01*
X199401777Y-130183223D01*
X199418253Y-130201401D01*
X199432868Y-130221107D01*
X199445480Y-130242150D01*
X199455970Y-130264329D01*
X199464235Y-130287428D01*
X199470196Y-130311227D01*
X199473796Y-130335495D01*
X199475000Y-130359999D01*
X199475000Y-131260001D01*
X199473796Y-131284505D01*
X199470196Y-131308773D01*
X199464235Y-131332572D01*
X199455970Y-131355671D01*
X199445480Y-131377850D01*
X199432868Y-131398893D01*
X199418253Y-131418599D01*
X199401777Y-131436777D01*
X199383599Y-131453253D01*
X199363893Y-131467868D01*
X199342850Y-131480480D01*
X199320671Y-131490970D01*
X199297572Y-131499235D01*
X199273773Y-131505196D01*
X199249505Y-131508796D01*
X199225001Y-131510000D01*
X198574999Y-131510000D01*
X198550495Y-131508796D01*
X198526227Y-131505196D01*
X198502428Y-131499235D01*
X198479329Y-131490970D01*
X198457150Y-131480480D01*
X198436107Y-131467868D01*
X198416401Y-131453253D01*
X198398223Y-131436777D01*
X198381747Y-131418599D01*
X198367132Y-131398893D01*
X198354520Y-131377850D01*
X198344030Y-131355671D01*
X198335765Y-131332572D01*
X198329804Y-131308773D01*
X198326204Y-131284505D01*
X198325000Y-131260001D01*
X198325000Y-130359999D01*
X198326204Y-130335495D01*
X198329804Y-130311227D01*
X198335765Y-130287428D01*
X198344030Y-130264329D01*
X198354520Y-130242150D01*
X198367132Y-130221107D01*
X198381747Y-130201401D01*
X198398223Y-130183223D01*
X198416401Y-130166747D01*
X198436107Y-130152132D01*
X198457150Y-130139520D01*
X198479329Y-130129030D01*
X198502428Y-130120765D01*
X198526227Y-130114804D01*
X198550495Y-130111204D01*
X198574999Y-130110000D01*
X199225001Y-130110000D01*
X199249505Y-130111204D01*
G37*
D10*
X183770000Y-123190000D03*
X187070000Y-123190000D03*
X184150000Y-138430000D03*
X187450000Y-138430000D03*
D15*
X204470000Y-129140000D03*
X204470000Y-129940000D03*
D16*
X205420000Y-129790000D03*
X205420000Y-130290000D03*
X203520000Y-130290000D03*
X203520000Y-129290000D03*
X203520000Y-128790000D03*
X205420000Y-128790000D03*
X205420000Y-129290000D03*
X203520000Y-129790000D03*
D10*
X187070000Y-119380000D03*
X183770000Y-119380000D03*
M02*
