M48
; DRILL file {KiCad 5.1.5-52549c5~84~ubuntu18.04.1} date Sun 29 Dec 2019 09:20:47 ACST
; FORMAT={-:-/ absolute / metric / decimal}
; #@! TF.CreationDate,2019-12-29T09:20:47+09:30
; #@! TF.GenerationSoftware,Kicad,Pcbnew,5.1.5-52549c5~84~ubuntu18.04.1
; #@! TF.FileFunction,Plated,1,2,PTH
FMAT,2
METRIC
T1C0.400
T2C1.016
T3C1.500
T4C1.700
%
G90
G05
T1
X154.94Y-106.68
X160.02Y-102.87
X163.83Y-110.49
X168.91Y-93.98
X168.91Y-96.52
X168.91Y-109.22
X173.99Y-86.36
X179.07Y-95.25
X181.61Y-87.63
X181.61Y-104.14
X181.61Y-107.95
X186.69Y-87.63
X193.04Y-100.33
T2
X203.2Y-93.98
X203.2Y-96.52
X203.2Y-99.06
X203.2Y-101.6
X203.2Y-104.14
X205.74Y-93.98
X205.74Y-96.52
X205.74Y-99.06
X205.74Y-101.6
X205.74Y-104.14
T3
X157.48Y-90.17
T4
X154.94Y-87.63
X154.94Y-92.71
X160.02Y-87.63
X160.02Y-92.71
T0
M30
