G04 #@! TF.GenerationSoftware,KiCad,Pcbnew,5.1.5-52549c5~84~ubuntu18.04.1*
G04 #@! TF.CreationDate,2019-12-29T09:20:39+09:30*
G04 #@! TF.ProjectId,SpectrumAnalyser,53706563-7472-4756-9d41-6e616c797365,rev?*
G04 #@! TF.SameCoordinates,Original*
G04 #@! TF.FileFunction,Soldermask,Bot*
G04 #@! TF.FilePolarity,Negative*
%FSLAX46Y46*%
G04 Gerber Fmt 4.6, Leading zero omitted, Abs format (unit mm)*
G04 Created by KiCad (PCBNEW 5.1.5-52549c5~84~ubuntu18.04.1) date 2019-12-29 09:20:39*
%MOMM*%
%LPD*%
G04 APERTURE LIST*
%ADD10C,0.100000*%
G04 APERTURE END LIST*
D10*
G36*
X212465256Y-113961298D02*
G01*
X212571579Y-113982447D01*
X212872042Y-114106903D01*
X213142451Y-114287585D01*
X213372415Y-114517549D01*
X213553097Y-114787958D01*
X213677553Y-115088421D01*
X213741000Y-115407391D01*
X213741000Y-115732609D01*
X213677553Y-116051579D01*
X213553097Y-116352042D01*
X213372415Y-116622451D01*
X213142451Y-116852415D01*
X212872042Y-117033097D01*
X212571579Y-117157553D01*
X212465256Y-117178702D01*
X212252611Y-117221000D01*
X211927389Y-117221000D01*
X211714744Y-117178702D01*
X211608421Y-117157553D01*
X211307958Y-117033097D01*
X211037549Y-116852415D01*
X210807585Y-116622451D01*
X210626903Y-116352042D01*
X210502447Y-116051579D01*
X210439000Y-115732609D01*
X210439000Y-115407391D01*
X210502447Y-115088421D01*
X210626903Y-114787958D01*
X210807585Y-114517549D01*
X211037549Y-114287585D01*
X211307958Y-114106903D01*
X211608421Y-113982447D01*
X211714744Y-113961298D01*
X211927389Y-113919000D01*
X212252611Y-113919000D01*
X212465256Y-113961298D01*
G37*
G36*
X150235256Y-113961298D02*
G01*
X150341579Y-113982447D01*
X150642042Y-114106903D01*
X150912451Y-114287585D01*
X151142415Y-114517549D01*
X151323097Y-114787958D01*
X151447553Y-115088421D01*
X151511000Y-115407391D01*
X151511000Y-115732609D01*
X151447553Y-116051579D01*
X151323097Y-116352042D01*
X151142415Y-116622451D01*
X150912451Y-116852415D01*
X150642042Y-117033097D01*
X150341579Y-117157553D01*
X150235256Y-117178702D01*
X150022611Y-117221000D01*
X149697389Y-117221000D01*
X149484744Y-117178702D01*
X149378421Y-117157553D01*
X149077958Y-117033097D01*
X148807549Y-116852415D01*
X148577585Y-116622451D01*
X148396903Y-116352042D01*
X148272447Y-116051579D01*
X148209000Y-115732609D01*
X148209000Y-115407391D01*
X148272447Y-115088421D01*
X148396903Y-114787958D01*
X148577585Y-114517549D01*
X148807549Y-114287585D01*
X149077958Y-114106903D01*
X149378421Y-113982447D01*
X149484744Y-113961298D01*
X149697389Y-113919000D01*
X150022611Y-113919000D01*
X150235256Y-113961298D01*
G37*
G36*
X206006778Y-103260547D02*
G01*
X206173224Y-103329491D01*
X206323022Y-103429583D01*
X206450417Y-103556978D01*
X206550509Y-103706776D01*
X206619453Y-103873222D01*
X206654600Y-104049918D01*
X206654600Y-104230082D01*
X206619453Y-104406778D01*
X206550509Y-104573224D01*
X206450417Y-104723022D01*
X206323022Y-104850417D01*
X206173224Y-104950509D01*
X206006778Y-105019453D01*
X205830082Y-105054600D01*
X205649918Y-105054600D01*
X205473222Y-105019453D01*
X205306776Y-104950509D01*
X205156978Y-104850417D01*
X205029583Y-104723022D01*
X204929491Y-104573224D01*
X204860547Y-104406778D01*
X204825400Y-104230082D01*
X204825400Y-104049918D01*
X204860547Y-103873222D01*
X204929491Y-103706776D01*
X205029583Y-103556978D01*
X205156978Y-103429583D01*
X205306776Y-103329491D01*
X205473222Y-103260547D01*
X205649918Y-103225400D01*
X205830082Y-103225400D01*
X206006778Y-103260547D01*
G37*
G36*
X203466778Y-103260547D02*
G01*
X203633224Y-103329491D01*
X203783022Y-103429583D01*
X203910417Y-103556978D01*
X204010509Y-103706776D01*
X204079453Y-103873222D01*
X204114600Y-104049918D01*
X204114600Y-104230082D01*
X204079453Y-104406778D01*
X204010509Y-104573224D01*
X203910417Y-104723022D01*
X203783022Y-104850417D01*
X203633224Y-104950509D01*
X203466778Y-105019453D01*
X203290082Y-105054600D01*
X203109918Y-105054600D01*
X202933222Y-105019453D01*
X202766776Y-104950509D01*
X202616978Y-104850417D01*
X202489583Y-104723022D01*
X202389491Y-104573224D01*
X202320547Y-104406778D01*
X202285400Y-104230082D01*
X202285400Y-104049918D01*
X202320547Y-103873222D01*
X202389491Y-103706776D01*
X202489583Y-103556978D01*
X202616978Y-103429583D01*
X202766776Y-103329491D01*
X202933222Y-103260547D01*
X203109918Y-103225400D01*
X203290082Y-103225400D01*
X203466778Y-103260547D01*
G37*
G36*
X206006778Y-100720547D02*
G01*
X206173224Y-100789491D01*
X206323022Y-100889583D01*
X206450417Y-101016978D01*
X206550509Y-101166776D01*
X206619453Y-101333222D01*
X206654600Y-101509918D01*
X206654600Y-101690082D01*
X206619453Y-101866778D01*
X206550509Y-102033224D01*
X206450417Y-102183022D01*
X206323022Y-102310417D01*
X206173224Y-102410509D01*
X206006778Y-102479453D01*
X205830082Y-102514600D01*
X205649918Y-102514600D01*
X205473222Y-102479453D01*
X205306776Y-102410509D01*
X205156978Y-102310417D01*
X205029583Y-102183022D01*
X204929491Y-102033224D01*
X204860547Y-101866778D01*
X204825400Y-101690082D01*
X204825400Y-101509918D01*
X204860547Y-101333222D01*
X204929491Y-101166776D01*
X205029583Y-101016978D01*
X205156978Y-100889583D01*
X205306776Y-100789491D01*
X205473222Y-100720547D01*
X205649918Y-100685400D01*
X205830082Y-100685400D01*
X206006778Y-100720547D01*
G37*
G36*
X203466778Y-100720547D02*
G01*
X203633224Y-100789491D01*
X203783022Y-100889583D01*
X203910417Y-101016978D01*
X204010509Y-101166776D01*
X204079453Y-101333222D01*
X204114600Y-101509918D01*
X204114600Y-101690082D01*
X204079453Y-101866778D01*
X204010509Y-102033224D01*
X203910417Y-102183022D01*
X203783022Y-102310417D01*
X203633224Y-102410509D01*
X203466778Y-102479453D01*
X203290082Y-102514600D01*
X203109918Y-102514600D01*
X202933222Y-102479453D01*
X202766776Y-102410509D01*
X202616978Y-102310417D01*
X202489583Y-102183022D01*
X202389491Y-102033224D01*
X202320547Y-101866778D01*
X202285400Y-101690082D01*
X202285400Y-101509918D01*
X202320547Y-101333222D01*
X202389491Y-101166776D01*
X202489583Y-101016978D01*
X202616978Y-100889583D01*
X202766776Y-100789491D01*
X202933222Y-100720547D01*
X203109918Y-100685400D01*
X203290082Y-100685400D01*
X203466778Y-100720547D01*
G37*
G36*
X206006778Y-98180547D02*
G01*
X206173224Y-98249491D01*
X206323022Y-98349583D01*
X206450417Y-98476978D01*
X206550509Y-98626776D01*
X206619453Y-98793222D01*
X206654600Y-98969918D01*
X206654600Y-99150082D01*
X206619453Y-99326778D01*
X206550509Y-99493224D01*
X206450417Y-99643022D01*
X206323022Y-99770417D01*
X206173224Y-99870509D01*
X206006778Y-99939453D01*
X205830082Y-99974600D01*
X205649918Y-99974600D01*
X205473222Y-99939453D01*
X205306776Y-99870509D01*
X205156978Y-99770417D01*
X205029583Y-99643022D01*
X204929491Y-99493224D01*
X204860547Y-99326778D01*
X204825400Y-99150082D01*
X204825400Y-98969918D01*
X204860547Y-98793222D01*
X204929491Y-98626776D01*
X205029583Y-98476978D01*
X205156978Y-98349583D01*
X205306776Y-98249491D01*
X205473222Y-98180547D01*
X205649918Y-98145400D01*
X205830082Y-98145400D01*
X206006778Y-98180547D01*
G37*
G36*
X203466778Y-98180547D02*
G01*
X203633224Y-98249491D01*
X203783022Y-98349583D01*
X203910417Y-98476978D01*
X204010509Y-98626776D01*
X204079453Y-98793222D01*
X204114600Y-98969918D01*
X204114600Y-99150082D01*
X204079453Y-99326778D01*
X204010509Y-99493224D01*
X203910417Y-99643022D01*
X203783022Y-99770417D01*
X203633224Y-99870509D01*
X203466778Y-99939453D01*
X203290082Y-99974600D01*
X203109918Y-99974600D01*
X202933222Y-99939453D01*
X202766776Y-99870509D01*
X202616978Y-99770417D01*
X202489583Y-99643022D01*
X202389491Y-99493224D01*
X202320547Y-99326778D01*
X202285400Y-99150082D01*
X202285400Y-98969918D01*
X202320547Y-98793222D01*
X202389491Y-98626776D01*
X202489583Y-98476978D01*
X202616978Y-98349583D01*
X202766776Y-98249491D01*
X202933222Y-98180547D01*
X203109918Y-98145400D01*
X203290082Y-98145400D01*
X203466778Y-98180547D01*
G37*
G36*
X206006778Y-95640547D02*
G01*
X206173224Y-95709491D01*
X206323022Y-95809583D01*
X206450417Y-95936978D01*
X206550509Y-96086776D01*
X206619453Y-96253222D01*
X206654600Y-96429918D01*
X206654600Y-96610082D01*
X206619453Y-96786778D01*
X206550509Y-96953224D01*
X206450417Y-97103022D01*
X206323022Y-97230417D01*
X206173224Y-97330509D01*
X206006778Y-97399453D01*
X205830082Y-97434600D01*
X205649918Y-97434600D01*
X205473222Y-97399453D01*
X205306776Y-97330509D01*
X205156978Y-97230417D01*
X205029583Y-97103022D01*
X204929491Y-96953224D01*
X204860547Y-96786778D01*
X204825400Y-96610082D01*
X204825400Y-96429918D01*
X204860547Y-96253222D01*
X204929491Y-96086776D01*
X205029583Y-95936978D01*
X205156978Y-95809583D01*
X205306776Y-95709491D01*
X205473222Y-95640547D01*
X205649918Y-95605400D01*
X205830082Y-95605400D01*
X206006778Y-95640547D01*
G37*
G36*
X203466778Y-95640547D02*
G01*
X203633224Y-95709491D01*
X203783022Y-95809583D01*
X203910417Y-95936978D01*
X204010509Y-96086776D01*
X204079453Y-96253222D01*
X204114600Y-96429918D01*
X204114600Y-96610082D01*
X204079453Y-96786778D01*
X204010509Y-96953224D01*
X203910417Y-97103022D01*
X203783022Y-97230417D01*
X203633224Y-97330509D01*
X203466778Y-97399453D01*
X203290082Y-97434600D01*
X203109918Y-97434600D01*
X202933222Y-97399453D01*
X202766776Y-97330509D01*
X202616978Y-97230417D01*
X202489583Y-97103022D01*
X202389491Y-96953224D01*
X202320547Y-96786778D01*
X202285400Y-96610082D01*
X202285400Y-96429918D01*
X202320547Y-96253222D01*
X202389491Y-96086776D01*
X202489583Y-95936978D01*
X202616978Y-95809583D01*
X202766776Y-95709491D01*
X202933222Y-95640547D01*
X203109918Y-95605400D01*
X203290082Y-95605400D01*
X203466778Y-95640547D01*
G37*
G36*
X204114600Y-94894600D02*
G01*
X202285400Y-94894600D01*
X202285400Y-93065400D01*
X204114600Y-93065400D01*
X204114600Y-94894600D01*
G37*
G36*
X206006778Y-93100547D02*
G01*
X206173224Y-93169491D01*
X206323022Y-93269583D01*
X206450417Y-93396978D01*
X206550509Y-93546776D01*
X206619453Y-93713222D01*
X206654600Y-93889918D01*
X206654600Y-94070082D01*
X206619453Y-94246778D01*
X206550509Y-94413224D01*
X206450417Y-94563022D01*
X206323022Y-94690417D01*
X206173224Y-94790509D01*
X206006778Y-94859453D01*
X205830082Y-94894600D01*
X205649918Y-94894600D01*
X205473222Y-94859453D01*
X205306776Y-94790509D01*
X205156978Y-94690417D01*
X205029583Y-94563022D01*
X204929491Y-94413224D01*
X204860547Y-94246778D01*
X204825400Y-94070082D01*
X204825400Y-93889918D01*
X204860547Y-93713222D01*
X204929491Y-93546776D01*
X205029583Y-93396978D01*
X205156978Y-93269583D01*
X205306776Y-93169491D01*
X205473222Y-93100547D01*
X205649918Y-93065400D01*
X205830082Y-93065400D01*
X206006778Y-93100547D01*
G37*
G36*
X160211560Y-91549064D02*
G01*
X160363027Y-91579193D01*
X160577045Y-91667842D01*
X160577046Y-91667843D01*
X160769654Y-91796539D01*
X160933461Y-91960346D01*
X161019258Y-92088751D01*
X161062158Y-92152955D01*
X161150807Y-92366973D01*
X161196000Y-92594174D01*
X161196000Y-92825826D01*
X161150807Y-93053027D01*
X161062158Y-93267045D01*
X161062157Y-93267046D01*
X160933461Y-93459654D01*
X160769654Y-93623461D01*
X160641249Y-93709258D01*
X160577045Y-93752158D01*
X160363027Y-93840807D01*
X160211560Y-93870936D01*
X160135827Y-93886000D01*
X159904173Y-93886000D01*
X159828440Y-93870936D01*
X159676973Y-93840807D01*
X159462955Y-93752158D01*
X159398751Y-93709258D01*
X159270346Y-93623461D01*
X159106539Y-93459654D01*
X158977843Y-93267046D01*
X158977842Y-93267045D01*
X158889193Y-93053027D01*
X158844000Y-92825826D01*
X158844000Y-92594174D01*
X158889193Y-92366973D01*
X158977842Y-92152955D01*
X159020742Y-92088751D01*
X159106539Y-91960346D01*
X159270346Y-91796539D01*
X159462954Y-91667843D01*
X159462955Y-91667842D01*
X159676973Y-91579193D01*
X159828440Y-91549064D01*
X159904173Y-91534000D01*
X160135827Y-91534000D01*
X160211560Y-91549064D01*
G37*
G36*
X155131560Y-91549064D02*
G01*
X155283027Y-91579193D01*
X155497045Y-91667842D01*
X155497046Y-91667843D01*
X155689654Y-91796539D01*
X155853461Y-91960346D01*
X155939258Y-92088751D01*
X155982158Y-92152955D01*
X156070807Y-92366973D01*
X156116000Y-92594174D01*
X156116000Y-92825826D01*
X156070807Y-93053027D01*
X155982158Y-93267045D01*
X155982157Y-93267046D01*
X155853461Y-93459654D01*
X155689654Y-93623461D01*
X155561249Y-93709258D01*
X155497045Y-93752158D01*
X155283027Y-93840807D01*
X155131560Y-93870936D01*
X155055827Y-93886000D01*
X154824173Y-93886000D01*
X154748440Y-93870936D01*
X154596973Y-93840807D01*
X154382955Y-93752158D01*
X154318751Y-93709258D01*
X154190346Y-93623461D01*
X154026539Y-93459654D01*
X153897843Y-93267046D01*
X153897842Y-93267045D01*
X153809193Y-93053027D01*
X153764000Y-92825826D01*
X153764000Y-92594174D01*
X153809193Y-92366973D01*
X153897842Y-92152955D01*
X153940742Y-92088751D01*
X154026539Y-91960346D01*
X154190346Y-91796539D01*
X154382954Y-91667843D01*
X154382955Y-91667842D01*
X154596973Y-91579193D01*
X154748440Y-91549064D01*
X154824173Y-91534000D01*
X155055827Y-91534000D01*
X155131560Y-91549064D01*
G37*
G36*
X157655271Y-89107783D02*
G01*
X157793858Y-89135350D01*
X157989677Y-89216461D01*
X158165910Y-89334216D01*
X158315784Y-89484090D01*
X158433539Y-89660323D01*
X158514650Y-89856142D01*
X158556000Y-90064023D01*
X158556000Y-90275977D01*
X158514650Y-90483858D01*
X158433539Y-90679677D01*
X158315784Y-90855910D01*
X158165910Y-91005784D01*
X157989677Y-91123539D01*
X157793858Y-91204650D01*
X157655271Y-91232217D01*
X157585978Y-91246000D01*
X157374022Y-91246000D01*
X157304729Y-91232217D01*
X157166142Y-91204650D01*
X156970323Y-91123539D01*
X156794090Y-91005784D01*
X156644216Y-90855910D01*
X156526461Y-90679677D01*
X156445350Y-90483858D01*
X156404000Y-90275977D01*
X156404000Y-90064023D01*
X156445350Y-89856142D01*
X156526461Y-89660323D01*
X156644216Y-89484090D01*
X156794090Y-89334216D01*
X156970323Y-89216461D01*
X157166142Y-89135350D01*
X157304729Y-89107783D01*
X157374022Y-89094000D01*
X157585978Y-89094000D01*
X157655271Y-89107783D01*
G37*
G36*
X160211560Y-86469064D02*
G01*
X160363027Y-86499193D01*
X160577045Y-86587842D01*
X160577046Y-86587843D01*
X160769654Y-86716539D01*
X160933461Y-86880346D01*
X161019258Y-87008751D01*
X161062158Y-87072955D01*
X161150807Y-87286973D01*
X161196000Y-87514174D01*
X161196000Y-87745826D01*
X161150807Y-87973027D01*
X161062158Y-88187045D01*
X161062157Y-88187046D01*
X160933461Y-88379654D01*
X160769654Y-88543461D01*
X160641249Y-88629258D01*
X160577045Y-88672158D01*
X160363027Y-88760807D01*
X160211560Y-88790936D01*
X160135827Y-88806000D01*
X159904173Y-88806000D01*
X159828440Y-88790936D01*
X159676973Y-88760807D01*
X159462955Y-88672158D01*
X159398751Y-88629258D01*
X159270346Y-88543461D01*
X159106539Y-88379654D01*
X158977843Y-88187046D01*
X158977842Y-88187045D01*
X158889193Y-87973027D01*
X158844000Y-87745826D01*
X158844000Y-87514174D01*
X158889193Y-87286973D01*
X158977842Y-87072955D01*
X159020742Y-87008751D01*
X159106539Y-86880346D01*
X159270346Y-86716539D01*
X159462954Y-86587843D01*
X159462955Y-86587842D01*
X159676973Y-86499193D01*
X159828440Y-86469064D01*
X159904173Y-86454000D01*
X160135827Y-86454000D01*
X160211560Y-86469064D01*
G37*
G36*
X155131560Y-86469064D02*
G01*
X155283027Y-86499193D01*
X155497045Y-86587842D01*
X155497046Y-86587843D01*
X155689654Y-86716539D01*
X155853461Y-86880346D01*
X155939258Y-87008751D01*
X155982158Y-87072955D01*
X156070807Y-87286973D01*
X156116000Y-87514174D01*
X156116000Y-87745826D01*
X156070807Y-87973027D01*
X155982158Y-88187045D01*
X155982157Y-88187046D01*
X155853461Y-88379654D01*
X155689654Y-88543461D01*
X155561249Y-88629258D01*
X155497045Y-88672158D01*
X155283027Y-88760807D01*
X155131560Y-88790936D01*
X155055827Y-88806000D01*
X154824173Y-88806000D01*
X154748440Y-88790936D01*
X154596973Y-88760807D01*
X154382955Y-88672158D01*
X154318751Y-88629258D01*
X154190346Y-88543461D01*
X154026539Y-88379654D01*
X153897843Y-88187046D01*
X153897842Y-88187045D01*
X153809193Y-87973027D01*
X153764000Y-87745826D01*
X153764000Y-87514174D01*
X153809193Y-87286973D01*
X153897842Y-87072955D01*
X153940742Y-87008751D01*
X154026539Y-86880346D01*
X154190346Y-86716539D01*
X154382954Y-86587843D01*
X154382955Y-86587842D01*
X154596973Y-86499193D01*
X154748440Y-86469064D01*
X154824173Y-86454000D01*
X155055827Y-86454000D01*
X155131560Y-86469064D01*
G37*
G36*
X150235256Y-80941298D02*
G01*
X150341579Y-80962447D01*
X150642042Y-81086903D01*
X150912451Y-81267585D01*
X151142415Y-81497549D01*
X151323097Y-81767958D01*
X151447553Y-82068421D01*
X151511000Y-82387391D01*
X151511000Y-82712609D01*
X151447553Y-83031579D01*
X151323097Y-83332042D01*
X151142415Y-83602451D01*
X150912451Y-83832415D01*
X150642042Y-84013097D01*
X150341579Y-84137553D01*
X150235256Y-84158702D01*
X150022611Y-84201000D01*
X149697389Y-84201000D01*
X149484744Y-84158702D01*
X149378421Y-84137553D01*
X149077958Y-84013097D01*
X148807549Y-83832415D01*
X148577585Y-83602451D01*
X148396903Y-83332042D01*
X148272447Y-83031579D01*
X148209000Y-82712609D01*
X148209000Y-82387391D01*
X148272447Y-82068421D01*
X148396903Y-81767958D01*
X148577585Y-81497549D01*
X148807549Y-81267585D01*
X149077958Y-81086903D01*
X149378421Y-80962447D01*
X149484744Y-80941298D01*
X149697389Y-80899000D01*
X150022611Y-80899000D01*
X150235256Y-80941298D01*
G37*
G36*
X212465256Y-80941298D02*
G01*
X212571579Y-80962447D01*
X212872042Y-81086903D01*
X213142451Y-81267585D01*
X213372415Y-81497549D01*
X213553097Y-81767958D01*
X213677553Y-82068421D01*
X213741000Y-82387391D01*
X213741000Y-82712609D01*
X213677553Y-83031579D01*
X213553097Y-83332042D01*
X213372415Y-83602451D01*
X213142451Y-83832415D01*
X212872042Y-84013097D01*
X212571579Y-84137553D01*
X212465256Y-84158702D01*
X212252611Y-84201000D01*
X211927389Y-84201000D01*
X211714744Y-84158702D01*
X211608421Y-84137553D01*
X211307958Y-84013097D01*
X211037549Y-83832415D01*
X210807585Y-83602451D01*
X210626903Y-83332042D01*
X210502447Y-83031579D01*
X210439000Y-82712609D01*
X210439000Y-82387391D01*
X210502447Y-82068421D01*
X210626903Y-81767958D01*
X210807585Y-81497549D01*
X211037549Y-81267585D01*
X211307958Y-81086903D01*
X211608421Y-80962447D01*
X211714744Y-80941298D01*
X211927389Y-80899000D01*
X212252611Y-80899000D01*
X212465256Y-80941298D01*
G37*
M02*
