G04 #@! TF.GenerationSoftware,KiCad,Pcbnew,5.1.5-52549c5~84~ubuntu18.04.1*
G04 #@! TF.CreationDate,2019-12-29T09:20:39+09:30*
G04 #@! TF.ProjectId,SpectrumAnalyser,53706563-7472-4756-9d41-6e616c797365,rev?*
G04 #@! TF.SameCoordinates,Original*
G04 #@! TF.FileFunction,Copper,L2,Bot*
G04 #@! TF.FilePolarity,Positive*
%FSLAX46Y46*%
G04 Gerber Fmt 4.6, Leading zero omitted, Abs format (unit mm)*
G04 Created by KiCad (PCBNEW 5.1.5-52549c5~84~ubuntu18.04.1) date 2019-12-29 09:20:39*
%MOMM*%
%LPD*%
G04 APERTURE LIST*
%ADD10C,2.050000*%
%ADD11C,2.250000*%
%ADD12R,1.727200X1.727200*%
%ADD13O,1.727200X1.727200*%
%ADD14C,0.800000*%
%ADD15C,0.254000*%
G04 APERTURE END LIST*
D10*
X157480000Y-90170000D03*
D11*
X160020000Y-92710000D03*
X160020000Y-87630000D03*
X154940000Y-87630000D03*
X154940000Y-92710000D03*
D12*
X203200000Y-93980000D03*
D13*
X205740000Y-93980000D03*
X203200000Y-96520000D03*
X205740000Y-96520000D03*
X203200000Y-99060000D03*
X205740000Y-99060000D03*
X203200000Y-101600000D03*
X205740000Y-101600000D03*
X203200000Y-104140000D03*
X205740000Y-104140000D03*
D14*
X173990000Y-86360000D03*
X181610000Y-104140000D03*
X181610000Y-107950000D03*
X193040000Y-100330000D03*
X179070000Y-95250000D03*
X168910000Y-96520000D03*
X163830000Y-110490000D03*
X154940000Y-106680000D03*
X160020000Y-102870000D03*
X168910000Y-93980000D03*
X186690000Y-87630000D03*
X181610000Y-87630000D03*
X168910000Y-109220000D03*
D15*
G36*
X209423000Y-112903000D02*
G01*
X152527000Y-112903000D01*
X152527000Y-93934531D01*
X153895074Y-93934531D01*
X154005921Y-94211714D01*
X154316840Y-94365089D01*
X154651705Y-94454860D01*
X154997650Y-94477576D01*
X155341380Y-94432366D01*
X155669685Y-94320966D01*
X155874079Y-94211714D01*
X155984926Y-93934531D01*
X158975074Y-93934531D01*
X159085921Y-94211714D01*
X159396840Y-94365089D01*
X159731705Y-94454860D01*
X160077650Y-94477576D01*
X160421380Y-94432366D01*
X160749685Y-94320966D01*
X160954079Y-94211714D01*
X161064926Y-93934531D01*
X160020000Y-92889605D01*
X158975074Y-93934531D01*
X155984926Y-93934531D01*
X154940000Y-92889605D01*
X153895074Y-93934531D01*
X152527000Y-93934531D01*
X152527000Y-92767650D01*
X153172424Y-92767650D01*
X153217634Y-93111380D01*
X153329034Y-93439685D01*
X153438286Y-93644079D01*
X153715469Y-93754926D01*
X154760395Y-92710000D01*
X155119605Y-92710000D01*
X156164531Y-93754926D01*
X156441714Y-93644079D01*
X156595089Y-93333160D01*
X156684860Y-92998295D01*
X156700004Y-92767650D01*
X158252424Y-92767650D01*
X158297634Y-93111380D01*
X158409034Y-93439685D01*
X158518286Y-93644079D01*
X158795469Y-93754926D01*
X159840395Y-92710000D01*
X160199605Y-92710000D01*
X161244531Y-93754926D01*
X161521714Y-93644079D01*
X161675089Y-93333160D01*
X161733198Y-93116400D01*
X201698328Y-93116400D01*
X201698328Y-94843600D01*
X201710588Y-94968082D01*
X201746898Y-95087780D01*
X201805863Y-95198094D01*
X201885215Y-95294785D01*
X201981906Y-95374137D01*
X202092220Y-95433102D01*
X202150023Y-95450636D01*
X202035961Y-95564698D01*
X201871958Y-95810147D01*
X201758990Y-96082875D01*
X201701400Y-96372401D01*
X201701400Y-96667599D01*
X201758990Y-96957125D01*
X201871958Y-97229853D01*
X202035961Y-97475302D01*
X202244698Y-97684039D01*
X202403281Y-97790000D01*
X202244698Y-97895961D01*
X202035961Y-98104698D01*
X201871958Y-98350147D01*
X201758990Y-98622875D01*
X201701400Y-98912401D01*
X201701400Y-99207599D01*
X201758990Y-99497125D01*
X201871958Y-99769853D01*
X202035961Y-100015302D01*
X202244698Y-100224039D01*
X202403281Y-100330000D01*
X202244698Y-100435961D01*
X202035961Y-100644698D01*
X201871958Y-100890147D01*
X201758990Y-101162875D01*
X201701400Y-101452401D01*
X201701400Y-101747599D01*
X201758990Y-102037125D01*
X201871958Y-102309853D01*
X202035961Y-102555302D01*
X202244698Y-102764039D01*
X202403281Y-102870000D01*
X202244698Y-102975961D01*
X202035961Y-103184698D01*
X201871958Y-103430147D01*
X201758990Y-103702875D01*
X201701400Y-103992401D01*
X201701400Y-104287599D01*
X201758990Y-104577125D01*
X201871958Y-104849853D01*
X202035961Y-105095302D01*
X202244698Y-105304039D01*
X202490147Y-105468042D01*
X202762875Y-105581010D01*
X203052401Y-105638600D01*
X203347599Y-105638600D01*
X203637125Y-105581010D01*
X203909853Y-105468042D01*
X204155302Y-105304039D01*
X204364039Y-105095302D01*
X204471692Y-104934187D01*
X204633146Y-105150293D01*
X204851512Y-105346817D01*
X205104022Y-105496964D01*
X205380973Y-105594963D01*
X205613000Y-105474464D01*
X205613000Y-104267000D01*
X205867000Y-104267000D01*
X205867000Y-105474464D01*
X206099027Y-105594963D01*
X206375978Y-105496964D01*
X206628488Y-105346817D01*
X206846854Y-105150293D01*
X207022684Y-104914944D01*
X207149222Y-104649814D01*
X207194958Y-104499026D01*
X207073817Y-104267000D01*
X205867000Y-104267000D01*
X205613000Y-104267000D01*
X205593000Y-104267000D01*
X205593000Y-104013000D01*
X205613000Y-104013000D01*
X205613000Y-103993000D01*
X205867000Y-103993000D01*
X205867000Y-104013000D01*
X207073817Y-104013000D01*
X207194958Y-103780974D01*
X207149222Y-103630186D01*
X207022684Y-103365056D01*
X206846854Y-103129707D01*
X206628488Y-102933183D01*
X206529897Y-102874559D01*
X206695302Y-102764039D01*
X206904039Y-102555302D01*
X207068042Y-102309853D01*
X207181010Y-102037125D01*
X207238600Y-101747599D01*
X207238600Y-101452401D01*
X207181010Y-101162875D01*
X207068042Y-100890147D01*
X206904039Y-100644698D01*
X206695302Y-100435961D01*
X206536719Y-100330000D01*
X206695302Y-100224039D01*
X206904039Y-100015302D01*
X207068042Y-99769853D01*
X207181010Y-99497125D01*
X207238600Y-99207599D01*
X207238600Y-98912401D01*
X207181010Y-98622875D01*
X207068042Y-98350147D01*
X206904039Y-98104698D01*
X206695302Y-97895961D01*
X206536719Y-97790000D01*
X206695302Y-97684039D01*
X206904039Y-97475302D01*
X207068042Y-97229853D01*
X207181010Y-96957125D01*
X207238600Y-96667599D01*
X207238600Y-96372401D01*
X207181010Y-96082875D01*
X207068042Y-95810147D01*
X206904039Y-95564698D01*
X206695302Y-95355961D01*
X206536719Y-95250000D01*
X206695302Y-95144039D01*
X206904039Y-94935302D01*
X207068042Y-94689853D01*
X207181010Y-94417125D01*
X207238600Y-94127599D01*
X207238600Y-93832401D01*
X207181010Y-93542875D01*
X207068042Y-93270147D01*
X206904039Y-93024698D01*
X206695302Y-92815961D01*
X206449853Y-92651958D01*
X206177125Y-92538990D01*
X205887599Y-92481400D01*
X205592401Y-92481400D01*
X205302875Y-92538990D01*
X205030147Y-92651958D01*
X204784698Y-92815961D01*
X204670636Y-92930023D01*
X204653102Y-92872220D01*
X204594137Y-92761906D01*
X204514785Y-92665215D01*
X204418094Y-92585863D01*
X204307780Y-92526898D01*
X204188082Y-92490588D01*
X204063600Y-92478328D01*
X202336400Y-92478328D01*
X202211918Y-92490588D01*
X202092220Y-92526898D01*
X201981906Y-92585863D01*
X201885215Y-92665215D01*
X201805863Y-92761906D01*
X201746898Y-92872220D01*
X201710588Y-92991918D01*
X201698328Y-93116400D01*
X161733198Y-93116400D01*
X161764860Y-92998295D01*
X161787576Y-92652350D01*
X161742366Y-92308620D01*
X161630966Y-91980315D01*
X161521714Y-91775921D01*
X161244531Y-91665074D01*
X160199605Y-92710000D01*
X159840395Y-92710000D01*
X158795469Y-91665074D01*
X158518286Y-91775921D01*
X158364911Y-92086840D01*
X158275140Y-92421705D01*
X158252424Y-92767650D01*
X156700004Y-92767650D01*
X156707576Y-92652350D01*
X156662366Y-92308620D01*
X156550966Y-91980315D01*
X156441714Y-91775921D01*
X156164531Y-91665074D01*
X155119605Y-92710000D01*
X154760395Y-92710000D01*
X153715469Y-91665074D01*
X153438286Y-91775921D01*
X153284911Y-92086840D01*
X153195140Y-92421705D01*
X153172424Y-92767650D01*
X152527000Y-92767650D01*
X152527000Y-91485469D01*
X153895074Y-91485469D01*
X154940000Y-92530395D01*
X155984926Y-91485469D01*
X155874079Y-91208286D01*
X155563160Y-91054911D01*
X155228295Y-90965140D01*
X154882350Y-90942424D01*
X154538620Y-90987634D01*
X154210315Y-91099034D01*
X154005921Y-91208286D01*
X153895074Y-91485469D01*
X152527000Y-91485469D01*
X152527000Y-90006504D01*
X155820000Y-90006504D01*
X155820000Y-90333496D01*
X155883793Y-90654204D01*
X156008927Y-90956305D01*
X156190594Y-91228188D01*
X156421812Y-91459406D01*
X156693695Y-91641073D01*
X156995796Y-91766207D01*
X157316504Y-91830000D01*
X157643496Y-91830000D01*
X157964204Y-91766207D01*
X158266305Y-91641073D01*
X158499182Y-91485469D01*
X158975074Y-91485469D01*
X160020000Y-92530395D01*
X161064926Y-91485469D01*
X160954079Y-91208286D01*
X160643160Y-91054911D01*
X160308295Y-90965140D01*
X159962350Y-90942424D01*
X159618620Y-90987634D01*
X159290315Y-91099034D01*
X159085921Y-91208286D01*
X158975074Y-91485469D01*
X158499182Y-91485469D01*
X158538188Y-91459406D01*
X158769406Y-91228188D01*
X158951073Y-90956305D01*
X159076207Y-90654204D01*
X159140000Y-90333496D01*
X159140000Y-90006504D01*
X159076207Y-89685796D01*
X158951073Y-89383695D01*
X158769406Y-89111812D01*
X158538188Y-88880594D01*
X158499183Y-88854531D01*
X158975074Y-88854531D01*
X159085921Y-89131714D01*
X159396840Y-89285089D01*
X159731705Y-89374860D01*
X160077650Y-89397576D01*
X160421380Y-89352366D01*
X160749685Y-89240966D01*
X160954079Y-89131714D01*
X161064926Y-88854531D01*
X160020000Y-87809605D01*
X158975074Y-88854531D01*
X158499183Y-88854531D01*
X158266305Y-88698927D01*
X157964204Y-88573793D01*
X157643496Y-88510000D01*
X157316504Y-88510000D01*
X156995796Y-88573793D01*
X156693695Y-88698927D01*
X156421812Y-88880594D01*
X156190594Y-89111812D01*
X156008927Y-89383695D01*
X155883793Y-89685796D01*
X155820000Y-90006504D01*
X152527000Y-90006504D01*
X152527000Y-88854531D01*
X153895074Y-88854531D01*
X154005921Y-89131714D01*
X154316840Y-89285089D01*
X154651705Y-89374860D01*
X154997650Y-89397576D01*
X155341380Y-89352366D01*
X155669685Y-89240966D01*
X155874079Y-89131714D01*
X155984926Y-88854531D01*
X154940000Y-87809605D01*
X153895074Y-88854531D01*
X152527000Y-88854531D01*
X152527000Y-87687650D01*
X153172424Y-87687650D01*
X153217634Y-88031380D01*
X153329034Y-88359685D01*
X153438286Y-88564079D01*
X153715469Y-88674926D01*
X154760395Y-87630000D01*
X155119605Y-87630000D01*
X156164531Y-88674926D01*
X156441714Y-88564079D01*
X156595089Y-88253160D01*
X156684860Y-87918295D01*
X156700004Y-87687650D01*
X158252424Y-87687650D01*
X158297634Y-88031380D01*
X158409034Y-88359685D01*
X158518286Y-88564079D01*
X158795469Y-88674926D01*
X159840395Y-87630000D01*
X160199605Y-87630000D01*
X161244531Y-88674926D01*
X161521714Y-88564079D01*
X161675089Y-88253160D01*
X161764860Y-87918295D01*
X161787576Y-87572350D01*
X161742366Y-87228620D01*
X161630966Y-86900315D01*
X161521714Y-86695921D01*
X161244531Y-86585074D01*
X160199605Y-87630000D01*
X159840395Y-87630000D01*
X158795469Y-86585074D01*
X158518286Y-86695921D01*
X158364911Y-87006840D01*
X158275140Y-87341705D01*
X158252424Y-87687650D01*
X156700004Y-87687650D01*
X156707576Y-87572350D01*
X156662366Y-87228620D01*
X156550966Y-86900315D01*
X156441714Y-86695921D01*
X156164531Y-86585074D01*
X155119605Y-87630000D01*
X154760395Y-87630000D01*
X153715469Y-86585074D01*
X153438286Y-86695921D01*
X153284911Y-87006840D01*
X153195140Y-87341705D01*
X153172424Y-87687650D01*
X152527000Y-87687650D01*
X152527000Y-86405469D01*
X153895074Y-86405469D01*
X154940000Y-87450395D01*
X155984926Y-86405469D01*
X158975074Y-86405469D01*
X160020000Y-87450395D01*
X161064926Y-86405469D01*
X160954079Y-86128286D01*
X160643160Y-85974911D01*
X160308295Y-85885140D01*
X159962350Y-85862424D01*
X159618620Y-85907634D01*
X159290315Y-86019034D01*
X159085921Y-86128286D01*
X158975074Y-86405469D01*
X155984926Y-86405469D01*
X155874079Y-86128286D01*
X155563160Y-85974911D01*
X155228295Y-85885140D01*
X154882350Y-85862424D01*
X154538620Y-85907634D01*
X154210315Y-86019034D01*
X154005921Y-86128286D01*
X153895074Y-86405469D01*
X152527000Y-86405469D01*
X152527000Y-85217000D01*
X209423000Y-85217000D01*
X209423000Y-112903000D01*
G37*
X209423000Y-112903000D02*
X152527000Y-112903000D01*
X152527000Y-93934531D01*
X153895074Y-93934531D01*
X154005921Y-94211714D01*
X154316840Y-94365089D01*
X154651705Y-94454860D01*
X154997650Y-94477576D01*
X155341380Y-94432366D01*
X155669685Y-94320966D01*
X155874079Y-94211714D01*
X155984926Y-93934531D01*
X158975074Y-93934531D01*
X159085921Y-94211714D01*
X159396840Y-94365089D01*
X159731705Y-94454860D01*
X160077650Y-94477576D01*
X160421380Y-94432366D01*
X160749685Y-94320966D01*
X160954079Y-94211714D01*
X161064926Y-93934531D01*
X160020000Y-92889605D01*
X158975074Y-93934531D01*
X155984926Y-93934531D01*
X154940000Y-92889605D01*
X153895074Y-93934531D01*
X152527000Y-93934531D01*
X152527000Y-92767650D01*
X153172424Y-92767650D01*
X153217634Y-93111380D01*
X153329034Y-93439685D01*
X153438286Y-93644079D01*
X153715469Y-93754926D01*
X154760395Y-92710000D01*
X155119605Y-92710000D01*
X156164531Y-93754926D01*
X156441714Y-93644079D01*
X156595089Y-93333160D01*
X156684860Y-92998295D01*
X156700004Y-92767650D01*
X158252424Y-92767650D01*
X158297634Y-93111380D01*
X158409034Y-93439685D01*
X158518286Y-93644079D01*
X158795469Y-93754926D01*
X159840395Y-92710000D01*
X160199605Y-92710000D01*
X161244531Y-93754926D01*
X161521714Y-93644079D01*
X161675089Y-93333160D01*
X161733198Y-93116400D01*
X201698328Y-93116400D01*
X201698328Y-94843600D01*
X201710588Y-94968082D01*
X201746898Y-95087780D01*
X201805863Y-95198094D01*
X201885215Y-95294785D01*
X201981906Y-95374137D01*
X202092220Y-95433102D01*
X202150023Y-95450636D01*
X202035961Y-95564698D01*
X201871958Y-95810147D01*
X201758990Y-96082875D01*
X201701400Y-96372401D01*
X201701400Y-96667599D01*
X201758990Y-96957125D01*
X201871958Y-97229853D01*
X202035961Y-97475302D01*
X202244698Y-97684039D01*
X202403281Y-97790000D01*
X202244698Y-97895961D01*
X202035961Y-98104698D01*
X201871958Y-98350147D01*
X201758990Y-98622875D01*
X201701400Y-98912401D01*
X201701400Y-99207599D01*
X201758990Y-99497125D01*
X201871958Y-99769853D01*
X202035961Y-100015302D01*
X202244698Y-100224039D01*
X202403281Y-100330000D01*
X202244698Y-100435961D01*
X202035961Y-100644698D01*
X201871958Y-100890147D01*
X201758990Y-101162875D01*
X201701400Y-101452401D01*
X201701400Y-101747599D01*
X201758990Y-102037125D01*
X201871958Y-102309853D01*
X202035961Y-102555302D01*
X202244698Y-102764039D01*
X202403281Y-102870000D01*
X202244698Y-102975961D01*
X202035961Y-103184698D01*
X201871958Y-103430147D01*
X201758990Y-103702875D01*
X201701400Y-103992401D01*
X201701400Y-104287599D01*
X201758990Y-104577125D01*
X201871958Y-104849853D01*
X202035961Y-105095302D01*
X202244698Y-105304039D01*
X202490147Y-105468042D01*
X202762875Y-105581010D01*
X203052401Y-105638600D01*
X203347599Y-105638600D01*
X203637125Y-105581010D01*
X203909853Y-105468042D01*
X204155302Y-105304039D01*
X204364039Y-105095302D01*
X204471692Y-104934187D01*
X204633146Y-105150293D01*
X204851512Y-105346817D01*
X205104022Y-105496964D01*
X205380973Y-105594963D01*
X205613000Y-105474464D01*
X205613000Y-104267000D01*
X205867000Y-104267000D01*
X205867000Y-105474464D01*
X206099027Y-105594963D01*
X206375978Y-105496964D01*
X206628488Y-105346817D01*
X206846854Y-105150293D01*
X207022684Y-104914944D01*
X207149222Y-104649814D01*
X207194958Y-104499026D01*
X207073817Y-104267000D01*
X205867000Y-104267000D01*
X205613000Y-104267000D01*
X205593000Y-104267000D01*
X205593000Y-104013000D01*
X205613000Y-104013000D01*
X205613000Y-103993000D01*
X205867000Y-103993000D01*
X205867000Y-104013000D01*
X207073817Y-104013000D01*
X207194958Y-103780974D01*
X207149222Y-103630186D01*
X207022684Y-103365056D01*
X206846854Y-103129707D01*
X206628488Y-102933183D01*
X206529897Y-102874559D01*
X206695302Y-102764039D01*
X206904039Y-102555302D01*
X207068042Y-102309853D01*
X207181010Y-102037125D01*
X207238600Y-101747599D01*
X207238600Y-101452401D01*
X207181010Y-101162875D01*
X207068042Y-100890147D01*
X206904039Y-100644698D01*
X206695302Y-100435961D01*
X206536719Y-100330000D01*
X206695302Y-100224039D01*
X206904039Y-100015302D01*
X207068042Y-99769853D01*
X207181010Y-99497125D01*
X207238600Y-99207599D01*
X207238600Y-98912401D01*
X207181010Y-98622875D01*
X207068042Y-98350147D01*
X206904039Y-98104698D01*
X206695302Y-97895961D01*
X206536719Y-97790000D01*
X206695302Y-97684039D01*
X206904039Y-97475302D01*
X207068042Y-97229853D01*
X207181010Y-96957125D01*
X207238600Y-96667599D01*
X207238600Y-96372401D01*
X207181010Y-96082875D01*
X207068042Y-95810147D01*
X206904039Y-95564698D01*
X206695302Y-95355961D01*
X206536719Y-95250000D01*
X206695302Y-95144039D01*
X206904039Y-94935302D01*
X207068042Y-94689853D01*
X207181010Y-94417125D01*
X207238600Y-94127599D01*
X207238600Y-93832401D01*
X207181010Y-93542875D01*
X207068042Y-93270147D01*
X206904039Y-93024698D01*
X206695302Y-92815961D01*
X206449853Y-92651958D01*
X206177125Y-92538990D01*
X205887599Y-92481400D01*
X205592401Y-92481400D01*
X205302875Y-92538990D01*
X205030147Y-92651958D01*
X204784698Y-92815961D01*
X204670636Y-92930023D01*
X204653102Y-92872220D01*
X204594137Y-92761906D01*
X204514785Y-92665215D01*
X204418094Y-92585863D01*
X204307780Y-92526898D01*
X204188082Y-92490588D01*
X204063600Y-92478328D01*
X202336400Y-92478328D01*
X202211918Y-92490588D01*
X202092220Y-92526898D01*
X201981906Y-92585863D01*
X201885215Y-92665215D01*
X201805863Y-92761906D01*
X201746898Y-92872220D01*
X201710588Y-92991918D01*
X201698328Y-93116400D01*
X161733198Y-93116400D01*
X161764860Y-92998295D01*
X161787576Y-92652350D01*
X161742366Y-92308620D01*
X161630966Y-91980315D01*
X161521714Y-91775921D01*
X161244531Y-91665074D01*
X160199605Y-92710000D01*
X159840395Y-92710000D01*
X158795469Y-91665074D01*
X158518286Y-91775921D01*
X158364911Y-92086840D01*
X158275140Y-92421705D01*
X158252424Y-92767650D01*
X156700004Y-92767650D01*
X156707576Y-92652350D01*
X156662366Y-92308620D01*
X156550966Y-91980315D01*
X156441714Y-91775921D01*
X156164531Y-91665074D01*
X155119605Y-92710000D01*
X154760395Y-92710000D01*
X153715469Y-91665074D01*
X153438286Y-91775921D01*
X153284911Y-92086840D01*
X153195140Y-92421705D01*
X153172424Y-92767650D01*
X152527000Y-92767650D01*
X152527000Y-91485469D01*
X153895074Y-91485469D01*
X154940000Y-92530395D01*
X155984926Y-91485469D01*
X155874079Y-91208286D01*
X155563160Y-91054911D01*
X155228295Y-90965140D01*
X154882350Y-90942424D01*
X154538620Y-90987634D01*
X154210315Y-91099034D01*
X154005921Y-91208286D01*
X153895074Y-91485469D01*
X152527000Y-91485469D01*
X152527000Y-90006504D01*
X155820000Y-90006504D01*
X155820000Y-90333496D01*
X155883793Y-90654204D01*
X156008927Y-90956305D01*
X156190594Y-91228188D01*
X156421812Y-91459406D01*
X156693695Y-91641073D01*
X156995796Y-91766207D01*
X157316504Y-91830000D01*
X157643496Y-91830000D01*
X157964204Y-91766207D01*
X158266305Y-91641073D01*
X158499182Y-91485469D01*
X158975074Y-91485469D01*
X160020000Y-92530395D01*
X161064926Y-91485469D01*
X160954079Y-91208286D01*
X160643160Y-91054911D01*
X160308295Y-90965140D01*
X159962350Y-90942424D01*
X159618620Y-90987634D01*
X159290315Y-91099034D01*
X159085921Y-91208286D01*
X158975074Y-91485469D01*
X158499182Y-91485469D01*
X158538188Y-91459406D01*
X158769406Y-91228188D01*
X158951073Y-90956305D01*
X159076207Y-90654204D01*
X159140000Y-90333496D01*
X159140000Y-90006504D01*
X159076207Y-89685796D01*
X158951073Y-89383695D01*
X158769406Y-89111812D01*
X158538188Y-88880594D01*
X158499183Y-88854531D01*
X158975074Y-88854531D01*
X159085921Y-89131714D01*
X159396840Y-89285089D01*
X159731705Y-89374860D01*
X160077650Y-89397576D01*
X160421380Y-89352366D01*
X160749685Y-89240966D01*
X160954079Y-89131714D01*
X161064926Y-88854531D01*
X160020000Y-87809605D01*
X158975074Y-88854531D01*
X158499183Y-88854531D01*
X158266305Y-88698927D01*
X157964204Y-88573793D01*
X157643496Y-88510000D01*
X157316504Y-88510000D01*
X156995796Y-88573793D01*
X156693695Y-88698927D01*
X156421812Y-88880594D01*
X156190594Y-89111812D01*
X156008927Y-89383695D01*
X155883793Y-89685796D01*
X155820000Y-90006504D01*
X152527000Y-90006504D01*
X152527000Y-88854531D01*
X153895074Y-88854531D01*
X154005921Y-89131714D01*
X154316840Y-89285089D01*
X154651705Y-89374860D01*
X154997650Y-89397576D01*
X155341380Y-89352366D01*
X155669685Y-89240966D01*
X155874079Y-89131714D01*
X155984926Y-88854531D01*
X154940000Y-87809605D01*
X153895074Y-88854531D01*
X152527000Y-88854531D01*
X152527000Y-87687650D01*
X153172424Y-87687650D01*
X153217634Y-88031380D01*
X153329034Y-88359685D01*
X153438286Y-88564079D01*
X153715469Y-88674926D01*
X154760395Y-87630000D01*
X155119605Y-87630000D01*
X156164531Y-88674926D01*
X156441714Y-88564079D01*
X156595089Y-88253160D01*
X156684860Y-87918295D01*
X156700004Y-87687650D01*
X158252424Y-87687650D01*
X158297634Y-88031380D01*
X158409034Y-88359685D01*
X158518286Y-88564079D01*
X158795469Y-88674926D01*
X159840395Y-87630000D01*
X160199605Y-87630000D01*
X161244531Y-88674926D01*
X161521714Y-88564079D01*
X161675089Y-88253160D01*
X161764860Y-87918295D01*
X161787576Y-87572350D01*
X161742366Y-87228620D01*
X161630966Y-86900315D01*
X161521714Y-86695921D01*
X161244531Y-86585074D01*
X160199605Y-87630000D01*
X159840395Y-87630000D01*
X158795469Y-86585074D01*
X158518286Y-86695921D01*
X158364911Y-87006840D01*
X158275140Y-87341705D01*
X158252424Y-87687650D01*
X156700004Y-87687650D01*
X156707576Y-87572350D01*
X156662366Y-87228620D01*
X156550966Y-86900315D01*
X156441714Y-86695921D01*
X156164531Y-86585074D01*
X155119605Y-87630000D01*
X154760395Y-87630000D01*
X153715469Y-86585074D01*
X153438286Y-86695921D01*
X153284911Y-87006840D01*
X153195140Y-87341705D01*
X153172424Y-87687650D01*
X152527000Y-87687650D01*
X152527000Y-86405469D01*
X153895074Y-86405469D01*
X154940000Y-87450395D01*
X155984926Y-86405469D01*
X158975074Y-86405469D01*
X160020000Y-87450395D01*
X161064926Y-86405469D01*
X160954079Y-86128286D01*
X160643160Y-85974911D01*
X160308295Y-85885140D01*
X159962350Y-85862424D01*
X159618620Y-85907634D01*
X159290315Y-86019034D01*
X159085921Y-86128286D01*
X158975074Y-86405469D01*
X155984926Y-86405469D01*
X155874079Y-86128286D01*
X155563160Y-85974911D01*
X155228295Y-85885140D01*
X154882350Y-85862424D01*
X154538620Y-85907634D01*
X154210315Y-86019034D01*
X154005921Y-86128286D01*
X153895074Y-86405469D01*
X152527000Y-86405469D01*
X152527000Y-85217000D01*
X209423000Y-85217000D01*
X209423000Y-112903000D01*
M02*
