G04 #@! TF.GenerationSoftware,KiCad,Pcbnew,5.1.5-52549c5~84~ubuntu18.04.1*
G04 #@! TF.CreationDate,2020-05-02T14:22:08+09:30*
G04 #@! TF.ProjectId,FirstMixer,46697273-744d-4697-9865-722e6b696361,rev?*
G04 #@! TF.SameCoordinates,Original*
G04 #@! TF.FileFunction,Legend,Top*
G04 #@! TF.FilePolarity,Positive*
%FSLAX46Y46*%
G04 Gerber Fmt 4.6, Leading zero omitted, Abs format (unit mm)*
G04 Created by KiCad (PCBNEW 5.1.5-52549c5~84~ubuntu18.04.1) date 2020-05-02 14:22:08*
%MOMM*%
%LPD*%
G04 APERTURE LIST*
%ADD10C,0.120000*%
%ADD11C,0.150000*%
G04 APERTURE END LIST*
D10*
X124090000Y-137586252D02*
X124090000Y-137063748D01*
X125510000Y-137586252D02*
X125510000Y-137063748D01*
X121138748Y-138190000D02*
X121661252Y-138190000D01*
X121138748Y-139610000D02*
X121661252Y-139610000D01*
X120938748Y-136510000D02*
X121461252Y-136510000D01*
X120938748Y-135090000D02*
X121461252Y-135090000D01*
X135638748Y-119790000D02*
X136161252Y-119790000D01*
X135638748Y-121210000D02*
X136161252Y-121210000D01*
X113710000Y-144986252D02*
X113710000Y-144463748D01*
X112290000Y-144986252D02*
X112290000Y-144463748D01*
X113110000Y-130636252D02*
X113110000Y-130113748D01*
X111690000Y-130636252D02*
X111690000Y-130113748D01*
X108890000Y-144961252D02*
X108890000Y-144438748D01*
X110310000Y-144961252D02*
X110310000Y-144438748D01*
X109163748Y-125810000D02*
X109686252Y-125810000D01*
X109163748Y-124390000D02*
X109686252Y-124390000D01*
X114475000Y-112015000D02*
X114475000Y-113265000D01*
X113850000Y-112640000D02*
X115100000Y-112640000D01*
X115340000Y-119695563D02*
X116404437Y-120760000D01*
X115340000Y-111104437D02*
X116404437Y-110040000D01*
X115340000Y-111104437D02*
X115340000Y-113890000D01*
X115340000Y-119695563D02*
X115340000Y-116910000D01*
X116404437Y-120760000D02*
X126060000Y-120760000D01*
X116404437Y-110040000D02*
X126060000Y-110040000D01*
X126060000Y-110040000D02*
X126060000Y-113890000D01*
X126060000Y-120760000D02*
X126060000Y-116910000D01*
X103890000Y-130436252D02*
X103890000Y-129913748D01*
X105310000Y-130436252D02*
X105310000Y-129913748D01*
X96190000Y-136438748D02*
X96190000Y-136961252D01*
X97610000Y-136438748D02*
X97610000Y-136961252D01*
X130290000Y-129838748D02*
X130290000Y-130361252D01*
X131710000Y-129838748D02*
X131710000Y-130361252D01*
X129710000Y-124338748D02*
X129710000Y-124861252D01*
X128290000Y-124338748D02*
X128290000Y-124861252D01*
X100490000Y-141063748D02*
X100490000Y-141586252D01*
X101910000Y-141063748D02*
X101910000Y-141586252D01*
X112250000Y-162300000D02*
X112000000Y-162800000D01*
X111750000Y-162300000D02*
X112250000Y-162300000D01*
X112000000Y-162800000D02*
X111750000Y-162300000D01*
X107050000Y-116210000D02*
X106800000Y-115710000D01*
X106550000Y-116210000D02*
X107050000Y-116210000D01*
X106800000Y-115710000D02*
X106550000Y-116210000D01*
X106690000Y-136761252D02*
X106690000Y-136238748D01*
X108110000Y-136761252D02*
X108110000Y-136238748D01*
X105210000Y-134813748D02*
X105210000Y-135336252D01*
X103790000Y-134813748D02*
X103790000Y-135336252D01*
X114963748Y-161510000D02*
X115486252Y-161510000D01*
X114963748Y-160090000D02*
X115486252Y-160090000D01*
X112610000Y-159138748D02*
X112610000Y-159661252D01*
X111190000Y-159138748D02*
X111190000Y-159661252D01*
X114963748Y-158710000D02*
X115486252Y-158710000D01*
X114963748Y-157290000D02*
X115486252Y-157290000D01*
X117210000Y-130686252D02*
X117210000Y-130163748D01*
X115790000Y-130686252D02*
X115790000Y-130163748D01*
X117610000Y-124413748D02*
X117610000Y-124936252D01*
X116190000Y-124413748D02*
X116190000Y-124936252D01*
X107490000Y-130486252D02*
X107490000Y-129963748D01*
X108910000Y-130486252D02*
X108910000Y-129963748D01*
X118990000Y-128263748D02*
X118990000Y-128786252D01*
X120410000Y-128263748D02*
X120410000Y-128786252D01*
X124990000Y-124786252D02*
X124990000Y-124263748D01*
X126410000Y-124786252D02*
X126410000Y-124263748D01*
X121690000Y-124263748D02*
X121690000Y-124786252D01*
X123110000Y-124263748D02*
X123110000Y-124786252D01*
X120410000Y-124338748D02*
X120410000Y-124861252D01*
X118990000Y-124338748D02*
X118990000Y-124861252D01*
X101110000Y-132313748D02*
X101110000Y-132836252D01*
X99690000Y-132313748D02*
X99690000Y-132836252D01*
X129300000Y-135585000D02*
X127270000Y-135585000D01*
X131330000Y-139615000D02*
X127270000Y-139615000D01*
X102450000Y-136000000D02*
X102150000Y-136000000D01*
X102450000Y-137800000D02*
X102450000Y-136000000D01*
X102150000Y-137800000D02*
X102450000Y-137800000D01*
X100300000Y-137800000D02*
X100350000Y-137800000D01*
X100000000Y-137800000D02*
X100300000Y-137800000D01*
X100050000Y-135950000D02*
X100000000Y-137800000D01*
X100350000Y-135950000D02*
X100050000Y-135950000D01*
X111315000Y-138810000D02*
X110590000Y-138810000D01*
X110590000Y-138810000D02*
X110590000Y-138085000D01*
X114085000Y-134590000D02*
X114810000Y-134590000D01*
X114810000Y-134590000D02*
X114810000Y-135315000D01*
X111315000Y-134590000D02*
X110590000Y-134590000D01*
X110590000Y-134590000D02*
X110590000Y-135315000D01*
X114085000Y-138810000D02*
X114810000Y-138810000D01*
X124800000Y-131710000D02*
X126300000Y-131710000D01*
X124800000Y-131710000D02*
X123300000Y-131710000D01*
X124800000Y-128490000D02*
X126300000Y-128490000D01*
X124800000Y-128490000D02*
X121925000Y-128490000D01*
X132650000Y-152650000D02*
X135550000Y-152650000D01*
X135550000Y-152650000D02*
X135550000Y-155550000D01*
X135550000Y-155550000D02*
X132650000Y-155550000D01*
X132650000Y-155550000D02*
X132650000Y-152650000D01*
D11*
X124257142Y-141357142D02*
X124209523Y-141404761D01*
X124066666Y-141452380D01*
X123971428Y-141452380D01*
X123828571Y-141404761D01*
X123733333Y-141309523D01*
X123685714Y-141214285D01*
X123638095Y-141023809D01*
X123638095Y-140880952D01*
X123685714Y-140690476D01*
X123733333Y-140595238D01*
X123828571Y-140500000D01*
X123971428Y-140452380D01*
X124066666Y-140452380D01*
X124209523Y-140500000D01*
X124257142Y-140547619D01*
X124590476Y-140452380D02*
X125209523Y-140452380D01*
X124876190Y-140833333D01*
X125019047Y-140833333D01*
X125114285Y-140880952D01*
X125161904Y-140928571D01*
X125209523Y-141023809D01*
X125209523Y-141261904D01*
X125161904Y-141357142D01*
X125114285Y-141404761D01*
X125019047Y-141452380D01*
X124733333Y-141452380D01*
X124638095Y-141404761D01*
X124590476Y-141357142D01*
X125590476Y-140547619D02*
X125638095Y-140500000D01*
X125733333Y-140452380D01*
X125971428Y-140452380D01*
X126066666Y-140500000D01*
X126114285Y-140547619D01*
X126161904Y-140642857D01*
X126161904Y-140738095D01*
X126114285Y-140880952D01*
X125542857Y-141452380D01*
X126161904Y-141452380D01*
X120757142Y-137607142D02*
X120709523Y-137654761D01*
X120566666Y-137702380D01*
X120471428Y-137702380D01*
X120328571Y-137654761D01*
X120233333Y-137559523D01*
X120185714Y-137464285D01*
X120138095Y-137273809D01*
X120138095Y-137130952D01*
X120185714Y-136940476D01*
X120233333Y-136845238D01*
X120328571Y-136750000D01*
X120471428Y-136702380D01*
X120566666Y-136702380D01*
X120709523Y-136750000D01*
X120757142Y-136797619D01*
X121090476Y-136702380D02*
X121709523Y-136702380D01*
X121376190Y-137083333D01*
X121519047Y-137083333D01*
X121614285Y-137130952D01*
X121661904Y-137178571D01*
X121709523Y-137273809D01*
X121709523Y-137511904D01*
X121661904Y-137607142D01*
X121614285Y-137654761D01*
X121519047Y-137702380D01*
X121233333Y-137702380D01*
X121138095Y-137654761D01*
X121090476Y-137607142D01*
X122042857Y-136702380D02*
X122661904Y-136702380D01*
X122328571Y-137083333D01*
X122471428Y-137083333D01*
X122566666Y-137130952D01*
X122614285Y-137178571D01*
X122661904Y-137273809D01*
X122661904Y-137511904D01*
X122614285Y-137607142D01*
X122566666Y-137654761D01*
X122471428Y-137702380D01*
X122185714Y-137702380D01*
X122090476Y-137654761D01*
X122042857Y-137607142D01*
X120557142Y-134507142D02*
X120509523Y-134554761D01*
X120366666Y-134602380D01*
X120271428Y-134602380D01*
X120128571Y-134554761D01*
X120033333Y-134459523D01*
X119985714Y-134364285D01*
X119938095Y-134173809D01*
X119938095Y-134030952D01*
X119985714Y-133840476D01*
X120033333Y-133745238D01*
X120128571Y-133650000D01*
X120271428Y-133602380D01*
X120366666Y-133602380D01*
X120509523Y-133650000D01*
X120557142Y-133697619D01*
X120890476Y-133602380D02*
X121509523Y-133602380D01*
X121176190Y-133983333D01*
X121319047Y-133983333D01*
X121414285Y-134030952D01*
X121461904Y-134078571D01*
X121509523Y-134173809D01*
X121509523Y-134411904D01*
X121461904Y-134507142D01*
X121414285Y-134554761D01*
X121319047Y-134602380D01*
X121033333Y-134602380D01*
X120938095Y-134554761D01*
X120890476Y-134507142D01*
X122366666Y-133935714D02*
X122366666Y-134602380D01*
X122128571Y-133554761D02*
X121890476Y-134269047D01*
X122509523Y-134269047D01*
X135257142Y-119207142D02*
X135209523Y-119254761D01*
X135066666Y-119302380D01*
X134971428Y-119302380D01*
X134828571Y-119254761D01*
X134733333Y-119159523D01*
X134685714Y-119064285D01*
X134638095Y-118873809D01*
X134638095Y-118730952D01*
X134685714Y-118540476D01*
X134733333Y-118445238D01*
X134828571Y-118350000D01*
X134971428Y-118302380D01*
X135066666Y-118302380D01*
X135209523Y-118350000D01*
X135257142Y-118397619D01*
X135590476Y-118302380D02*
X136209523Y-118302380D01*
X135876190Y-118683333D01*
X136019047Y-118683333D01*
X136114285Y-118730952D01*
X136161904Y-118778571D01*
X136209523Y-118873809D01*
X136209523Y-119111904D01*
X136161904Y-119207142D01*
X136114285Y-119254761D01*
X136019047Y-119302380D01*
X135733333Y-119302380D01*
X135638095Y-119254761D01*
X135590476Y-119207142D01*
X137114285Y-118302380D02*
X136638095Y-118302380D01*
X136590476Y-118778571D01*
X136638095Y-118730952D01*
X136733333Y-118683333D01*
X136971428Y-118683333D01*
X137066666Y-118730952D01*
X137114285Y-118778571D01*
X137161904Y-118873809D01*
X137161904Y-119111904D01*
X137114285Y-119207142D01*
X137066666Y-119254761D01*
X136971428Y-119302380D01*
X136733333Y-119302380D01*
X136638095Y-119254761D01*
X136590476Y-119207142D01*
X112657142Y-148157142D02*
X112609523Y-148204761D01*
X112466666Y-148252380D01*
X112371428Y-148252380D01*
X112228571Y-148204761D01*
X112133333Y-148109523D01*
X112085714Y-148014285D01*
X112038095Y-147823809D01*
X112038095Y-147680952D01*
X112085714Y-147490476D01*
X112133333Y-147395238D01*
X112228571Y-147300000D01*
X112371428Y-147252380D01*
X112466666Y-147252380D01*
X112609523Y-147300000D01*
X112657142Y-147347619D01*
X112990476Y-147252380D02*
X113609523Y-147252380D01*
X113276190Y-147633333D01*
X113419047Y-147633333D01*
X113514285Y-147680952D01*
X113561904Y-147728571D01*
X113609523Y-147823809D01*
X113609523Y-148061904D01*
X113561904Y-148157142D01*
X113514285Y-148204761D01*
X113419047Y-148252380D01*
X113133333Y-148252380D01*
X113038095Y-148204761D01*
X112990476Y-148157142D01*
X114466666Y-147252380D02*
X114276190Y-147252380D01*
X114180952Y-147300000D01*
X114133333Y-147347619D01*
X114038095Y-147490476D01*
X113990476Y-147680952D01*
X113990476Y-148061904D01*
X114038095Y-148157142D01*
X114085714Y-148204761D01*
X114180952Y-148252380D01*
X114371428Y-148252380D01*
X114466666Y-148204761D01*
X114514285Y-148157142D01*
X114561904Y-148061904D01*
X114561904Y-147823809D01*
X114514285Y-147728571D01*
X114466666Y-147680952D01*
X114371428Y-147633333D01*
X114180952Y-147633333D01*
X114085714Y-147680952D01*
X114038095Y-147728571D01*
X113990476Y-147823809D01*
X111257142Y-127957142D02*
X111209523Y-128004761D01*
X111066666Y-128052380D01*
X110971428Y-128052380D01*
X110828571Y-128004761D01*
X110733333Y-127909523D01*
X110685714Y-127814285D01*
X110638095Y-127623809D01*
X110638095Y-127480952D01*
X110685714Y-127290476D01*
X110733333Y-127195238D01*
X110828571Y-127100000D01*
X110971428Y-127052380D01*
X111066666Y-127052380D01*
X111209523Y-127100000D01*
X111257142Y-127147619D01*
X111590476Y-127052380D02*
X112209523Y-127052380D01*
X111876190Y-127433333D01*
X112019047Y-127433333D01*
X112114285Y-127480952D01*
X112161904Y-127528571D01*
X112209523Y-127623809D01*
X112209523Y-127861904D01*
X112161904Y-127957142D01*
X112114285Y-128004761D01*
X112019047Y-128052380D01*
X111733333Y-128052380D01*
X111638095Y-128004761D01*
X111590476Y-127957142D01*
X112542857Y-127052380D02*
X113209523Y-127052380D01*
X112780952Y-128052380D01*
X108257142Y-148257142D02*
X108209523Y-148304761D01*
X108066666Y-148352380D01*
X107971428Y-148352380D01*
X107828571Y-148304761D01*
X107733333Y-148209523D01*
X107685714Y-148114285D01*
X107638095Y-147923809D01*
X107638095Y-147780952D01*
X107685714Y-147590476D01*
X107733333Y-147495238D01*
X107828571Y-147400000D01*
X107971428Y-147352380D01*
X108066666Y-147352380D01*
X108209523Y-147400000D01*
X108257142Y-147447619D01*
X108590476Y-147352380D02*
X109209523Y-147352380D01*
X108876190Y-147733333D01*
X109019047Y-147733333D01*
X109114285Y-147780952D01*
X109161904Y-147828571D01*
X109209523Y-147923809D01*
X109209523Y-148161904D01*
X109161904Y-148257142D01*
X109114285Y-148304761D01*
X109019047Y-148352380D01*
X108733333Y-148352380D01*
X108638095Y-148304761D01*
X108590476Y-148257142D01*
X109780952Y-147780952D02*
X109685714Y-147733333D01*
X109638095Y-147685714D01*
X109590476Y-147590476D01*
X109590476Y-147542857D01*
X109638095Y-147447619D01*
X109685714Y-147400000D01*
X109780952Y-147352380D01*
X109971428Y-147352380D01*
X110066666Y-147400000D01*
X110114285Y-147447619D01*
X110161904Y-147542857D01*
X110161904Y-147590476D01*
X110114285Y-147685714D01*
X110066666Y-147733333D01*
X109971428Y-147780952D01*
X109780952Y-147780952D01*
X109685714Y-147828571D01*
X109638095Y-147876190D01*
X109590476Y-147971428D01*
X109590476Y-148161904D01*
X109638095Y-148257142D01*
X109685714Y-148304761D01*
X109780952Y-148352380D01*
X109971428Y-148352380D01*
X110066666Y-148304761D01*
X110114285Y-148257142D01*
X110161904Y-148161904D01*
X110161904Y-147971428D01*
X110114285Y-147876190D01*
X110066666Y-147828571D01*
X109971428Y-147780952D01*
X108782142Y-123807142D02*
X108734523Y-123854761D01*
X108591666Y-123902380D01*
X108496428Y-123902380D01*
X108353571Y-123854761D01*
X108258333Y-123759523D01*
X108210714Y-123664285D01*
X108163095Y-123473809D01*
X108163095Y-123330952D01*
X108210714Y-123140476D01*
X108258333Y-123045238D01*
X108353571Y-122950000D01*
X108496428Y-122902380D01*
X108591666Y-122902380D01*
X108734523Y-122950000D01*
X108782142Y-122997619D01*
X109115476Y-122902380D02*
X109734523Y-122902380D01*
X109401190Y-123283333D01*
X109544047Y-123283333D01*
X109639285Y-123330952D01*
X109686904Y-123378571D01*
X109734523Y-123473809D01*
X109734523Y-123711904D01*
X109686904Y-123807142D01*
X109639285Y-123854761D01*
X109544047Y-123902380D01*
X109258333Y-123902380D01*
X109163095Y-123854761D01*
X109115476Y-123807142D01*
X110210714Y-123902380D02*
X110401190Y-123902380D01*
X110496428Y-123854761D01*
X110544047Y-123807142D01*
X110639285Y-123664285D01*
X110686904Y-123473809D01*
X110686904Y-123092857D01*
X110639285Y-122997619D01*
X110591666Y-122950000D01*
X110496428Y-122902380D01*
X110305952Y-122902380D01*
X110210714Y-122950000D01*
X110163095Y-122997619D01*
X110115476Y-123092857D01*
X110115476Y-123330952D01*
X110163095Y-123426190D01*
X110210714Y-123473809D01*
X110305952Y-123521428D01*
X110496428Y-123521428D01*
X110591666Y-123473809D01*
X110639285Y-123426190D01*
X110686904Y-123330952D01*
X127557142Y-112557142D02*
X127509523Y-112604761D01*
X127366666Y-112652380D01*
X127271428Y-112652380D01*
X127128571Y-112604761D01*
X127033333Y-112509523D01*
X126985714Y-112414285D01*
X126938095Y-112223809D01*
X126938095Y-112080952D01*
X126985714Y-111890476D01*
X127033333Y-111795238D01*
X127128571Y-111700000D01*
X127271428Y-111652380D01*
X127366666Y-111652380D01*
X127509523Y-111700000D01*
X127557142Y-111747619D01*
X128414285Y-111985714D02*
X128414285Y-112652380D01*
X128176190Y-111604761D02*
X127938095Y-112319047D01*
X128557142Y-112319047D01*
X129128571Y-111652380D02*
X129223809Y-111652380D01*
X129319047Y-111700000D01*
X129366666Y-111747619D01*
X129414285Y-111842857D01*
X129461904Y-112033333D01*
X129461904Y-112271428D01*
X129414285Y-112461904D01*
X129366666Y-112557142D01*
X129319047Y-112604761D01*
X129223809Y-112652380D01*
X129128571Y-112652380D01*
X129033333Y-112604761D01*
X128985714Y-112557142D01*
X128938095Y-112461904D01*
X128890476Y-112271428D01*
X128890476Y-112033333D01*
X128938095Y-111842857D01*
X128985714Y-111747619D01*
X129033333Y-111700000D01*
X129128571Y-111652380D01*
X102957142Y-127857142D02*
X102909523Y-127904761D01*
X102766666Y-127952380D01*
X102671428Y-127952380D01*
X102528571Y-127904761D01*
X102433333Y-127809523D01*
X102385714Y-127714285D01*
X102338095Y-127523809D01*
X102338095Y-127380952D01*
X102385714Y-127190476D01*
X102433333Y-127095238D01*
X102528571Y-127000000D01*
X102671428Y-126952380D01*
X102766666Y-126952380D01*
X102909523Y-127000000D01*
X102957142Y-127047619D01*
X103814285Y-127285714D02*
X103814285Y-127952380D01*
X103576190Y-126904761D02*
X103338095Y-127619047D01*
X103957142Y-127619047D01*
X104861904Y-127952380D02*
X104290476Y-127952380D01*
X104576190Y-127952380D02*
X104576190Y-126952380D01*
X104480952Y-127095238D01*
X104385714Y-127190476D01*
X104290476Y-127238095D01*
X96357142Y-140357142D02*
X96309523Y-140404761D01*
X96166666Y-140452380D01*
X96071428Y-140452380D01*
X95928571Y-140404761D01*
X95833333Y-140309523D01*
X95785714Y-140214285D01*
X95738095Y-140023809D01*
X95738095Y-139880952D01*
X95785714Y-139690476D01*
X95833333Y-139595238D01*
X95928571Y-139500000D01*
X96071428Y-139452380D01*
X96166666Y-139452380D01*
X96309523Y-139500000D01*
X96357142Y-139547619D01*
X97214285Y-139785714D02*
X97214285Y-140452380D01*
X96976190Y-139404761D02*
X96738095Y-140119047D01*
X97357142Y-140119047D01*
X97690476Y-139547619D02*
X97738095Y-139500000D01*
X97833333Y-139452380D01*
X98071428Y-139452380D01*
X98166666Y-139500000D01*
X98214285Y-139547619D01*
X98261904Y-139642857D01*
X98261904Y-139738095D01*
X98214285Y-139880952D01*
X97642857Y-140452380D01*
X98261904Y-140452380D01*
X130157142Y-133157142D02*
X130109523Y-133204761D01*
X129966666Y-133252380D01*
X129871428Y-133252380D01*
X129728571Y-133204761D01*
X129633333Y-133109523D01*
X129585714Y-133014285D01*
X129538095Y-132823809D01*
X129538095Y-132680952D01*
X129585714Y-132490476D01*
X129633333Y-132395238D01*
X129728571Y-132300000D01*
X129871428Y-132252380D01*
X129966666Y-132252380D01*
X130109523Y-132300000D01*
X130157142Y-132347619D01*
X131014285Y-132585714D02*
X131014285Y-133252380D01*
X130776190Y-132204761D02*
X130538095Y-132919047D01*
X131157142Y-132919047D01*
X131442857Y-132252380D02*
X132061904Y-132252380D01*
X131728571Y-132633333D01*
X131871428Y-132633333D01*
X131966666Y-132680952D01*
X132014285Y-132728571D01*
X132061904Y-132823809D01*
X132061904Y-133061904D01*
X132014285Y-133157142D01*
X131966666Y-133204761D01*
X131871428Y-133252380D01*
X131585714Y-133252380D01*
X131490476Y-133204761D01*
X131442857Y-133157142D01*
X128457142Y-127757142D02*
X128409523Y-127804761D01*
X128266666Y-127852380D01*
X128171428Y-127852380D01*
X128028571Y-127804761D01*
X127933333Y-127709523D01*
X127885714Y-127614285D01*
X127838095Y-127423809D01*
X127838095Y-127280952D01*
X127885714Y-127090476D01*
X127933333Y-126995238D01*
X128028571Y-126900000D01*
X128171428Y-126852380D01*
X128266666Y-126852380D01*
X128409523Y-126900000D01*
X128457142Y-126947619D01*
X129028571Y-127280952D02*
X128933333Y-127233333D01*
X128885714Y-127185714D01*
X128838095Y-127090476D01*
X128838095Y-127042857D01*
X128885714Y-126947619D01*
X128933333Y-126900000D01*
X129028571Y-126852380D01*
X129219047Y-126852380D01*
X129314285Y-126900000D01*
X129361904Y-126947619D01*
X129409523Y-127042857D01*
X129409523Y-127090476D01*
X129361904Y-127185714D01*
X129314285Y-127233333D01*
X129219047Y-127280952D01*
X129028571Y-127280952D01*
X128933333Y-127328571D01*
X128885714Y-127376190D01*
X128838095Y-127471428D01*
X128838095Y-127661904D01*
X128885714Y-127757142D01*
X128933333Y-127804761D01*
X129028571Y-127852380D01*
X129219047Y-127852380D01*
X129314285Y-127804761D01*
X129361904Y-127757142D01*
X129409523Y-127661904D01*
X129409523Y-127471428D01*
X129361904Y-127376190D01*
X129314285Y-127328571D01*
X129219047Y-127280952D01*
X130314285Y-126852380D02*
X129838095Y-126852380D01*
X129790476Y-127328571D01*
X129838095Y-127280952D01*
X129933333Y-127233333D01*
X130171428Y-127233333D01*
X130266666Y-127280952D01*
X130314285Y-127328571D01*
X130361904Y-127423809D01*
X130361904Y-127661904D01*
X130314285Y-127757142D01*
X130266666Y-127804761D01*
X130171428Y-127852380D01*
X129933333Y-127852380D01*
X129838095Y-127804761D01*
X129790476Y-127757142D01*
X100457142Y-144457142D02*
X100409523Y-144504761D01*
X100266666Y-144552380D01*
X100171428Y-144552380D01*
X100028571Y-144504761D01*
X99933333Y-144409523D01*
X99885714Y-144314285D01*
X99838095Y-144123809D01*
X99838095Y-143980952D01*
X99885714Y-143790476D01*
X99933333Y-143695238D01*
X100028571Y-143600000D01*
X100171428Y-143552380D01*
X100266666Y-143552380D01*
X100409523Y-143600000D01*
X100457142Y-143647619D01*
X101028571Y-143980952D02*
X100933333Y-143933333D01*
X100885714Y-143885714D01*
X100838095Y-143790476D01*
X100838095Y-143742857D01*
X100885714Y-143647619D01*
X100933333Y-143600000D01*
X101028571Y-143552380D01*
X101219047Y-143552380D01*
X101314285Y-143600000D01*
X101361904Y-143647619D01*
X101409523Y-143742857D01*
X101409523Y-143790476D01*
X101361904Y-143885714D01*
X101314285Y-143933333D01*
X101219047Y-143980952D01*
X101028571Y-143980952D01*
X100933333Y-144028571D01*
X100885714Y-144076190D01*
X100838095Y-144171428D01*
X100838095Y-144361904D01*
X100885714Y-144457142D01*
X100933333Y-144504761D01*
X101028571Y-144552380D01*
X101219047Y-144552380D01*
X101314285Y-144504761D01*
X101361904Y-144457142D01*
X101409523Y-144361904D01*
X101409523Y-144171428D01*
X101361904Y-144076190D01*
X101314285Y-144028571D01*
X101219047Y-143980952D01*
X102266666Y-143552380D02*
X102076190Y-143552380D01*
X101980952Y-143600000D01*
X101933333Y-143647619D01*
X101838095Y-143790476D01*
X101790476Y-143980952D01*
X101790476Y-144361904D01*
X101838095Y-144457142D01*
X101885714Y-144504761D01*
X101980952Y-144552380D01*
X102171428Y-144552380D01*
X102266666Y-144504761D01*
X102314285Y-144457142D01*
X102361904Y-144361904D01*
X102361904Y-144123809D01*
X102314285Y-144028571D01*
X102266666Y-143980952D01*
X102171428Y-143933333D01*
X101980952Y-143933333D01*
X101885714Y-143980952D01*
X101838095Y-144028571D01*
X101790476Y-144123809D01*
X118466666Y-164052380D02*
X118466666Y-164766666D01*
X118419047Y-164909523D01*
X118323809Y-165004761D01*
X118180952Y-165052380D01*
X118085714Y-165052380D01*
X118990476Y-165052380D02*
X119180952Y-165052380D01*
X119276190Y-165004761D01*
X119323809Y-164957142D01*
X119419047Y-164814285D01*
X119466666Y-164623809D01*
X119466666Y-164242857D01*
X119419047Y-164147619D01*
X119371428Y-164100000D01*
X119276190Y-164052380D01*
X119085714Y-164052380D01*
X118990476Y-164100000D01*
X118942857Y-164147619D01*
X118895238Y-164242857D01*
X118895238Y-164480952D01*
X118942857Y-164576190D01*
X118990476Y-164623809D01*
X119085714Y-164671428D01*
X119276190Y-164671428D01*
X119371428Y-164623809D01*
X119419047Y-164576190D01*
X119466666Y-164480952D01*
X102990476Y-115912380D02*
X102990476Y-116626666D01*
X102942857Y-116769523D01*
X102847619Y-116864761D01*
X102704761Y-116912380D01*
X102609523Y-116912380D01*
X103990476Y-116912380D02*
X103419047Y-116912380D01*
X103704761Y-116912380D02*
X103704761Y-115912380D01*
X103609523Y-116055238D01*
X103514285Y-116150476D01*
X103419047Y-116198095D01*
X104942857Y-116912380D02*
X104371428Y-116912380D01*
X104657142Y-116912380D02*
X104657142Y-115912380D01*
X104561904Y-116055238D01*
X104466666Y-116150476D01*
X104371428Y-116198095D01*
X102233333Y-135052380D02*
X101757142Y-135052380D01*
X101757142Y-134052380D01*
X102519047Y-134147619D02*
X102566666Y-134100000D01*
X102661904Y-134052380D01*
X102900000Y-134052380D01*
X102995238Y-134100000D01*
X103042857Y-134147619D01*
X103090476Y-134242857D01*
X103090476Y-134338095D01*
X103042857Y-134480952D01*
X102471428Y-135052380D01*
X103090476Y-135052380D01*
X107233333Y-134152380D02*
X106757142Y-134152380D01*
X106757142Y-133152380D01*
X107471428Y-133152380D02*
X108090476Y-133152380D01*
X107757142Y-133533333D01*
X107900000Y-133533333D01*
X107995238Y-133580952D01*
X108042857Y-133628571D01*
X108090476Y-133723809D01*
X108090476Y-133961904D01*
X108042857Y-134057142D01*
X107995238Y-134104761D01*
X107900000Y-134152380D01*
X107614285Y-134152380D01*
X107519047Y-134104761D01*
X107471428Y-134057142D01*
X118357142Y-161352380D02*
X118023809Y-160876190D01*
X117785714Y-161352380D02*
X117785714Y-160352380D01*
X118166666Y-160352380D01*
X118261904Y-160400000D01*
X118309523Y-160447619D01*
X118357142Y-160542857D01*
X118357142Y-160685714D01*
X118309523Y-160780952D01*
X118261904Y-160828571D01*
X118166666Y-160876190D01*
X117785714Y-160876190D01*
X119309523Y-161352380D02*
X118738095Y-161352380D01*
X119023809Y-161352380D02*
X119023809Y-160352380D01*
X118928571Y-160495238D01*
X118833333Y-160590476D01*
X118738095Y-160638095D01*
X119642857Y-160352380D02*
X120309523Y-160352380D01*
X119880952Y-161352380D01*
X108257142Y-158752380D02*
X107923809Y-158276190D01*
X107685714Y-158752380D02*
X107685714Y-157752380D01*
X108066666Y-157752380D01*
X108161904Y-157800000D01*
X108209523Y-157847619D01*
X108257142Y-157942857D01*
X108257142Y-158085714D01*
X108209523Y-158180952D01*
X108161904Y-158228571D01*
X108066666Y-158276190D01*
X107685714Y-158276190D01*
X109209523Y-158752380D02*
X108638095Y-158752380D01*
X108923809Y-158752380D02*
X108923809Y-157752380D01*
X108828571Y-157895238D01*
X108733333Y-157990476D01*
X108638095Y-158038095D01*
X109780952Y-158180952D02*
X109685714Y-158133333D01*
X109638095Y-158085714D01*
X109590476Y-157990476D01*
X109590476Y-157942857D01*
X109638095Y-157847619D01*
X109685714Y-157800000D01*
X109780952Y-157752380D01*
X109971428Y-157752380D01*
X110066666Y-157800000D01*
X110114285Y-157847619D01*
X110161904Y-157942857D01*
X110161904Y-157990476D01*
X110114285Y-158085714D01*
X110066666Y-158133333D01*
X109971428Y-158180952D01*
X109780952Y-158180952D01*
X109685714Y-158228571D01*
X109638095Y-158276190D01*
X109590476Y-158371428D01*
X109590476Y-158561904D01*
X109638095Y-158657142D01*
X109685714Y-158704761D01*
X109780952Y-158752380D01*
X109971428Y-158752380D01*
X110066666Y-158704761D01*
X110114285Y-158657142D01*
X110161904Y-158561904D01*
X110161904Y-158371428D01*
X110114285Y-158276190D01*
X110066666Y-158228571D01*
X109971428Y-158180952D01*
X118157142Y-158652380D02*
X117823809Y-158176190D01*
X117585714Y-158652380D02*
X117585714Y-157652380D01*
X117966666Y-157652380D01*
X118061904Y-157700000D01*
X118109523Y-157747619D01*
X118157142Y-157842857D01*
X118157142Y-157985714D01*
X118109523Y-158080952D01*
X118061904Y-158128571D01*
X117966666Y-158176190D01*
X117585714Y-158176190D01*
X119109523Y-158652380D02*
X118538095Y-158652380D01*
X118823809Y-158652380D02*
X118823809Y-157652380D01*
X118728571Y-157795238D01*
X118633333Y-157890476D01*
X118538095Y-157938095D01*
X119585714Y-158652380D02*
X119776190Y-158652380D01*
X119871428Y-158604761D01*
X119919047Y-158557142D01*
X120014285Y-158414285D01*
X120061904Y-158223809D01*
X120061904Y-157842857D01*
X120014285Y-157747619D01*
X119966666Y-157700000D01*
X119871428Y-157652380D01*
X119680952Y-157652380D01*
X119585714Y-157700000D01*
X119538095Y-157747619D01*
X119490476Y-157842857D01*
X119490476Y-158080952D01*
X119538095Y-158176190D01*
X119585714Y-158223809D01*
X119680952Y-158271428D01*
X119871428Y-158271428D01*
X119966666Y-158223809D01*
X120014285Y-158176190D01*
X120061904Y-158080952D01*
X114957142Y-128252380D02*
X114623809Y-127776190D01*
X114385714Y-128252380D02*
X114385714Y-127252380D01*
X114766666Y-127252380D01*
X114861904Y-127300000D01*
X114909523Y-127347619D01*
X114957142Y-127442857D01*
X114957142Y-127585714D01*
X114909523Y-127680952D01*
X114861904Y-127728571D01*
X114766666Y-127776190D01*
X114385714Y-127776190D01*
X115338095Y-127347619D02*
X115385714Y-127300000D01*
X115480952Y-127252380D01*
X115719047Y-127252380D01*
X115814285Y-127300000D01*
X115861904Y-127347619D01*
X115909523Y-127442857D01*
X115909523Y-127538095D01*
X115861904Y-127680952D01*
X115290476Y-128252380D01*
X115909523Y-128252380D01*
X116528571Y-127252380D02*
X116623809Y-127252380D01*
X116719047Y-127300000D01*
X116766666Y-127347619D01*
X116814285Y-127442857D01*
X116861904Y-127633333D01*
X116861904Y-127871428D01*
X116814285Y-128061904D01*
X116766666Y-128157142D01*
X116719047Y-128204761D01*
X116623809Y-128252380D01*
X116528571Y-128252380D01*
X116433333Y-128204761D01*
X116385714Y-128157142D01*
X116338095Y-128061904D01*
X116290476Y-127871428D01*
X116290476Y-127633333D01*
X116338095Y-127442857D01*
X116385714Y-127347619D01*
X116433333Y-127300000D01*
X116528571Y-127252380D01*
X114657142Y-122452380D02*
X114323809Y-121976190D01*
X114085714Y-122452380D02*
X114085714Y-121452380D01*
X114466666Y-121452380D01*
X114561904Y-121500000D01*
X114609523Y-121547619D01*
X114657142Y-121642857D01*
X114657142Y-121785714D01*
X114609523Y-121880952D01*
X114561904Y-121928571D01*
X114466666Y-121976190D01*
X114085714Y-121976190D01*
X115038095Y-121547619D02*
X115085714Y-121500000D01*
X115180952Y-121452380D01*
X115419047Y-121452380D01*
X115514285Y-121500000D01*
X115561904Y-121547619D01*
X115609523Y-121642857D01*
X115609523Y-121738095D01*
X115561904Y-121880952D01*
X114990476Y-122452380D01*
X115609523Y-122452380D01*
X116561904Y-122452380D02*
X115990476Y-122452380D01*
X116276190Y-122452380D02*
X116276190Y-121452380D01*
X116180952Y-121595238D01*
X116085714Y-121690476D01*
X115990476Y-121738095D01*
X106957142Y-127952380D02*
X106623809Y-127476190D01*
X106385714Y-127952380D02*
X106385714Y-126952380D01*
X106766666Y-126952380D01*
X106861904Y-127000000D01*
X106909523Y-127047619D01*
X106957142Y-127142857D01*
X106957142Y-127285714D01*
X106909523Y-127380952D01*
X106861904Y-127428571D01*
X106766666Y-127476190D01*
X106385714Y-127476190D01*
X107338095Y-127047619D02*
X107385714Y-127000000D01*
X107480952Y-126952380D01*
X107719047Y-126952380D01*
X107814285Y-127000000D01*
X107861904Y-127047619D01*
X107909523Y-127142857D01*
X107909523Y-127238095D01*
X107861904Y-127380952D01*
X107290476Y-127952380D01*
X107909523Y-127952380D01*
X108290476Y-127047619D02*
X108338095Y-127000000D01*
X108433333Y-126952380D01*
X108671428Y-126952380D01*
X108766666Y-127000000D01*
X108814285Y-127047619D01*
X108861904Y-127142857D01*
X108861904Y-127238095D01*
X108814285Y-127380952D01*
X108242857Y-127952380D01*
X108861904Y-127952380D01*
X118657142Y-131852380D02*
X118323809Y-131376190D01*
X118085714Y-131852380D02*
X118085714Y-130852380D01*
X118466666Y-130852380D01*
X118561904Y-130900000D01*
X118609523Y-130947619D01*
X118657142Y-131042857D01*
X118657142Y-131185714D01*
X118609523Y-131280952D01*
X118561904Y-131328571D01*
X118466666Y-131376190D01*
X118085714Y-131376190D01*
X119514285Y-131185714D02*
X119514285Y-131852380D01*
X119276190Y-130804761D02*
X119038095Y-131519047D01*
X119657142Y-131519047D01*
X119942857Y-130852380D02*
X120561904Y-130852380D01*
X120228571Y-131233333D01*
X120371428Y-131233333D01*
X120466666Y-131280952D01*
X120514285Y-131328571D01*
X120561904Y-131423809D01*
X120561904Y-131661904D01*
X120514285Y-131757142D01*
X120466666Y-131804761D01*
X120371428Y-131852380D01*
X120085714Y-131852380D01*
X119990476Y-131804761D01*
X119942857Y-131757142D01*
X125157142Y-122152380D02*
X124823809Y-121676190D01*
X124585714Y-122152380D02*
X124585714Y-121152380D01*
X124966666Y-121152380D01*
X125061904Y-121200000D01*
X125109523Y-121247619D01*
X125157142Y-121342857D01*
X125157142Y-121485714D01*
X125109523Y-121580952D01*
X125061904Y-121628571D01*
X124966666Y-121676190D01*
X124585714Y-121676190D01*
X126014285Y-121485714D02*
X126014285Y-122152380D01*
X125776190Y-121104761D02*
X125538095Y-121819047D01*
X126157142Y-121819047D01*
X126966666Y-121485714D02*
X126966666Y-122152380D01*
X126728571Y-121104761D02*
X126490476Y-121819047D01*
X127109523Y-121819047D01*
X121557142Y-122252380D02*
X121223809Y-121776190D01*
X120985714Y-122252380D02*
X120985714Y-121252380D01*
X121366666Y-121252380D01*
X121461904Y-121300000D01*
X121509523Y-121347619D01*
X121557142Y-121442857D01*
X121557142Y-121585714D01*
X121509523Y-121680952D01*
X121461904Y-121728571D01*
X121366666Y-121776190D01*
X120985714Y-121776190D01*
X122414285Y-121585714D02*
X122414285Y-122252380D01*
X122176190Y-121204761D02*
X121938095Y-121919047D01*
X122557142Y-121919047D01*
X123414285Y-121252380D02*
X122938095Y-121252380D01*
X122890476Y-121728571D01*
X122938095Y-121680952D01*
X123033333Y-121633333D01*
X123271428Y-121633333D01*
X123366666Y-121680952D01*
X123414285Y-121728571D01*
X123461904Y-121823809D01*
X123461904Y-122061904D01*
X123414285Y-122157142D01*
X123366666Y-122204761D01*
X123271428Y-122252380D01*
X123033333Y-122252380D01*
X122938095Y-122204761D01*
X122890476Y-122157142D01*
X118457142Y-122152380D02*
X118123809Y-121676190D01*
X117885714Y-122152380D02*
X117885714Y-121152380D01*
X118266666Y-121152380D01*
X118361904Y-121200000D01*
X118409523Y-121247619D01*
X118457142Y-121342857D01*
X118457142Y-121485714D01*
X118409523Y-121580952D01*
X118361904Y-121628571D01*
X118266666Y-121676190D01*
X117885714Y-121676190D01*
X119314285Y-121485714D02*
X119314285Y-122152380D01*
X119076190Y-121104761D02*
X118838095Y-121819047D01*
X119457142Y-121819047D01*
X120266666Y-121152380D02*
X120076190Y-121152380D01*
X119980952Y-121200000D01*
X119933333Y-121247619D01*
X119838095Y-121390476D01*
X119790476Y-121580952D01*
X119790476Y-121961904D01*
X119838095Y-122057142D01*
X119885714Y-122104761D01*
X119980952Y-122152380D01*
X120171428Y-122152380D01*
X120266666Y-122104761D01*
X120314285Y-122057142D01*
X120361904Y-121961904D01*
X120361904Y-121723809D01*
X120314285Y-121628571D01*
X120266666Y-121580952D01*
X120171428Y-121533333D01*
X119980952Y-121533333D01*
X119885714Y-121580952D01*
X119838095Y-121628571D01*
X119790476Y-121723809D01*
X96857142Y-133152380D02*
X96523809Y-132676190D01*
X96285714Y-133152380D02*
X96285714Y-132152380D01*
X96666666Y-132152380D01*
X96761904Y-132200000D01*
X96809523Y-132247619D01*
X96857142Y-132342857D01*
X96857142Y-132485714D01*
X96809523Y-132580952D01*
X96761904Y-132628571D01*
X96666666Y-132676190D01*
X96285714Y-132676190D01*
X97714285Y-132485714D02*
X97714285Y-133152380D01*
X97476190Y-132104761D02*
X97238095Y-132819047D01*
X97857142Y-132819047D01*
X98142857Y-132152380D02*
X98809523Y-132152380D01*
X98380952Y-133152380D01*
X127638095Y-133852380D02*
X128209523Y-133852380D01*
X127923809Y-134852380D02*
X127923809Y-133852380D01*
X129114285Y-134852380D02*
X128780952Y-134376190D01*
X128542857Y-134852380D02*
X128542857Y-133852380D01*
X128923809Y-133852380D01*
X129019047Y-133900000D01*
X129066666Y-133947619D01*
X129114285Y-134042857D01*
X129114285Y-134185714D01*
X129066666Y-134280952D01*
X129019047Y-134328571D01*
X128923809Y-134376190D01*
X128542857Y-134376190D01*
X130066666Y-134852380D02*
X129495238Y-134852380D01*
X129780952Y-134852380D02*
X129780952Y-133852380D01*
X129685714Y-133995238D01*
X129590476Y-134090476D01*
X129495238Y-134138095D01*
X102338095Y-138552380D02*
X102909523Y-138552380D01*
X102623809Y-139552380D02*
X102623809Y-138552380D01*
X103814285Y-139552380D02*
X103480952Y-139076190D01*
X103242857Y-139552380D02*
X103242857Y-138552380D01*
X103623809Y-138552380D01*
X103719047Y-138600000D01*
X103766666Y-138647619D01*
X103814285Y-138742857D01*
X103814285Y-138885714D01*
X103766666Y-138980952D01*
X103719047Y-139028571D01*
X103623809Y-139076190D01*
X103242857Y-139076190D01*
X104195238Y-138647619D02*
X104242857Y-138600000D01*
X104338095Y-138552380D01*
X104576190Y-138552380D01*
X104671428Y-138600000D01*
X104719047Y-138647619D01*
X104766666Y-138742857D01*
X104766666Y-138838095D01*
X104719047Y-138980952D01*
X104147619Y-139552380D01*
X104766666Y-139552380D01*
X111938095Y-139472380D02*
X111938095Y-140281904D01*
X111985714Y-140377142D01*
X112033333Y-140424761D01*
X112128571Y-140472380D01*
X112319047Y-140472380D01*
X112414285Y-140424761D01*
X112461904Y-140377142D01*
X112509523Y-140281904D01*
X112509523Y-139472380D01*
X113033333Y-140472380D02*
X113223809Y-140472380D01*
X113319047Y-140424761D01*
X113366666Y-140377142D01*
X113461904Y-140234285D01*
X113509523Y-140043809D01*
X113509523Y-139662857D01*
X113461904Y-139567619D01*
X113414285Y-139520000D01*
X113319047Y-139472380D01*
X113128571Y-139472380D01*
X113033333Y-139520000D01*
X112985714Y-139567619D01*
X112938095Y-139662857D01*
X112938095Y-139900952D01*
X112985714Y-139996190D01*
X113033333Y-140043809D01*
X113128571Y-140091428D01*
X113319047Y-140091428D01*
X113414285Y-140043809D01*
X113461904Y-139996190D01*
X113509523Y-139900952D01*
X123561904Y-127102380D02*
X123561904Y-127911904D01*
X123609523Y-128007142D01*
X123657142Y-128054761D01*
X123752380Y-128102380D01*
X123942857Y-128102380D01*
X124038095Y-128054761D01*
X124085714Y-128007142D01*
X124133333Y-127911904D01*
X124133333Y-127102380D01*
X125133333Y-128102380D02*
X124561904Y-128102380D01*
X124847619Y-128102380D02*
X124847619Y-127102380D01*
X124752380Y-127245238D01*
X124657142Y-127340476D01*
X124561904Y-127388095D01*
X125752380Y-127102380D02*
X125847619Y-127102380D01*
X125942857Y-127150000D01*
X125990476Y-127197619D01*
X126038095Y-127292857D01*
X126085714Y-127483333D01*
X126085714Y-127721428D01*
X126038095Y-127911904D01*
X125990476Y-128007142D01*
X125942857Y-128054761D01*
X125847619Y-128102380D01*
X125752380Y-128102380D01*
X125657142Y-128054761D01*
X125609523Y-128007142D01*
X125561904Y-127911904D01*
X125514285Y-127721428D01*
X125514285Y-127483333D01*
X125561904Y-127292857D01*
X125609523Y-127197619D01*
X125657142Y-127150000D01*
X125752380Y-127102380D01*
X134390476Y-133342380D02*
X134390476Y-134056666D01*
X134342857Y-134199523D01*
X134247619Y-134294761D01*
X134104761Y-134342380D01*
X134009523Y-134342380D01*
X135390476Y-134342380D02*
X134819047Y-134342380D01*
X135104761Y-134342380D02*
X135104761Y-133342380D01*
X135009523Y-133485238D01*
X134914285Y-133580476D01*
X134819047Y-133628095D01*
X136009523Y-133342380D02*
X136104761Y-133342380D01*
X136200000Y-133390000D01*
X136247619Y-133437619D01*
X136295238Y-133532857D01*
X136342857Y-133723333D01*
X136342857Y-133961428D01*
X136295238Y-134151904D01*
X136247619Y-134247142D01*
X136200000Y-134294761D01*
X136104761Y-134342380D01*
X136009523Y-134342380D01*
X135914285Y-134294761D01*
X135866666Y-134247142D01*
X135819047Y-134151904D01*
X135771428Y-133961428D01*
X135771428Y-133723333D01*
X135819047Y-133532857D01*
X135866666Y-133437619D01*
X135914285Y-133390000D01*
X136009523Y-133342380D01*
X133890476Y-121942380D02*
X133890476Y-122656666D01*
X133842857Y-122799523D01*
X133747619Y-122894761D01*
X133604761Y-122942380D01*
X133509523Y-122942380D01*
X134890476Y-122942380D02*
X134319047Y-122942380D01*
X134604761Y-122942380D02*
X134604761Y-121942380D01*
X134509523Y-122085238D01*
X134414285Y-122180476D01*
X134319047Y-122228095D01*
X135366666Y-122942380D02*
X135557142Y-122942380D01*
X135652380Y-122894761D01*
X135700000Y-122847142D01*
X135795238Y-122704285D01*
X135842857Y-122513809D01*
X135842857Y-122132857D01*
X135795238Y-122037619D01*
X135747619Y-121990000D01*
X135652380Y-121942380D01*
X135461904Y-121942380D01*
X135366666Y-121990000D01*
X135319047Y-122037619D01*
X135271428Y-122132857D01*
X135271428Y-122370952D01*
X135319047Y-122466190D01*
X135366666Y-122513809D01*
X135461904Y-122561428D01*
X135652380Y-122561428D01*
X135747619Y-122513809D01*
X135795238Y-122466190D01*
X135842857Y-122370952D01*
X133290476Y-151404380D02*
X133290476Y-152118666D01*
X133242857Y-152261523D01*
X133147619Y-152356761D01*
X133004761Y-152404380D01*
X132909523Y-152404380D01*
X133719047Y-151499619D02*
X133766666Y-151452000D01*
X133861904Y-151404380D01*
X134100000Y-151404380D01*
X134195238Y-151452000D01*
X134242857Y-151499619D01*
X134290476Y-151594857D01*
X134290476Y-151690095D01*
X134242857Y-151832952D01*
X133671428Y-152404380D01*
X134290476Y-152404380D01*
X134909523Y-151404380D02*
X135004761Y-151404380D01*
X135100000Y-151452000D01*
X135147619Y-151499619D01*
X135195238Y-151594857D01*
X135242857Y-151785333D01*
X135242857Y-152023428D01*
X135195238Y-152213904D01*
X135147619Y-152309142D01*
X135100000Y-152356761D01*
X135004761Y-152404380D01*
X134909523Y-152404380D01*
X134814285Y-152356761D01*
X134766666Y-152309142D01*
X134719047Y-152213904D01*
X134671428Y-152023428D01*
X134671428Y-151785333D01*
X134719047Y-151594857D01*
X134766666Y-151499619D01*
X134814285Y-151452000D01*
X134909523Y-151404380D01*
M02*
