M48
; DRILL file {KiCad 5.1.5-52549c5~84~ubuntu18.04.1} date Sat 02 May 2020 14:22:01 ACST
; FORMAT={-:-/ absolute / metric / decimal}
; #@! TF.CreationDate,2020-05-02T14:22:01+09:30
; #@! TF.GenerationSoftware,Kicad,Pcbnew,5.1.5-52549c5~84~ubuntu18.04.1
; #@! TF.FileFunction,Plated,1,2,PTH
FMAT,2
METRIC
T1C0.200
T2C0.300
T3C0.400
T4C0.460
T5C1.999
T6C3.200
%
G90
G05
T1
X124.25Y-129.45
X124.25Y-130.75
X125.35Y-129.45
X125.35Y-130.75
T2
X111.95Y-135.95
X111.95Y-136.7
X111.95Y-137.45
X112.7Y-135.95
X112.7Y-136.7
X112.7Y-137.45
X113.45Y-135.95
X113.45Y-136.7
X113.45Y-137.45
T3
X93.8Y-110.7
X93.8Y-165.1
X93.9Y-113.4
X93.9Y-117.1
X93.9Y-121.0
X93.9Y-129.3
X93.9Y-131.3
X94.0Y-133.8
X94.1Y-127.2
X94.1Y-140.6
X94.1Y-146.1
X94.1Y-149.3
X94.1Y-152.6
X94.1Y-155.0
X94.1Y-161.7
X94.2Y-143.3
X94.2Y-158.2
X94.4Y-136.5
X94.8Y-168.1
X94.9Y-125.9
X95.1Y-139.2
X95.8Y-120.8
X96.1Y-124.9
X96.5Y-117.4
X96.6Y-110.6
X96.8Y-168.1
X97.3Y-123.5
X97.4Y-139.5
X97.79Y-147.32
X97.79Y-154.94
X98.7Y-122.1
X98.8Y-136.2
X99.0Y-168.1
X99.2Y-140.4
X99.2Y-142.2
X99.3Y-129.6
X99.3Y-143.8
X99.4Y-110.6
X100.1Y-120.8
X100.3Y-129.5
X100.33Y-160.02
X100.5Y-112.7
X101.1Y-142.3
X101.3Y-116.4
X101.3Y-127.7
X101.4Y-119.6
X101.4Y-144.3
X101.8Y-134.5
X101.9Y-168.2
X102.1Y-133.8
X102.4Y-129.5
X102.5Y-127.6
X102.7Y-114.2
X102.8Y-118.1
X102.8Y-126.4
X102.87Y-149.86
X103.0Y-139.5
X103.0Y-141.1
X103.2Y-143.0
X103.9Y-125.4
X104.0Y-116.6
X104.14Y-156.21
X104.2Y-112.8
X104.2Y-139.4
X104.3Y-114.6
X104.6Y-110.8
X104.6Y-126.6
X105.1Y-166.4
X105.1Y-168.0
X105.3Y-164.0
X105.6Y-123.4
X105.9Y-124.9
X106.0Y-139.5
X106.0Y-162.2
X107.1Y-123.8
X107.4Y-121.7
X107.5Y-139.4
X107.6Y-161.4
X107.7Y-142.3
X107.7Y-144.3
X108.2Y-127.6
X108.7Y-147.6
X108.8Y-123.1
X109.2Y-111.2
X109.2Y-120.6
X109.3Y-138.9
X109.3Y-141.4
X109.4Y-114.4
X109.7Y-145.8
X109.8Y-116.5
X109.8Y-158.7
X109.8Y-162.8
X109.8Y-166.6
X109.9Y-118.4
X110.1Y-160.9
X110.2Y-149.8
X110.2Y-154.2
X110.2Y-156.4
X110.3Y-147.6
X110.3Y-152.0
X110.5Y-124.9
X110.9Y-139.9
X111.1Y-123.1
X111.2Y-114.2
X111.6Y-116.5
X113.1Y-113.1
X113.1Y-122.9
X113.2Y-115.6
X113.4Y-111.0
X113.9Y-118.0
X114.2Y-166.2
X114.3Y-140.97
X114.4Y-163.0
X114.5Y-127.3
X114.6Y-120.0
X114.7Y-121.9
X114.7Y-131.0
X115.57Y-139.7
X115.57Y-143.51
X115.57Y-146.05
X115.57Y-148.59
X115.57Y-151.13
X115.57Y-153.67
X116.2Y-110.8
X116.2Y-155.9
X116.84Y-134.62
X117.8Y-161.1
X118.0Y-158.1
X118.0Y-162.7
X118.11Y-140.97
X118.5Y-166.5
X118.7Y-164.6
X118.7Y-168.1
X119.1Y-110.9
X119.38Y-120.65
X119.38Y-133.35
X119.38Y-146.05
X120.5Y-123.7
X120.65Y-115.57
X120.65Y-132.08
X120.65Y-140.97
X121.3Y-168.1
X121.92Y-133.35
X121.92Y-152.4
X121.92Y-158.75
X122.1Y-110.9
X122.9Y-132.4
X123.19Y-120.65
X123.19Y-140.97
X123.19Y-163.83
X124.0Y-134.3
X124.46Y-167.64
X124.8Y-132.2
X125.3Y-110.9
X125.73Y-113.03
X125.73Y-118.11
X125.73Y-133.35
X125.73Y-140.97
X127.0Y-134.62
X127.0Y-146.05
X127.0Y-153.67
X127.0Y-167.64
X128.27Y-115.57
X128.27Y-120.65
X128.27Y-140.97
X128.9Y-111.0
X129.4Y-137.6
X129.54Y-160.02
X129.54Y-167.64
X130.81Y-114.3
X130.81Y-125.73
X130.81Y-134.62
X130.81Y-140.97
X130.81Y-149.86
X132.0Y-110.9
X132.08Y-115.57
X132.08Y-118.11
X132.08Y-120.65
X132.08Y-123.19
X132.08Y-167.64
X132.9Y-129.6
X132.9Y-131.1
X133.35Y-134.62
X133.35Y-140.97
X133.35Y-146.05
X134.62Y-133.35
X134.62Y-158.75
X135.89Y-129.54
X135.89Y-142.24
X135.89Y-149.86
X135.89Y-167.64
X136.1Y-111.1
X137.1Y-120.4
X137.16Y-133.35
X137.2Y-118.6
X137.2Y-122.6
X138.43Y-127.0
X138.43Y-129.54
X138.43Y-132.08
X138.43Y-135.89
X138.43Y-138.43
X138.43Y-140.97
X138.43Y-143.51
X138.43Y-144.78
X138.43Y-147.32
X138.43Y-149.86
X138.43Y-151.13
X138.43Y-153.67
X138.43Y-156.21
X138.43Y-158.75
X138.43Y-161.29
X138.43Y-163.83
X138.43Y-166.37
X138.5Y-117.4
X138.5Y-123.7
X138.6Y-111.5
X138.6Y-120.4
X138.8Y-114.4
T4
X107.62Y-163.08
X116.38Y-163.08
T5
X134.7Y-126.3
X135.2Y-137.7
T6
X97.3Y-114.0
X97.3Y-165.0
X135.3Y-114.0
X135.3Y-165.0
T0
M30
