M48
; DRILL file {KiCad 5.1.5-52549c5~84~ubuntu18.04.1} date Sat 02 May 2020 14:29:38 ACST
; FORMAT={-:-/ absolute / metric / decimal}
; #@! TF.CreationDate,2020-05-02T14:29:38+09:30
; #@! TF.GenerationSoftware,Kicad,Pcbnew,5.1.5-52549c5~84~ubuntu18.04.1
; #@! TF.FileFunction,Plated,1,2,PTH
FMAT,2
METRIC
T1C0.200
T2C0.300
T3C0.400
T4C0.460
T5C1.000
T6C1.500
T7C1.700
T8C1.999
T9C3.200
%
G90
G05
T1
X112.8Y-54.475
X112.8Y-55.775
X113.9Y-54.475
X113.9Y-55.775
X75.7Y-74.7
X75.7Y-75.567
X75.7Y-76.433
X75.7Y-77.3
X76.567Y-74.7
X76.567Y-75.567
X76.567Y-76.433
X76.567Y-77.3
X77.433Y-74.7
X77.433Y-75.567
X77.433Y-76.433
X77.433Y-77.3
X78.3Y-74.7
X78.3Y-75.567
X78.3Y-76.433
X78.3Y-77.3
X196.65Y-89.25
X196.65Y-90.35
X197.95Y-89.25
X197.95Y-90.35
T2
X205.565Y-70.665
X205.565Y-72.875
X101.65Y-77.65
X101.65Y-78.4
X101.65Y-79.15
X102.4Y-77.65
X102.4Y-78.4
X102.4Y-79.15
X103.15Y-77.65
X103.15Y-78.4
X103.15Y-79.15
X180.52Y-70.665
X180.52Y-72.875
T3
X48.4Y-89.7
X50.6Y-89.7
X52.7Y-89.7
X54.6Y-89.7
X55.5Y-80.2
X55.5Y-82.2
X55.5Y-87.4
X55.6Y-60.6
X55.6Y-84.5
X55.6Y-91.9
X55.6Y-94.2
X55.7Y-63.3
X55.7Y-96.9
X55.7Y-99.7
X55.7Y-101.9
X56.1Y-89.7
X56.725Y-57.675
X58.2Y-101.9
X58.6Y-79.7
X58.7Y-69.5
X58.7Y-81.5
X58.9Y-72.4
X59.9Y-66.7
X60.5Y-65.2
X60.8Y-69.5
X60.8Y-102.0
X60.9Y-72.1
X60.9Y-79.4
X60.9Y-82.9
X61.1Y-62.3
X61.2Y-66.7
X61.6Y-85.5
X62.05Y-63.15
X62.4Y-88.9
X62.55Y-63.65
X62.6Y-61.2
X63.6Y-102.0
X65.4Y-92.7
X65.5Y-96.5
X65.9Y-61.6
X66.1Y-102.0
X66.9Y-88.1
X67.1Y-82.7
X67.4Y-90.9
X67.6Y-85.7
X68.025Y-82.4
X68.1Y-88.1
X68.4Y-90.9
X68.7Y-66.6
X69.0Y-71.5
X69.0Y-92.7
X69.6Y-90.9
X69.8Y-77.5
X69.8Y-61.8
X70.0Y-101.9
X70.3Y-52.3
X70.475Y-54.425
X71.9Y-50.7
X72.0Y-65.2
X72.3Y-82.3
X72.9Y-92.4
X73.0Y-83.0
X73.0Y-84.3
X73.2Y-77.6
X73.3Y-87.1
X73.4Y-102.0
X73.9Y-48.9
X74.1Y-97.6
X74.7Y-85.3
X75.0Y-86.6
X75.25Y-71.95
X75.3Y-47.4
X75.7Y-92.2
X76.8Y-101.8
X77.8Y-71.9
X78.8Y-60.0
X78.9Y-67.1
X79.1Y-92.2
X79.125Y-70.625
X79.7Y-47.5
X79.8Y-101.8
X80.4Y-58.3
X80.8Y-62.3
X81.6Y-76.3
X82.2Y-92.4
X82.7Y-101.8
X83.5Y-66.1
X84.3Y-47.7
X84.4Y-89.3
X84.6Y-60.0
X85.3Y-79.2
X85.3Y-80.2
X85.3Y-92.3
X85.7Y-53.2
X85.8Y-50.1
X85.8Y-97.2
X85.9Y-101.7
X86.0Y-61.0
X86.0Y-87.3
X86.2Y-75.3
X86.3Y-69.8
X86.4Y-72.5
X87.0Y-66.6
X88.1Y-47.6
X88.6Y-101.9
X88.9Y-87.0
X89.0Y-58.2
X89.3Y-63.7
X90.1Y-67.0
X90.1Y-79.3
X90.1Y-80.2
X90.2Y-52.0
X91.3Y-69.4
X91.7Y-72.5
X91.7Y-101.8
X92.2Y-87.0
X93.0Y-47.4
X93.0Y-77.4
X93.1Y-55.3
X93.4Y-62.8
X93.8Y-85.1
X94.2Y-92.1
X94.4Y-101.8
X94.5Y-49.8
X94.7Y-54.7
X94.8Y-74.5
X95.0Y-68.6
X95.8Y-60.5
X96.2Y-84.4
X96.6Y-96.5
X96.6Y-99.0
X96.7Y-101.7
X97.3Y-65.9
X97.5Y-45.3
X97.8Y-69.5
X98.1Y-62.1
X98.3Y-47.8
X98.3Y-56.3
X98.4Y-73.4
X98.4Y-80.4
X98.4Y-94.6
X98.8Y-76.4
X98.9Y-45.3
X99.0Y-82.9
X99.0Y-85.9
X99.3Y-98.6
X99.4Y-50.5
X99.4Y-101.0
X99.6Y-81.2
X99.6Y-84.3
X99.7Y-54.5
X100.0Y-75.3
X100.1Y-45.3
X100.1Y-87.1
X100.2Y-88.9
X100.5Y-90.9
X100.7Y-95.7
X100.9Y-47.3
X101.5Y-98.6
X101.6Y-93.5
X101.6Y-101.9
X101.7Y-96.6
X102.0Y-52.7
X102.0Y-95.1
X102.6Y-57.2
X103.7Y-45.9
X103.8Y-47.7
X103.8Y-49.5
X104.1Y-56.3
X104.2Y-74.9
X104.8Y-50.9
X105.0Y-75.8
X105.0Y-81.5
X105.15Y-90.95
X105.5Y-89.4
X105.5Y-92.5
X105.6Y-49.7
X105.8Y-96.1
X105.9Y-87.2
X105.9Y-93.8
X105.9Y-101.5
X106.0Y-98.7
X106.1Y-84.5
X106.3Y-85.8
X106.5Y-83.0
X106.6Y-55.8
X106.6Y-59.6
X106.7Y-79.8
X107.6Y-71.8
X107.9Y-66.0
X108.0Y-98.7
X108.1Y-100.9
X108.5Y-83.6
X108.5Y-86.7
X109.3Y-90.8
X109.7Y-50.2
X109.7Y-79.6
X111.3Y-83.3
X111.5Y-57.5
X111.6Y-51.6
X111.8Y-81.3
X111.9Y-77.9
X112.4Y-49.5
X112.5Y-46.0
X112.5Y-47.7
X112.9Y-52.5
X113.2Y-67.6
X113.3Y-70.0
X113.8Y-95.5
X114.4Y-51.2
X114.9Y-57.5
X115.1Y-101.4
X115.9Y-74.4
X116.0Y-86.6
X116.2Y-67.2
X116.5Y-64.2
X116.6Y-60.9
X117.1Y-80.7
X117.2Y-53.7
X118.6Y-45.3
X118.7Y-57.7
X118.8Y-47.5
X119.9Y-45.3
X120.0Y-95.0
X120.4Y-50.6
X120.5Y-86.5
X120.7Y-90.3
X120.8Y-53.7
X120.9Y-80.7
X121.1Y-45.3
X121.7Y-47.6
X122.2Y-50.8
X122.2Y-90.3
X122.4Y-101.5
X122.5Y-63.3
X122.5Y-71.6
X122.6Y-57.9
X123.0Y-67.0
X123.6Y-90.3
X123.7Y-95.5
X125.4Y-69.8
X125.8Y-86.8
X126.0Y-45.7
X126.2Y-56.1
X126.4Y-51.2
X126.4Y-59.5
X126.8Y-63.9
X126.9Y-83.0
X127.1Y-75.1
X129.4Y-94.4
X129.7Y-45.5
X129.7Y-71.3
X129.8Y-65.7
X131.6Y-101.5
X131.8Y-82.6
X133.4Y-63.4
X133.8Y-89.3
X134.4Y-71.0
X134.5Y-45.3
X136.4Y-60.6
X137.1Y-67.6
X138.6Y-77.2
X140.0Y-58.4
X140.2Y-102.0
X140.5Y-45.2
X140.8Y-64.4
X140.8Y-94.2
X142.0Y-85.6
X144.6Y-62.9
X144.7Y-58.2
X145.6Y-78.8
X146.0Y-45.3
X146.0Y-101.2
X148.3Y-89.9
X148.7Y-58.1
X149.2Y-62.7
X151.5Y-51.5
X151.9Y-63.6
X152.4Y-70.4
X153.4Y-45.2
X153.5Y-101.4
X154.3Y-58.3
X155.1Y-63.0
X156.5Y-83.2
X159.4Y-45.7
X159.4Y-58.1
X159.8Y-62.9
X160.9Y-101.6
X163.8Y-45.0
X164.8Y-70.6
X164.8Y-75.2
X164.8Y-81.4
X165.1Y-66.8
X165.3Y-64.3
X165.3Y-87.9
X166.0Y-63.1
X166.6Y-91.5
X166.7Y-71.0
X167.2Y-73.1
X167.5Y-66.5
X167.8Y-45.3
X168.0Y-68.9
X168.2Y-91.5
X168.5Y-63.6
X168.6Y-101.9
X168.7Y-74.8
X169.3Y-88.7
X169.4Y-91.5
X170.1Y-66.3
X170.4Y-64.9
X170.8Y-91.5
X171.1Y-68.0
X171.4Y-75.6
X172.6Y-89.4
X172.8Y-68.5
X173.3Y-75.0
X174.2Y-68.5
X174.8Y-45.3
X175.9Y-101.5
X176.3Y-74.9
X176.4Y-68.5
X177.0Y-89.6
X178.6Y-91.9
X178.7Y-68.8
X179.1Y-74.7
X180.0Y-91.9
X180.2Y-52.5
X180.3Y-68.8
X180.9Y-89.0
X181.2Y-91.9
X181.8Y-69.5
X182.0Y-91.9
X182.4Y-45.1
X182.5Y-75.0
X182.9Y-101.5
X183.3Y-79.1
X183.3Y-83.7
X183.4Y-81.4
X183.5Y-76.3
X183.7Y-74.0
X183.8Y-69.1
X184.2Y-89.1
X184.6Y-67.2
X186.1Y-58.5
X186.4Y-84.2
X187.3Y-67.1
X187.7Y-79.4
X189.1Y-45.1
X189.2Y-101.8
X189.6Y-67.3
X190.5Y-87.1
X191.25Y-89.25
X191.6Y-66.8
X192.2Y-89.9
X192.5Y-79.9
X193.32Y-69.4
X193.32Y-71.94
X193.32Y-73.21
X193.32Y-74.48
X193.4Y-76.7
X193.8Y-66.8
X194.3Y-52.6
X195.2Y-45.2
X195.6Y-72.1
X195.8Y-59.7
X196.3Y-74.7
X196.6Y-66.6
X196.8Y-71.7
X196.95Y-81.75
X198.05Y-81.75
X199.3Y-67.3
X199.3Y-74.9
X201.9Y-45.5
X201.9Y-74.9
X202.0Y-67.4
X203.0Y-93.3
X203.3Y-69.5
X203.7Y-74.1
X204.4Y-56.9
X205.8Y-68.6
X206.5Y-74.6
X207.5Y-66.7
X207.9Y-63.7
X208.46Y-61.61
X208.46Y-80.66
X208.5Y-101.8
X208.9Y-67.2
X209.0Y-75.3
X209.73Y-61.61
X209.73Y-80.66
X210.6Y-44.9
X210.7Y-63.3
X211.3Y-85.7
X211.4Y-52.1
X211.5Y-101.2
X213.3Y-74.8
X213.4Y-63.5
X213.8Y-67.0
X215.4Y-94.3
X215.9Y-44.7
X216.6Y-63.5
X216.6Y-67.1
X216.7Y-75.2
X218.4Y-75.1
X218.8Y-67.2
X219.7Y-100.6
X220.7Y-69.2
X220.7Y-74.5
X221.4Y-52.0
X222.1Y-87.0
X223.1Y-44.9
X223.2Y-69.3
X223.4Y-74.4
X225.6Y-100.9
X228.7Y-45.5
X231.6Y-88.9
X231.7Y-94.5
X231.8Y-83.9
X232.1Y-65.1
X232.3Y-51.9
X232.3Y-101.6
X232.5Y-59.0
X232.7Y-78.7
T4
X99.32Y-96.76
X108.08Y-96.76
T5
X43.5Y-61.04
X43.5Y-63.58
X43.5Y-66.12
X43.5Y-68.66
X43.5Y-71.2
X43.5Y-73.74
X43.5Y-76.28
X43.5Y-78.82
X43.5Y-81.36
X43.5Y-83.9
T6
X228.6Y-72.0
T7
X226.06Y-69.46
X226.06Y-74.54
X231.14Y-69.46
X231.14Y-74.54
T8
X170.3Y-71.6
X170.5Y-60.6
T9
X58.5Y-47.77
X58.5Y-98.77
X132.5Y-47.77
X132.5Y-98.77
X170.5Y-47.77
X170.5Y-98.77
X229.5Y-47.77
X229.5Y-98.77
T0
M30
